<svg id="Layer_1" data-name="Layer 1" xmlns="http://www.w3.org/2000/svg" viewBox="0 0 256 256"><defs><style>.cls-1{fill:none;}.cls-1,.cls-2,.cls-3{stroke:#000;stroke-miterlimit:10;}.cls-1,.cls-3{stroke-width:2px;}.cls-3{fill:#fff;}</style></defs><title>why us</title><path d="M222.23,102.72H181.77a1.77,1.77,0,0,0-1.77,1.77v57a1.77,1.77,0,0,0,1.77,1.77h40.45a1.77,1.77,0,0,0,1.77-1.77v-57A1.77,1.77,0,0,0,222.23,102.72Zm-31.58,48.14a2.37,2.37,0,1,1,2.37-2.37A2.37,2.37,0,0,1,190.65,150.86Zm0-10.17a2.37,2.37,0,1,1,2.37-2.37A2.37,2.37,0,0,1,190.65,140.69Zm0-10.17a2.37,2.37,0,1,1,2.37-2.37A2.37,2.37,0,0,1,190.65,130.52Zm2.48-15.38a1.77,1.77,0,0,1,1.77-1.77H209.1a1.77,1.77,0,0,1,0,3.55H194.9A1.77,1.77,0,0,1,193.13,115.14Zm20.82,35.13H198.33a1.77,1.77,0,0,1,0-3.55h15.61a1.77,1.77,0,0,1,0,3.55Zm0-10.17H198.33a1.77,1.77,0,0,1,0-3.55h15.61a1.77,1.77,0,0,1,0,3.55Zm0-10.17H198.33a1.77,1.77,0,0,1,0-3.55h15.61a1.77,1.77,0,0,1,0,3.55Z"/><path class="cls-1" d="M59.77,202s26-18.54,111.23,11.12"/><path class="cls-2" d="M149.15,109.37c-.27,0,0-3-1.53-7.36a7.38,7.38,0,0,0-1.86-3c-.92-.87-2.12-.32-2.87.94-1.51,2.48-2,6-2.05,9.44s.54,7,2.05,9.45c.76,1.26,2,1.81,2.88.94a7.38,7.38,0,0,0,1.86-3c1.5-4.36,1.26-7.39,1.53-7.36a5.67,5.67,0,0,1,.16,2.06,19.71,19.71,0,0,1-.88,5.58,8,8,0,0,1-2,3.51,2.5,2.5,0,0,1-2.48.58,4.08,4.08,0,0,1-2-1.67c-1.79-2.85-2.28-6.42-2.34-10.07s.55-7.21,2.34-10.06a4.08,4.08,0,0,1,2-1.67,2.5,2.5,0,0,1,2.48.58,8,8,0,0,1,2,3.51,19.71,19.71,0,0,1,.88,5.58A5.68,5.68,0,0,1,149.15,109.37Z"/><path d="M72.13,152.28c-8.43-14.24-10.84-33.22-13-49.63-1-7.72-2.77-18.72,2.67-23.55,5.82-5.18,6.38-13.16,13.07-17.15s15.76-4.33,22.06.25"/><path class="cls-3" d="M95.49,195.31h0c12.48.19,19,7.6,19.9-14.64.52-12.44,5.72-24.8,5.72-24.8s18.86-1.71,20.28-20.36.92-61.73.92-61.73h0a65,65,0,0,0-65.72,4l1,65.67-.1,35.33C77.55,190.66,83.67,194.37,95.49,195.31Z"/><path d="M122.86,112.67c-3.21-4-8.44-5.6-12.74-2.82a10.85,10.85,0,0,0-3.65,13.55,14.29,14.29,0,0,0,9.13,6.95,7.16,7.16,0,0,1,5.59,7.73c-.55,4.68-8.35,6.42-11.87,10.28-5.49,6-17.5,8.53-25.58,9.46s-7,1-11.59-5.55c-3.35-4.76-4.39-9.34-4.49-15.16L66.9,95.84c-.09-5-.17-10,1-14.81s3.69-9.51,7.85-12.22c4.55-3,10.3-3.21,15.47-4.87,6.47-2.07,12-6.34,18-9.42s13.47-4.9,19.53-1.84c4.35,2.2,7.26,6.56,11.49,9,6,3.45,14.24,2.69,17.14,11.57a15,15,0,0,1-.13,9.49c-4.13,12.06-19.09,16.88-29.84,11.63-.22,2,1.78,6.6-.39,13.05-.69,2.06-.95,5.21-4.17,5.26"/><path class="cls-2" d="M148.19,108.47c.05.33-5.57,1.53-12.55,2.67s-15.09,2.69-15.14,2.36,8-2.41,14.95-3.55S148.14,108.14,148.19,108.47Z"/><path d="M73.63,170.48c.93,2.38,4,3.27,6.49,2.6s4.42-2.49,6.27-4.25,3.77-3.6,6.21-4.34c5-1.51,11.07,1.81,15.25-1.28,3.81-2.81,3.31-9.18,7.06-12.08,2-1.54,4.76-1.74,6.78-3.23,3.78-2.8,3.16-9,0-12.5s-8-4.87-12.49-6.13L69.08,146.36Z"/><path d="M74.7,72.11c1.19,4.38-2.89,8.12-6.45,9.15s-7.87,1.69-9.5,5.84c-1.41,3.6,0,8.17-1.27,11.85-2.45,7-12.34,5.53-14.28,12.78-1.33,5,2.35,10.1,1.89,15.32-.4,4.5-3.64,7.56-6.48,10.28s-5.84,6.48-5.39,11c.52,5.18,5.5,8.77,5,14s-5.88,7.49-6.66,12.54c-.93,6,5,9.84,6.87,15.44,1.45,4.28.56,9.8,3,13.27s7,2.86,10.64,1.87c8.33-2.24,15.22,3.88,24.62,3.32a14.51,14.51,0,0,0,13.42-16.06c-.73-7.15-.33-15.34,2-19.76,3.53-6.63,8.24-12.23,11.28-19.25s4-16.41.06-22.63"/></svg>