<svg xmlns="http://www.w3.org/2000/svg" xmlns:xlink="http://www.w3.org/1999/xlink" viewBox="0 0 800 800"><defs><style>.cls-1{fill:none;}.cls-2{isolation:isolate;}.cls-3{clip-path:url(#clip-path);}.cls-4,.cls-8{fill:#fff;}.cls-5{fill:#259aff;mix-blend-mode:multiply;}.cls-6{fill:url(#Gradiente_sem_nome_20);}.cls-7,.cls-9{fill:#5565ff;}.cls-7,.cls-8,.cls-9{stroke:#000;stroke-miterlimit:10;}.cls-7,.cls-8{stroke-width:2px;}</style><clipPath id="clip-path"><circle class="cls-1" cx="398" cy="398" r="350"/></clipPath><linearGradient id="Gradiente_sem_nome_20" x1="503.67" y1="595.68" x2="505.31" y2="386.69" gradientUnits="userSpaceOnUse"><stop offset="0" stop-color="#001462"/><stop offset="0.07" stop-color="#081e71"/><stop offset="0.25" stop-color="#193595"/><stop offset="0.44" stop-color="#2748b0"/><stop offset="0.62" stop-color="#3055c4"/><stop offset="0.81" stop-color="#365cd0"/><stop offset="1" stop-color="#385fd4"/></linearGradient></defs><title>workflow svg</title><g class="cls-2"><g id="Layer_1" data-name="Layer 1"><g class="cls-3"><circle class="cls-4" cx="398" cy="398" r="350"/><path d="M601.59,450.25l.66.32,1.19.6c.78.4,1.48.8,2.21,1.21q2.11,1.22,4.09,2.52a90.11,90.11,0,0,1,7.52,5.51,103.32,103.32,0,0,1,13.12,12.73,115,115,0,0,1,10.71,14.57,128.11,128.11,0,0,1,8.27,15.88,139.05,139.05,0,0,1,6,16.67c.74,2.83,1.57,5.65,2.14,8.51l.93,4.27.74,4.29a178.66,178.66,0,0,1,2.23,21.15l.47-26.76A130.81,130.81,0,0,0,657,512.18c-3.61-11.48-9-24.79-15-39.2-4.92-11.78-9.12-22.14-13-30.55s-7.81-14.63-11-18c3.19,3.31,9.24,7.64,15.72,14.83a103,103,0,0,1,18.73,29.31,137.74,137.74,0,0,1,9.93,40l1-57.71a51.92,51.92,0,0,0-5-11.6c-3.69-6.61-8.82-14-14-22.38a144.75,144.75,0,0,1-9.52-19.07c-2.33-5.58-4.23-10-5.82-12.43,1.6,2.47,5.68,5.08,10.34,9.07A68,68,0,0,1,653.93,411a71.68,71.68,0,0,1,9.59,26l.39-22.1c-1.37-10.22-4.38-25.63-4.06-43.4.34-19,6.22-33.16,6.34-39.88-.12,6.72,5.26,21,4.92,40.08-.32,17.77-3.87,33.08-5.6,43.24l-.43,24.08a154.08,154.08,0,0,1,12.33-43.42,121.58,121.58,0,0,1,20.9-31.32c7.07-7.71,13.5-12.55,17.33-15.76-3.89,3.27-8.2,10-12.71,19s-9.44,20.17-15.28,32.79c-7,15.5-13.17,29.82-17.37,42.2a138.47,138.47,0,0,0-5.64,21.24L664,500.94q.86-6.9,2.18-13.67a222.39,222.39,0,0,1,8-29.65,256.36,256.36,0,0,1,11.57-28.26c2.2-4.61,4.62-9.15,7.17-13.67a132.7,132.7,0,0,1,8.94-13.61c-4.14,5.39-4.79,11.07-4.4,16.55a45.18,45.18,0,0,0,1.58,8c.77,2.58,1.68,5,2.55,7.31,1.29,3.29,1,5.76-.11,7.8a18.28,18.28,0,0,1-5,5.32c-3.83,3.2-7.88,6.21-5.17,10.78s5.85,8.8,5.5,13.67a14.28,14.28,0,0,1-3.48,8.11c-2.23,3.07-6,6.5-11.26,11a62.49,62.49,0,0,0-8.74,9,77.91,77.91,0,0,0-6.11,9c-1.57,2.79-2.64,5.25-3.42,7l-.09.21L663,558.24c.17-.95,5.33-27.65,21.51-42.19,15.2-13.66,29.24-17.84,32.94-19.81-3.74,2-25.25,27.61-32.29,36.44-10.86,13.63-21.74,16.34-22.08,35.49v0l-.91,1.55-.93-2.42a26,26,0,0,0-1.22-4.93,32.73,32.73,0,0,0-4.26-7.83,49.11,49.11,0,0,0-5.82-6.4c-2.12-1.91-4.28-3.6-6.31-5.14-3-2.2-4.21-4.55-4.55-7.07s.2-5.18.64-7.81c.25-1.32.52-2.64.7-3.92a15.94,15.94,0,0,0,.07-3.61,5.72,5.72,0,0,0-3.84-5.13c-5.08-2-10.35-3.17-13.56-7a12.06,12.06,0,0,1-2.11-3.49,22.41,22.41,0,0,1-1.44-4.93c-.72-3.91-1-9-1.54-16.35a51.67,51.67,0,0,0-8.37-24c-4-6.14-8.2-9.57-8.91-9.84Z"/><path d="M202.13,433.67l-.61.39-1.11.74c-.73.49-1.37,1-2.05,1.45q-2,1.46-3.77,3a90.11,90.11,0,0,0-6.82,6.35,103.32,103.32,0,0,0-11.55,14.17,115,115,0,0,0-8.95,15.71,128.11,128.11,0,0,0-6.37,16.73,139.05,139.05,0,0,0-4,17.25c-.41,2.9-.91,5.8-1.14,8.7l-.42,4.35-.24,4.35a178.66,178.66,0,0,0,.24,21.27l-3.58-26.53a130.81,130.81,0,0,1,2.59-20c2.25-11.82,6.07-25.67,10.36-40.68,3.52-12.27,6.49-23,9.39-31.86s6.06-15.44,8.89-19.13c-2.79,3.66-8.29,8.66-13.9,16.56a103,103,0,0,0-15.2,31.29,137.74,137.74,0,0,0-5.22,40.86l-7.72-57.2a51.92,51.92,0,0,1,3.64-12.1c2.9-7,7.14-14.88,11.26-23.85a144.75,144.75,0,0,0,7.24-20c1.67-5.81,3-10.39,4.34-13-1.3,2.64-5.05,5.7-9.22,10.21a68,68,0,0,0-12.6,18.16,71.68,71.68,0,0,0-6.51,27l-3-21.91c.18-10.31,1.37-26-1-43.58-2.54-18.86-10-32.21-10.93-38.87.9,6.66-2.78,21.52-.24,40.38,2.38,17.61,7.68,32.4,10.58,42.29l3.22,23.86a154.08,154.08,0,0,0-17.29-41.7,121.58,121.58,0,0,0-24.39-28.68c-7.92-6.84-14.87-10.89-19-13.64,4.24,2.8,9.31,9,14.83,17.38s11.72,18.94,19,30.8c8.76,14.58,16.54,28.09,22.15,39.89a138.47,138.47,0,0,1,8.07,20.44l5,36.83q-1.65-6.75-3.75-13.32a222.39,222.39,0,0,0-11.36-28.52,256.36,256.36,0,0,0-14.77-26.73c-2.72-4.32-5.65-8.55-8.71-12.75A132.7,132.7,0,0,0,97,397.47c4.74,4.87,6,10.44,6.29,15.93a45.18,45.18,0,0,1-.65,8.12c-.47,2.65-1.08,5.19-1.68,7.56-.9,3.42-.36,5.84,1,7.74a18.28,18.28,0,0,0,5.54,4.71c4.17,2.73,8.54,5.25,6.39,10.1S109.09,461,110,465.83a14.28,14.28,0,0,0,4.4,7.65c2.58,2.79,6.69,5.77,12.46,9.59a62.49,62.49,0,0,1,9.73,7.89,77.91,77.91,0,0,1,7.11,8.24c1.88,2.59,3.24,4.91,4.2,6.55l.12.2,5.68,42.12c-.28-.92-8.5-26.85-26.26-39.41-16.68-11.8-31.11-14.32-35-15.85,3.94,1.53,28.29,24.49,36.3,32.45,12.37,12.28,23.49,13.71,26,32.69v0l1.09,1.43.65-2.51a26,26,0,0,1,.64-5,32.73,32.73,0,0,1,3.32-8.27,49.11,49.11,0,0,1,5-7c1.89-2.14,3.84-4.07,5.67-5.84,2.72-2.53,3.65-5,3.69-7.55s-.8-5.12-1.55-7.69c-.4-1.28-.82-2.56-1.15-3.81a15.94,15.94,0,0,1-.49-3.58,5.72,5.72,0,0,1,3.22-5.54c4.81-2.58,9.91-4.35,12.65-8.57a12.06,12.06,0,0,0,1.69-3.71,22.41,22.41,0,0,0,.85-5.06c.26-4,0-9.09-.37-16.42A51.67,51.67,0,0,1,195.26,444c3.27-6.56,7-10.46,7.7-10.81Z"/><rect x="62.88" y="563.77" width="670.25" height="3.93" transform="translate(783.58 1140.01) rotate(-178.75)"/><rect id="_Rectangle_" data-name="&lt;Rectangle&gt;" class="cls-5" x="191.5" y="452.74" width="11.56" height="15.07" rx="2.87" ry="2.87"/><path id="_Rectangle_2" data-name="&lt;Rectangle&gt;" class="cls-5" d="M194.37,472.17h5.81a2.87,2.87,0,0,1,2.87,2.87v5.81a2.87,2.87,0,0,1-2.87,2.87h-5.81a2.88,2.88,0,0,1-2.87-2.87V475A2.87,2.87,0,0,1,194.37,472.17Z"/><path d="M564.36,409.65c8.74,28.1,38.94,42.38,36,84.3-2.39,33.63-16.74,77.35-16.74,77.35l-81-3.6s23.23-71.42,23.23-80.88-14.58-58.07-14.58-58.07Z"/><path d="M429.26,337.14c-.42,34.53-4.55,84.5-4.55,84.5s34.23,1,33.19,0,0-47.65,0-47.65l-24.33-39.2C432.47,333.13,429.29,335.16,429.26,337.14Z"/><path class="cls-6" d="M493.29,431.7c2.83,19.2,1.06,41.07,0,49.34s-25.4,82.13-25.4,82.13h59.34s14.6-53.14,13.18-73.07c-1.13-15.86-18.52-65-18.52-65Z"/><path class="cls-7" d="M493.29,431.85c2.83,19.64.21,46.15-.84,54.6S463,567,463,567h64.2s14.62-54.84,13.18-75.39c-1.14-16.22-18.52-66.44-18.52-66.44Z"/><path class="cls-8" d="M454.43,317.29c-8.74,4.17-1.42,9.92-11.87,26-1.09,1.67-3.34,6.49-2.23,20.64.83,10.51,2.28,20.28,27.31,37.32s24.26,21.59,25.4,30.3,71.57,6.82,70.44-25.75.66-70.18-20.31-87.92S454.43,317.29,454.43,317.29Z"/><path d="M428.88,254.66c-13.25,23.19,0,97.76,0,97.76s36.66-15.33,35.18-37.68c-1.24-18.59-16-60.08-16-60.08S431.25,250.51,428.88,254.66Z"/><path d="M453.81,313.32s7.92,7.64,6.33,10.94c-3.54,7.32-11.48,19.25-7.67,31.34,6.05,19.18,30.54,10.57,34.21-.71,1.39-4.27,8.94-19.47,8.94-19.47L482,292.76Z"/><path class="cls-8" d="M463.11,316.21c1.24,2.13,1,4,.28,6.34-12.85,43.41,15.26,38.1.7,40.24l.12,0,1.74.19c.4,0,.85.24,1.2,0,6.51-3.6,8.32-5.76,10.2-9.68,1.3-2.7,4.16-20.36,4.56-23.59a7.57,7.57,0,0,0,.06-1V307.79a7.63,7.63,0,0,0-12.13-6.17l-10.48,7.65c-3.12,2.28,1.79,3.61,3.74,6.95Z"/><path class="cls-8" d="M433,251.87c-4.85,30.07.48,57.8,15,61.08s35.29-12.58,35.29-26.57,14-50.45-1.93-58.77S436.11,232.7,433,251.87Z"/><path d="M445.21,249.17a127.65,127.65,0,0,1-13.13,9.66c-5.56,3.3-4.2-15.77,6.57-24.73s24.87-16.59,30.59-11.44c0,0,17.92-5,28.79,13.35s11.63,34.71,15.06,39.28,7.65,5.23,10.32,14.25c0,0,9,0,18.09,11.11a33.09,33.09,0,0,1,7.34,21s-8.36-9.36-19.64-8.36c-4.89.43-4.68,8-18.22,7.35-7-.35-17.8,17.09-21.85,28.16-.69,1.9-10.74-.79-10.75-2.81l-.57-74S446.81,268.1,445.21,249.17Z"/><path d="M271.2,408.93c-36,37.52-67.06,152-67.06,152h51.72l32.33-76Z"/><path d="M458.84,415.13c-7.54-8.57-47.69-36.75-98.88-33.69-45.14,2.7-81.65,16.64-88.76,27.49-5.21,7.93,6.2,61.47,14.13,82.79a187,187,0,0,1,11.4,63.46s127.66-.74,128.4,0S441,508.08,443,484.29,440.49,434.22,458.84,415.13Z"/><path class="cls-8" d="M389.76,337s.64,39.67,0,51.52-19,22.5-25.8,22.8-21.91-9.77-24.28-26.65V348.86Z"/><path d="M390,358.58c-.08-11.5-.24-21.55-.24-21.55l-50.08,11.84v29.38c4.17,18.36,31.87,13.34,38.46-4.06C381.92,364.21,385.15,361.25,390,358.58Z"/><path class="cls-8" d="M326.4,321.61c1.88,29.07,13.73,57.21,32.5,54.24,23.28-3.68,30.35-39,29.43-58.24s-11.89-31.27-28.58-31.29C343.87,286.3,324.81,297,326.4,321.61Z"/><path class="cls-8" d="M393.8,331.29c-1.25,5.8-4.07,10.19-6.3,9.82s-3-5.37-1.79-11.17,4.07-10.19,6.3-9.82S395,325.49,393.8,331.29Z"/><path d="M326.78,326.16c-3.55-5.43-3.79-7.56-3.53-16.58s7.87-9.33,7.71-13.18,4.75-14.2,24.82-15,18.86,8.37,25.08,9,15.85,7,11.16,29.79c0,0-5.46.52-7.6,11.55a1,1,0,0,1-1.75.33,14.47,14.47,0,0,1-1.84-4.23c-1.5-5.51-7.5,2.77-8.59-8.22-.78-7.83-19.89,6.54-34.06-6.16,0,0-2.11,2.8-8.14,2.62C326.51,315.91,326.78,326.16,326.78,326.16Z"/><path class="cls-8" d="M339.68,384.69v-8.63c-7.48,3.29-14.42,6.07-15.18,10.35-1.5,8.39,5.24,32.79,15.18,41.4,0,0,1.65,2.11,4.74-2.6s13.64-15.5,17.3-14.09l0,0C354.28,409.55,341.81,399.9,339.68,384.69Z"/><path class="cls-8" d="M402.27,383.22c-2.07-4.69-8.79-8.49-12.23-10.12,0,6.37-.1,12-.28,15.44-.55,10.3-14.51,19.7-22.61,22.17h0c3.83-1.49,17.9,13.5,20.33,17.57s5.45-.68,10.4-11.85C402.92,405.06,405.65,390.87,402.27,383.22Z"/><path d="M483.62,531.4c0-32.9-2-112.1-24.79-116.27-15.15-2.78-23.8,12.73-31.32,53.07-2.25,12.05,1.58,46.49,2.57,61Z"/><path d="M392.28,565.54s61.55.91,72.21,0c15.9-1.36,27-13.84,20.58-32.39-10.89-31.26-34.43-12.65-55.82-4.18l-37.5,8.1Z"/><path class="cls-8" d="M367.54,562.34l3.42-3.2,10.39,3.68a16.81,16.81,0,0,0,5.62,1h20.61s9.75-2.09,10.07-13.6-9.59-14.87-13.91-14.87h-22.6a16.47,16.47,0,0,1-3.37-.35l-16.07-3.36a9.89,9.89,0,0,0-7,1.11l-9.11,5.23a23,23,0,0,0-4.82,3.69L324.28,558.2a3.27,3.27,0,0,0,2.32,5.58h37.29A5.34,5.34,0,0,0,367.54,562.34Z"/><path d="M547.68,320.63c-15.48-8.95-44.34,18-38.51,48.11s-27.2,67.4-27.2,67.4-37.44,15-52.47,17.88a58.17,58.17,0,0,1,9.58,22.51c24.59-2,59.87-7,74.12-18.91,21.55-18,44.44-84.18,44.44-105.21C557.66,327.94,547.68,320.63,547.68,320.63Z"/><path class="cls-8" d="M444.24,450.72c-8.8,0-30-1.62-39.84,0C396.68,452,376,460.36,375.22,462s-2.22,11.45,0,13.75,16.63,6.37,20.32,5.63S428,469.93,434.7,469.93c2.25,0,10.3-.21,20.65-1.07-1.54-8.06-3-14.2-6-18.41A39.84,39.84,0,0,1,444.24,450.72Z"/><path class="cls-8" d="M305.62,569.8h75.84a7.87,7.87,0,0,0,7.87-7.87h0a3.59,3.59,0,0,0-3.59-3.59H305.62a3.59,3.59,0,0,0-3.59,3.59v4.28A3.59,3.59,0,0,0,305.62,569.8Z"/><path class="cls-8" d="M171.38,567.18l158.42,3.93c6.11,0,10.55-7.13,8.93-13l-28-97.86a15.18,15.18,0,0,0-14.64-11.16l-155.8-2.62a9.26,9.26,0,0,0-8.93,11.71L156.75,556A15.18,15.18,0,0,0,171.38,567.18Z"/><circle class="cls-9" cx="228.49" cy="507.53" r="8.97"/></g></g></g></svg>