<svg id="Layer_1" data-name="Layer 1" xmlns="http://www.w3.org/2000/svg" viewBox="0 0 256 256"><defs><style>.cls-1{fill:none;}.cls-1,.cls-2{stroke:#000;stroke-miterlimit:10;stroke-width:2px;}.cls-2{fill:#fff;}</style></defs><title>why us</title><path class="cls-1" d="M75.62,186.41S68.9,189.94,32,211.13"/><path class="cls-1" d="M124.16,187.27S152.34,199.78,173,209.4"/><path d="M66.88,72.55c-.31,8.45-11.57,13.57-11.42,22,.06,3.63,2.31,6.88,2.75,10.49.59,4.84-2.11,9.41-3.11,14.18-2.06,9.83,3.66,20.21,12.14,25.59s19.13,6.41,29.09,5"/><path d="M134.89,70.47c-.33,4.54,2.66,8.59,5.68,12s6.38,6.95,7,11.45c1.16,8-6.65,15.38-5,23.28.86,4.23,4.33,7.63,4.95,11.91s-1.62,8.18-4.37,11.33-5.93,2.69-8.36,6.09a34.17,34.17,0,0,1-10.54,9.37c-8.75,4.79-19.25-2.14-23.48-3.39"/><path d="M65.18,77.41c-.12-4.11,3.69-7.29,7.51-8.8s8.08-2.07,11.5-4.37c3-2,5.05-5.21,7.61-7.8a25.33,25.33,0,0,1,42.6,11.62c1.47,5.86.47,12.78-4.15,16.68-5.36,4.52-13.3,3.51-20.17,2.11s-14.64-2.79-20.37,1.24c-3.46,2.43-5.44,6.39-7.55,10s-4.77,7.4-8.76,8.77-9.42-1-9.58-5.22"/><path class="cls-2" d="M119.86,173.22c.06-9.44.11-18.63.12-18.59s15-2.52,18.06-22.1c1.52-9.73,1-25.69.15-38.73-.77-11.74-8.58-26.12-20.27-24.86L81.4,78.25a6.88,6.88,0,0,0-6.14,7h0l3.34,88.62c.42,11.24,9.78,16.19,21,16h0C110.82,189.61,119.79,184.4,119.86,173.22Z"/><path d="M121.45,153.34s-11.67,2.82-35-8.85c.22,0,4.86,20.52,33.07,20.52Z"/><path d="M73.12,143.72c5.38,1.08,5.86-1.65,9.88-5.39a17.67,17.67,0,0,0,5.41-14.91c-.61-4.81-3.2-9.7-1.53-14.24,2.2-6,10.63-7.86,12.87-13.87,1.3-3.49.13-7.57,1.61-11,1.39-3.21,4.77-5.07,8.06-6.26s6.82-2,9.58-4.16,4.49-6.2,2.7-9.21A185.41,185.41,0,0,0,78.94,75.08c-3.19,1.19-6.55,2.63-8.44,5.46-2,3-1.9,6.88-1.73,10.49l2.46,52.71"/><path d="M60.81,103.8A15.46,15.46,0,0,0,48.57,90.46,15.46,15.46,0,0,0,32.39,98.6c-2.72,5.53-1.78,12.25.76,17.86,3,6.67,9.2,12.76,16.51,12.43,6.88-.31,12.42-6.35,14.4-12.95s1.18-13.66.36-20.5"/><path class="cls-2" d="M125.36,188.21c2-.76,1.56-6.22,1.19-9.35a17.78,17.78,0,0,0-1.43-5.31,8,8,0,0,0-.8-1.44c-1.48-1.93-4.29-2.06-6.72-2l-37.15.73a13.19,13.19,0,0,0-2.56.27c-6.09,1.33-5.94,6-5.83,10.21a37,37,0,0,0,.34,4A3.13,3.13,0,0,0,73,187C76.71,191.28,96.16,199.06,125.36,188.21Z"/><g id="_09-timer" data-name=" 09-timer"><path d="M222,119.45l3.71-3.71L222,112.09l-4,4a25.66,25.66,0,0,0-12.28-4.6v-5.29h5.16V101H195.43v5.16h5.16v5.29a25.66,25.66,0,0,0-12.28,4.6l-4-4-3.65,3.65,3.71,3.71a25.82,25.82,0,1,0,37.54,0Zm-18.77,38.36a20.66,20.66,0,1,1,20.66-20.66A20.66,20.66,0,0,1,203.18,157.81Z"/><path d="M203.18,121.66v15.49H187.69a15.49,15.49,0,1,0,15.49-15.49Z"/></g></svg>