<svg id="Layer_1" data-name="Layer 1" xmlns="http://www.w3.org/2000/svg" xmlns:xlink="http://www.w3.org/1999/xlink" viewBox="0 0 800 800"><defs><style>.cls-1{fill:none;}.cls-2,.cls-4,.cls-5,.cls-9{fill:#fff;}.cls-2{stroke:#020202;stroke-width:4px;}.cls-10,.cls-12,.cls-2,.cls-5,.cls-6,.cls-8,.cls-9{stroke-miterlimit:10;}.cls-3{clip-path:url(#clip-path);}.cls-10,.cls-12,.cls-5,.cls-9{stroke:#000;}.cls-10,.cls-5{stroke-width:2px;}.cls-6,.cls-8{stroke:#fff;}.cls-7{opacity:0.3;}.cls-10,.cls-11,.cls-12,.cls-8{fill:#5565ff;}</style><clipPath id="clip-path"><circle class="cls-1" cx="396" cy="406" r="350"/></clipPath></defs><title>workflow svg</title><circle class="cls-2" cx="396" cy="406" r="350"/><g class="cls-3"><circle class="cls-4" cx="396" cy="406" r="350"/><path d="M211.25,487.87l-.67.32-1.22.62c-.8.41-1.51.82-2.25,1.23q-2.15,1.25-4.17,2.57a92,92,0,0,0-7.67,5.63,105.45,105.45,0,0,0-13.39,13,117.32,117.32,0,0,0-10.93,14.87,130.76,130.76,0,0,0-8.44,16.2,141.92,141.92,0,0,0-6.09,17c-.75,2.89-1.61,5.77-2.19,8.68l-.94,4.36-.76,4.38a182.34,182.34,0,0,0-2.28,21.59L149.76,571a133.51,133.51,0,0,1,5-19.93c3.69-11.72,9.2-25.3,15.32-40,5-12,9.31-22.6,13.3-31.19s8-14.93,11.28-18.34c-3.26,3.38-9.43,7.8-16,15.14a105.1,105.1,0,0,0-19.12,29.92,140.58,140.58,0,0,0-10.14,40.8l-1-58.9a53,53,0,0,1,5.13-11.83c3.77-6.75,9-14.24,14.24-22.84a147.73,147.73,0,0,0,9.72-19.46c2.38-5.7,4.32-10.17,5.94-12.68-1.63,2.52-5.8,5.18-10.56,9.26a69.4,69.4,0,0,0-14.93,16.91A73.16,73.16,0,0,0,148,474.41l-.4-22.56c1.4-10.43,4.47-26.16,4.14-44.3-.34-19.42-6.35-33.84-6.47-40.7.12,6.86-5.37,21.48-5,40.9.32,18.14,3.95,33.76,5.71,44.13l.44,24.57a157.26,157.26,0,0,0-12.58-44.32,124.09,124.09,0,0,0-21.33-32c-7.22-7.87-13.78-12.81-17.68-16.09,4,3.34,8.37,10.22,13,19.38s9.64,20.59,15.59,33.47c7.16,15.81,13.44,30.43,17.73,43.07a141.33,141.33,0,0,1,5.76,21.68l.67,37.93q-.87-7-2.22-14a227,227,0,0,0-8.13-30.26,261.65,261.65,0,0,0-11.81-28.85c-2.24-4.7-4.72-9.34-7.32-14A135.44,135.44,0,0,0,109,438.71c4.23,5.5,4.89,11.3,4.49,16.89a46.11,46.11,0,0,1-1.62,8.15c-.79,2.63-1.71,5.13-2.6,7.46-1.32,3.36-1.06,5.88.11,8a18.65,18.65,0,0,0,5.06,5.43c3.91,3.27,8,6.33,5.28,11s-6,9-5.62,14c.14,2.5,1.12,5.18,3.55,8.27,2.28,3.13,6.09,6.64,11.49,11.19a63.78,63.78,0,0,1,8.92,9.15,79.52,79.52,0,0,1,6.23,9.2c1.6,2.85,2.7,5.36,3.49,7.13l.09.22.77,43.37c-.17-1-5.44-28.23-21.95-43.06C111.14,541.09,96.82,536.83,93,534.81c3.81,2,25.77,28.18,33,37.2,11.08,13.91,22.19,16.68,22.53,36.22v0l.93,1.58,1-2.47a26.54,26.54,0,0,1,1.25-5,33.41,33.41,0,0,1,4.35-8,50.13,50.13,0,0,1,5.94-6.54c2.17-1.95,4.37-3.67,6.44-5.24,3.05-2.24,4.3-4.65,4.64-7.22s-.2-5.29-.66-8c-.25-1.35-.53-2.7-.72-4a16.27,16.27,0,0,1-.07-3.69,5.83,5.83,0,0,1,3.92-5.23c5.18-2,10.56-3.24,13.84-7.19a12.31,12.31,0,0,0,2.15-3.56,22.88,22.88,0,0,0,1.46-5c.74-4,1.06-9.21,1.57-16.69a52.73,52.73,0,0,1,8.54-24.45c4.09-6.27,8.36-9.77,9.09-10Z"/><path d="M622.88,620.08c.16-1.29.12,1.15,0,0a5.83,5.83,0,0,0-3.91-5.24c-5.18-2.06-10.56-3.26-13.83-7.22a12.31,12.31,0,0,1-2.15-3.56,22.88,22.88,0,0,1-1.46-5c-.73-4-1-9.22-1.54-16.69a52.73,52.73,0,0,0-8.5-24.46c-4.08-6.27-8.35-9.78-9.07-10.06l.91.41.67.32,1.21.62c.8.41,1.51.82,2.25,1.23q2.15,1.25,4.17,2.58a92,92,0,0,1,7.66,5.64,105.45,105.45,0,0,1,13.37,13,117.32,117.32,0,0,1,10.91,14.89A130.76,130.76,0,0,1,632,602.73a141.92,141.92,0,0,1,6.06,17"/><path d="M641.13,619.12c-3.67-11.72-10.55-32.92-16.65-47.63-5-12-9.27-22.61-13.24-31.21s-7.95-14.94-11.24-18.36c3.25,3.39,9.42,7.81,16,15.17a105.1,105.1,0,0,1,19.06,30,140.58,140.58,0,0,1,10.06,40.82l1.15-58.9a53,53,0,0,0-5.11-11.84c-3.75-6.76-9-14.26-14.2-22.86a147.73,147.73,0,0,1-9.68-19.48c-2.37-5.7-4.3-10.18-5.92-12.69,1.63,2.53,5.79,5.19,10.54,9.28a69.4,69.4,0,0,1,14.9,16.94,73.16,73.16,0,0,1,9.74,26.57l.44-22.56c-1.38-10.43-4.42-26.17-4.07-44.3.38-19.42,6.41-33.83,6.54-40.69-.13,6.86,5.33,21.49,5,40.91-.35,18.14-4,33.75-5.79,44.12l-.48,24.57a157.26,157.26,0,0,1,12.66-44.3,124.09,124.09,0,0,1,21.39-31.93c7.23-7.86,13.81-12.78,17.71-16.06-4,3.33-8.39,10.21-13,19.36s-9.67,20.57-15.65,33.44c-7.18,15.8-13.5,30.41-17.8,43a141.33,141.33,0,0,0-5.79,21.67l-.74,37.93q.89-7,2.25-13.95a227,227,0,0,1,8.19-30.24,261.65,261.65,0,0,1,11.86-28.83c2.25-4.7,4.73-9.33,7.35-13.94a135.44,135.44,0,0,1,9.15-13.87c-4.24,5.49-4.91,11.29-4.52,16.88a46.11,46.11,0,0,0,1.6,8.15c.78,2.63,1.7,5.14,2.59,7.47,1.31,3.37,1,5.88-.12,8a18.65,18.65,0,0,1-5.07,5.42c-3.91,3.26-8.05,6.32-5.3,11s6,9,5.59,14c-.15,2.5-1.12,5.18-3.56,8.27-2.29,3.13-6.11,6.63-11.51,11.17a63.78,63.78,0,0,0-8.94,9.13,79.52,79.52,0,0,0-6.25,9.19c-1.61,2.84-3,10.53-3.81,12.31,0,.08-1.84-.24-1.88-.17"/><path class="cls-5" d="M256.21,475.29c-1.14-.25-14.81,48.59-13.59,65.65s10,70.73,10,70.73l101.88,1.14s9-67.13,6.82-84.6-12.82-54.43-12.82-54.43Z"/><rect class="cls-6" x="187.96" y="187.51" width="156.41" height="104.73"/><path class="cls-6" d="M344.38,292.24s0-.65,0-1.91,0-3.11,0-5.53c0-4.85,0-12-.06-21.06,0-18.2-.07-44.35-.12-76.23l.22.22-156.4.06h0l.28-.28c0,37.31,0,72.79,0,104.73L188,292l112.69.13,32.19.07,8.56,0,2.21,0,.76,0-.73,0-2.18,0-8.51,0-32.14.07L188,292.49h-.26v-.26c0-31.94,0-67.42,0-104.73v-.28H188l156.4.06h.22v.22c0,31.94-.09,58.15-.12,76.37,0,9.08,0,16.18-.06,21,0,2.4,0,4.23,0,5.48S344.38,292.24,344.38,292.24Z"/><path class="cls-6" d="M188,196.85c0-.15,35-.28,78.14-.28s78.15.13,78.15.28-35,.28-78.15.28S188,197,188,196.85Z"/><g class="cls-7"><circle class="cls-4" cx="192.88" cy="192.14" r="1.25"/></g><g class="cls-7"><circle class="cls-4" cx="197.18" cy="192.14" r="1.25"/></g><g class="cls-7"><circle class="cls-4" cx="201.41" cy="192.14" r="1.25"/></g><rect class="cls-6" x="201.41" y="207.77" width="41.72" height="41.72"/><ellipse class="cls-6" cx="286.59" cy="219.57" rx="36.34" ry="0.28"/><ellipse class="cls-6" cx="286.59" cy="227.32" rx="36.34" ry="0.28"/><ellipse class="cls-6" cx="286.59" cy="235.07" rx="36.34" ry="0.28"/><path class="cls-6" d="M293.2,242.83a9.76,9.76,0,0,1-1.69.11l-4.6.09c-3.89.05-9.26.08-15.19.08s-11.3,0-15.19-.08l-4.6-.09a9.75,9.75,0,0,1-1.69-.11,9.78,9.78,0,0,1,1.69-.11l4.6-.09c3.89-.05,9.26-.08,15.19-.08s11.3,0,15.19.08l4.6.09A9.79,9.79,0,0,1,293.2,242.83Z"/><rect class="cls-8" x="204.02" y="263.57" width="19.61" height="19.61"/><rect class="cls-8" x="239.58" y="263.57" width="19.61" height="19.61"/><rect class="cls-6" x="275.14" y="263.57" width="19.61" height="19.61"/><rect class="cls-6" x="310.7" y="263.57" width="19.61" height="19.61"/><path class="cls-5" d="M210.67,273.41c-2.71,2-11.34,13.66-10.83,16s9.13,18.79,10.3,24.12,3.57,30.45.16,45.6c-.14.6,1.61,2.56,1.43,3.15-1,3.23-1.14,3.74.86,6.45,4,5.4,4.51,3.64,8.11,4.79a11.64,11.64,0,0,0,15.22-12.35c-.36-3.09-.75-5.91-1.24-8.13,0,0-7.43-39.12-6.27-42.27,1.06-2.88.13-7-.64-10.57l-.8-3.64a7.32,7.32,0,0,1,.58-4.86,5.71,5.71,0,0,0,.27-3.64q0-.19-.08-.39C226.74,283.08,213.38,271.38,210.67,273.41Z"/><ellipse class="cls-9" cx="619.73" cy="461.92" rx="2.23" ry="0.39"/><ellipse class="cls-9" cx="610.81" cy="461.92" rx="2.23" ry="0.39"/><ellipse class="cls-9" cx="601.89" cy="461.92" rx="2.23" ry="0.39"/><ellipse class="cls-9" cx="592.96" cy="461.92" rx="2.23" ry="0.39"/><ellipse class="cls-9" cx="584.04" cy="461.92" rx="2.23" ry="0.39"/><ellipse class="cls-9" cx="575.12" cy="461.92" rx="2.23" ry="0.39"/><ellipse class="cls-9" cx="566.2" cy="461.92" rx="2.23" ry="0.39"/><ellipse class="cls-9" cx="557.28" cy="461.92" rx="2.23" ry="0.39"/><ellipse class="cls-9" cx="548.36" cy="461.92" rx="2.23" ry="0.39"/><ellipse class="cls-9" cx="539.44" cy="461.92" rx="2.23" ry="0.39"/><ellipse class="cls-9" cx="530.52" cy="461.92" rx="2.23" ry="0.39"/><ellipse class="cls-9" cx="521.6" cy="461.92" rx="2.23" ry="0.39"/><path class="cls-9" d="M513,459.36c.21,0,.39,1,.39,2.23,0,.11,0,.22,0,.33l-.38-.38c1.07,0,1.9.19,1.9.38s-.82.35-1.9.38h-.38v-.39c0-.12,0-.22,0-.33C512.63,460.36,512.8,459.36,513,459.36Z"/><ellipse class="cls-9" cx="513.01" cy="452.67" rx="0.39" ry="2.23"/><ellipse class="cls-9" cx="513.01" cy="443.75" rx="0.39" ry="2.23"/><ellipse class="cls-9" cx="513.01" cy="434.83" rx="0.39" ry="2.23"/><ellipse class="cls-9" cx="513.01" cy="425.9" rx="0.39" ry="2.23"/><ellipse class="cls-9" cx="513.01" cy="416.98" rx="0.39" ry="2.23"/><ellipse class="cls-9" cx="513.01" cy="408.06" rx="0.39" ry="2.23"/><ellipse class="cls-9" cx="513.01" cy="399.14" rx="0.39" ry="2.23"/><ellipse class="cls-9" cx="513.01" cy="390.22" rx="0.39" ry="2.23"/><ellipse class="cls-9" cx="513.01" cy="381.3" rx="0.39" ry="2.23"/><ellipse class="cls-9" cx="513.01" cy="372.38" rx="0.39" ry="2.23"/><ellipse class="cls-9" cx="513.01" cy="363.46" rx="0.39" ry="2.23"/><path class="cls-9" d="M513.68,353c0,.11-.26.21-.67.28l.28-.28a9.77,9.77,0,0,1,.11,1.56c0,1.23-.17,2.23-.39,2.23s-.39-1-.39-2.23a9.74,9.74,0,0,1,.11-1.56l.05-.31.22,0C513.43,352.77,513.68,352.87,513.68,353Z"/><ellipse class="cls-9" cx="520.37" cy="352.98" rx="2.23" ry="0.39"/><ellipse class="cls-9" cx="529.29" cy="352.98" rx="2.23" ry="0.39"/><ellipse class="cls-9" cx="538.21" cy="352.98" rx="2.23" ry="0.39"/><ellipse class="cls-9" cx="547.13" cy="352.98" rx="2.23" ry="0.39"/><ellipse class="cls-9" cx="556.05" cy="352.98" rx="2.23" ry="0.39"/><ellipse class="cls-9" cx="564.97" cy="352.98" rx="2.23" ry="0.39"/><ellipse class="cls-9" cx="573.9" cy="352.98" rx="2.23" ry="0.39"/><ellipse class="cls-9" cx="582.82" cy="352.98" rx="2.23" ry="0.39"/><ellipse class="cls-9" cx="591.74" cy="352.98" rx="2.23" ry="0.39"/><ellipse class="cls-9" cx="600.66" cy="352.98" rx="2.23" ry="0.39"/><ellipse class="cls-9" cx="609.58" cy="352.98" rx="2.23" ry="0.39"/><ellipse class="cls-9" cx="618.5" cy="352.98" rx="2.23" ry="0.39"/><ellipse class="cls-9" cx="621.96" cy="358.44" rx="0.39" ry="2.23"/><ellipse class="cls-9" cx="621.96" cy="367.36" rx="0.39" ry="2.23"/><ellipse class="cls-9" cx="621.96" cy="376.28" rx="0.39" ry="2.23"/><ellipse class="cls-9" cx="621.96" cy="385.2" rx="0.39" ry="2.23"/><ellipse class="cls-9" cx="621.96" cy="394.12" rx="0.39" ry="2.23"/><ellipse class="cls-9" cx="621.96" cy="403.04" rx="0.39" ry="2.23"/><ellipse class="cls-9" cx="621.96" cy="411.96" rx="0.39" ry="2.23"/><ellipse class="cls-9" cx="621.96" cy="420.88" rx="0.39" ry="2.23"/><ellipse class="cls-9" cx="621.96" cy="429.81" rx="0.39" ry="2.23"/><ellipse class="cls-9" cx="621.96" cy="438.73" rx="0.39" ry="2.23"/><ellipse class="cls-9" cx="621.96" cy="447.65" rx="0.39" ry="2.23"/><ellipse class="cls-9" cx="621.96" cy="456.57" rx="0.39" ry="2.23"/><rect class="cls-9" x="617.92" y="456.78" width="8.07" height="8.07"/><rect class="cls-9" x="508.98" y="457.89" width="8.07" height="8.07"/><rect class="cls-9" x="617.92" y="348.16" width="8.07" height="8.07"/><rect class="cls-9" x="508.98" y="348.94" width="8.07" height="8.07"/><path class="cls-9" d="M545.64,496.12A3.08,3.08,0,0,1,547,496h.46l-.15.15c0-.53.08-.91.15-.91s.13.38.15.91v.15H547A3.08,3.08,0,0,1,545.64,496.12Z"/><ellipse class="cls-9" cx="542.9" cy="496.12" rx="0.91" ry="0.16"/><ellipse class="cls-9" cx="539.26" cy="496.12" rx="0.91" ry="0.16"/><ellipse class="cls-9" cx="535.61" cy="496.12" rx="0.91" ry="0.16"/><ellipse class="cls-9" cx="531.96" cy="496.12" rx="0.91" ry="0.16"/><ellipse class="cls-9" cx="528.31" cy="496.12" rx="0.91" ry="0.16"/><ellipse class="cls-9" cx="524.66" cy="496.12" rx="0.91" ry="0.16"/><ellipse class="cls-9" cx="521.01" cy="496.12" rx="0.91" ry="0.16"/><ellipse class="cls-9" cx="517.36" cy="496.12" rx="0.91" ry="0.16"/><ellipse class="cls-9" cx="513.72" cy="496.12" rx="0.91" ry="0.16"/><ellipse class="cls-9" cx="510.07" cy="496.12" rx="0.91" ry="0.16"/><ellipse class="cls-9" cx="506.42" cy="496.12" rx="0.91" ry="0.16"/><ellipse class="cls-9" cx="502.77" cy="496.12" rx="0.91" ry="0.16"/><ellipse class="cls-9" cx="499.12" cy="496.12" rx="0.91" ry="0.16"/><ellipse class="cls-9" cx="495.47" cy="496.12" rx="0.91" ry="0.16"/><ellipse class="cls-9" cx="491.82" cy="496.12" rx="0.91" ry="0.16"/><ellipse class="cls-9" cx="488.18" cy="496.12" rx="0.91" ry="0.16"/><ellipse class="cls-9" cx="484.53" cy="496.12" rx="0.91" ry="0.16"/><ellipse class="cls-9" cx="482.48" cy="494.53" rx="0.16" ry="0.91"/><ellipse class="cls-9" cx="482.48" cy="490.88" rx="0.16" ry="0.91"/><ellipse class="cls-9" cx="482.48" cy="487.23" rx="0.16" ry="0.91"/><ellipse class="cls-9" cx="482.48" cy="483.58" rx="0.16" ry="0.91"/><ellipse class="cls-9" cx="482.48" cy="479.93" rx="0.16" ry="0.91"/><ellipse class="cls-9" cx="482.48" cy="476.28" rx="0.16" ry="0.91"/><ellipse class="cls-9" cx="482.48" cy="472.63" rx="0.16" ry="0.91"/><ellipse class="cls-9" cx="482.48" cy="468.99" rx="0.16" ry="0.91"/><ellipse class="cls-9" cx="482.48" cy="465.34" rx="0.16" ry="0.91"/><ellipse class="cls-9" cx="482.48" cy="461.69" rx="0.16" ry="0.91"/><ellipse class="cls-9" cx="482.48" cy="458.04" rx="0.16" ry="0.91"/><ellipse class="cls-9" cx="482.48" cy="454.39" rx="0.16" ry="0.91"/><ellipse class="cls-9" cx="482.48" cy="450.74" rx="0.16" ry="0.91"/><ellipse class="cls-9" cx="482.48" cy="447.09" rx="0.16" ry="0.91"/><ellipse class="cls-9" cx="482.48" cy="443.44" rx="0.16" ry="0.91"/><ellipse class="cls-9" cx="482.48" cy="439.8" rx="0.16" ry="0.91"/><ellipse class="cls-9" cx="482.48" cy="436.15" rx="0.16" ry="0.91"/><ellipse class="cls-9" cx="482.48" cy="432.5" rx="0.16" ry="0.91"/><ellipse class="cls-9" cx="484.76" cy="431.13" rx="0.91" ry="0.16"/><ellipse class="cls-9" cx="488.41" cy="431.13" rx="0.91" ry="0.16"/><ellipse class="cls-9" cx="492.06" cy="431.13" rx="0.91" ry="0.16"/><ellipse class="cls-9" cx="495.71" cy="431.13" rx="0.91" ry="0.16"/><ellipse class="cls-9" cx="499.35" cy="431.13" rx="0.91" ry="0.16"/><ellipse class="cls-9" cx="503" cy="431.13" rx="0.91" ry="0.16"/><ellipse class="cls-9" cx="506.65" cy="431.13" rx="0.91" ry="0.16"/><ellipse class="cls-9" cx="510.3" cy="431.13" rx="0.91" ry="0.16"/><ellipse class="cls-9" cx="513.95" cy="431.13" rx="0.91" ry="0.16"/><ellipse class="cls-9" cx="517.6" cy="431.13" rx="0.91" ry="0.16"/><ellipse class="cls-9" cx="521.25" cy="431.13" rx="0.91" ry="0.16"/><ellipse class="cls-9" cx="524.89" cy="431.13" rx="0.91" ry="0.16"/><ellipse class="cls-9" cx="528.54" cy="431.13" rx="0.91" ry="0.16"/><ellipse class="cls-9" cx="532.19" cy="431.13" rx="0.91" ry="0.16"/><ellipse class="cls-9" cx="535.84" cy="431.13" rx="0.91" ry="0.16"/><ellipse class="cls-9" cx="539.49" cy="431.13" rx="0.91" ry="0.16"/><ellipse class="cls-9" cx="543.14" cy="431.13" rx="0.91" ry="0.16"/><path class="cls-9" d="M547.47,431.37s-.08-.09-.11-.23l.1.11a3.74,3.74,0,0,1-.68.05c-.5,0-.91-.07-.91-.16s.41-.16.91-.16a3.74,3.74,0,0,1,.68.05l.12,0,0,.08C547.54,431.28,547.51,431.37,547.47,431.37Z"/><ellipse class="cls-9" cx="547.47" cy="434.1" rx="0.16" ry="0.91"/><ellipse class="cls-9" cx="547.47" cy="437.75" rx="0.16" ry="0.91"/><ellipse class="cls-9" cx="547.47" cy="441.4" rx="0.16" ry="0.91"/><ellipse class="cls-9" cx="547.47" cy="445.05" rx="0.16" ry="0.91"/><ellipse class="cls-9" cx="547.47" cy="448.7" rx="0.16" ry="0.91"/><ellipse class="cls-9" cx="547.47" cy="452.35" rx="0.16" ry="0.91"/><ellipse class="cls-9" cx="547.47" cy="455.99" rx="0.16" ry="0.91"/><ellipse class="cls-9" cx="547.47" cy="459.64" rx="0.16" ry="0.91"/><ellipse class="cls-9" cx="547.47" cy="463.29" rx="0.16" ry="0.91"/><ellipse class="cls-9" cx="547.47" cy="466.94" rx="0.16" ry="0.91"/><ellipse class="cls-9" cx="547.47" cy="470.59" rx="0.16" ry="0.91"/><ellipse class="cls-9" cx="547.47" cy="474.24" rx="0.16" ry="0.91"/><ellipse class="cls-9" cx="547.47" cy="477.89" rx="0.16" ry="0.91"/><ellipse class="cls-9" cx="547.47" cy="481.54" rx="0.16" ry="0.91"/><ellipse class="cls-9" cx="547.47" cy="485.18" rx="0.16" ry="0.91"/><ellipse class="cls-9" cx="547.47" cy="488.83" rx="0.16" ry="0.91"/><ellipse class="cls-9" cx="547.47" cy="492.48" rx="0.16" ry="0.91"/><rect class="cls-9" x="545.06" y="493.06" width="4.81" height="4.81"/><rect class="cls-9" x="480.07" y="493.72" width="4.81" height="4.81"/><rect class="cls-9" x="545.06" y="428.26" width="4.81" height="4.81"/><rect class="cls-9" x="480.07" y="428.73" width="4.81" height="4.81"/><path class="cls-10" d="M497.55,473.29c1.15-.25,12.33,44.6,13.42,62,1.14,18.19-13.42,81-13.42,81H452.18l-4.61-.17-46.39-1.36s-12.4-59.21-10.24-76.43,13.68-62.52,13.68-62.52Z"/><path d="M414.63,290.54c-3,10.74-7.42,19.36-11.77,23.67s-9,9.38-8.86,15.51c.06,2.41.86,5-.19,7.13-1.37,2.81-5,3.42-7.74,5-4,2.27-6.28,7.07-6.12,11.69a18.79,18.79,0,0,0,5.75,12.28c3.39,3.41,8.76,5.8,13,3.47,2.54-1.4,4-4.15,5.27-6.76q10-20.24,18-41.34"/><path d="M441.78,244.54A27.67,27.67,0,0,1,490,263.36c-.08,7.19-2.89,14.73,0,21.34,2,4.67,6.66,8.21,7.3,13.25.74,5.86-4.27,11.17-4,17.07.17,3.85,2.59,7.25,5.36,9.92s6,4.87,8.55,7.77c7.08,8,7.53,20.74,2.18,30s-15.68,15.1-26.32,16.36-21.48-1.67-30.9-6.78c-6.13-3.33-11.9-7.72-15.54-13.67s-4.9-13.66-2-20"/><path class="cls-5" d="M464.41,334.2s10.29,3.15,14.38,6.39c3.5,2.77,21.85,52.89,21.85,52.89L487.4,443.7s10.68,21.92,11.29,31.84c-27.25,17.58-58,12.65-90.17-1.43l9.89-46.87-22.34-83.92L423,333.79Z"/><path class="cls-5" d="M536.55,427.86l14.12-42.53a1.07,1.07,0,0,0-.88-1.4L535,382.12a1.07,1.07,0,0,0-1,.51l-16.65,27.68a1.07,1.07,0,0,1-1.93-.21l-21.29-49.5c-.4-1.17-2.14-14.2-2.08-13l4,83.45a1.07,1.07,0,0,0,.28.67l7.27,8,.08.09a19.47,19.47,0,0,0,15.84,4.68C529.56,443.1,533.71,435.14,536.55,427.86Z"/><path class="cls-5" d="M587.69,285.74l-73.95,32a3.09,3.09,0,0,0-1.86,2.89l.34,20.44a3.09,3.09,0,0,1-.85,2.19l-6.2,6.5a3.09,3.09,0,0,0,.18,4.44L532,378.05a3.09,3.09,0,0,0,4.36-.24l6.34-7.09a3.09,3.09,0,0,1,1.88-1l21.33-3a3.09,3.09,0,0,0,2.52-2.14l23.44-75.09A3.09,3.09,0,0,0,587.69,285.74Z"/><circle cx="554.18" cy="330.15" r="12.87" transform="translate(-61.29 523.32) rotate(-48.21)"/><ellipse cx="572.44" cy="308.96" rx="32.8" ry="0.3" transform="translate(-35.54 540.27) rotate(-49.19)"/><path d="M341.17,567.58h0a20.51,20.51,0,0,1-1.7-28.88L493.71,364.18l30.59,27.34L370.21,565.87A20.51,20.51,0,0,1,341.17,567.58Z"/><polygon class="cls-5" points="526.71 394.83 490.21 361.41 501.88 348.16 535.75 380.33 526.71 394.83"/><rect class="cls-11" x="588.65" y="280.11" width="8.93" height="8.93" transform="translate(321.31 -314.5) rotate(39.96)"/><path class="cls-11" d="M649.74,330.42c-.3.35-26.47-21.1-58.46-47.9s-57.69-48.83-57.39-49.18,26.47,21.09,58.46,47.91S650,330.07,649.74,330.42Z"/><circle class="cls-11" cx="649.01" cy="329.81" r="2.65" transform="translate(-20.64 615.4) rotate(-50.04)"/><circle class="cls-11" cx="533.89" cy="233.33" r="2.65" transform="translate(12.13 492.65) rotate(-50.04)"/><polygon class="cls-7" points="493.71 364.18 524.3 391.52 520.17 396.19 492.24 365.85 493.71 364.18"/><g class="cls-7"><path d="M404.06,465.62l74.82-22.71c-5.61,7.38-16.53,14.26-24.77,18.51s-17.05,7.25-25.83,10.23c-4.77,1.62-9.65,3.26-14.69,3.22s-10-1.49-12.6-5.78Z"/></g><path d="M417,273.29a7.91,7.91,0,0,0-2.76-9.41,8.52,8.52,0,0,0-9.91.51,9.24,9.24,0,0,0-2.84,9.63,9.43,9.43,0,0,0,18.34-1.32"/><path class="cls-5" d="M428.14,253.75l0,5.47,2.08,77.11c-.13,9.5,15.27,25.33,24,28.48,2,.72,9,3.3,12.45,2.22,10.33-3.27-2.77-17.35-2.5-26,.31-10.07.82-20.67.82-20.67s13-1.8,16.19-18.65c1.57-8.38,1.53-22.2,1.13-33.5A17.88,17.88,0,0,0,463,251Z"/><path d="M464.48,319.21A43.09,43.09,0,0,1,442,312.54s5.18,11.78,22.17,10.66Z"/><path d="M449.43,248.39c4.52,6-.19,14.53-5.4,20s-11.56,11.73-10.14,19.12c1.65,8.57,13.37,14.06,11.63,22.61-.64,3.12-3.1,5.78-3.11,9,0,5.75,7.42,8.54,9.56,13.88,2.93,7.31-5.13,14.6-5.26,22.48-.07,4.47,2.46,8.65,2.6,13.12.28,9.16-10.56,15.87-19.44,13.61s-15-10.92-16.9-19.88,1-21.55,2.43-30.6L400,335.22c-2.87-2.73,1.05-5.64,1.7-9.55,1.62-9.8,8.06-18.09,11.12-27.54,2.68-8.26,2.7-17.1,3.87-25.7s3.84-17.56,10.4-23.24,17.94-6.37,23.25.49"/><path d="M348.64,338.8c5,0,20.52,14.64,24.49,37,1.74,9.82,5.94,50.59,8.34,70.14a19.51,19.51,0,0,1-7.94,18.17c-13,9.44-39,24.28-73.61,23.87l-1.26-16.59,46.39-21.89,6.37-2.73L350,436.94l-8.49-52.08S328.31,338.8,348.64,338.8Z"/><path d="M336.22,248.27c.26,7,9.65,11.31,9.52,18.36-.05,3-1.93,5.74-2.3,8.74-.49,4,1.76,7.85,2.59,11.82,1.72,8.2-3.05,16.85-10.12,21.34s-16,5.35-24.25,4.21"/><path d="M279.52,246.54c.28,3.78-2.22,7.16-4.73,10s-5.32,5.79-5.86,9.54c-1,6.65,5.55,12.82,4.2,19.41-.72,3.53-3.61,6.36-4.12,9.93s1.35,6.82,3.64,9.45,4.94,2.24,7,5.07a28.49,28.49,0,0,0,8.79,7.81c7.3,4,16.05-1.79,19.57-2.82"/><path d="M337.63,252.32c.1-3.43-3.07-6.08-6.27-7.33s-6.74-1.73-9.59-3.65c-2.52-1.7-4.21-4.34-6.35-6.5a21.12,21.12,0,0,0-35.51,9.69c-1.23,4.88-.39,10.66,3.46,13.9,4.47,3.77,11.09,2.93,16.82,1.76s12.2-2.33,17,1c2.88,2,4.53,5.33,6.3,8.38s4,6.17,7.31,7.32,7.86-.83,8-4.36"/><path class="cls-5" d="M292.05,332.2c0-7.87-.09-15.54-.1-15.5s-12.5-2.1-15.05-18.42c-1.27-8.12-.83-21.42-.12-32.29.64-9.79,7.15-21.78,16.9-20.73L324.11,253a5.74,5.74,0,0,1,5.12,5.83h0l-2.79,73.89a17.2,17.2,0,0,1-17.53,16.55h0A17.2,17.2,0,0,1,292.05,332.2Z"/><path d="M291.51,315.52a43,43,0,0,0,22.25-5.85c-.18,0-6.27,11.36-21.91,9.65Z"/><path d="M331,307.61c-4.49.9-4.89-1.38-8.24-4.49a14.73,14.73,0,0,1-4.51-12.43c.51-4,2.67-8.08,1.28-11.88-1.84-5-8.87-6.56-10.73-11.56-1.08-2.91-.11-6.31-1.34-9.16-1.16-2.68-4-4.22-6.72-5.22s-5.69-1.68-8-3.47-3.74-5.17-2.25-7.68a154.58,154.58,0,0,1,35.65,8.66c2.66,1,5.46,2.19,7,4.56s1.59,5.74,1.45,8.74l-2.05,43.95"/><path d="M341.28,274.33A12.52,12.52,0,0,1,365,270c2.27,4.61,1.48,10.21-.63,14.89-2.52,5.56-7.67,10.64-13.76,10.36-5.74-.26-10.35-5.3-12-10.8s-1-11.39-.3-17.09"/><path d="M348.68,338.41l-21.47-5.47a6.3,6.3,0,0,0-1.55-.19H292.17l-.47,0c-2.22.17-18.32,1.63-27.57,9.8a22,22,0,0,0-5.42,8.87l-7,16.06a6.3,6.3,0,0,1-12-1.41l-3.14-17.58a6.3,6.3,0,0,0-7.08-5.12l-15.77,2.24a6.3,6.3,0,0,0-5.4,6.6l4.1,69.92a37.18,37.18,0,0,0,25.19,31.54,6.31,6.31,0,0,0,6.71-1.79l3.87-4.35a6.3,6.3,0,0,1,10.95,3.38c1,7.66,1.72,12.9,1.82,12.8.31-.31,55.42-3.71,77.11-5a6.88,6.88,0,0,0,6.28-8.39,4,4,0,0,1-.11-.87l0-14.58a60.44,60.44,0,0,1,.92-7.39c0-.08,0-.16.05-.24l15.74-60.51c.69-3.56,5.9-19.61-11.5-28A4,4,0,0,0,348.68,338.41Z"/><path class="cls-5" d="M330.56,337.86a80.36,80.36,0,0,0,.08-9.21,6.15,6.15,0,0,0-.9-3.46c-1.16-1.52-3.37-1.62-5.29-1.58l-28,.55c-2.27,0-4.79.2-6.36,1.84s-1.5,4.14-1.44,6.42a29.09,29.09,0,0,0,.27,3.18,3.66,3.66,0,0,0,.49,1.31C291.31,340.36,301.06,342,330.56,337.86Z"/><path class="cls-5" d="M549.52,388c2.23-5,15.57-19.11,16.55-21.28s-5.1-15.33-7.34-17.86S541,355,539.1,359.28l-.16.36a5.71,5.71,0,0,0-.48,3.62,7.32,7.32,0,0,1-.43,4.87l-1.52,3.4c-1.48,3.31-2.87,7.52-2.42,10.56Z"/><path class="cls-5" d="M421.48,446c-4.94-6.93-1-10.61,7.32-12.27,3.05-.61,5.86-1.09,8.12-1.31,0,0,39.51-4.89,42.16-7,2.41-1.89,6.65-2.28,10.26-2.62l3.71-.36a7.32,7.32,0,0,0,4.45-2,5.71,5.71,0,0,1,3.38-1.38l.39,0c4.67-.45,12.9,4.29,14.44,12.91.59,3.33-6.35,11.82-9.21,13.13-2.16,1-19-1.89-24.45-1.37s-27.74,4.1-46.93,3.24c-.62,0-4-.35-4.52,0"/><path class="cls-5" d="M462.69,448.11l-53.83,2.67c-4.72-.11-10.7-2.32-13-4.26-7-6-7-14.9-7.5-20.64-2.12-23.77-2.72-54.84-1.49-62.58,1.57-9.91,9.25-17,10.84-18.28,4.66-3.8,11.5-3.77,15.25.93,8.3,10.39,3.94,32.82,3.8,36.19-.07,1.65-.55,6.07-.6,6.34l-1.54,32.46c.51,3.75-.63,7.09,6.14,6.82l38.4-.51a10.62,10.62,0,0,1,11,9.31v.08A10.62,10.62,0,0,1,462.69,448.11Z"/><path class="cls-5" d="M308.79,473.69h46a4.77,4.77,0,0,0,4.77-4.77h0a2.18,2.18,0,0,0-2.18-2.18H308.79a2.18,2.18,0,0,0-2.18,2.18v2.6A2.18,2.18,0,0,0,308.79,473.69Z"/><path class="cls-5" d="M227.45,471l96,2.67a5.61,5.61,0,0,0,5.41-7.1l-16.94-60.35a9.2,9.2,0,0,0-8.87-6.76l-96-1.34a5.61,5.61,0,0,0-5.41,7.1l16.94,59A9.2,9.2,0,0,0,227.45,471Z"/><circle class="cls-12" cx="260.28" cy="433.01" r="6.01"/><rect x="74.96" y="613.31" width="684.08" height="4.01" transform="matrix(-1, -0.02, 0.02, -1, 820.49, 1239.57)"/><path class="cls-5" d="M295,487c-5.82-.26-25.28-.76-25.28-.76s-14.29.33-19.12-9.84c-.51-1.08-2.9-9.89.17-13.53,1.36-1.62,12.13,3,14.55,3.58s20.56,6.12,24.64,7.76c2,.79,5.91.28,12.73,1.15-1.11,4.67.2,8.27-1.07,10.7a2.59,2.59,0,0,1-1.93.94C298.35,487,295.46,487,295,487Z"/></g></svg>