<svg id="Layer_1" data-name="Layer 1" xmlns="http://www.w3.org/2000/svg" viewBox="0 0 227 172"><defs><style>.cls-1{fill:#fff;}.cls-1,.cls-2{stroke:#000;stroke-miterlimit:10;stroke-width:2px;}.cls-2{fill:none;}</style></defs><title>why us</title><path class="cls-1" d="M40,45.06l8,65.31L43,144l52,5-.21-30.3s22.18-2.75,23.15-18.32c.62-9.94-5.62-79.69-5.62-79.69Z"/><path d="M55.7,122.81c-5.79-3.93-8.72-6.54-11.26-13.06S40.25,96.37,37.35,90c-3-6.69-7.41-12.71-10.41-19.41S22.42,56,25.34,49.25c0,0,1-8.63,12.67-11.78,0,0,6.57-18.3,21.64-20C80.14,15.13,79.43,9.1,92.8,4c12.5-4.78,17.34,6.24,17.34,6.24s8.23,3.77,10.16,11.3l.05.2A17.91,17.91,0,0,1,112,41.4l-2.5,1.45c-2.35,1.35-4.81,2.76-6.3,5-2.21,3.38-1.74,7.81-.76,11.73s2.41,7.88,1.86,11.87c-.19,1.36-1,3-2.35,2.91-1.64-.08-2-2.26-2.51-3.82C98,66,91.29,63.76,87.81,68.05a7.27,7.27,0,0,0-.3,9.11c2.25,2.94,6.2,4.78,7.63,8.27,2.41,5.87-3.63,12.73-5.66,16.63A25.33,25.33,0,0,1,87.05,106a58.36,58.36,0,0,1-17.13,14.91c-4.83,2.91-11.28,3.8-16.06.8"/><path class="cls-2" d="M3.07,154.68S47,125,150.5,168.5"/><path d="M168.55,89.63,143.66,76.05V68.54L168.55,55v8.83L151.21,72.2l17.34,8.65Z"/><path d="M172.8,94.38l16.51-44.09h5.21L178,94.38Z"/><path d="M200.11,89.63V80.85l17.34-8.58-17.34-8.51V55L225,68.55V76Z"/></svg>