<svg id="Layer_1" data-name="Layer 1" xmlns="http://www.w3.org/2000/svg" xmlns:xlink="http://www.w3.org/1999/xlink" viewBox="0 0 710 710"><defs><style>.cls-1{fill:none;}.cls-2,.cls-4{fill:#fff;}.cls-3{clip-path:url(#clip-path);}.cls-4,.cls-5{stroke:#000;stroke-miterlimit:10;stroke-width:2px;}.cls-5,.cls-6{fill:#5565ff;}.cls-7{fill:#fafafa;}</style><clipPath id="clip-path"><circle class="cls-1" cx="356" cy="355" r="350"/></clipPath></defs><title>workflow svg</title><circle class="cls-2" cx="356" cy="355" r="350"/><g class="cls-3"><path d="M181.91,476.28l-.66.29-1.2.55c-.78.37-1.49.74-2.22,1.11q-2.12,1.13-4.12,2.34a88.93,88.93,0,0,0-7.6,5.17,102,102,0,0,0-13.38,12.1,113.43,113.43,0,0,0-11.07,14A126.42,126.42,0,0,0,133,527.21a137.22,137.22,0,0,0-6.47,16.23c-.83,2.77-1.75,5.52-2.41,8.32L123,555.94l-.88,4.2a176.3,176.3,0,0,0-2.94,20.78l.47-26.41a129.08,129.08,0,0,1,5.5-19.09c4-11.19,9.75-24.14,16.17-38.13,5.26-11.45,9.76-21.52,13.92-29.68s8.22-14.15,11.52-17.34c-3.27,3.15-9.38,7.21-16,14.08a101.62,101.62,0,0,0-19.5,28.26,135.93,135.93,0,0,0-11.19,39.08l1-57a51.23,51.23,0,0,1,5.36-11.26c3.87-6.39,9.18-13.45,14.54-21.58A142.84,142.84,0,0,0,151,423.42c2.49-5.42,4.52-9.68,6.17-12.05-1.67,2.38-5.78,4.81-10.52,8.58a67.1,67.1,0,0,0-15,15.83,70.73,70.73,0,0,0-10.37,25.32l.38-21.81c1.71-10,5.21-25.13,5.52-42.66.33-18.78-5-32.92-4.86-39.55-.12,6.63-5.92,20.57-6.25,39.35-.31,17.54,2.66,32.75,4,42.84L119.68,463A152.05,152.05,0,0,0,109,419.79a120,120,0,0,0-19.52-31.62C82.81,380.32,76.64,375.33,73,372c3.72,3.36,7.74,10.16,11.87,19.17s8.61,20.22,13.92,32.87c6.37,15.53,11.95,29.86,15.66,42.22a136.65,136.65,0,0,1,4.82,21.14l-.65,36.67q-.6-6.84-1.67-13.56A219.46,219.46,0,0,0,110.11,481a253,253,0,0,0-10.42-28.28c-2-4.62-4.24-9.19-6.6-13.73a131,131,0,0,0-8.34-13.73c3.9,5.46,4.34,11.09,3.76,16.47a44.59,44.59,0,0,1-1.84,7.82c-.85,2.52-1.83,4.9-2.77,7.12-1.39,3.2-1.22,5.65-.17,7.7a18,18,0,0,0,4.7,5.42c3.66,3.29,7.55,6.4,4.72,10.81s-6.08,8.47-5.9,13.29A14.09,14.09,0,0,0,90.4,502c2.1,3.1,5.66,6.62,10.72,11.21a61.67,61.67,0,0,1,8.31,9.15,76.88,76.88,0,0,1,5.71,9.1c1.45,2.8,2.42,5.27,3.12,7l.08.21-.74,41.93c-.13-.94-4.29-27.46-19.74-42.36-14.52-14-28.21-18.61-31.8-20.69,3.61,2.08,23.94,28.11,30.57,37.07,10.23,13.82,20.87,16.88,20.54,35.77a.19.19,0,0,0,0,0v0L118,592l1-2.36a25.66,25.66,0,0,1,1.38-4.82,32.3,32.3,0,0,1,4.47-7.58,48.47,48.47,0,0,1,6-6.11c2.16-1.81,4.35-3.4,6.41-4.85,3-2.06,4.31-4.35,4.73-6.81s0-5.12-.36-7.73c-.2-1.31-.42-2.62-.56-3.89a15.73,15.73,0,0,1,.06-3.57,5.64,5.64,0,0,1,4-4.92c5.08-1.8,10.32-2.77,13.62-6.48a11.9,11.9,0,0,0,2.2-3.36,22.12,22.12,0,0,0,1.59-4.81c.85-3.83,1.33-8.87,2.09-16.07a51,51,0,0,1,9.09-23.33c4.17-5.91,8.42-9.15,9.13-9.4Z"/><path d="M669.15,419.21l-.66.29-1.2.55c-.78.37-1.49.74-2.22,1.11Q663,422.29,661,423.5a88.93,88.93,0,0,0-7.6,5.17A102,102,0,0,0,640,440.77a113.43,113.43,0,0,0-11.07,14,126.42,126.42,0,0,0-8.71,15.37,137.22,137.22,0,0,0-6.47,16.23c-.83,2.77-1.75,5.52-2.41,8.32l-1.06,4.18-.88,4.2a176.3,176.3,0,0,0-2.94,20.78l.47-26.41a129.08,129.08,0,0,1,5.5-19.09c4-11.19,9.75-24.14,16.17-38.13,5.26-11.45,9.76-21.52,13.92-29.68S650.7,396.39,654,393.2c-3.27,3.15-9.38,7.21-16,14.08a101.62,101.62,0,0,0-19.5,28.26,135.93,135.93,0,0,0-11.19,39.08l1-57a51.23,51.23,0,0,1,5.36-11.26c3.87-6.39,9.18-13.45,14.54-21.58a142.84,142.84,0,0,0,10.05-18.47c2.49-5.42,4.52-9.68,6.17-12.05-1.67,2.38-5.78,4.81-10.52,8.58a67.1,67.1,0,0,0-15,15.83A70.73,70.73,0,0,0,608.54,404l.38-21.81c1.71-10,5.21-25.13,5.52-42.66.33-18.78-5-32.92-4.86-39.55-.12,6.63-5.92,20.57-6.25,39.35-.31,17.54,2.66,32.75,4,42.84L606.92,406a152.05,152.05,0,0,0-10.65-43.25,120,120,0,0,0-19.52-31.62c-6.7-7.85-12.88-12.84-16.54-16.15,3.72,3.36,7.74,10.16,11.87,19.17S580.7,354.34,586,367c6.37,15.53,11.95,29.86,15.66,42.22a136.65,136.65,0,0,1,4.82,21.14L605.85,467q-.6-6.84-1.67-13.56A219.46,219.46,0,0,0,597.35,424a253,253,0,0,0-10.42-28.28c-2-4.62-4.24-9.19-6.6-13.73A131,131,0,0,0,572,368.21c3.9,5.46,4.34,11.09,3.76,16.47a44.59,44.59,0,0,1-1.84,7.82c-.85,2.52-1.83,4.9-2.77,7.12-1.39,3.2-1.22,5.65-.17,7.7a18,18,0,0,0,4.7,5.42c3.66,3.29,7.55,6.4,4.72,10.81s-6.08,8.47-5.9,13.29a14.09,14.09,0,0,0,3.15,8.12c2.1,3.1,5.66,6.62,10.72,11.21a61.67,61.67,0,0,1,8.31,9.15,76.88,76.88,0,0,1,5.71,9.1c1.45,2.8,2.42,5.27,3.12,7l.08.21-.74,41.93c-.13-.94-4.29-27.46-19.74-42.36-14.52-14-28.21-18.61-31.8-20.69,3.61,2.08,23.94,28.11,30.57,37.07,10.23,13.82,20.87,16.88,20.54,35.77a.19.19,0,0,0,0,0v0l.85,1.56,1-2.36a25.66,25.66,0,0,1,1.38-4.82,32.3,32.3,0,0,1,4.47-7.58,48.47,48.47,0,0,1,6-6.11c2.16-1.81,4.35-3.4,6.41-4.85,3-2.06,4.31-4.35,4.73-6.81s0-5.12-.36-7.73c-.2-1.31-.42-2.62-.56-3.89a15.73,15.73,0,0,1,.06-3.57,5.64,5.64,0,0,1,4-4.92c5.08-1.8,10.32-2.77,13.62-6.48a11.9,11.9,0,0,0,2.2-3.36,22.12,22.12,0,0,0,1.59-4.81c.85-3.83,1.33-8.87,2.09-16.07a51,51,0,0,1,9.09-23.33c4.17-5.91,8.42-9.15,9.13-9.4Z"/><rect x="25.29" y="563.13" width="661.42" height="3.88" transform="translate(-59.41 42.12) rotate(-6.25)"/><path d="M514.21,259.91c-16.45-5.59-12,18.22-11.71,40,.31,20.21,9.89,67.6,9.89,67.6l28.54,26.39C550.8,381.83,526.72,264.15,514.21,259.91Z"/><path class="cls-4" d="M282.16,448.74c-3.52-4.23-4.19-10.68-3.37-13.72.59-2.21,6.47-11.14,11.16-18.56a18.91,18.91,0,0,1,7.11-7.11c2.91-1.48,6.49-1.35,7.37-2.82,1.61-2.68,17.29-28.4,17.29-28.4s-1.19-11.54-.08-21c5.25-16.09,44.22-15.32,42.29,2-8,26.23-43.16,70.53-61,85.6a24.19,24.19,0,0,1-14,5.82C286.2,450.74,283.53,450.39,282.16,448.74Z"/><path class="cls-2" d="M439.85,216.19s-4.31,7.81-16.77,7.25c0,0-3.08-2.94-3.78-.56a7.22,7.22,0,0,0,2.38,8.12c3.08,2.38,1.23,14.46-1,15s13.48,7.25,16.84-6.48l2.8.28s-.39-7.28,0-9.66C440.91,226.46,442.93,223.61,439.85,216.19Z"/><path class="cls-4" d="M392.48,501.31a240,240,0,0,0,11.91,52.58c.46,1.37,1.75,3.57,3.19,3.57L524.1,546.1c1.48,0,4.21-.67,4.65-2.09,0,0,1.9-6.86,2.11-9.07,6.46-66.67-5.71-98.39-16.47-122.07-10.32-22.71-17.11-31.13-11.5-58.83,3.71-18.34,18.47-35.84,8.58-59.37-6.62-15.75-5.28-35.43-7.26-37.49,0,0-2.79-2.46-10.39-5.61-.13-.05-1,.65-1.1.6l1.26-.44c-1.82-.61.75,2.14.23,4-5.3,19-14.64,37.47-32.37,40.6-23.66,4.17-45.79-12.91-57.32-37.61a2.69,2.69,0,0,0-3.19-1.47c-8.68,2.55-17.62,5.46-23.27,8a3.26,3.26,0,0,0-1.64,4.34c7,15.2,32.75,66.4,37.57,97.46C419.7,403.84,385.44,442.39,392.48,501.31Z"/><path d="M460.69,292.26c18.79-3.31,29.4-19.54,34.42-40-7.86-2.66-26.36-9-31.5-11.58-6.58-3.29-4.75-30-4.75-30l-34.74,9.91v25.9c0,2.43-12.2,5.68-23.14,9.42C412.16,282.21,436.2,296.57,460.69,292.26Z"/><path class="cls-4" d="M458.86,211.18l-34.74,9.91v22c14.68,7.93-32.49,35.83,23.19,52.64,28.4,8.57,42.78-22.68,47.79-43-7.86-2.66-26.36-9-31.5-11.58C457,237.86,458.86,211.18,458.86,211.18Z"/><path class="cls-4" d="M480.26,375.08a1.52,1.52,0,0,0-1.8-.74c-15.09,4.57-29.8,8.19-37.34,8.19-15.35,0-38-21.56-48.73-8.38s-12.31,21.9-3.92,27.75,35.1-2.19,47.89.37c5.71,1.14,25.27.53,46,.21C484,394.62,484.38,383.27,480.26,375.08Z"/><path d="M521.53,365.35c-11.29,1.1-27.6,3-42.83,7.7,4.75,8.25,5.06,22.56,3.3,30.78,25.66-.4,54.66-1.73,58.9-9.24C545,387.24,546.31,362.94,521.53,365.35Z"/><path class="cls-4" d="M416.1,170.86c-6.1,11.86-5.42,52.17,11.52,55.9,14.8,3.26,23-11.18,23-11.18V188.84a19.55,19.55,0,0,1-9.49-14.59c-.91-8.19-5.76-9.06-5.76-9.06S425.25,171.2,416.1,170.86Z"/><path d="M389.77,367.05c-7.65-15.4-12.73-34.81-17.21-45.76-8.45-20.67-9.82-49.5,1.87-56.08,21.56-11,30.7,26.93,32.16,38s4.39,36.78,12.43,46Z"/><path d="M485.32,233.73c-14.1-9.91,1.68-59.52-22.84-78.91-20.18-16-52.37-4-52.37,26.19v72.25c8-2.49,14-4.79,14-6.68V225.35c-13.45-8.56-13.73-43.38-8-54.49,9.15.34,19.31-5.68,19.31-5.68s4.85.87,5.76,9.06a19.55,19.55,0,0,0,9.49,14.59v26.74c0,25.11,6,52.56,20.35,54.08s32.31-9.54,44.51-8.94A175.18,175.18,0,0,0,485.32,233.73Z"/><path d="M410.67,330.62c-8,10.91-20.49,20.45-20.9,36.44,6.79,13.66,15.6,24.15,27.79,22.78,18-2,24.63-25.43,26.75-44.8C432.3,346,416.58,338.71,410.67,330.62Z"/><path class="cls-4" d="M437.82,232.13c-3.43,1.56-15.58,12.16-15.58,14.8s5.45,22.6,5.45,28.68-5.57,32.56-12.88,48.23a40.86,40.86,0,0,1-4.13,6.78c5.13,7,16.39,16.15,27.12,17.85a4.61,4.61,0,0,0,5.34-4c.87-7.39,1.84-15,1.84-20.08,0,0,1.23-44.3,3.24-47.45,1.83-2.87,1.82-7.61,1.82-11.65v-8.21s2.79-.18,3-5q0-.21,0-.44C453,246.47,441.25,230.57,437.82,232.13Z"/><path d="M362.31,269.41l3.15,89.36a1.3,1.3,0,0,1-1.3,1.35H336.09V274.6Z"/><path d="M307.19,494.37c-2.83,15.31-12.2,45.69-22.43,76.74L344,565c5.61-37.3,9.16-89,1.16-133.52l-31.92-.15C316.36,446.33,309.85,480,307.19,494.37Z"/><path class="cls-5" d="M258.9,491.16s6.77,32.85,11.39,70.18h15.53c10.23-30.61,18.1-53.63,20.93-68.73,2.66-14.2,9.61-46.5,6.5-61.29h-53Z"/><path class="cls-5" d="M312.9,431.79a38.8,38.8,0,0,0-1.28-5.23l-99.8.22c-8.86,57.24,3.43,110.49,5.74,152l80.83-9c4.4-35.2,5.53-52.34,8.36-69.24C309.41,484.62,316,448.35,312.9,431.79Z"/><path d="M279.61,189.14C219.49,173,178.89,199.85,172.23,238.39c-6.09,35.2,38.11,144.19,38.11,188.26,0,0,69.66,39.2,135,7.14,0,0-8.22-49.22,1.59-90.62s22.84-65.12,11.77-94.83C349,222.4,307.72,196.68,279.61,189.14Z"/><path class="cls-4" d="M302.07,149.33S279.38,177.86,269.81,187s8.09,27.7,21.49,35.6c8.85,5.22,27.52,11,22-5.26,0,0-3.11-9.09,12-22C325.28,195.27,308.53,145.26,302.07,149.33Z"/><path d="M325.28,195.27s-7.77-23.18-14.76-36.69l-7.39,3.49C294.52,179.73,293,213,313.32,217.29,313.32,217.29,310.21,208.19,325.28,195.27Z"/><path class="cls-4" d="M311,144.19c1.92-10.88-7.8-11.7-10.85-2.62-3.48,10.38.35,17.57,4.35,15.17,0,0-7.75,23.43,2,37.54s22.2,8.69,37.77-6.64c13.38-13.18,22.1-29.28,23.45-35.49,3.53-16.19-13.28-29.28-29.05-28.43C319.38,124.77,311,144.19,311,144.19Z"/><path d="M311,144.19c-.61,6.41.44,11.37,4.21,9.19s12.69-15.07,20.82-5.75,14.72,18,29.15,16.46c18.64-2,23-27.21,6.54-31.73,0,0,7.14-8.67-5.55-12.69-11.62-3.68-12.08-1.4-20.21-10.52-4.68-5.25-32.73-2.45-40.38,26.37C305.59,135.52,312,134.21,311,144.19Z"/><path d="M218.84,330.22c.6-12.53,8.35-45.06,19.28-65.83s5.57-47.5-9.29-58-35.46-8.55-45.26,5.92c-26.36,38.91-18.71,126.39-4.49,155.92,2.82,5.86,9.63,9.67,18.86,12C177.93,371.09,198,325.46,218.84,330.22Z"/><polygon points="375.18 303.93 376.99 301.79 351.95 300.24 351.96 302.83 375.18 303.93"/><polygon class="cls-2" points="399.43 305.24 377.6 326.28 342.41 360.2 281.86 357.18 330.87 301.82 399.43 305.24"/><path class="cls-6" d="M385.46,304.53s15,6.54-1.06,18.83-38.17,16.85-41.54,25.73,4.34,17,4.34,17l-48.26,2.09s-14.12-18.12-3.85-28.85,37-26.35,40.37-30.35-4.59-7.14-4.59-7.14Z"/><path class="cls-7" d="M340.83,311c0,.17,2.36.54,6.22.95s9.22.87,15.14,1.19,11.3.45,15.2.36,6.3-.38,6.29-.53-2.41-.13-6.28-.25-9.23-.36-15.14-.68l-15.14-.87A43.85,43.85,0,0,0,340.83,311Z"/><ellipse class="cls-7" cx="356.2" cy="318.99" rx="0.55" ry="20.33" transform="translate(20.7 659.69) rotate(-87.29)"/><path class="cls-7" d="M325.16,323.82c0,.15,2.2.55,5.81,1s8.61,1,14.15,1.45,10.57.66,14.21.75,5.89,0,5.9-.12-2.24-.38-5.86-.66L345.2,325.2l-14.15-1.12C327.43,323.8,325.18,323.67,325.16,323.82Z"/><ellipse class="cls-7" cx="335.27" cy="333.14" rx="0.55" ry="17.45" transform="translate(-23.41 640.94) rotate(-85.45)"/><polygon class="cls-2" points="377.01 301.26 374.72 304.35 374.72 304.35 350.69 302.73 352.37 300.03 377.01 301.26"/><path class="cls-7" d="M305.74,349c0,.15,1.9.48,5,.84s7.44.73,12.23,1,9.13.3,12.27.26,5.08-.18,5.08-.33-1.94-.29-5.07-.45L323,349.69,310.83,349C307.7,348.88,305.76,348.82,305.74,349Z"/><path class="cls-4" d="M343.76,347c-2.3-6.56-8.86-11.48-12.68-12.58-2.78-.79-16.27-.23-27.38,0-4.32.1-8.67.78-12.33,3.08-3.5,2.2-5.68,6.16-7.84,6.16-3.95,0-32,3.56-42,.28-6.29-2.07-11.73-8.79-22.67-13.71-20.85-4.77-40.92,40.87-20.91,50,33.65,8.34,100.07-3.84,128-13.38a30.57,30.57,0,0,0,15.39-11.35C343.3,352.63,344.65,349.5,343.76,347Z"/></g></svg>