<svg id="Layer_1" data-name="Layer 1" xmlns="http://www.w3.org/2000/svg" xmlns:xlink="http://www.w3.org/1999/xlink" viewBox="0 0 800 800"><defs><style>.cls-1{fill:none;}.cls-2{clip-path:url(#clip-path);}.cls-3,.cls-5,.cls-6{fill:#fff;}.cls-4{fill:#110809;}.cls-5,.cls-6,.cls-8{stroke:#000;stroke-miterlimit:10;}.cls-6{stroke-width:2px;}.cls-7,.cls-8{fill:#5565ff;}</style><clipPath id="clip-path"><circle class="cls-1" cx="400" cy="398" r="350"/></clipPath></defs><title>workflow svg</title><g class="cls-2"><circle class="cls-3" cx="400" cy="398" r="350"/><path d="M604.46,384.59l.76.32,1.38.62c.9.41,1.72.83,2.56,1.25q2.45,1.27,4.76,2.64a102.18,102.18,0,0,1,8.8,5.85A117.16,117.16,0,0,1,638.24,409,130.34,130.34,0,0,1,651.13,425a145.27,145.27,0,0,1,10.19,17.55,157.67,157.67,0,0,1,7.62,18.57c1,3.17,2.08,6.32,2.87,9.53l1.27,4.79,1.07,4.82a202.59,202.59,0,0,1,3.63,23.85l-.85-30.34a148.33,148.33,0,0,0-6.55-21.87c-4.69-12.81-11.5-27.62-19-43.62-6.18-13.09-11.48-24.61-16.35-33.93s-9.61-16.16-13.45-19.78c3.79,3.59,10.87,8.17,18.58,16a116.77,116.77,0,0,1,22.74,32.23,156.19,156.19,0,0,1,13.33,44.77l-1.84-65.43a58.87,58.87,0,0,0-6.29-12.87c-4.52-7.3-10.71-15.35-17-24.62a164.13,164.13,0,0,1-11.78-21.1c-2.93-6.2-5.31-11.07-7.24-13.77,1.94,2.72,6.7,5.45,12.19,9.74a77.1,77.1,0,0,1,17.43,18,81.28,81.28,0,0,1,12.22,29l-.7-25.05c-2.08-11.5-6.29-28.81-6.85-48.95-.61-21.57,5.33-37.88,5.11-45.5.21,7.62,7.05,23.57,7.66,45.14.57,20.15-2.66,37.67-4.1,49.27l.77,27.29a174.72,174.72,0,0,1,11.71-49.83,137.87,137.87,0,0,1,22-36.56c7.61-9.1,14.64-14.91,18.81-18.75-4.23,3.91-8.77,11.77-13.41,22.17s-9.65,23.34-15.6,37.94c-7.14,17.92-13.37,34.46-17.48,48.7a157,157,0,0,0-5.29,24.35l1.18,42.13q.61-7.86,1.76-15.6a252.17,252.17,0,0,1,7.49-34,290.69,290.69,0,0,1,11.63-32.62c2.25-5.34,4.76-10.61,7.42-15.86a150.47,150.47,0,0,1,9.42-15.88c-4.41,6.32-4.86,12.79-4.12,19a51.23,51.23,0,0,0,2.21,9c1,2.88,2.16,5.61,3.27,8.15,1.63,3.67,1.47,6.47.29,8.84s-3.19,4.38-5.34,6.28c-4.17,3.82-8.6,7.44-5.3,12.48s7.09,9.66,6.94,15.2c0,2.79-1,5.81-3.52,9.36-2.37,3.59-6.43,7.68-12.18,13a70.86,70.86,0,0,0-9.44,10.61,88.35,88.35,0,0,0-6.45,10.53c-1.63,3.24-2.72,6.09-3.51,8.1l-.09.25,1.35,48.17c.14-1.08,4.6-31.6,22.17-48.91,16.51-16.26,32.19-21.72,36.29-24.15-4.13,2.44-27.17,32.58-34.68,43-11.59,16-23.6,37.28-23,59,0,0,0-1.29,0-1.28v0l-1.05.38-1.25-17.6a29.48,29.48,0,0,0-1.64-5.52,37.11,37.11,0,0,0-5.23-8.65,55.69,55.69,0,0,0-6.93-7c-2.5-2-5-3.85-7.42-5.49-3.5-2.34-5-4.94-5.52-7.77s0-5.88.32-8.88c.21-1.51.45-3,.59-4.48a18.07,18.07,0,0,0-.11-4.1,6.48,6.48,0,0,0-4.62-5.61c-5.86-2-11.89-3.06-15.73-7.28a13.68,13.68,0,0,1-2.57-3.84,25.41,25.41,0,0,1-1.88-5.51c-1-4.39-1.64-10.17-2.59-18.44A58.59,58.59,0,0,0,614,394.87c-4.86-6.75-9.78-10.42-10.6-10.69Z"/><path class="cls-4" d="M462.43,266.69h-1C461.44,266.8,462.43,266.58,462.43,266.69Z"/><rect x="77.96" y="534.68" width="670.07" height="3.93" transform="translate(-11.6 9.13) rotate(-1.25)"/><path class="cls-5" d="M471.57,289.1l-.06.33"/><path d="M579.89,383.81c35.49,37,66.06,149.68,66.06,149.68H595l-31.84-74.84Z"/><path d="M395.06,389.92c7.42-8.44,47-36.2,97.4-33.18,44.46,2.66,80.43,16.4,87.44,27.08,5.13,7.81-6.1,60.55-13.92,81.55s-11.17,49.08-11.17,68.13c0,0-125.8-6.35-126.54-5.62S412.64,481.48,410.69,458,413.13,408.72,395.06,389.92Z"/><path d="M370.64,504.44c0-32.41,8.5-115.51,28.07-115.71,15.17-.15,19.79,13.72,27.2,53.46,2.22,11.87-1.56,45.8-2.53,60.12Z"/><path d="M462,536.35H390.92c-10.54,0-21.87-8.6-20.28-31.9s39.72-20,52.74-2.13l39.19,6Z"/><path class="cls-6" d="M497.89,534.92l-3.36-3.15-10.23,3.63a16.55,16.55,0,0,1-5.53,1H427.49s-17.37-.63-16.72-15.79c.79-18.45,13.93-21.34,18.18-21.34l55.55,9.09a16.22,16.22,0,0,0,3.32-.34l15.83-3.31a9.75,9.75,0,0,1,6.85,1.09l9,5.15a22.64,22.64,0,0,1,4.75,3.64l16.28,16.32a3.22,3.22,0,0,1-2.28,5.5H501.49A5.26,5.26,0,0,1,497.89,534.92Z"/><path class="cls-7" d="M506.74,509.18H681a6.39,6.39,0,0,0,6.25-5l21.64-100.22a6.39,6.39,0,0,0-6.25-7.74H528.38a6.39,6.39,0,0,0-6.25,5L500.49,501.44A6.39,6.39,0,0,0,506.74,509.18Z"/><path class="cls-7" d="M601.66,534.25l-3.16-37.83a6.69,6.69,0,1,1,13.33-1.11L615.06,534l25.44-.31v6.76L576,542v-7.15Z"/><path class="cls-3" d="M631.68,419.08c.49-4.24,7.21-4.29,6.71,0l-1.59,13.82c-.49,4.24-7.21,4.29-6.71,0Z"/><path class="cls-3" d="M618.26,419.08c.49-4.24,7.21-4.29,6.71,0l-1.59,13.82c-.49,4.24-7.21,4.29-6.71,0Z"/><path class="cls-3" d="M604.83,419.08c.49-4.24,7.21-4.29,6.71,0L610,432.89c-.49,4.24-7.21,4.29-6.71,0Z"/><path class="cls-3" d="M591.4,419.08c.49-4.24,7.21-4.29,6.71,0l-1.59,13.82c-.49,4.24-7.21,4.29-6.71,0Z"/><path class="cls-7" d="M578,419.08c.49-4.24,7.21-4.29,6.71,0l-1.59,13.82c-.49,4.24-7.21,4.29-6.71,0Z"/><path class="cls-6" d="M487,312.86s-11,32.85-16.59,44.08,16.22,22.11,30.75,24.81c9.6,1.78,28.15.89,18-11.85,0,0-5.73-7.11,3.54-23.55C522.6,346.35,491.4,307.12,487,312.86Z"/><path d="M522.6,346.35s-14.46-18.18-25.1-28L492,323.89c-2,18.57,7.47,48.79,27,46C519.07,369.89,513.34,362.78,522.6,346.35Z"/><path class="cls-6" d="M493.27,305.36c-1.82-10.34-10.77-7.91-10.54,1.19.26,10.4,6,15.57,8.81,12.14,0,0,.69,23.44,14,32.88s22.65.55,31.57-18.2c7.67-16.12,10.22-33.33,9.42-39.31-2.11-15.6-21.37-21.83-35.18-16C494.44,285.3,493.27,305.36,493.27,305.36Z"/><path d="M493.27,305.36c1.54,5.92,4.09,10,6.74,6.84s6.44-17.58,16.73-11.9,19,11.29,31.38,5.23c16-7.82,11.67-31.76-4.46-30.46,0,0,3.56-10.06-9.08-9.53-11.57.48-11.25,2.67-21.47-2.83-5.88-3.17-30,8.44-27.5,36.66C485.61,299.38,490.88,296.14,493.27,305.36Z"/><path d="M314.89,384.24c36,37.51,67,151.91,67,151.91H330.23l-32.32-76Z"/><path d="M127.3,390.44c7.54-8.56,47.68-36.74,98.85-33.68,45.13,2.7,81.63,16.64,88.74,27.48,5.2,7.93-6.2,61.46-14.13,82.77a186.9,186.9,0,0,0-11.4,63.44s-127.62-.74-128.37,0-15.86-47.08-17.84-70.87S145.64,409.52,127.3,390.44Z"/><path class="cls-6" d="M196.36,312.35s-.64,39.66,0,51.5,19,22.5,25.8,22.79,21.9-9.77,24.27-26.64V324.19Z"/><path d="M196.12,333.9c.08-11.49.24-21.55.24-21.55l50.07,11.84v29.37c-4.17,18.36-31.86,13.34-38.45-4.06C204.2,339.53,201,336.57,196.12,333.9Z"/><path class="cls-6" d="M259.7,296.94C257.82,326,246,354.13,227.21,351.17c-23.28-3.68-30.34-39-29.42-58.22s11.88-31.27,28.57-31.28C242.23,261.65,261.29,272.34,259.7,296.94Z"/><path class="cls-6" d="M192.32,306.62c1.25,5.79,4.06,10.19,6.3,9.82s3-5.37,1.79-11.17-4.06-10.19-6.3-9.82S191.07,300.83,192.32,306.62Z"/><path d="M259.32,301.49c3.55-5.43,3.79-7.56,3.53-16.57s-7.86-9.33-7.71-13.18-4.75-14.2-24.82-15-18.86,8.36-25.07,9-15.85,7-11.16,29.79c0,0,5.46.52,7.6,11.55a1,1,0,0,0,1.75.33,14.46,14.46,0,0,0,1.84-4.23c1.5-5.51,7.5,2.77,8.59-8.22.78-7.83,19.88,6.54,34.05-6.16,0,0,2.11,2.8,8.14,2.62C259.59,291.25,259.32,301.49,259.32,301.49Z"/><path class="cls-6" d="M246.43,360v-8.62c7.48,3.29,14.41,6.06,15.18,10.35,1.49,8.39-5.24,32.78-15.18,41.39,0,0-1.65,2.11-4.74-2.6S228,385,224.39,386.43l0,0C231.83,384.86,244.29,375.22,246.43,360Z"/><path class="cls-6" d="M183.85,358.54c2.07-4.68,8.79-8.49,12.23-10.12,0,6.37.1,12,.28,15.43.55,10.3,14.5,19.69,22.61,22.16h0c-3.83-1.49-17.89,13.49-20.33,17.57s-5.45-.68-10.4-11.84C183.2,380.37,180.48,366.18,183.85,358.54Z"/><path d="M102.52,506.67c0-32.89,2-112.07,24.78-116.24,15.15-2.78,23.79,12.72,31.32,53.06,2.25,12.05-1.58,46.48-2.57,61Z"/><path d="M193.84,540.81s-61.54.91-72.19,0c-15.9-1.36-27-13.84-20.58-32.38,10.88-31.25,34.42-12.65,55.81-4.18l37.49,8.1Z"/><path class="cls-6" d="M218.57,537.61l-3.41-3.2-10.38,3.68a16.8,16.8,0,0,1-5.61,1H178.55s-9.75-2.09-10.07-13.6,9.59-14.87,13.91-14.87H205a16.47,16.47,0,0,0,3.37-.35l16.07-3.36a9.89,9.89,0,0,1,7,1.11l9.11,5.23a23,23,0,0,1,4.82,3.69l16.52,16.56a3.27,3.27,0,0,1-2.32,5.58H222.23A5.34,5.34,0,0,1,218.57,537.61Z"/><path class="cls-6" d="M284.24,547.87H214.7a7.22,7.22,0,0,1-7.22-7.22h0a3.29,3.29,0,0,1,3.29-3.29h73.47a3.29,3.29,0,0,1,3.29,3.29v3.93A3.29,3.29,0,0,1,284.24,547.87Z"/><path class="cls-6" d="M407.32,545.46l-142.64,3.6c-5.6,0-9.67-6.53-8.18-11.94l23-89.73a13.92,13.92,0,0,1,13.42-10.23l142.85-2.4A8.49,8.49,0,0,1,444,445.51l-23.24,89.73A13.92,13.92,0,0,1,407.32,545.46Z"/><circle class="cls-8" cx="353.66" cy="493.29" r="7.56"/></g></svg>