<svg id="Layer_1" data-name="Layer 1" xmlns="http://www.w3.org/2000/svg" viewBox="0 0 256 256"><defs><style>.cls-1{fill:#f6f7ff;stroke:#1d243d;}.cls-1,.cls-2{stroke-width:6px;}.cls-1,.cls-3{opacity:0.5;isolation:isolate;}.cls-2{fill:#5466ff;stroke:#5466ff;}.cls-3{fill:#1d243d;}</style></defs><title>services icons</title><path class="cls-1" d="M92.33,219H38V164.68L138.74,63.94l55.84,52.81Z"/><path class="cls-2" d="M190.18,35.74C197,37.11,203.77,40.68,210,47s9.85,13,11.22,19.87a34.88,34.88,0,0,1-1.26,18,45,45,0,0,1-6.07,11.77c-1,1.39-1.9,2.5-2.59,3.29l-16.77,16.89L138.64,64l11.42-11.42,6.12-6.1c.24-.22.56-.51,1-.86.79-.69,1.9-1.59,3.29-2.59A45,45,0,0,1,172.2,37,34.87,34.87,0,0,1,190.18,35.74Z"/><circle class="cls-3" cx="192.09" cy="204.09" r="14.91"/></svg>