<svg id="Layer_1" data-name="Layer 1" xmlns="http://www.w3.org/2000/svg" viewBox="0 0 217 164"><defs><style>.cls-1,.cls-2{fill:#fff;}.cls-1,.cls-2,.cls-3{stroke:#000;stroke-miterlimit:10;}.cls-2,.cls-3{stroke-width:2px;}.cls-3{fill:none;}</style></defs><title>why us</title><path class="cls-1" d="M43.19,50.74l0,.44"/><path class="cls-2" d="M49.66,75.87s-3.86,44.5-7.48,60.27,27,22.81,46,21.81c12.57-.66,35.56-7.38,18.92-20.28,0,0-9.33-7.18-2.68-30.58C104.46,107.09,53.5,67.35,49.66,75.87Z"/><path d="M104.46,107.09S80.84,88.67,64.55,79.6l-5.19,8.56c3.16,23.87,24.11,58.91,47.78,49.5C107.14,137.67,97.81,130.49,104.46,107.09Z"/><path class="cls-2" d="M55.31,64.57c-5.4-12.41-15.89-6.66-12.85,4.67,3.46,13,12.25,17.7,14.71,12.55,0,0,7.95,29.18,27.46,37s28.56-6.16,34.08-32.35c4.75-22.52,2.75-44.87-.07-52.12-7.35-18.92-33.38-20.92-48.92-9.37C50.71,39.07,55.31,64.57,55.31,64.57Z"/><path d="M55.31,64.57c3.72,7,8.15,11.31,10.52,6.54s2.76-24,17.37-20,27.22,8.41,40.91-2.92c17.7-14.64,5-43.33-14.79-36.84,0,0,1.42-13.68-14.26-9.2C80.71,6.28,81.78,8.93,67.3,5.12,59,2.92,32.21,24.77,43.9,59.38,43.9,59.38,49.53,53.74,55.31,64.57Z"/><path class="cls-3" d="M41.5,138.5s-7,4-40,22"/><path class="cls-3" d="M109,139s9.76,4,44.53,18.3"/><path d="M186.5,61.44a16.88,16.88,0,0,1,5.33,31.12,1.87,1.87,0,0,0-.89,1.26l-1.4,7.18L181,99.34l2.17-11.16a7.24,7.24,0,1,0-7.61-8.61,1.87,1.87,0,0,0,3.67.71,3.5,3.5,0,1,1,2.77,4.1,1.87,1.87,0,0,0-2.19,1.48l-2.48,12.76L168.85,97l1.4-7.18a1.87,1.87,0,0,0-.35-1.5A16.88,16.88,0,0,1,186.5,61.44Z"/><path d="M188.26,107.56a3.35,3.35,0,0,1-3.92,2.64l-14.13-2.75a3.35,3.35,0,0,1-2.64-3.92l.56-2.89,20.69,4Z"/><path d="M176,115.57a4,4,0,0,1-3.23-3.81l7.65,1.49A4,4,0,0,1,176,115.57Z"/><path d="M208.08,76a1.87,1.87,0,0,1,1.73-2l4.19-.31a1.87,1.87,0,1,1,.27,3.73l-4.19.31A1.87,1.87,0,0,1,208.08,76Z"/><path d="M205.62,64.42l3.7-2a1.87,1.87,0,0,1,1.78,3.29l-3.7,2a1.87,1.87,0,1,1-1.78-3.29Z"/><path d="M208.56,83.6,212.51,85a1.87,1.87,0,1,1-1.28,3.52l-3.95-1.43a1.87,1.87,0,1,1,1.28-3.52Z"/><path d="M156.91,62l3.74,1.9a1.87,1.87,0,0,1-1.7,3.34l-3.74-1.9a1.87,1.87,0,1,1,1.7-3.34Z"/><path d="M153.57,73.65l4.19.21a1.87,1.87,0,1,1-.18,3.74l-4.19-.21a1.87,1.87,0,0,1,.18-3.74Z"/><path d="M165.58,60.14a1.87,1.87,0,0,1-.61-.49l-2.64-3.27A1.87,1.87,0,0,1,165.25,54l2.64,3.27a1.87,1.87,0,0,1-2.3,2.84Z"/></svg>