<svg id="Layer_1" data-name="Layer 1" xmlns="http://www.w3.org/2000/svg" viewBox="0 0 256 256"><defs><style>.cls-1{fill:#fff;}.cls-1,.cls-2{stroke:#000;stroke-miterlimit:10;stroke-width:2px;}.cls-2{fill:none;}</style></defs><title>why us</title><path class="cls-1" d="M52,97.06l8,65.31L55,196l52,5-.21-30.3s22.18-2.75,23.15-18.32c.62-9.94-5.62-79.69-5.62-79.69Z"/><path d="M67.7,174.81c-5.79-3.93-8.72-6.54-11.26-13.06S52.25,148.37,49.35,142c-3-6.69-7.41-12.71-10.41-19.41s-4.52-14.6-1.6-21.34c0,0,1-8.63,12.67-11.78,0,0,6.57-18.3,21.64-20C92.14,67.13,91.43,61.1,104.8,56c12.5-4.78,17.34,6.24,17.34,6.24s8.23,3.77,10.16,11.3l.05.2A17.91,17.91,0,0,1,124,93.4l-2.5,1.45c-2.35,1.35-4.81,2.76-6.3,5-2.21,3.38-1.74,7.81-.76,11.73s2.41,7.88,1.86,11.87c-.19,1.36-1,3-2.35,2.91-1.64-.08-2-2.26-2.51-3.82-1.43-4.56-8.15-6.82-11.63-2.53a7.27,7.27,0,0,0-.3,9.11c2.25,2.94,6.2,4.78,7.63,8.27,2.41,5.87-3.63,12.73-5.66,16.63A25.33,25.33,0,0,1,99.05,158a58.36,58.36,0,0,1-17.13,14.91c-4.83,2.91-11.28,3.8-16.06.8"/><path class="cls-2" d="M15.07,206.68S59,177,162.5,220.5"/><path d="M180.55,141.63l-24.89-13.57v-7.52L180.55,107v8.83l-17.34,8.33,17.34,8.65Z"/><path d="M184.8,146.38l16.51-44.09h5.21L190,146.38Z"/><path d="M212.11,141.63v-8.78l17.34-8.58-17.34-8.51V107L237,120.55V128Z"/></svg>