<svg id="Layer_1" data-name="Layer 1" xmlns="http://www.w3.org/2000/svg" xmlns:xlink="http://www.w3.org/1999/xlink" viewBox="0 0 710 710"><defs><style>.cls-1{fill:none;}.cls-2,.cls-6{fill:#fff;}.cls-3{clip-path:url(#clip-path);}.cls-4{fill-rule:evenodd;}.cls-5,.cls-7{fill:#5565ff;}.cls-5,.cls-6{stroke:#000;stroke-miterlimit:10;stroke-width:2px;}.cls-8{fill:#fafafa;}</style><clipPath id="clip-path"><circle class="cls-1" cx="356" cy="356" r="350"/></clipPath></defs><title>workflow svg</title><circle class="cls-2" cx="356" cy="356" r="350"/><g class="cls-3"><path class="cls-4" d="M336.66,313.42a18.91,18.91,0,0,1-3.47,3.64l.9,4.57-7,3.13L324.27,321a18.89,18.89,0,0,1-5,.13L316.65,325l-7.19-2.77.67-4.61a18.86,18.86,0,0,1-3.64-3.47l-4.57.9-3.13-7,3.74-2.78a18.89,18.89,0,0,1-.13-5l-3.87-2.59,2.77-7.19,4.61.67a18.85,18.85,0,0,1,3.47-3.64l-.9-4.57,7-3.13,2.78,3.74a18.93,18.93,0,0,1,5-.13l2.59-3.87,7.19,2.77-.67,4.61a18.84,18.84,0,0,1,3.64,3.47l4.57-.9,3.13,7L340,299.28a18.89,18.89,0,0,1,.13,5L344,306.9l-2.77,7.19-4.61-.67Zm-7.78-7.86a8.27,8.27,0,1,0-10.69,4.74A8.27,8.27,0,0,0,328.88,305.56Z"/><path class="cls-5" d="M432.29,407c-1.2-.26-12.85,46.47-14,64.58-1.18,19,11.63,73.93,11.63,73.93l49.31.69h0l5.12.3,49.73,1s10.82-65.28,8.57-83.23-13.54-54.7-13.54-54.7Z"/><path d="M518.69,216.6c3.08,11.19,7.73,20.17,12.27,24.67s9.4,9.77,9.23,16.16c-.06,2.51-.9,5.17.2,7.43,1.42,2.93,5.22,3.57,8.06,5.17,4.2,2.36,6.55,7.37,6.38,12.19a19.58,19.58,0,0,1-6,12.8c-3.53,3.55-9.13,6-13.51,3.62-2.65-1.46-4.16-4.32-5.49-7q-10.37-21.09-18.77-43.08"/><path d="M490.4,168.67a28.84,28.84,0,0,0-50.26,19.6c.08,7.5,3,15.35,0,22.24-2.1,4.87-6.94,8.55-7.61,13.81-.77,6.1,4.45,11.64,4.17,17.78-.18,4-2.69,7.56-5.59,10.34s-6.26,5.08-8.91,8.09c-7.38,8.38-7.85,21.61-2.27,31.28s16.34,15.74,27.43,17.05,22.38-1.74,32.2-7.07c6.39-3.47,12.4-8,16.2-14.24s5.1-14.23,2.1-20.86"/><path class="cls-6" d="M466.82,262.09s-10.72,3.29-15,6.66c-3.65,2.89-22.77,55.11-22.77,55.11l13.79,52.33S431.74,399,431.1,409.38c28.39,18.32,64.14,13.74,97.67-.94l-14-49.4L538,271.6,510,261.66Z"/><path class="cls-6" d="M391.65,359.7l-14.72-44.32a1.11,1.11,0,0,1,.92-1.46L393.24,312a1.11,1.11,0,0,1,1.09.53l17.35,28.84a1.11,1.11,0,0,0,2-.22l22.18-51.58c.41-1.22,2.23-14.8,2.17-13.51l-4.21,87a1.11,1.11,0,0,1-.29.7L426,372.07l-.09.09A20.29,20.29,0,0,1,409.36,377C398.93,375.58,394.61,367.28,391.65,359.7Z"/><path d="M513.41,206.38a7.84,7.84,0,0,1,2.73-9.33,8.45,8.45,0,0,1,9.83.5,9.16,9.16,0,0,1,2.81,9.54,9.35,9.35,0,0,1-18.18-1.31"/><path class="cls-6" d="M504.62,178.26l0,5.7-2.16,80.36c.14,9.9-15.91,26.39-25.06,29.68-2.1.76-9.42,3.44-13,2.31-10.76-3.41,2.88-18.08,2.61-27.06-.32-10.5-.85-21.54-.85-21.54s-13.58-1.87-16.87-19.44c-1.64-8.73-1.59-23.13-1.17-34.91a18.64,18.64,0,0,1,20.07-17.93Z"/><path d="M466.75,246.48a44.9,44.9,0,0,0,23.45-7s-5.4,12.28-23.1,11.11Z"/><path d="M482.43,172.67c-4.71,6.27.19,15.14,5.62,20.8s12,12.23,10.57,19.93c-1.72,8.93-13.93,14.65-12.12,23.56.66,3.25,3.23,6,3.24,9.34,0,6-7.73,8.9-10,14.46-3.06,7.62,5.35,15.22,5.48,23.43.07,4.66-2.57,9-2.71,13.67-.29,9.55,11,16.53,20.26,14.19s15.6-11.38,17.62-20.72-1-22.46-2.54-31.89l16,3.72c3-2.85-1.1-5.88-1.77-9.95-1.69-10.21-8.4-18.85-11.59-28.7-2.79-8.6-2.81-17.82-4-26.78s-4-18.3-10.84-24.21-18.69-6.64-24.23.51"/><path d="M541.42,406.38l.76.34,1.39.65c.91.43,1.72.86,2.58,1.3q2.47,1.32,4.78,2.73a103.4,103.4,0,0,1,8.83,6,118.56,118.56,0,0,1,15.53,14.11,131.9,131.9,0,0,1,12.83,16.3,147,147,0,0,1,10.08,17.9,159.56,159.56,0,0,1,7.47,18.89c1,3.22,2,6.42,2.78,9.68l1.22,4.87,1,4.89a205,205,0,0,1,3.36,24.18l-.47-30.71a150.1,150.1,0,0,0-6.34-22.21c-4.58-13-11.27-28.09-18.7-44.39-6.09-13.32-11.29-25-16.1-34.55s-9.51-16.48-13.35-20.19c3.79,3.68,10.89,8.41,18.59,16.42a118.16,118.16,0,0,1,22.59,32.91A158.06,158.06,0,0,1,613.19,471l-1-66.23a59.57,59.57,0,0,0-6.2-13.11c-4.48-7.45-10.64-15.67-16.84-25.14A166.09,166.09,0,0,1,577.5,345c-2.88-6.31-5.23-11.27-7.14-14,1.93,2.77,6.71,5.61,12.2,10A78,78,0,0,1,600,359.44a82.25,82.25,0,0,1,12,29.48l-.38-25.36c-2-11.66-6-29.23-6.29-49.62-.33-21.84,5.88-38.26,5.77-46,.12,7.71,6.83,23.94,7.16,45.78.31,20.39-3.19,38.08-4.79,49.8l.42,27.63a176.81,176.81,0,0,1,12.5-50.26,139.51,139.51,0,0,1,22.78-36.71c7.82-9.11,15-14.9,19.27-18.73-4.33,3.9-9,11.79-13.86,22.25s-10.07,23.49-16.28,38.19c-7.46,18-14,34.69-18.33,49a158.89,158.89,0,0,0-5.67,24.57l.65,42.64q.72-7.95,2-15.76a255.18,255.18,0,0,1,8-34.3,294.16,294.16,0,0,1,12.2-32.85c2.35-5.37,5-10.67,7.71-16a152.27,152.27,0,0,1,9.74-15.94c-4.55,6.34-5.08,12.88-4.42,19.15a51.84,51.84,0,0,0,2.12,9.1c1,2.93,2.11,5.71,3.2,8.29,1.6,3.73,1.4,6.57.17,9s-3.28,4.39-5.49,6.29c-4.27,3.81-8.8,7.41-5.52,12.55s7,9.87,6.83,15.47c-.07,2.82-1.06,5.87-3.68,9.43-2.45,3.6-6.6,7.69-12.5,13a71.71,71.71,0,0,0-9.69,10.61,89.4,89.4,0,0,0-6.66,10.57c-1.69,3.26-2.83,6.12-3.65,8.15l-.1.25.74,48.76c.16-1.09,5.07-31.92,23.07-49.2,16.92-16.24,32.86-21.56,37-24-4.21,2.41-27.92,32.62-35.66,43-11.94,16-24.35,28.14-24,50.11a.22.22,0,0,1,0,0v0l-1,1.81-1.12-11.32a29.84,29.84,0,0,0-1.59-5.6,37.56,37.56,0,0,0-5.18-8.82,56.36,56.36,0,0,0-6.92-7.13c-2.51-2.11-5-4-7.43-5.65-3.51-2.41-5-5.06-5.48-7.94s0-6,.44-9c.24-1.52.49-3,.66-4.52a18.29,18.29,0,0,0-.06-4.15,6.56,6.56,0,0,0-4.6-5.74c-5.9-2.11-12-3.25-15.82-7.57a13.84,13.84,0,0,1-2.55-3.92,25.72,25.72,0,0,1-1.83-5.6c-1-4.46-1.53-10.31-2.38-18.7A59.29,59.29,0,0,0,551,416.9c-4.83-6.89-9.76-10.67-10.58-11Z"/><path id="_Path_" data-name="&lt;Path&gt;" d="M389.4,210.2A39.29,39.29,0,0,0,359.11,192a2.15,2.15,0,0,0-2,3.3l14.93,23L361.76,240l-24,.61-14.93-23a2.15,2.15,0,0,0-3.81.44,39.39,39.39,0,0,0,43.7,52.06L453.61,407a39.36,39.36,0,0,0,29.82,61,2.15,2.15,0,0,0,2-3.3l-14.93-23L480.78,420l24-.62,14.93,23a2.14,2.14,0,0,0,3.81-.44,39.38,39.38,0,0,0-43.7-52L388.92,253.05A39.4,39.4,0,0,0,389.4,210.2Z"/><rect x="18.96" y="541.4" width="678.07" height="3.97" transform="translate(704.07 1094.44) rotate(-178.75)"/><path class="cls-6" d="M350.21,314.8c.64,3.83-1.44,20.3-3.7,21.83s-22.45,8.32-27.64,11.81-27.16,20.67-36.35,35.92c-.36.6-3.14,2.66-3.62,3.19-2,2.3-3.18,2.61-5.83,4.66-6.08,4.71-6.62-.56-10.51-2.46a13.34,13.34,0,0,1-2.82-22.29c2.74-2.28,5.31-4.3,7.47-5.75,0,0,37.16-26.5,38.7-30,1.4-3.22,5.46-5.93,8.91-8.25l3.54-2.38a8.39,8.39,0,0,0,3.37-4.48,6.55,6.55,0,0,1,2.66-3.23l.37-.26C329.24,310.07,349.57,311,350.21,314.8Z"/><path d="M136.39,207.83c4.5-6.62,1.72-16.63-5-20.95s-16.11-3.23-22.51,1.59-8.18,13.2-7.13,20.37a11.18,11.18,0,0,0,.95,3c2.54,5.52,9.48,12.49,16.16,8.48"/><path d="M190.48,243c23.11-39.56-19.64-59.05-42-53.92-21,4.82-30.38,14.7-34.48,28.39s-4.69,28.73.09,42.22c2.36,6.65,6.85,13.51,13.81,14.67"/><path class="cls-6" d="M135.4,210.57a6.62,6.62,0,0,0-6.25,6.41h0l-2.24,91.47C126.52,319,143.16,323.7,154.46,324h0c11.41.33,12.07-5.24,12.73-15.26,1.11-16.74,1.42-23,1.42-22.93s14.52-1.67,18.44-20.31c2-9.27,2.25-24.62,2.08-37.18-.15-11.31-6.93-25.51-18.22-24.88Z"/><path d="M168.61,284.5a47.86,47.86,0,0,1-24.83-8s5.46,13.21,24.36,12.39Z"/><path d="M183.8,204.65a18.14,18.14,0,0,1-7.62,17.44c-3.2,2.15-7,3.2-10.7,4.21l-7.16,2c-5.29,1.44-10.66,2.89-16.14,2.81.28,6.14,1,10.28-2.32,15.47-3,4.66-7.27,7.93-12.86,6.57-2.22-14.79-2.32-21.77-2.09-36.72,0-3.16.15-6.51,1.86-9.16,2.83-4.39,8.79-5.23,14-5.64l22-1.73a43.93,43.93,0,0,1,10.76,0,14.78,14.78,0,0,1,9.28,5"/><path class="cls-5" d="M158,539l1.62-82.59a7.58,7.58,0,0,1,8.62-7.41L191,451.45,237,540"/><path d="M161.29,501.92c3.83-21,15.47-52.65,15.47-52.65L112.26,448S93.56,479.5,92.54,500a198,198,0,0,1-5.31,36.71L171,539"/><path d="M200,321.23l38.46,44.26a4.52,4.52,0,0,0,5.61,1L288,341.32a4.52,4.52,0,0,1,5.39.76l15.29,14c1,1.71,1.65,3.62-.29,6.45a3.05,3.05,0,0,1-.84.8l-62.67,41.22a4.52,4.52,0,0,1-2.63.79l-27.15-.42a4.52,4.52,0,0,1-4-2.48l-24.52-48.34a4.52,4.52,0,0,1-.13-3.82l12.26-28.84A.78.78,0,0,1,200,321.23Z"/><path class="cls-6" d="M215.33,366.49l-24.05,86.93-77.83-6.68-8-45.75-22-64.47S86.73,307.83,122,306l6.5-13.09,40.07,3.52,4.9,11.93s27.63,1.34,33.08,30a.4.4,0,0,0,0,.13l6.73,11.44C215.45,353.73,216.34,362.24,215.33,366.49Z"/><path d="M136.88,399l11.06,21.19c.91,1.75,4.44,1.69-2.13,4.16l-41.47,6-7.2.85a26.29,26.29,0,0,1-23.71-10.22h0c-5.73-7.53-7.46-19.68-3.74-28.39l12-55.6s7.55-16.29,11.78-19.16c0,0,7.1-7.44,11.83-7.61S136.88,399,136.88,399Z"/><path class="cls-6" d="M102,390.34c-.05.31,2.65-1,18.44,3.85,7.73,2.39,29.54,4.89,29.59,4.58"/><polygon points="303.25 372.1 280.88 393.67 244.8 428.45 182.72 425.35 232.97 368.6 303.25 372.1"/><path class="cls-7" d="M293.43,371.47s16.22,7.19-.29,19.64-39.13,17.09-42.59,26.1a15.16,15.16,0,0,0,2.18,15.23l-47.57-2.09s-14.11-12.18-3.59-23.06,38.17-26.56,41.39-30.79-4.5-7.64-4.5-7.64Z"/><polygon points="278.39 370.76 280.25 368.57 254.59 366.98 254.59 369.63 278.39 370.76"/><path class="cls-8" d="M247.15,378c0,.18,2.42.55,6.38,1s9.45.89,15.52,1.22,11.59.46,15.58.37,6.46-.39,6.44-.55-2.47-.13-6.44-.26-9.46-.36-15.52-.7l-15.52-.89A45,45,0,0,0,247.15,378Z"/><ellipse class="cls-8" cx="262.91" cy="386.2" rx="0.57" ry="20.84" transform="translate(-135.31 630.53) rotate(-87.29)"/><path class="cls-8" d="M231.09,391.15c0,.15,2.26.57,6,1.06s8.83,1,14.51,1.49,10.83.68,14.56.77,6,0,6-.13-2.29-.38-6-.68l-14.52-1.1-14.51-1.15C233.41,391.13,231.1,391,231.09,391.15Z"/><ellipse class="cls-8" cx="241.45" cy="400.71" rx="0.57" ry="17.89" transform="translate(-177.14 609.63) rotate(-85.45)"/><ellipse class="cls-8" cx="229.7" cy="408.42" rx="0.57" ry="17.36" transform="translate(-200.47 594.22) rotate(-84.01)"/><path class="cls-8" d="M207.21,416.94c0,.15,2,.49,5.15.86s7.63.75,12.54,1,9.36.31,12.58.26,5.21-.19,5.21-.34-2-.3-5.19-.46l-12.53-.59L212.42,417C209.21,416.84,207.22,416.78,207.21,416.94Z"/><path class="cls-6" d="M228.13,405.41c-1.38,2.91-10.59,13.14-12.85,13.1s-19.22-5-24.41-5.05-29,2.41-42.51,8.44a38.2,38.2,0,0,1-4.15,1.41c-3.13.42-3.82,0-6.59-1.61-5.37-3.09-5.12-6.32-5.07-7.31.38-7.57,1-15.29,9.09-16,2.95-.25,5.65-.41,7.81-.38,0,0,37.84-.44,40.55-2.11,2.48-1.53,6.52-1.45,10-1.39l3.54.06a7,7,0,0,0,4.42-1.45,5.43,5.43,0,0,1,3.34-.94h.38C216.1,392.26,229.51,402.5,228.13,405.41Z"/><polygon class="cls-2" points="286.2 367.65 283.74 370.97 283.74 370.97 258.78 369.87 260.93 366.49 286.2 367.65"/><path class="cls-6" d="M511.56,378.6c5.15-7.22,1.07-11.06-7.63-12.79-3.18-.63-6.1-1.14-8.46-1.37,0,0-41.18-5.1-43.93-7.25-2.52-2-6.93-2.37-10.7-2.73l-3.86-.37a7.63,7.63,0,0,1-4.63-2.12,6,6,0,0,0-3.53-1.43l-.41,0c-4.87-.47-13.45,4.47-15,13.45-.62,3.47,6.62,12.32,9.6,13.69,2.25,1,19.81-2,25.48-1.42s28.91,4.27,48.9,3.38c.64,0,4.18-.36,4.71,0"/><path class="cls-6" d="M468.61,380.8l56.1,2.78c4.92-.12,11.15-2.42,13.51-4.44,7.29-6.28,7.29-15.52,7.82-21.51,2.21-24.77,2.83-57.14,1.55-65.21-1.64-10.33-9.64-17.7-11.29-19.05-4.86-4-12-3.93-15.89,1-8.65,10.83-4.11,34.2-4,37.71.07,1.72.57,6.33.62,6.61l1.6,33.83c-.53,3.91.66,7.39-6.4,7.11l-40-.53a11.07,11.07,0,0,0-11.43,9.7v.08A11.07,11.07,0,0,0,468.61,380.8Z"/><path class="cls-6" d="M378.13,318.11c-2.33-5.19-16.23-19.91-17.24-22.17s5.31-16,7.65-18.62S387,283.77,389,288.23l.16.38a6,6,0,0,1,.5,3.77,7.63,7.63,0,0,0,.44,5.08l1.59,3.54c1.55,3.45,3,7.84,2.52,11Z"/></g></svg>