<svg id="Layer_1" data-name="Layer 1" xmlns="http://www.w3.org/2000/svg" viewBox="0 0 256 256"><defs><style>.cls-1{fill:#1d243d;isolation:isolate;}.cls-1,.cls-3{opacity:0.5;}.cls-2{fill:#5466ff;}.cls-3{fill:#8d919d;}</style></defs><title>industries icons</title><path class="cls-1" d="M213.56,217H42.44A25.46,25.46,0,0,1,17,191.52V85.15A25.46,25.46,0,0,1,42.44,59.71H213.56A25.46,25.46,0,0,1,239,85.15V191.52A25.46,25.46,0,0,1,213.56,217ZM42.44,73.58A11.58,11.58,0,0,0,30.88,85.15V191.52a11.58,11.58,0,0,0,11.56,11.56H213.56a11.58,11.58,0,0,0,11.56-11.56V85.15a11.58,11.58,0,0,0-11.56-11.56Z"/><path class="cls-2" d="M92.44,135.06a6,6,0,0,0,7.9,2.89,65.18,65.18,0,0,1,54.8,0,5.95,5.95,0,1,0,5-10.78,77.07,77.07,0,0,0-64.83,0A5.94,5.94,0,0,0,92.44,135.06Z"/><path class="cls-3" d="M82.28,107.31a5.95,5.95,0,1,0,5.38,10.61c26.34-13.35,57.23-12,80.17-.4a5.95,5.95,0,1,0,5.38-10.61C147.2,93.74,112.34,92.08,82.28,107.31Z"/><path class="cls-2" d="M150.25,155.16a6,6,0,0,0-3.42-7.68,53.45,53.45,0,0,0-38.16,0,5.95,5.95,0,1,0,4.26,11.1,41.55,41.55,0,0,1,29.64,0A6,6,0,0,0,150.25,155.16Z"/><circle class="cls-2" cx="128" cy="176" r="6"/></svg>