<svg id="Layer_1" data-name="Layer 1" xmlns="http://www.w3.org/2000/svg" viewBox="0 0 256 256"><defs><style>.cls-1{fill:#f6f7ff;stroke:#1d243d;stroke-width:6px;}.cls-1,.cls-3{opacity:0.5;isolation:isolate;}.cls-2{fill:#5466ff;}.cls-3{fill:#1d243d;}</style></defs><title>services icons</title><path class="cls-1" d="M42.44,225.49a36.1,36.1,0,0,1-36.1-36.1V85.61a36.1,36.1,0,0,1,36.1-36.1H213.9A36.1,36.1,0,0,1,250,85.61V189.39a36.1,36.1,0,0,1-36.1,36.1Z"/><path class="cls-2" d="M49.49,107.2A13.54,13.54,0,1,1,63,93.66,13.54,13.54,0,0,1,49.49,107.2Z"/><path class="cls-3" d="M96.61,107.2a13.54,13.54,0,1,1,13.54-13.54A13.54,13.54,0,0,1,96.61,107.2Z"/><path class="cls-3" d="M143.73,107.2a13.54,13.54,0,1,1,13.54-13.54A13.54,13.54,0,0,1,143.73,107.2Z"/></svg>