<svg id="Layer_1" data-name="Layer 1" xmlns="http://www.w3.org/2000/svg" viewBox="0 0 222 171"><defs><style>.cls-1{fill:none;}.cls-1,.cls-2{stroke:#000;stroke-miterlimit:10;stroke-width:2px;}.cls-2{fill:#fff;}</style></defs><title>why us</title><path d="M192,67.22A13.78,13.78,0,1,0,205.78,81,13.8,13.8,0,0,0,192,67.22Zm7.46,17.12h-9.95V74.39h3.28v6.67h6.67Z"/><path d="M220,87.9V74.11h-4.45a24.35,24.35,0,0,0-2-4.88l3.16-3.16-9.75-9.75-3.16,3.15a24.31,24.31,0,0,0-4.88-2V53H185.11v4.45a24.35,24.35,0,0,0-4.88,2l-3.15-3.15-9.75,9.75,3.15,3.16a24.31,24.31,0,0,0-2,4.88H164V87.9h4.45a24.35,24.35,0,0,0,2,4.88l-3.15,3.15,9.75,9.75,3.16-3.15a24.31,24.31,0,0,0,4.88,2V109h13.79v-4.45a24.35,24.35,0,0,0,4.88-2l3.16,3.16,9.75-9.75-3.16-3.16a24.35,24.35,0,0,0,2-4.88ZM192,99.67A18.67,18.67,0,1,1,210.67,81,18.69,18.69,0,0,1,192,99.67Z"/><path class="cls-1" d="M55.77,152s26-18.54,111.23,11.12"/><path d="M40.82,64.62C37.48,76.76,32.43,86.5,27.51,91.39s-10.19,10.6-10,17.54c.07,2.72,1,5.61-.21,8.06-1.54,3.18-5.66,3.87-8.75,5.6-4.56,2.56-7.1,8-6.92,13.22a21.24,21.24,0,0,0,6.5,13.88c3.83,3.86,9.9,6.55,14.66,3.93,2.87-1.59,4.51-4.69,6-7.64Q40,123.09,49.1,99.24"/><path d="M71.51,12.63a32.1,32.1,0,0,1,34.61-8.21A32.1,32.1,0,0,1,126,33.9C125.95,42,122.77,50.55,126,58c2.27,5.28,7.53,9.28,8.25,15,.84,6.62-4.82,12.63-4.53,19.29.19,4.35,2.92,8.2,6.06,11.22s7,5.34,9.67,8.78C153,122,152.31,152.45,143,154c-6,1-28-5-37.75-7.31"/><path d="M43.45,45.12a9,9,0,0,0-3.12-10.64,9.63,9.63,0,0,0-11.21.57,10.44,10.44,0,0,0-3.21,10.88,11,11,0,0,0,11,7.53,11,11,0,0,0,9.77-9"/><path class="cls-2" d="M56.09,23l0,6.18,2.35,87.17c-.15,10.74,17.26,28.63,27.19,32.2,2.28.82,10.22,3.73,14.08,2.51,11.67-3.7-1-18.71-.67-28.46a186.44,186.44,0,0,0-1.23-24.27s14.74-2,18.3-21.08c1.77-9.48,1.73-25.09,1.27-37.87A20.22,20.22,0,0,0,95.55,20Z"/><path d="M98.21,97a48.71,48.71,0,0,1-25.44-7.54S78.8,104.26,98,103Z"/><path d="M80.15,17c5.11,6.8-.21,16.43-6.1,22.56S61,52.8,62.59,61.16C64.45,70.84,77.7,77,75.73,86.71c-.72,3.53-3.5,6.54-3.51,10.14,0,6.5,8.39,9.66,10.81,15.69,3.32,8.26-5.8,16.51-5.94,25.41C77,143,79.87,147.72,80,152.78c.31,10.36-11.93,17.94-22,15.39s-16.92-12.35-19.11-22.47,1.13-24.36,2.75-34.6l-17.4,4c-3.24-3.09,1.19-6.38,1.92-10.79C28,93.26,35.32,83.88,38.78,73.21c3-9.33,3-19.33,4.37-29S47.49,24.3,54.92,17.89s20.28-7.2,26.28.55"/></svg>