<svg id="Layer_1" data-name="Layer 1" xmlns="http://www.w3.org/2000/svg" viewBox="0 0 256 256"><defs><style>.cls-1{fill:#fff;}.cls-2{opacity:0.5;}</style></defs><title>services icons</title><path class="cls-1" d="M42.44,230.49a36.1,36.1,0,0,1-36.1-36.1V90.61a36.1,36.1,0,0,1,36.1-36.1H213.9A36.1,36.1,0,0,1,250,90.61V194.39a36.1,36.1,0,0,1-36.1,36.1Z"/><path d="M49.49,112.2A13.54,13.54,0,1,1,63,98.66,13.54,13.54,0,0,1,49.49,112.2Z"/><path class="cls-2" d="M96.61,112.2a13.54,13.54,0,1,1,13.54-13.54A13.54,13.54,0,0,1,96.61,112.2Z"/><path class="cls-2" d="M143.73,112.2a13.54,13.54,0,1,1,13.54-13.54A13.54,13.54,0,0,1,143.73,112.2Z"/></svg>