<svg id="Layer_1" data-name="Layer 1" xmlns="http://www.w3.org/2000/svg" viewBox="0 0 256 256"><defs><style>.cls-1{fill:#f6f7ff;stroke:#1d243d;stroke-width:6px;opacity:0.5;isolation:isolate;}.cls-2{fill:#5466ff;}</style></defs><title>php advancements</title><path class="cls-1" d="M202.4,72.18H163.62a0,0,0,0,1,0-.06l11.31-20.75,0,0a19.3,19.3,0,1,0-2.5-38.43c-15.34,2-22.49,21.24-11.07,32.73a0,0,0,0,1,0,0L146.94,72.16l0,0H101.78l0,0L87.33,45.69a0,0,0,0,1,0,0C98.72,34.19,91.65,15,76.39,12.93a19.3,19.3,0,1,0-2.74,38.41c.21,0-.73-1.6,11.45,20.77a0,0,0,0,1,0,.06H46.32A24.33,24.33,0,0,0,22,96.5v92.83a24.33,24.33,0,0,0,24.33,24.33h98a0,0,0,0,1,0,0l4.22,29.44h0l40-29.47h13.84a24.33,24.33,0,0,0,24.33-24.33V96.46A24.31,24.31,0,0,0,202.4,72.18Zm-55.49,32.17h10.92a7.49,7.49,0,0,1,7.57,6.85,7.3,7.3,0,0,1-7.29,7.75H147.19a7.49,7.49,0,0,1-7.57-6.85A7.3,7.3,0,0,1,146.91,104.35Zm-56.91,0,11.49,0a7.49,7.49,0,0,1,7.57,6.85,7.3,7.3,0,0,1-7.29,7.75H90.85a7.49,7.49,0,0,1-7.57-6.85,7.3,7.3,0,0,1,7.29-7.75Zm100.51,69.27a7.34,7.34,0,0,1-7.34,7.34H65.52a7.34,7.34,0,0,1-7.34-7.34v-30a7.34,7.34,0,0,1,7.34-7.34H183.17a7.34,7.34,0,0,1,7.34,7.34Z"/><circle class="cls-2" cx="85.46" cy="159.87" r="9.11"/><circle class="cls-2" cx="124.34" cy="159.87" r="9.11"/><circle class="cls-2" cx="163.23" cy="159.87" r="9.11"/></svg>