<svg id="Layer_1" data-name="Layer 1" xmlns="http://www.w3.org/2000/svg" viewBox="0 0 256 256"><defs><style>.cls-1{fill:#fff;}.cls-2{opacity:0.5;}</style></defs><title>php advancements</title><path class="cls-1" d="M203.4,72.18H164.62a0,0,0,0,1,0-.06l11.31-20.75,0,0a19.3,19.3,0,1,0-2.5-38.43c-15.34,2-22.49,21.24-11.07,32.73a0,0,0,0,1,0,0L147.94,72.16l0,0H102.78l0,0L88.33,45.69a0,0,0,0,1,0,0C99.72,34.19,92.65,15,77.39,12.93a19.3,19.3,0,1,0-2.74,38.41c.21,0-.73-1.6,11.45,20.77a0,0,0,0,1,0,.06H47.32A24.33,24.33,0,0,0,23,96.5v92.83a24.33,24.33,0,0,0,24.33,24.33h98a0,0,0,0,1,0,0l4.22,29.44h0l40-29.47h13.84a24.33,24.33,0,0,0,24.33-24.33V96.46A24.31,24.31,0,0,0,203.4,72.18Zm-55.49,32.17h10.92a7.49,7.49,0,0,1,7.57,6.85,7.3,7.3,0,0,1-7.29,7.75H148.19a7.49,7.49,0,0,1-7.57-6.85A7.3,7.3,0,0,1,147.91,104.35Zm-56.91,0,11.49,0a7.49,7.49,0,0,1,7.57,6.85,7.3,7.3,0,0,1-7.29,7.75H91.85a7.49,7.49,0,0,1-7.57-6.85,7.3,7.3,0,0,1,7.29-7.75Zm100.51,69.27a7.34,7.34,0,0,1-7.34,7.34H66.52a7.34,7.34,0,0,1-7.34-7.34v-30a7.34,7.34,0,0,1,7.34-7.34H184.17a7.34,7.34,0,0,1,7.34,7.34Z"/><g class="cls-2"><circle class="cls-1" cx="86.46" cy="159.87" r="9.11"/><circle class="cls-1" cx="125.34" cy="159.87" r="9.11"/><circle class="cls-1" cx="164.23" cy="159.87" r="9.11"/></g></svg>