<svg id="Layer_1" data-name="Layer 1" xmlns="http://www.w3.org/2000/svg" viewBox="0 0 256 256"><defs><style>.cls-1,.cls-2{fill:#fff;}.cls-2{opacity:0.5;}</style></defs><title>php advancements</title><path class="cls-1" d="M133.8,200.49V101.43a22.66,22.66,0,1,0-13.59,0v99.05a22.66,22.66,0,1,0,13.59,0Z"/><path class="cls-1" d="M68.07,133.23a50.11,50.11,0,0,0,21.64-4.9,64.44,64.44,0,0,0,16.9,9.45v-28a36.32,36.32,0,0,1-8.67-8.33,36.25,36.25,0,1,1,58.13,0,36.35,36.35,0,0,1-8.67,8.33v29.52a64.55,64.55,0,0,0,25.84-14.66,38.57,38.57,0,1,0,17.28-67.94,64.59,64.59,0,0,0-61.2-44A64,64,0,0,0,80.87,34.63a50.13,50.13,0,1,0-12.8,98.6Z"/><path class="cls-2" d="M79,145.87V178.6H55.27a22.66,22.66,0,1,0,0,13.59H92.56V146.32c-1.57-.84-3.12-1.72-4.63-2.67A64.16,64.16,0,0,1,79,145.87Z"/><path class="cls-2" d="M220.34,171.8a22.53,22.53,0,0,0-13.73,4.65L175,157.94v-16.2l-.84-.41a77.92,77.92,0,0,1-12.75,7.27v17.13l37.31,21.87a22.66,22.66,0,1,0,21.59-15.8Z"/></svg>