<svg id="Layer_1" data-name="Layer 1" xmlns="http://www.w3.org/2000/svg" viewBox="0 0 256 256"><defs><style>.cls-1{fill:#5466ff;}.cls-2{fill:#1d243d;opacity:0.5;}</style></defs><title>industries icons</title><path class="cls-1" d="M162.36,142.19a8,8,0,0,0,10.13-4.94,55,55,0,1,0-104,0,8,8,0,1,0,15.07-5.2,39,39,0,1,1,73.85,0A8,8,0,0,0,162.36,142.19Z"/><path class="cls-2" d="M207.36,119.36A86.38,86.38,0,0,1,182.65,180a8,8,0,1,1-11.4-11.13,70.92,70.92,0,1,0-101.5,0A8,8,0,1,1,58.35,180a86.86,86.86,0,1,1,149-60.67Z"/><path class="cls-2" d="M167.57,227.23a8,8,0,0,1-7.63,10.27H81.05a8,8,0,0,1-7.63-10.27l28.18-93.58a23.11,23.11,0,1,1,37.78,0ZM113.33,120.36a7.17,7.17,0,1,0,7.17-7.17A7.2,7.2,0,0,0,113.33,120.36Zm35.9,101.2-23.69-78.65a23.09,23.09,0,0,1-10.07,0L91.78,221.56Z"/></svg>