<svg id="Layer_1" data-name="Layer 1" xmlns="http://www.w3.org/2000/svg" viewBox="0 0 256 256"><defs><style>.cls-1{fill:none;}.cls-1,.cls-2{stroke:#fff;stroke-miterlimit:10;stroke-width:2px;}.cls-3{fill:#fff;}</style></defs><title>php benefits</title><path class="cls-1" d="M70.39,193.84s15.94,16.93,35.88,2.93c2.13-1.5,3.21-2.93,9-1.48L176.07,217"/><path class="cls-2" d="M92,208.93h0c12-1.11,21.16-11.94,21.08-24.92l-.15-22.25S128.85,158.57,129,138s-.1-53.58-.1-53.58h0a62.33,62.33,0,0,0-66.61,8.8l-2.82,2.33,7.2,90.14C67.66,199.67,79.06,210.13,92,208.93Z"/><path class="cls-3" d="M113.1,160.55s-18.69,1.54-38.56-11.18c0,0,9.12,21.69,38.63,19Z"/><path class="cls-2" d="M62.2,118.86c-.33-.14-13.11-3.91-12.69,9.24s13.43,10,13.44,9.64S62.2,118.86,62.2,118.86Z"/><path class="cls-3" d="M138.6,74.82a7.13,7.13,0,0,0-2.6-6.35,5,5,0,0,0-6.47.49,5.87,5.87,0,0,0-5-7.13c-3.11-.2-5.76,2.17-8.77,3s-6.08.11-8.91-1-5.46-2.73-8.32-3.78A24.49,24.49,0,0,0,80,60.77a24.82,24.82,0,0,0-12.65,13.7c-4.17-1.32-8.91.82-11.49,4.39s-3.23,8.25-2.72,12.62a40.37,40.37,0,0,0,2.18,8.63c0,.25,0,.49,0,.74.2,10.58,1.38,23,5.86,23.07,7.8.12,5.94-14.7,5.94-14.7,9.57-3.73,6-18.2,8.4-20.39s7.4-7.29,27.44,3c7.78,4,18.13,3.89,23.78,2.59l.5-.1.12,0,.17-.07a18,18,0,0,0,5.14-2.2,10.22,10.22,0,0,0,4.24-4.75,5.65,5.65,0,0,0-1.09-6A12.38,12.38,0,0,0,138.6,74.82Z"/><line class="cls-2" x1="67.38" y1="190.17" x2="22" y2="211"/><path class="cls-3" d="M169.33,132h-5.47a2.3,2.3,0,1,1,0-4.61h5.47a2.3,2.3,0,1,1,0,4.61Zm5.94,23,3.87-3.87a2.3,2.3,0,0,0-3.26-3.26L172,151.69a2.3,2.3,0,0,0,3.26,3.26Zm24.32-53.21V96.27a2.3,2.3,0,0,0-4.61,0v5.47a2.3,2.3,0,1,0,4.61,0Zm-20.44,6.55-3.87-3.87a2.3,2.3,0,0,0-3.26,3.26l3.87,3.87a2.3,2.3,0,1,0,3.26-3.26Zm39.52,3.27,3.87-3.87a2.3,2.3,0,1,0-3.26-3.26l-3.87,3.87a2.3,2.3,0,0,0,3.26,3.26ZM233,129.7a2.3,2.3,0,0,0-2.3-2.3h-5.47a2.3,2.3,0,0,0,0,4.61h5.47A2.3,2.3,0,0,0,233,129.7Zm-10.47,22-3.87-3.87a2.3,2.3,0,1,0-3.26,3.26l3.87,3.87a2.3,2.3,0,1,0,3.26-3.26Zm-33.9,2.63v3.31a6.91,6.91,0,0,0,6.91,6.91h3.17a6.91,6.91,0,0,0,6.91-6.91v-3.31a2.3,2.3,0,0,0-2.3-2.3H190.94a2.3,2.3,0,0,0-2.3,2.3Zm8.64-28.38a3.75,3.75,0,1,0,3.75,3.75,3.75,3.75,0,0,0-3.75-3.75Zm20.31,3.75a20.45,20.45,0,0,1-9.65,17.37,2.31,2.31,0,0,1-1.22.35c-20.82,0-19.61.14-20.39-.35a20.46,20.46,0,1,1,31.26-17.37Zm-9.08.11a2.31,2.31,0,0,0-2.3-2.42,1.25,1.25,0,0,1-1.17-.78l-.09-.22a1.25,1.25,0,0,1,.27-1.38,2.3,2.3,0,0,0-.08-3.34,2.35,2.35,0,0,0-3.23.12,1.18,1.18,0,0,1-1.31.24,1.35,1.35,0,0,1-1-1.27,2.31,2.31,0,0,0-2.56-2.29,2.35,2.35,0,0,0-2,2.36,1.18,1.18,0,0,1-.76,1.09,1.35,1.35,0,0,1-1.62-.17,2.31,2.31,0,0,0-3.33.08,2.35,2.35,0,0,0,.12,3.24,1.17,1.17,0,0,1,.24,1.3,1.35,1.35,0,0,1-1.27,1,2.3,2.3,0,0,0-2.3,2.42,2.35,2.35,0,0,0,2.37,2.19c.74,0,1,.51,1.21,1a1.18,1.18,0,0,1-.24,1.31,2.31,2.31,0,0,0,1.58,4,2.27,2.27,0,0,0,1.63-.68,1.25,1.25,0,0,1,1.38-.27l.22.09a1.25,1.25,0,0,1,.78,1.17,2.31,2.31,0,0,0,2.56,2.29,2.35,2.35,0,0,0,2-2.36,1.18,1.18,0,0,1,.76-1.09,1.35,1.35,0,0,1,1.62.17,2.3,2.3,0,0,0,3.26,0,2.35,2.35,0,0,0-.06-3.31,1.17,1.17,0,0,1-.24-1.3,1.32,1.32,0,0,1,1.21-1,2.35,2.35,0,0,0,2.37-2.19Z"/></svg>