<svg id="Layer_1" data-name="Layer 1" xmlns="http://www.w3.org/2000/svg" viewBox="0 0 256 256"><defs><style>.cls-1{fill:#fff;}.cls-2{opacity:0.3;}.cls-3{fill:#e8505b;}.cls-4{stroke:#fff;stroke-miterlimit:10;stroke-width:2px;}</style></defs><title>php benefits</title><path class="cls-1" d="M186.77,143.91a21.11,21.11,0,1,0,21.11-21.11A21.25,21.25,0,0,0,186.77,143.91Zm23-11.52v2.84a5.75,5.75,0,0,1,3.82,5.4,1.92,1.92,0,0,1-3.84,0,1.92,1.92,0,1,0-1.92,1.92,5.74,5.74,0,0,1,1.94,11.16v1.72a1.92,1.92,0,0,1-3.84,0v-1.7a5.75,5.75,0,0,1-3.86-5.41,1.92,1.92,0,1,1,3.84,0,1.92,1.92,0,1,0,1.92-1.92,5.74,5.74,0,0,1-1.9-11.17V132.4a1.92,1.92,0,1,1,3.84,0Z"/><path class="cls-1" d="M207.89,95.26a1.91,1.91,0,0,0-1.36.56l-7.68,7.68a1.92,1.92,0,0,0,1.36,3.28H204v8.13a22.7,22.7,0,0,1,7.68,0v-8.13h3.84a1.92,1.92,0,0,0,1.36-3.28l-7.68-7.68A1.91,1.91,0,0,0,207.89,95.26Z"/><g class="cls-2"><rect class="cls-3" x="72.13" y="80.03" width="28.26" height="28.26" transform="translate(172.51 188.32) rotate(-180)"/></g><path class="cls-1" d="M46.53,158.06a15.15,15.15,0,0,1-11-15.12c.19-3,1.32-6,1.19-9-.2-4.72-3.33-8.71-5.69-12.8s-3.94-9.49-1.19-13.33c1.78-2.49,4.93-3.61,7.08-5.79s3.11-5.08,4.24-7.85,2.6-5.64,5.2-7.12,6.6-.82,7.66,2"/><path class="cls-1" d="M74.72,81.53c-4.65-3-5.77-9.79-3.25-14.69s7.86-7.87,13.3-8.74a25.34,25.34,0,0,1,21.83,7.23c3,3.09,5.43,7.12,9.5,8.53,3.57,1.24,7.53.12,11.28.61,5,.65,9.34,4.23,11.92,8.6s3.64,9.46,4.24,14.5c.55,4.62.91,9.7,4.12,13.07s8.07,4,12,6.33c7.32,4.41,9.69,15.32,4.86,22.36-1.54,2.25-3.75,4.31-3.93,7-.16,2.48,1.44,4.69,2.19,7.06,1.93,6.1-3.06,13.36-9.46,13.72-3.23.19-6.69-1.07-9.58.37s-3.94,4.9-5.78,7.53a13.82,13.82,0,0,1-16.85,4.35c-2.37-1.16-4.62-3.09-7.25-2.91s-4.7,2.43-7.3,2.93c-3.39.66-6.61-1.84-8.63-4.65s-3.42-6.11-6-8.4c-3.38-3-8.13-3.75-12.4-5.22a35,35,0,0,1-19.76-49"/><path class="cls-4" d="M64.51,87.63a7.43,7.43,0,0,0-6.63,7.55h0l4.43,100.34c.19,11.85,14.37,11.94,27.06,11.65h0c11.83-1.08,16.36,0,16.52-11.29.27-18.84.25-25.91.25-25.8s16.18-2.72,19.49-23.85c1.64-10.51,1.08-27.73.16-41.81-.83-12.67-9.26-28.2-21.88-26.84Z"/><path class="cls-1" d="M106.14,169a53.74,53.74,0,0,1-28.31-7.48s7.17,14.89,28.31,12.87Z"/><path class="cls-1" d="M78.37,80.76C73.53,77.51,67.27,76,61.63,77.63s-10.31,6.7-10.5,12.44c-.12,3.73,1.49,7.7-.17,11.06-1.58,3.2-5.46,4.51-8.21,6.83a12.6,12.6,0,0,0-2.92,15.24c2.31,4.23,7.16,7.34,7.56,12.12.38,4.5-3.41,8.29-4.33,12.72-1,4.88,1.68,9.93,5.55,13.16s8.76,5,13.54,6.74c3.73,1.34,7.72,2.7,11.59,1.83a11.87,11.87,0,0,0,8.69-9.91c.63-4.59-1.26-9.29-4.4-12.75-2.71-3-6.52-5.53-7.17-9.47-1-6.14,6.3-11.19,5.85-17.4-.23-3.2-2.49-5.85-4.37-8.48S68.84,105.8,70,102.8c1.5-3.9,6.63-4.92,9.73-7.79a9.48,9.48,0,0,0,2.59-9.61,9.78,9.78,0,0,0-7.66-6.53"/><path class="cls-1" d="M76.1,76A14.45,14.45,0,0,0,93.15,90.27c3.23-.59,6.76-2.22,9.56-.5s3.06,6.24,5.67,8.5c3.72,3.23,9.65.2,14.37,1.6,3.65,1.08,5.93,4.57,8.36,7.51s6.06,5.73,9.71,4.64a42.86,42.86,0,0,0-1.45-9.74,14.41,14.41,0,0,0-5.53-7.94c-1.51-1-3.27-1.58-4.67-2.72-3-2.45-3.73-6.7-5.6-10.12a15.84,15.84,0,0,0-12.07-8c-4.16-.42-8.44.82-12.49-.2-3-.75-5.61-2.7-8.64-3.27C84.46,68.9,79,73.14,74.68,77.36"/><path class="cls-4" d="M61.93,198.12S17.45,210.42,7,218.94"/><path class="cls-4" d="M105.49,200.3s39.71,8.23,51.06,13.91"/></svg>