<svg id="Layer_1" data-name="Layer 1" xmlns="http://www.w3.org/2000/svg" viewBox="0 0 256 256"><defs><style>.cls-1{fill:#5466ff;}.cls-2{fill:#1d243d;opacity:0.5;}</style></defs><title>industries icons</title><path class="cls-1" d="M178.84,224.76A30.37,30.37,0,1,1,209.2,194.4,30.4,30.4,0,0,1,178.84,224.76Zm0-47.72a17.35,17.35,0,1,0,17.35,17.35A17.37,17.37,0,0,0,178.84,177Z"/><path class="cls-1" d="M178.84,242.12a6.51,6.51,0,0,1-6.51-6.51V218.26a6.51,6.51,0,0,1,13,0v17.35A6.51,6.51,0,0,1,178.84,242.12Z"/><path class="cls-1" d="M178.84,177a6.51,6.51,0,0,1-6.51-6.51V153.18a6.51,6.51,0,0,1,13,0v17.35A6.51,6.51,0,0,1,178.84,177Z"/><path class="cls-1" d="M199.49,189a6.51,6.51,0,0,1-3.26-12.15l15-8.68a6.51,6.51,0,0,1,6.52,11.27l-15,8.68A6.41,6.41,0,0,1,199.49,189Z"/><path class="cls-1" d="M143.18,221.47a6.51,6.51,0,0,1-3.26-12.15l15-8.68a6.51,6.51,0,1,1,6.52,11.27l-15,8.68A6.46,6.46,0,0,1,143.18,221.47Z"/><path class="cls-1" d="M158.19,189a6.43,6.43,0,0,1-3.25-.88l-15-8.68a6.51,6.51,0,1,1,6.52-11.27l15,8.68A6.51,6.51,0,0,1,158.19,189Z"/><path class="cls-1" d="M214.49,221.47a6.44,6.44,0,0,1-3.25-.88l-15-8.68a6.51,6.51,0,1,1,6.52-11.27l15,8.68a6.51,6.51,0,0,1-3.26,12.15Z"/><path class="cls-2" d="M109.43,120.65a43.38,43.38,0,1,1,43.38-43.38A43.43,43.43,0,0,1,109.43,120.65Zm0-73.75a30.37,30.37,0,1,0,30.37,30.37A30.4,30.4,0,0,0,109.43,46.9Z"/><path class="cls-2" d="M118.1,216.09H37.84a6.51,6.51,0,0,1-6.51-6.51V179.21A41.26,41.26,0,0,1,72.55,138H146.3a6.51,6.51,0,0,1,0,13H72.55a28.23,28.23,0,0,0-28.2,28.2v23.86H118.1a6.51,6.51,0,1,1,0,13Z"/></svg>