<svg id="Layer_1" data-name="Layer 1" xmlns="http://www.w3.org/2000/svg" viewBox="0 0 256 256"><defs><style>.cls-1{opacity:0.5;isolation:isolate;}.cls-2{fill:#1d243d;}.cls-3{fill:#5466ff;}</style></defs><title>industries icons</title><g class="cls-1"><path class="cls-2" d="M147.46,31H77.06A25.84,25.84,0,0,0,51.25,56.81V211.19A25.84,25.84,0,0,0,77.06,237h70.41a25.84,25.84,0,0,0,25.81-25.81V56.81A25.84,25.84,0,0,0,147.46,31ZM77.06,43h70.41a13.78,13.78,0,0,1,13.77,13.77v128H63.29v-128A13.78,13.78,0,0,1,77.06,43ZM147.46,225H77.06a13.78,13.78,0,0,1-13.77-13.77V196.86h97.94v14.33A13.78,13.78,0,0,1,147.46,225Z"/><path class="cls-2" d="M106.24,204.89h12v12h-12Z"/><path class="cls-2" d="M93.18,155.64h40v-19h19v-40a20.93,20.93,0,0,0-41.78-1.81,21,21,0,0,0-19,19.05,20.92,20.92,0,0,0,1.82,41.77Zm19-48.86h10.15V96.64a8.88,8.88,0,0,1,17.77,0v27.92H112.21a8.89,8.89,0,0,1-8.88-8.88h0a8.89,8.89,0,0,1,8.88-8.88Zm-19,19h.74a20.94,20.94,0,0,0,18.28,10.76h8.89v7H93.18a8.88,8.88,0,0,1,0-17.77Z"/></g><path class="cls-3" d="M93.18,155.64,133,137l19.17-.4v-40a20.93,20.93,0,0,0-41.78-1.81,21,21,0,0,0-19,19.05C90,122,94,142,133,137m-20.79-30.21h10.15V96.64a8.88,8.88,0,0,1,17.77,0v27.92H112.21a8.89,8.89,0,0,1-8.88-8.88h0a8.89,8.89,0,0,1,8.88-8.88Z"/></svg>