<svg id="Layer_1" data-name="Layer 1" xmlns="http://www.w3.org/2000/svg" viewBox="0 0 209 174"><defs><style>.cls-1{fill:none;}.cls-1,.cls-2{stroke:#000;stroke-miterlimit:10;stroke-width:2px;}.cls-2{fill:#fff;}</style></defs><title>why us</title><path class="cls-1" d="M2.18,128.78s41.67-33.25,148,3.62"/><path class="cls-2" d="M37.63,65.75s-.72,45,0,58.49,21.56,25.55,29.3,25.88S91.8,139,94.49,119.87V79.19Z"/><path d="M37.35,87.22c.09-13.05.27-24.47.27-24.47L94.49,76.19v33.35c-4.74,20.85-36.18,15.15-43.67-4.61C46.53,93.61,42.86,90.25,37.35,87.22Z"/><path class="cls-2" d="M106.3,42.27c3.35,32.9-4.63,66.63-26.21,66.84-26.76.25-41.31-38-43.89-59.68S43.64,12.17,62.33,9C80.11,6,103.47,14.42,106.3,42.27Z"/><path class="cls-2" d="M33,62.24c1.41,6.58,4.62,11.57,7.15,11.15s3.44-6.1,2-12.68S37.6,49.14,35.07,49.56,31.62,55.66,33,62.24Z"/><path d="M107,50c3.44-6.51,3.49-8.95,2.25-19.11s-9.87-9.72-10.1-14.09S92.24,1.27,69.46,2.44,49,13.88,42.06,15.22s-17.19,9.55-9.48,34.86c0,0,6.22,0,9.81,12.26a1.12,1.12,0,0,0,2,.19,16.42,16.42,0,0,0,1.63-5c1.11-6.39,8.77,2.34,8.85-10.2.05-8.93,23.17,5.3,37.86-10.55,0,0,2.68,2.95,9.48,2.11C106.18,38.42,107,50,107,50Z"/><path class="cls-2" d="M94.49,119.87v-9.79c8.5,3.73,16.37,6.89,17.24,11.75,1.7,9.53-6,37.22-17.24,47,0,0-1.88,2.4-5.38-3S73.15,148.4,69,150h0S92.06,137.14,94.49,119.87Z"/><path class="cls-2" d="M23.43,118.2c2.35-5.32,10-9.64,13.89-11.49,0,7.23.11,13.68.32,17.53.63,11.69,16.47,22.37,25.67,25.17h0c-4.35-1.69-20.32,15.32-23.09,20s-6.19-.77-11.81-13.45C22.69,143,19.59,126.88,23.43,118.2Z"/><path d="M148.63,96.61h33.95a7.18,7.18,0,0,1-1-3.63V89.35H146.82A1.82,1.82,0,0,0,145,91.16V93A3.63,3.63,0,0,0,148.63,96.61Z"/><path d="M148.63,54.84V85.71h32.94V63.92a7.27,7.27,0,0,1,7.27-7.27h14.53V54.84a5.46,5.46,0,0,0-5.45-5.45H154.08A5.46,5.46,0,0,0,148.63,54.84Z"/><path d="M203.37,60.29H188.84a3.64,3.64,0,0,0-3.63,3.63V93a3.64,3.64,0,0,0,3.63,3.63h14.53A3.64,3.64,0,0,0,207,93V63.92A3.64,3.64,0,0,0,203.37,60.29Zm-7.27,5.45a1.82,1.82,0,1,1-1.82,1.82A1.82,1.82,0,0,1,196.1,65.73Zm1.82,25.43h-3.63a1.82,1.82,0,0,1,0-3.63h3.63a1.82,1.82,0,1,1,0,3.63Z"/></svg>