<svg id="Layer_1" data-name="Layer 1" xmlns="http://www.w3.org/2000/svg" viewBox="0 0 256 256"><defs><style>.cls-1{fill:none;}.cls-1,.cls-2{stroke:#000;stroke-miterlimit:10;stroke-width:2px;}.cls-2{fill:#fff;}</style></defs><title>why us</title><path d="M208,115.22A13.78,13.78,0,1,0,221.78,129,13.8,13.8,0,0,0,208,115.22Zm7.46,17.12h-9.95v-9.95h3.28v6.67h6.67Z"/><path d="M236,135.9V122.11h-4.45a24.35,24.35,0,0,0-2-4.88l3.16-3.16-9.75-9.75-3.16,3.15a24.31,24.31,0,0,0-4.88-2V101H201.11v4.45a24.35,24.35,0,0,0-4.88,2l-3.15-3.15-9.75,9.75,3.15,3.16a24.31,24.31,0,0,0-2,4.88H180V135.9h4.45a24.35,24.35,0,0,0,2,4.88l-3.15,3.15,9.75,9.75,3.16-3.15a24.31,24.31,0,0,0,4.88,2V157h13.79v-4.45a24.35,24.35,0,0,0,4.88-2l3.16,3.16,9.75-9.75-3.16-3.16a24.35,24.35,0,0,0,2-4.88Zm-28,11.77A18.67,18.67,0,1,1,226.67,129,18.69,18.69,0,0,1,208,147.67Z"/><path class="cls-1" d="M71.77,200s26-18.54,111.23,11.12"/><path d="M56.82,112.62c-3.34,12.14-8.38,21.88-13.31,26.76s-10.19,10.6-10,17.54c.07,2.72,1,5.61-.21,8.06-1.54,3.18-5.66,3.87-8.75,5.6-4.56,2.56-7.1,8-6.92,13.22a21.24,21.24,0,0,0,6.5,13.88c3.83,3.86,9.9,6.55,14.66,3.93,2.87-1.59,4.51-4.69,6-7.64Q56,171.09,65.1,147.24"/><path d="M87.51,60.63A31.28,31.28,0,0,1,142,81.9C141.95,90,138.77,98.55,142,106c2.27,5.28,7.53,9.28,8.25,15,.84,6.62-4.82,12.63-4.53,19.29.19,4.35,2.92,8.2,6.06,11.22s7,5.34,9.67,8.78C169,170,168.31,200.45,159,202c-6,1-28-5-37.75-7.31"/><path d="M59.45,93.12a9,9,0,0,0-3.12-10.64,9.63,9.63,0,0,0-11.21.57,10.44,10.44,0,0,0-3.21,10.88,11,11,0,0,0,11,7.53,11,11,0,0,0,9.77-9"/><path class="cls-2" d="M72.09,71l0,6.18,2.35,87.17c-.15,10.74,17.26,28.63,27.19,32.2,2.28.82,10.22,3.73,14.08,2.51,11.67-3.7-1-18.71-.67-28.46a186.44,186.44,0,0,0-1.23-24.27s14.74-2,18.3-21.08c1.77-9.48,1.73-25.09,1.27-37.87A20.22,20.22,0,0,0,111.55,68Z"/><path d="M114.21,145a48.71,48.71,0,0,1-25.44-7.54S94.8,152.26,114,151Z"/><path d="M96.15,65c5.11,6.8-.21,16.43-6.1,22.56S77,100.8,78.59,109.16c1.86,9.69,15.11,15.89,13.14,25.55-.72,3.53-3.5,6.54-3.51,10.14,0,6.5,8.39,9.66,10.81,15.69,3.32,8.26-5.8,16.51-5.94,25.41C93,191,95.87,195.72,96,200.78c.31,10.36-11.93,17.94-22,15.39s-16.92-12.35-19.11-22.47,1.13-24.36,2.75-34.6l-17.4,4c-3.24-3.09,1.19-6.38,1.92-10.79,1.83-11.07,9.11-20.45,12.57-31.13,3-9.33,3-19.33,4.37-29S63.49,72.3,70.92,65.89s20.28-7.2,26.28.55"/></svg>