<svg id="Layer_1" data-name="Layer 1" xmlns="http://www.w3.org/2000/svg" viewBox="0 0 256 256"><defs><style>.cls-1,.cls-2{fill:#fff;}.cls-1,.cls-2,.cls-3{stroke:#000;stroke-miterlimit:10;}.cls-2,.cls-3{stroke-width:2px;}.cls-3{fill:none;}</style></defs><title>why us</title><path class="cls-1" d="M62.19,99.74l0,.44"/><path class="cls-2" d="M68.66,124.87s-3.86,44.5-7.48,60.27,27,22.81,46,21.81c12.57-.66,35.56-7.38,18.92-20.28,0,0-9.33-7.18-2.68-30.58C123.46,156.09,72.5,116.35,68.66,124.87Z"/><path d="M123.46,156.09S99.84,137.67,83.55,128.6l-5.19,8.56c3.16,23.87,24.11,58.91,47.78,49.5C126.14,186.67,116.81,179.49,123.46,156.09Z"/><path class="cls-2" d="M74.31,113.57c-5.4-12.41-15.89-6.66-12.85,4.67,3.46,13,12.25,17.7,14.71,12.55,0,0,7.95,29.18,27.46,37s28.56-6.16,34.08-32.35c4.75-22.52,2.75-44.87-.07-52.12-7.35-18.92-33.38-20.92-48.92-9.37C69.71,88.07,74.31,113.57,74.31,113.57Z"/><path d="M74.31,113.57c3.72,7,8.15,11.31,10.52,6.54s2.76-24,17.37-20,27.22,8.41,40.91-2.92c17.7-14.64,5-43.33-14.79-36.84,0,0,1.42-13.68-14.26-9.2-14.36,4.1-13.29,6.75-27.77,2.94C78,51.92,51.21,73.77,62.9,108.38,62.9,108.38,68.53,102.74,74.31,113.57Z"/><path class="cls-3" d="M60.5,187.5s-7,4-40,22"/><path class="cls-3" d="M128,188s9.76,4,44.53,18.3"/><path d="M205.5,110.44a16.88,16.88,0,0,1,5.33,31.12,1.87,1.87,0,0,0-.89,1.26l-1.4,7.18L200,148.34l2.17-11.16a7.24,7.24,0,1,0-7.61-8.61,1.87,1.87,0,0,0,3.67.71,3.5,3.5,0,1,1,2.77,4.1,1.87,1.87,0,0,0-2.19,1.48l-2.48,12.76L187.85,146l1.4-7.18a1.87,1.87,0,0,0-.35-1.5,16.88,16.88,0,0,1,16.61-26.85Z"/><path d="M207.26,156.56a3.35,3.35,0,0,1-3.92,2.64l-14.13-2.75a3.35,3.35,0,0,1-2.64-3.92l.56-2.89,20.69,4Z"/><path d="M195,164.57a4,4,0,0,1-3.23-3.81l7.65,1.49A4,4,0,0,1,195,164.57Z"/><path d="M227.08,125a1.87,1.87,0,0,1,1.73-2l4.19-.31a1.87,1.87,0,1,1,.27,3.73l-4.19.31A1.87,1.87,0,0,1,227.08,125Z"/><path d="M224.62,113.42l3.7-2a1.87,1.87,0,0,1,1.78,3.29l-3.7,2a1.87,1.87,0,1,1-1.78-3.29Z"/><path d="M227.56,132.6l3.95,1.43a1.87,1.87,0,1,1-1.28,3.52l-3.95-1.43a1.87,1.87,0,1,1,1.28-3.52Z"/><path d="M175.91,111l3.74,1.9a1.87,1.87,0,0,1-1.7,3.34l-3.74-1.9a1.87,1.87,0,1,1,1.7-3.34Z"/><path d="M172.57,122.65l4.19.21a1.87,1.87,0,1,1-.18,3.74l-4.19-.21a1.87,1.87,0,0,1,.18-3.74Z"/><path d="M184.58,109.14a1.87,1.87,0,0,1-.61-.49l-2.64-3.27a1.87,1.87,0,0,1,2.91-2.35l2.64,3.27a1.87,1.87,0,0,1-2.3,2.84Z"/></svg>