<svg id="Layer_1" data-name="Layer 1" xmlns="http://www.w3.org/2000/svg" viewBox="0 0 256 256"><defs><style>.cls-1{opacity:0.5;isolation:isolate;}.cls-2{fill:#1d243d;}.cls-3{fill:#5466ff;}</style></defs><title>industries icons</title><g class="cls-1"><path class="cls-2" d="M167,32.72H71a6,6,0,0,0-6,6v192.8a6,6,0,0,0,6,6h96a6,6,0,0,0,6-6V175.39a47.92,47.92,0,0,1,39.32,1.5,6,6,0,0,0,8.68-5.37v-72a6,6,0,0,0-3.32-5.37A60,60,0,0,0,173,90.65V38.72a6,6,0,0,0-6-6Zm-6,129.93a60.14,60.14,0,0,0-36,0V103.39a48,48,0,0,1,36,0ZM77,225.52V44.72h84V90.65a60,60,0,0,0-44.68,3.5A6,6,0,0,0,113,99.52v72a6,6,0,0,0,8.68,5.37,47.92,47.92,0,0,1,39.32-1.5v50.13ZM209,103.39v59.26a60.14,60.14,0,0,0-36,0V103.39a48,48,0,0,1,36,0Z"/></g><circle class="cls-3" cx="119" cy="63" r="6"/><path class="cls-3" d="M131,201H107a6,6,0,0,0,0,12h24a6,6,0,0,0,0-12Z"/></svg>