<svg id="Layer_1" data-name="Layer 1" xmlns="http://www.w3.org/2000/svg" viewBox="0 0 256 256"><defs><style>.cls-1{opacity:0.5;}.cls-2{fill:#1d243d;}.cls-3{fill:#5466ff;}</style></defs><title>industries icons</title><g class="cls-1"><path class="cls-2" d="M207.9,201.88l-9.23-116.3a14.54,14.54,0,0,0-14.43-13.36H166v-.82a40,40,0,1,0-79.9,0v.82H67.88A14.53,14.53,0,0,0,53.46,85.56L44.22,201.89a33.65,33.65,0,0,0,33.55,36.23h96.57a33.65,33.65,0,0,0,33.55-36.24ZM98.22,71.39a27.84,27.84,0,0,1,55.69,0v.82H98.22Zm91.94,147.72a21.33,21.33,0,0,1-15.81,6.9H77.78a21.55,21.55,0,0,1-21.48-23.18L65.52,86.5a2.37,2.37,0,0,1,2.36-2.18H86.11V99.23a6.05,6.05,0,0,0,12.11,0V84.32h55.69V99.23a6.05,6.05,0,1,0,12.11,0V84.32h18.23a2.38,2.38,0,0,1,2.36,2.2l9.23,116.3A21.33,21.33,0,0,1,190.16,219.11Z"/></g><path class="cls-3" d="M153.33,134.09a6.05,6.05,0,0,0-8.56,0l-27,27-10.39-10.39a6.05,6.05,0,1,0-8.56,8.56L113.47,174a6.05,6.05,0,0,0,8.56,0l31.31-31.31A6.05,6.05,0,0,0,153.33,134.09Z"/></svg>