<svg id="Layer_1" data-name="Layer 1" xmlns="http://www.w3.org/2000/svg" viewBox="0 0 256 256"><defs><style>.cls-1{fill:none;}.cls-1,.cls-2{stroke:#000;stroke-miterlimit:10;stroke-width:2px;}.cls-2{fill:#fff;}</style></defs><title>why us</title><path class="cls-1" d="M25.18,180.78s41.67-33.25,148,3.62"/><path class="cls-2" d="M60.63,117.75s-.72,45,0,58.49,21.56,25.55,29.3,25.88S114.8,191,117.49,171.87V131.19Z"/><path d="M60.35,139.22c.09-13.05.27-24.47.27-24.47l56.86,13.45v33.35c-4.74,20.85-36.18,15.15-43.67-4.61C69.53,145.61,65.86,142.25,60.35,139.22Z"/><path class="cls-2" d="M129.3,94.27c3.35,32.9-4.63,66.63-26.21,66.84-26.76.25-41.31-38-43.89-59.68S66.64,64.17,85.33,61C103.11,58,126.47,66.42,129.3,94.27Z"/><path class="cls-2" d="M56,114.24c1.41,6.58,4.62,11.57,7.15,11.15s3.44-6.1,2-12.68-4.62-11.57-7.15-11.15S54.62,107.66,56,114.24Z"/><path d="M130,102c3.44-6.51,3.49-8.95,2.25-19.11s-9.87-9.72-10.1-14.09-6.87-15.56-29.64-14.39S72,65.88,65.06,67.22s-17.19,9.55-9.48,34.86c0,0,6.22,0,9.81,12.26a1.12,1.12,0,0,0,2,.19,16.42,16.42,0,0,0,1.63-5c1.11-6.39,8.77,2.34,8.85-10.2.05-8.93,23.17,5.3,37.86-10.55,0,0,2.68,2.95,9.48,2.11C129.18,90.42,130,102,130,102Z"/><path class="cls-2" d="M117.49,171.87v-9.79c8.5,3.73,16.37,6.89,17.24,11.75,1.7,9.53-6,37.22-17.24,47,0,0-1.88,2.4-5.38-3S96.15,200.4,92,202h0S115.06,189.14,117.49,171.87Z"/><path class="cls-2" d="M46.43,170.2c2.35-5.32,10-9.64,13.89-11.49,0,7.23.11,13.68.32,17.53.63,11.69,16.47,22.37,25.67,25.17h0c-4.35-1.69-20.32,15.32-23.09,20s-6.19-.77-11.81-13.45C45.69,195,42.59,178.88,46.43,170.2Z"/><path d="M171.63,148.61h33.95a7.18,7.18,0,0,1-1-3.63v-3.63H169.82a1.82,1.82,0,0,0-1.82,1.82V145A3.63,3.63,0,0,0,171.63,148.61Z"/><path d="M171.63,106.84v30.88h32.94v-21.8a7.27,7.27,0,0,1,7.27-7.27h14.53v-1.82a5.46,5.46,0,0,0-5.45-5.45H177.08A5.46,5.46,0,0,0,171.63,106.84Z"/><path d="M226.37,112.29H211.84a3.64,3.64,0,0,0-3.63,3.63V145a3.64,3.64,0,0,0,3.63,3.63h14.53A3.64,3.64,0,0,0,230,145V115.92A3.64,3.64,0,0,0,226.37,112.29Zm-7.27,5.45a1.82,1.82,0,1,1-1.82,1.82A1.82,1.82,0,0,1,219.1,117.73Zm1.82,25.43h-3.63a1.82,1.82,0,0,1,0-3.63h3.63a1.82,1.82,0,1,1,0,3.63Z"/></svg>