<svg id="Layer_1" data-name="Layer 1" xmlns="http://www.w3.org/2000/svg" viewBox="0 0 256 256"><defs><style>.cls-1{fill:#fff;}.cls-2{stroke:#fff;stroke-miterlimit:10;stroke-width:2px;}</style></defs><title>php benefits</title><path class="cls-1" d="M227.08,111.76a19.93,19.93,0,0,0-38.17,0,15.94,15.94,0,0,0-.7,31.75V131.72a6,6,0,0,1,4-5.64L206,121.21a6,6,0,0,1,4,0l13.81,4.88a6,6,0,0,1,4,5.64v11.78a15.94,15.94,0,0,0-.7-31.75Z"/><path class="cls-1" d="M222.48,129.85,208.66,125a2,2,0,0,0-1.33,0l-13.81,4.88a2,2,0,0,0-1.33,1.88V144.8a17.84,17.84,0,0,0,15.55,17.63l.26,0,.26,0A17.84,17.84,0,0,0,223.8,144.8V131.72A2,2,0,0,0,222.48,129.85Zm-8.77,12.82-5.61,5.58a2,2,0,0,1-2.81,0l-3-3a2,2,0,1,1,2.81-2.82l1.6,1.59,4.2-4.18a2,2,0,1,1,2.81,2.82Z"/><path class="cls-1" d="M49,172.2C66.9,159.62,46.88,96.66,78,72.05c25.61-20.26,69-10.22,69,27.87,0,21.84,4.6,75.85,21.84,114.93-10.13-3.16-41.49-21.45-41.49-23.85l-2-28h0c17.07-10.87,18.8-56.49,11.55-70.59-11.61.43-24.51-7.2-24.51-7.2s-6.15,1.1-7.31,11.5a24.82,24.82,0,0,1-12,18.52v33.94c0,31.86-7.67,66.7-25.83,68.64s-41-12.11-56.5-11.35A222.33,222.33,0,0,1,49,172.2Z"/><path class="cls-2" d="M125.25,165.44l1.62,27.25s-25.74,21.63-39.32-9.48h0l5-33.69"/><path class="cls-2" d="M137.86,92.41c7.74,15,6.88,66.21-14.62,70.94C104.46,167.49,94,149.17,94,149.17V115.23a24.82,24.82,0,0,0,12-18.52c1.16-10.4,7.31-11.5,7.31-11.5S126.25,92.84,137.86,92.41Z"/></svg>