<svg id="Layer_1" data-name="Layer 1" xmlns="http://www.w3.org/2000/svg" viewBox="0 0 256 256"><defs><style>.cls-1,.cls-2{fill:#fff;}.cls-1{opacity:0.5;}</style></defs><title>php advancements</title><path class="cls-1" d="M88,69.93a57.3,57.3,0,0,1,80.95,0l9.54-9.54a70.8,70.8,0,0,0-100,0Z"/><path class="cls-1" d="M128.5,26.24A83.64,83.64,0,0,1,188,50.86l9.54-9.54a97.8,97.8,0,0,0-138.16,0L69,50.86A83.64,83.64,0,0,1,128.5,26.24Z"/><path class="cls-2" d="M189.18,115.7A30.49,30.49,0,0,0,160,93.94a34.38,34.38,0,0,0-63,0A30.49,30.49,0,0,0,67.82,115.7a26.48,26.48,0,0,0,.67,52.95H90.43c.4-.43.81-.86,1.23-1.28l36.84-36.84,36.84,36.84c.42.42.83.85,1.23,1.28h21.95a26.48,26.48,0,0,0,.67-52.95Z"/><path class="cls-2" d="M128.5,149.6l-27.3,27.3a38.61,38.61,0,1,0,54.6,0Z"/></svg>