<svg id="Layer_1" data-name="Layer 1" xmlns="http://www.w3.org/2000/svg" viewBox="0 0 256 256"><defs><style>.cls-1{fill:#5466ff;}.cls-2{fill:#f6f7ff;stroke:#1d243d;stroke-width:6px;opacity:0.5;isolation:isolate;}</style></defs><title>php advancements</title><path class="cls-1" d="M85,69.93a57.3,57.3,0,0,1,80.95,0l9.54-9.54a70.8,70.8,0,0,0-100,0Z"/><path class="cls-1" d="M125.5,26.24A83.64,83.64,0,0,1,185,50.86l9.54-9.54a97.8,97.8,0,0,0-138.16,0L66,50.86A83.64,83.64,0,0,1,125.5,26.24Z"/><path class="cls-2" d="M186.18,115.7A30.49,30.49,0,0,0,157,93.94a34.38,34.38,0,0,0-63,0A30.49,30.49,0,0,0,64.82,115.7a26.48,26.48,0,0,0,.67,52.95H87.43c.4-.43.81-.86,1.23-1.28l36.84-36.84,36.84,36.84c.42.42.83.85,1.23,1.28h21.95a26.48,26.48,0,0,0,.67-52.95Z"/><path class="cls-2" d="M125.5,149.6,98.2,176.9a38.61,38.61,0,1,0,54.6,0Z"/></svg>