<svg id="Layer_1" data-name="Layer 1" xmlns="http://www.w3.org/2000/svg" viewBox="0 0 256 256"><defs><style>.cls-1,.cls-3{fill:#fff;}.cls-1{stroke:#000;}.cls-1,.cls-2,.cls-4{stroke-miterlimit:10;}.cls-2,.cls-4{stroke:#fff;stroke-width:2px;}.cls-4{fill:none;}</style></defs><title>php benefits</title><path class="cls-1" d="M62.19,104.74l0,.44"/><path class="cls-2" d="M68.66,129.87s-3.86,44.5-7.48,60.27,27,22.81,46,21.81c12.57-.66,35.56-7.38,18.92-20.28,0,0-9.33-7.18-2.68-30.58C123.46,161.09,72.5,121.35,68.66,129.87Z"/><path class="cls-3" d="M123.46,161.09S99.84,142.67,83.55,133.6l-5.19,8.56c3.16,23.87,24.11,58.91,47.78,49.5C126.14,191.67,116.81,184.49,123.46,161.09Z"/><path class="cls-2" d="M74.31,118.57c-5.4-12.41-15.89-6.66-12.85,4.67,3.46,13,12.25,17.7,14.71,12.55,0,0,7.95,29.18,27.46,37s28.56-6.16,34.08-32.35c4.75-22.52,2.75-44.87-.07-52.12-7.35-18.92-33.38-20.92-48.92-9.37C69.71,93.07,74.31,118.57,74.31,118.57Z"/><path class="cls-3" d="M74.31,118.57c3.72,7,8.15,11.31,10.52,6.54s2.76-24,17.37-20,27.22,8.41,40.91-2.92c17.7-14.64,5-43.33-14.79-36.84,0,0,1.42-13.68-14.26-9.2-14.36,4.1-13.29,6.75-27.77,2.94C78,56.92,51.21,78.77,62.9,113.38,62.9,113.38,68.53,107.74,74.31,118.57Z"/><path class="cls-4" d="M60.5,192.5s-7,4-40,22"/><path class="cls-4" d="M174.21,212.36s-6.36-2.12-42.43-12.73"/><path class="cls-3" d="M190.74,126.05A15.24,15.24,0,1,0,206,110.81,15.34,15.34,0,0,0,190.74,126.05Zm16.63-8.31v2.05a4.15,4.15,0,0,1,2.76,3.9,1.39,1.39,0,0,1-2.77,0,1.39,1.39,0,1,0-1.39,1.39,4.15,4.15,0,0,1,1.4,8.05v1.24a1.39,1.39,0,0,1-2.77,0v-1.23a4.15,4.15,0,0,1-2.79-3.91,1.39,1.39,0,0,1,2.77,0,1.39,1.39,0,1,0,1.39-1.39,4.15,4.15,0,0,1-1.37-8.06v-2a1.39,1.39,0,0,1,2.77,0Z"/><path class="cls-3" d="M234,132.89V119.11h-4.45a24.35,24.35,0,0,0-2-4.88l3.16-3.16-9.75-9.75-3.16,3.15a24.31,24.31,0,0,0-4.88-2V98H199.11v4.45a24.35,24.35,0,0,0-4.88,2l-3.15-3.15-9.75,9.75,3.15,3.16a24.31,24.31,0,0,0-2,4.88H178v13.79h4.45a24.35,24.35,0,0,0,2,4.88l-3.15,3.15,9.75,9.75,3.16-3.15a24.31,24.31,0,0,0,4.88,2V154h13.79v-4.45a24.35,24.35,0,0,0,4.88-2l3.16,3.16,9.75-9.75-3.16-3.16a24.35,24.35,0,0,0,2-4.88Zm-28,11.77A18.67,18.67,0,1,1,224.67,126,18.69,18.69,0,0,1,206,144.67Z"/></svg>