<svg id="Layer_1" data-name="Layer 1" xmlns="http://www.w3.org/2000/svg" viewBox="0 0 256 256"><defs><style>.cls-1{fill:#1d243d;opacity:0.5;}.cls-2{fill:#5466ff;}</style></defs><title>industries icons</title><path class="cls-1" d="M163.8,108.08l25-25a24.38,24.38,0,1,0-10.88-10.88l-25,25L95,39.24a7.7,7.7,0,0,0-10.88,0A94.55,94.55,0,0,0,80.71,169.4L29.26,220.85A7.7,7.7,0,0,0,34.7,234H138.22a7.69,7.69,0,0,0,7.7-7.69V200.51c1.67.09,3.34.13,5,.13A93.93,93.93,0,0,0,217.8,173a7.7,7.7,0,0,0,0-10.88Zm35.84-55.69a9,9,0,1,1-9,9A9,9,0,0,1,199.64,52.38ZM130.53,218.6H53.28L91.91,180a93.55,93.55,0,0,0,38.61,18.48Zm20.41-33.34A79.17,79.17,0,0,1,89.79,55.83L201.21,167.25A78.56,78.56,0,0,1,150.94,185.26Z"/><circle class="cls-2" cx="200" cy="62" r="14"/></svg>