<svg id="Layer_1" data-name="Layer 1" xmlns="http://www.w3.org/2000/svg" viewBox="0 0 256 256"><defs><style>.cls-1{fill:#5466ff;}.cls-2{fill:#1d243d;isolation:isolate;}.cls-2,.cls-3{opacity:0.5;}.cls-3{fill:#8d919d;}</style></defs><title>php icons</title><path class="cls-1" d="M109.54,180.63A18.46,18.46,0,1,0,128,162.17,18.48,18.48,0,0,0,109.54,180.63ZM128,174.48a6.15,6.15,0,1,1-6.15,6.15A6.16,6.16,0,0,1,128,174.48Z"/><path class="cls-2" d="M30,197.79h44.7L86,217.3a6,6,0,0,0,8.24,2.21l6.1-3.52c3.39-2,8.56.56,8.56,4.73V228a6,6,0,0,0,6,6h24.14a6,6,0,0,0,6-6v-7c0-4.34,5.05-7,8.9-4.74l5.75,3.32A6,6,0,0,0,168,217.3l11.26-19.51H224a6,6,0,0,0,6-6V34a6,6,0,0,0-6-6H151.14A30.15,30.15,0,0,0,127,40.09,30.15,30.15,0,0,0,102.86,28H30a6,6,0,0,0-6,6V191.75a6,6,0,0,0,6,6ZM133,58.18a18.13,18.13,0,0,1,18.11-18.11h66.79V185.72H175.28a6,6,0,0,0-1.35.16l-2.39-1.38a5.67,5.67,0,0,1,.17-9.72l6.15-3.55a6,6,0,0,0,2.21-8.24L168,142.07a6,6,0,0,0-8.24-2.21l-5.71,3.3c-3.85,2.22-8.94-.35-8.94-4.68V131.4a6,6,0,0,0-6-6h-6V58.18Zm0,79.26v1c0,13.7,15.22,22,27,15.13l.49-.28,6,10.45-.92.53c-11.67,6.74-11.93,23.84-.17,30.63l1.1.63-6,10.45-.53-.3c-11.78-6.8-27,1.43-27,15.19v1H121v-1.21c0-13.31-15.09-21.87-26.66-15.19l-.87.5-6-10.45,1.44-.83c11.79-6.81,10.75-23.93-.86-30.63l-.58-.33,6-10.45.72.42c11.74,6.78,26.81-1.81,26.81-15.27v-1Zm-97-97.37h66.79A18.13,18.13,0,0,1,121,58.18v67.19h-6a6,6,0,0,0-6,6v7.08c0,4.16-5,7-8.7,4.81l-6-3.44A6,6,0,0,0,86,142.07L73.93,163a6,6,0,0,0,2.21,8.24l5.81,3.35c3.71,2.14,4.42,7.67.86,9.72l-2.73,1.58a6,6,0,0,0-1.35-.16H36.07Z"/><path class="cls-3" d="M54.76,79.63h49.63a6.15,6.15,0,1,0,0-12.3H54.76a6.15,6.15,0,0,0,0,12.3Z"/><path class="cls-3" d="M110.54,98.09a6.15,6.15,0,0,0-6.15-6.15H54.76a6.15,6.15,0,1,0,0,12.3h49.63A6.15,6.15,0,0,0,110.54,98.09Z"/><path class="cls-3" d="M153.61,104.24h49.63a6.15,6.15,0,1,0,0-12.3H153.61a6.15,6.15,0,1,0,0,12.3Z"/><path class="cls-3" d="M153.61,79.63h49.63a6.15,6.15,0,1,0,0-12.3H153.61a6.15,6.15,0,1,0,0,12.3Z"/></svg>