<svg id="Layer_1" data-name="Layer 1" xmlns="http://www.w3.org/2000/svg" viewBox="0 0 256 256"><defs><style>.cls-1{fill:#5466ff;}.cls-2{fill:#1d243d;isolation:isolate;}.cls-2,.cls-3{opacity:0.5;}.cls-3{fill:#8d919d;}</style></defs><title>php icons</title><path class="cls-1" d="M103.79,123.82a6.15,6.15,0,1,1-6.15-6.15A6.15,6.15,0,0,1,103.79,123.82Z"/><path class="cls-2" d="M193.19,78.13H176.28V67.81A35.79,35.79,0,0,0,140.48,32H54.81A35.79,35.79,0,0,0,19,67.81V183.13a6.15,6.15,0,0,0,10.09,4.73l37.83-31.52h4.8v16.91a35.79,35.79,0,0,0,35.81,35.81h73.56l37.83,31.52A6.15,6.15,0,0,0,229,235.85V113.94A35.78,35.78,0,0,0,193.19,78.13ZM64.69,144a6.15,6.15,0,0,0-3.94,1.43L31.31,170V67.81a23.49,23.49,0,0,1,23.5-23.5h85.67A23.49,23.49,0,0,1,164,67.81v52.72a23.53,23.53,0,0,1-23.5,23.5Zm152,78.69-29.45-24.54a6.15,6.15,0,0,0-3.94-1.43H107.52A23.51,23.51,0,0,1,84,173.24V156.33h56.45a35.62,35.62,0,0,0,20.68-6.59H189.9a6.15,6.15,0,1,0,0-12.3H172a35.54,35.54,0,0,0,4.14-14.05H189.9a6.15,6.15,0,1,0,0-12.3H176.28V90.44h16.91a23.5,23.5,0,0,1,23.5,23.5Z"/><path class="cls-1" d="M87.32,81A10.32,10.32,0,1,1,97.64,91.31a6.15,6.15,0,0,0-6.15,6.15v6.59a6.15,6.15,0,0,0,12.3,0v-1.29A22.63,22.63,0,1,0,75,81h0a6.15,6.15,0,0,0,12.3,0Z"/><path class="cls-3" d="M189.9,163.8H110.82a6.15,6.15,0,0,0,0,12.3H189.9a6.15,6.15,0,0,0,0-12.3Z"/></svg>