<svg id="Layer_1" data-name="Layer 1" xmlns="http://www.w3.org/2000/svg" viewBox="0 0 256 256"><defs><style>.cls-1{fill:#1d243d;isolation:isolate;}.cls-1,.cls-3{opacity:0.5;}.cls-2{fill:#5466ff;}.cls-3{fill:#8d919d;}</style></defs><title>php icons</title><path class="cls-1" d="M204.4,46.16a6.44,6.44,0,0,1,6.44,6.44V168.48a6.44,6.44,0,0,1-6.44,6.44h-96a17.17,17.17,0,0,0-12.14,5L73.5,202.65V192.08a17.16,17.16,0,0,0-17.17-17.17H45.6a6.44,6.44,0,0,1-6.44-6.44V52.6a6.44,6.44,0,0,1,6.44-6.44Zm0-17.17H45.6A23.59,23.59,0,0,0,22,52.6V168.48a23.59,23.59,0,0,0,23.6,23.6H56.33v36.48a6.44,6.44,0,0,0,11,4.55l41-41h96a23.59,23.59,0,0,0,23.6-23.6V52.6A23.59,23.59,0,0,0,204.4,29Z"/><path class="cls-2" d="M99.08,127A6.44,6.44,0,0,1,95,138.43,6.71,6.71,0,0,1,90.84,137L65.09,115.52a6.51,6.51,0,0,1,0-10L90.84,84.1a6.46,6.46,0,1,1,8.24,10L79.25,110.54Z"/><path class="cls-3" d="M135.47,82.3l-17.17,60.08a6.39,6.39,0,0,1-8,4.38,6.5,6.5,0,0,1-4.38-8l17.17-60.08a6.39,6.39,0,0,1,8-4.38,6.5,6.5,0,0,1,4.38,8Z"/><path class="cls-2" d="M176.33,115.52,150.58,137a6.71,6.71,0,0,1-4.12,1.46A6.44,6.44,0,0,1,142.34,127l19.83-16.48L142.34,94.06a6.46,6.46,0,1,1,8.24-10l25.75,21.46a6.51,6.51,0,0,1,0,10Z"/></svg>