<svg id="Layer_1" data-name="Layer 1" xmlns="http://www.w3.org/2000/svg" viewBox="0 0 256 256"><defs><style>.cls-1{fill:#5466ff;}.cls-2{fill:#1d243d;opacity:0.5;isolation:isolate;}</style></defs><title>php icons</title><path class="cls-1" d="M127,173.21a6.94,6.94,0,0,1-6.94-6.94v-18.5a6.94,6.94,0,1,1,13.87,0v18.5A6.94,6.94,0,0,1,127,173.21Z"/><path class="cls-1" d="M127,103.83a6.94,6.94,0,0,1-6.94-6.94V78.4a6.94,6.94,0,1,1,13.87,0V96.9A6.94,6.94,0,0,1,127,103.83Z"/><path class="cls-1" d="M89,151.19a6.94,6.94,0,0,1-3.48-13l16-9.25a6.94,6.94,0,1,1,6.95,12l-16,9.25A6.88,6.88,0,0,1,89,151.19Z"/><path class="cls-1" d="M105,116.6a6.85,6.85,0,0,1-3.47-.93l-16-9.25a6.94,6.94,0,0,1,6.95-12l16,9.25a6.94,6.94,0,0,1-3.48,13Z"/><path class="cls-2" d="M212.56,201H41.44A25.46,25.46,0,0,1,16,175.52V69.15A25.46,25.46,0,0,1,41.44,43.71H212.56A25.46,25.46,0,0,1,238,69.15V175.52A25.46,25.46,0,0,1,212.56,201ZM41.44,57.58A11.58,11.58,0,0,0,29.88,69.15V175.52a11.58,11.58,0,0,0,11.56,11.56H212.56a11.58,11.58,0,0,0,11.56-11.56V69.15a11.58,11.58,0,0,0-11.56-11.56Z"/><path class="cls-1" d="M127,154.71a32.37,32.37,0,1,1,32.38-32.38A32.41,32.41,0,0,1,127,154.71Zm0-50.87a18.5,18.5,0,1,0,18.5,18.5A18.52,18.52,0,0,0,127,103.83Z"/><path class="cls-1" d="M149,116.6a6.94,6.94,0,0,1-3.48-13l16-9.25a6.94,6.94,0,0,1,6.95,12l-16,9.25A6.83,6.83,0,0,1,149,116.6Z"/><path class="cls-1" d="M165,151.19a6.85,6.85,0,0,1-3.47-.93l-16-9.25a6.94,6.94,0,1,1,6.95-12l16,9.25a6.94,6.94,0,0,1-3.48,13Z"/></svg>