<svg id="Layer_1" data-name="Layer 1" xmlns="http://www.w3.org/2000/svg" viewBox="0 0 256 256"><defs><style>.cls-1{fill:#1d243d;opacity:0.5;isolation:isolate;}.cls-2{fill:#5466ff;}</style></defs><title>php icons</title><path class="cls-1" d="M206,82.81v76.44a8,8,0,0,1-15.93,0V90.78H174.15v23.89a8,8,0,0,1-15.93,0V90.78H81.78v23.89a8,8,0,0,1-15.93,0V90.78H49.93V215h84.41a8,8,0,1,1,0,15.93H42a8,8,0,0,1-8-8V82.81a8,8,0,0,1,8-8H66.23a54.15,54.15,0,0,1,107.54,0H198A8,8,0,0,1,206,82.81Zm-48.31-8a38.22,38.22,0,0,0-75.38,0Z"/><path class="cls-2" d="M206,206a8,8,0,0,1-8,8h-8v8a8,8,0,0,1-15.93,0v-8h-8a8,8,0,1,1,0-15.93h8v-8a8,8,0,0,1,15.93,0v8h8A8,8,0,0,1,206,206Z"/></svg>