<svg id="Layer_1" data-name="Layer 1" xmlns="http://www.w3.org/2000/svg" viewBox="0 0 256 256"><defs><style>.cls-1{fill:#1d243d;isolation:isolate;}.cls-1,.cls-3{opacity:0.5;}.cls-2{fill:#5466ff;}.cls-3{fill:#8d919d;}</style></defs><title>php icons</title><path class="cls-1" d="M237.87,162.19c0-39.3-32.7-70.81-71.67-70.81-2.24,0-4.48.11-6.7.32A70.8,70.8,0,1,0,37.26,145.88L18,168.62h71c2.26,0,4.5-.11,6.7-.32A70.91,70.91,0,0,0,166.2,233H238l-19.3-22.74a70.64,70.64,0,0,0,19.13-48.07ZM45.77,155.75,55,144.89c-1.64-2.1-24-16.56-24-47.07a57.94,57.94,0,1,1,57.94,57.94ZM166.2,220.12a58,58,0,0,1-57.81-54.21,71,71,0,0,0,51-61.27,58.76,58.76,0,0,1,6.77-.4c32.42,0,58.8,26,58.8,57.94,0,30.39-22.29,44.91-24,47.07l9.22,10.86Z"/><path class="cls-2" d="M115.79,80.08l5-5-9.1-9.1-5,5a32,32,0,0,0-11.3-4.7V59.19H82.51v7.09A32,32,0,0,0,71.21,71l-5-5-9.1,9.1,5,5a32,32,0,0,0-4.7,11.3H50.32v12.87h7.09a32,32,0,0,0,4.7,11.3l-5,5,9.1,9.1,5-5a32,32,0,0,0,11.3,4.7v7.09H95.38v-7.09a32,32,0,0,0,11.3-4.7l5,5,9.1-9.1-5-5a32,32,0,0,0,4.7-11.3h7.09V91.38h-7.09a32,32,0,0,0-4.7-11.3Zm-26.84,37a19.31,19.31,0,1,1,19.31-19.31A19.33,19.33,0,0,1,88.95,117.13Z"/><path class="cls-3" d="M82.51,91.38H95.38v12.87H82.51Z"/></svg>