<svg id="Layer_1" data-name="Layer 1" xmlns="http://www.w3.org/2000/svg" viewBox="0 0 256 256"><defs><style>.cls-1{fill:#1d243d;opacity:0.5;isolation:isolate;}.cls-2{fill:#5466ff;}</style></defs><title>php icons</title><path class="cls-1" d="M28,74.88V51.14A24.17,24.17,0,0,1,52.14,27H76.68a8,8,0,0,1,0,16.09H52.14a8.06,8.06,0,0,0-8,8V74.88a8,8,0,0,1-16.09,0ZM209.86,27H185.32a8,8,0,0,0,0,16.09h24.54a8.06,8.06,0,0,1,8,8V74.88a8,8,0,0,0,16.09,0V51.14A24.17,24.17,0,0,0,209.86,27ZM76.68,216.91H52.14a8.06,8.06,0,0,1-8-8V185.12a8,8,0,0,0-16.09,0v23.74A24.17,24.17,0,0,0,52.14,233H76.68a8,8,0,0,0,0-16.09ZM226,177.07a8,8,0,0,0-8,8v23.74a8.06,8.06,0,0,1-8,8H185.32a8,8,0,1,0,0,16.09h24.54A24.17,24.17,0,0,0,234,208.86V185.12A8,8,0,0,0,226,177.07Z"/><path class="cls-2" d="M81,159.27a8,8,0,0,0,4.75-10.34,54.74,54.74,0,0,1,49.51-73.61,52.41,52.41,0,0,0,39.65,94.23,54.78,54.78,0,0,1-69.8,4.86,8,8,0,1,0-9.39,13.07,71.26,71.26,0,0,0,32.82,12.81,70.12,70.12,0,0,0,8.51.52,70.93,70.93,0,0,0,55.79-27.15,13.7,13.7,0,0,0-15.28-21.38,36.31,36.31,0,0,1-28.11-66.79,13.71,13.71,0,0,0-4.66-25.88,70.83,70.83,0,0,0-74.15,94.91A8,8,0,0,0,81,159.27Z"/></svg>