<svg id="Layer_1" data-name="Layer 1" xmlns="http://www.w3.org/2000/svg" viewBox="0 0 256 256"><defs><style>.cls-1{fill:#fff;}.cls-2{stroke:#fff;stroke-miterlimit:10;stroke-width:2px;}</style></defs><title>php benefits</title><path class="cls-1" d="M199,111.11a13.18,13.18,0,1,0,13.18,13.18A13.19,13.19,0,0,0,199,111.11Zm5.79,17.73a4.2,4.2,0,0,1-1.16,1.46,5.07,5.07,0,0,1-1.64.86,8.13,8.13,0,0,1-1.91.35v2.6h-1.72v-2.64a14.08,14.08,0,0,1-2.94-.58,12.15,12.15,0,0,1-2.62-1.14l1.8-3.67a12.76,12.76,0,0,0,1.25.69,12.25,12.25,0,0,0,1.3.55,7.42,7.42,0,0,0,1.51.38V125.8q-.67-.17-1.33-.41a11.16,11.16,0,0,1-1.74-.74,4.71,4.71,0,0,1-1.2-.9,3.22,3.22,0,0,1-.7-1.15,4.48,4.48,0,0,1-.23-1.48,5.11,5.11,0,0,1,.39-2.05,4.73,4.73,0,0,1,1.05-1.54,5.18,5.18,0,0,1,1.56-1,6.47,6.47,0,0,1,1.9-.49v-2.17h1.72V116a10.63,10.63,0,0,1,1.37.26q.67.17,1.28.4t1.15.47l1,.46-1.8,3.46a8.77,8.77,0,0,0-1-.56,8.91,8.91,0,0,0-1.06-.44,8,8,0,0,0-1.19-.31v1.93l.41.12.45.14a15.66,15.66,0,0,1,1.9.71,5.9,5.9,0,0,1,1.45.91,3.52,3.52,0,0,1,.92,1.28,4.63,4.63,0,0,1,.32,1.83A4.83,4.83,0,0,1,204.79,128.84Z"/><path class="cls-1" d="M197.8,120.42a.69.69,0,0,0,.21.53,2,2,0,0,0,.64.38v-1.63Q197.8,119.8,197.8,120.42Z"/><path class="cls-1" d="M200.46,126.56a2.39,2.39,0,0,0-.69-.4v1.59a1.38,1.38,0,0,0,.73-.21.55.55,0,0,0,.21-.45A.68.68,0,0,0,200.46,126.56Z"/><path class="cls-1" d="M220.2,106.92a7.8,7.8,0,0,1-7.79-7.79v-1.8H185.58v1.8a7.8,7.8,0,0,1-7.79,7.79H176v29.46l20.9,22.29h4.19L222,136.38V106.92ZM199,141.06a16.77,16.77,0,1,1,16.77-16.77A16.79,16.79,0,0,1,199,141.06Z"/><path class="cls-2" d="M60.68,207s26-18.54,111.23,11.12"/><path class="cls-1" d="M45.73,119.62c-3.34,12.14-8.38,21.88-13.31,26.76s-10.19,10.6-10,17.54c.07,2.72,1,5.61-.21,8.06-1.54,3.18-5.66,3.87-8.75,5.6-4.56,2.56-7.1,8-6.92,13.22A21.24,21.24,0,0,0,13,204.68c3.83,3.86,9.9,6.55,14.66,3.93,2.87-1.59,4.51-4.69,6-7.64Q44.9,178.09,54,154.24"/><path class="cls-1" d="M76.42,67.63A32.1,32.1,0,0,1,111,59.42,32.1,32.1,0,0,1,130.95,88.9c-.09,8.13-3.27,16.65-.05,24.12,2.27,5.28,7.53,9.28,8.25,15,.84,6.62-4.82,12.63-4.53,19.29.19,4.35,2.92,8.2,6.06,11.22s7,5.34,9.67,8.78c7.56,9.71,6.87,40.16-2.44,41.71-6,1-28-5-37.75-7.31"/><path class="cls-1" d="M48.36,100.12a9,9,0,0,0-3.12-10.64A9.63,9.63,0,0,0,34,90.06a10.44,10.44,0,0,0-3.21,10.88,11,11,0,0,0,11,7.53,11,11,0,0,0,9.77-9"/><path class="cls-2" d="M61,78l0,6.18,2.35,87.17c-.15,10.74,17.26,28.63,27.19,32.2,2.28.82,10.22,3.73,14.08,2.51,11.67-3.7-1-18.71-.67-28.46a186.44,186.44,0,0,0-1.23-24.27s14.74-2,18.3-21.08c1.77-9.48,1.73-25.09,1.27-37.87A20.22,20.22,0,0,0,100.46,75Z"/><path class="cls-1" d="M103.12,152a48.71,48.71,0,0,1-25.44-7.54s5.86,13.32,25.06,12.06Z"/><path class="cls-1" d="M85.07,72c5.11,6.8-.21,16.43-6.1,22.56S65.89,107.8,67.5,116.16c1.86,9.69,15.11,15.89,13.14,25.55-.72,3.53-3.5,6.54-3.51,10.14,0,6.5,8.39,9.66,10.81,15.69,3.32,8.26-5.8,16.51-5.94,25.41-.08,5.06,2.78,9.77,2.94,14.83.31,10.36-11.93,17.94-22,15.39S46,210.82,43.85,200.69,45,176.33,46.6,166.1l-17.4,4c-3.24-3.09,1.19-6.38,1.92-10.79,1.83-11.07,9.11-20.45,12.57-31.13,3-9.33,3-19.33,4.37-29S52.4,79.3,59.83,72.89s20.28-7.2,26.28.55"/></svg>