<svg id="Layer_1" data-name="Layer 1" xmlns="http://www.w3.org/2000/svg" viewBox="0 0 256 256"><defs><style>.cls-1{fill:#5466ff;}.cls-2{fill:#1d243d;opacity:0.5;}</style></defs><title>industries icons</title><path class="cls-1" d="M112,178h35V143H112Z"/><path class="cls-2" d="M187.16,238H71.85a19.24,19.24,0,0,1-19.22-19.22V144H37.69A10.69,10.69,0,0,1,27,133.37a10.83,10.83,0,0,1,3.16-7.6l94.9-91a6.41,6.41,0,0,1,8.87,0l94.81,90.88a10.94,10.94,0,0,1,3.25,7.7A10.69,10.69,0,0,1,221.32,144H206.38v74.74A19.24,19.24,0,0,1,187.16,238ZM43,131.23H59a6.41,6.41,0,0,1,6.41,6.41v81.14a6.41,6.41,0,0,0,6.41,6.41H187.16a6.41,6.41,0,0,0,6.41-6.41V137.64a6.41,6.41,0,0,1,6.41-6.41H216L129.5,48.29Zm176.81,3.59h0Z"/></svg>