<svg id="Layer_1" data-name="Layer 1" xmlns="http://www.w3.org/2000/svg" viewBox="0 0 256 256"><defs><style>.cls-1,.cls-3{stroke:#fff;stroke-miterlimit:10;stroke-width:2px;}.cls-2{fill:#fff;}.cls-3{fill:none;}</style></defs><title>php benefits</title><path class="cls-1" d="M123.09,212.75c-32-5.73-42-22.34-42-22.34,11.67-11.51,7.19-43,3.21-60.23l14.34,11.89,19.53,16.22a63.37,63.37,0,0,0-1.24,7.89c-1,10.59,1.69,20.22,17.27,23.91C134.22,190.09,147.12,205.61,123.09,212.75Z"/><path class="cls-2" d="M116.85,160.38c-.6,2.52.23,8.87,0,11.32-7.61-1.4-19.09-10.2-20.15-17.29a29.5,29.5,0,0,1-.27-7.09Z"/><path class="cls-2" d="M126.55,83.45c10.49,4.74,16.34,34.3,3,40.66S106.68,74.47,126.55,83.45Z"/><path class="cls-1" d="M77.77,123a7.3,7.3,0,0,1,4.25.26c-.52-2.45-1.06-5-1.66-7.76-4.22-19.39,12.74-36.43,32.84-31,20.4,5.49,27.54,34.16,26,52.21-1.67,20.05-24.5,31.88-41.73,18.57A31.91,31.91,0,0,1,87.72,143a21.37,21.37,0,0,1-11.83-7.21C71.93,131,72.39,124.47,77.77,123Z"/><path class="cls-2" d="M51.81,92.06c-10.05,4.47-4.34,18.25,2.5,27,9.5,12.17,19.56,17.86,26.41,12.25,6.15-3.08,10.19-21.19,4.83-32.37,9.47-6.21,29.08,1.47,35.19-8.67S120.17,81.38,131,88s17-12.72,2.83-18.37c0,0,11.49,14,.14.1-8-9.83-27.21-20.68-40.56-6C83.55,74.48,49,58,51.81,92.06Z"/><line class="cls-3" x1="82.17" y1="190.1" x2="35.46" y2="204.97"/><g id="_09-timer" data-name=" 09-timer"><path class="cls-2" d="M216.9,113.38l3.74-3.74L217,106l-4,4a25.84,25.84,0,0,0-12.37-4.63V100h5.2V94.8H190.2V100h5.2v5.33A25.84,25.84,0,0,0,183,110l-4-4-3.68,3.68,3.74,3.74a26,26,0,1,0,37.8,0ZM198,152a20.8,20.8,0,1,1,20.8-20.8A20.8,20.8,0,0,1,198,152Z"/><path class="cls-2" d="M198,115.6v15.6H182.4A15.6,15.6,0,1,0,198,115.6Z"/></g></svg>