<svg id="Layer_1" data-name="Layer 1" xmlns="http://www.w3.org/2000/svg" viewBox="0 0 256 256"><defs><style>.cls-1{fill:#8d919d;}.cls-2{fill:#5466ff;}</style></defs><title>web development icons</title><path class="cls-1" d="M224.75,109.23V84.33A21.35,21.35,0,0,0,203.42,63H192.25a6.09,6.09,0,1,0,0,12.19h11.17a9.15,9.15,0,0,1,9.14,9.14v27.42a6.09,6.09,0,0,0,1.78,4.31L226.29,128l-11.94,11.94a6.09,6.09,0,0,0-1.78,4.31v27.42a9.15,9.15,0,0,1-9.14,9.14H192.25a6.09,6.09,0,1,0,0,12.19h11.17a21.35,21.35,0,0,0,21.33-21.33v-24.9l14.47-14.47a6.09,6.09,0,0,0,0-8.62Z"/><path class="cls-1" d="M29.25,171.67A21.35,21.35,0,0,0,50.58,193H61.75a6.09,6.09,0,1,0,0-12.19H50.58a9.15,9.15,0,0,1-9.14-9.14V144.25a6.09,6.09,0,0,0-1.78-4.31L27.71,128l11.94-11.94a6.09,6.09,0,0,0,1.78-4.31V84.33a9.15,9.15,0,0,1,9.14-9.14H61.75a6.09,6.09,0,0,0,0-12.19H50.58A21.35,21.35,0,0,0,29.25,84.33v24.9L14.78,123.69a6.09,6.09,0,0,0,0,8.62l14.47,14.47Z"/><circle class="cls-2" cx="79.5" cy="134.5" r="12.5"/><circle class="cls-1" cx="124.5" cy="134.5" r="12.5"/><circle class="cls-1" cx="169.5" cy="134.5" r="12.5"/></svg>