<svg id="Layer_1" data-name="Layer 1" xmlns="http://www.w3.org/2000/svg" viewBox="0 0 256 256"><defs><style>.cls-1{fill:#fff;}.cls-2{opacity:0.5;}</style></defs><title>web development icons</title><path class="cls-1" d="M133.63,21a13.08,13.08,0,0,0-8.84,0L35.44,52.8a13.08,13.08,0,0,0-8.61,13.82l13.73,119a13.08,13.08,0,0,0,6.78,10l75.61,40.83a13.08,13.08,0,0,0,12.53-.05l74-40.79a13.08,13.08,0,0,0,6.68-10l13.73-119a13.08,13.08,0,0,0-8.54-13.8Zm-93.8,44.1,89.35-31.8L216.92,65.1l-13.73,119-74,40.79L53.55,184.09Z"/><g class="cls-2"><path class="cls-1" d="M129.19,89.26,96,169.48l-12.08-5,39.24-94.82a6.54,6.54,0,0,1,12.08,0l39.24,94.82-12.08,5Z"/><path class="cls-1" d="M158.62,144.09H99.76V131h58.86Z"/></g></svg>