<svg id="Layer_1" data-name="Layer 1" xmlns="http://www.w3.org/2000/svg" viewBox="0 0 256 256"><defs><style>.cls-1{fill:#1d243d;opacity:0.5;isolation:isolate;}.cls-2{fill:#5466ff;}</style></defs><title>web development icons</title><path class="cls-1" d="M221.13,52.8,133.37,21a13.08,13.08,0,0,0-8.84,0L35.19,52.8a13.08,13.08,0,0,0-8.61,13.82l13.73,119a13.08,13.08,0,0,0,6.78,10l75.61,40.83a13.08,13.08,0,0,0,12.53-.05l74-40.79a13.08,13.08,0,0,0,6.68-10l13.73-119A13.08,13.08,0,0,0,221.13,52.8ZM202.94,184.13l-74,40.79L53.3,184.09l-13.73-119,89.35-31.8L216.67,65.1Z"/><path class="cls-2" d="M128.13,89.26,94.93,169.48l-12.08-5,39.24-94.82a6.54,6.54,0,0,1,12.08,0l39.24,94.82-12.08,5Z"/><path class="cls-2" d="M157.55,144.09H98.7V131h58.86Z"/></svg>