<svg id="Layer_1" data-name="Layer 1" xmlns="http://www.w3.org/2000/svg" viewBox="0 0 256 256"><defs><style>.cls-1,.cls-4{opacity:0.5;isolation:isolate;}.cls-2,.cls-4{fill:#1d243d;}.cls-3{fill:#5466ff;}</style></defs><title>web development icons</title><g class="cls-1"><path class="cls-2" d="M84.57,20.69V41.84L69.72,20.69h-5.2V55.36h6.83V34.16L86.21,55.36h5.2V20.69Z"/><path class="cls-2" d="M114.23,56a18,18,0,1,0-18-18A17.9,17.9,0,0,0,114.23,56Zm0-6.69A11,11,0,0,1,103,38a11.19,11.19,0,1,1,22.38,0A11,11,0,0,1,114.23,49.36Z"/><path class="cls-2" d="M150.82,20.69H137.06V55.36h13.77c9.56,0,16.69-7.58,16.69-17.33S160.38,20.69,150.82,20.69Zm0,28.13h-6.93V27.23h6.93c6,0,10.15,4.41,10.15,10.79S156.81,48.82,150.82,48.82Z"/><path class="cls-2" d="M179.19,48.82V41h13.12V34.61H179.19V27.23h14.36V20.69H172.36V55.36H193.8V48.82Z"/></g><path class="cls-3" d="M138.06,185.65c10.66,0,18.17-5.72,18.17-15.09,0-10.23-8.44-12.87-16.38-15.38-7.58-2.29-9.51-3.93-9.51-7,0-2.86,2.43-5,6.58-5,5.08,0,7.8,2.65,9.58,6.44l8.3-4.79a19,19,0,0,0-17.88-11.23c-8.58,0-16.45,5.44-16.45,14.88s7.44,12.73,15.09,14.95c7.44,2.15,10.8,3.58,10.8,7.3,0,2.79-2.07,5.29-8,5.29-6.22,0-9.73-3-11.52-7.65l-8.44,4.94C121.11,180.72,127.84,185.65,138.06,185.65Z"/><path class="cls-4" d="M119.07,80.48a13.76,13.76,0,0,1,13.75,0l57.26,33.06A13.75,13.75,0,0,1,197,125.46v66.12a13.75,13.75,0,0,1-6.88,11.91l-57.13,33a13.75,13.75,0,0,1-14.09-.2l-13.69-8.43,5.77-9.37,13.69,8.43a2.75,2.75,0,0,0,2.82,0l57.13-33a2.75,2.75,0,0,0,1.38-2.38V125.46a2.75,2.75,0,0,0-1.38-2.38L127.32,90a2.75,2.75,0,0,0-2.75,0L67.31,123.07a2.75,2.75,0,0,0-1.38,2.38v66.14A2.75,2.75,0,0,0,67.3,194l16,9.31-5.53,9.51-16-9.31,2.76-4.76-2.76,4.76a13.75,13.75,0,0,1-6.85-11.89V125.46a13.75,13.75,0,0,1,6.88-11.91Z"/><path class="cls-3" d="M108.89,133.76V195a20.7,20.7,0,0,1-20.63,20.77A20.46,20.46,0,0,1,77,212.36l6-9.19a9.46,9.46,0,0,0,5.23,1.56A9.7,9.7,0,0,0,97.89,195v-61.2Z"/></svg>