<svg id="Layer_1" data-name="Layer 1" xmlns="http://www.w3.org/2000/svg" xmlns:xlink="http://www.w3.org/1999/xlink" viewBox="0 0 710 710"><defs><style>.cls-1{fill:none;}.cls-2{clip-path:url(#clip-path);}.cls-3,.cls-4,.cls-5{fill:#fff;}.cls-4,.cls-5,.cls-6{stroke:#000;stroke-miterlimit:10;}.cls-5{stroke-width:2px;}.cls-6,.cls-7{fill:#5565ff;}.cls-8{fill:#f3f3f3;}.cls-9{opacity:0.5;}.cls-10{opacity:0.3;}.cls-11{opacity:0.9;}.cls-12{fill:#dce9ff;}</style><clipPath id="clip-path"><circle class="cls-1" cx="355" cy="356" r="350"/></clipPath></defs><title>web devlopment process</title><g class="cls-2"><circle class="cls-3" cx="355" cy="356" r="350"/><path class="cls-4" d="M406.54,339.39l-.06.33"/><path d="M521.29,430.67c34.55,36,64.31,145.72,64.31,145.72H536l-31-72.86Z"/><path d="M341.34,435.69c7.23-8.21,45.73-35.24,94.82-32.3,43.29,2.59,78.3,16,85.12,26.36,5,7.61-5.94,59-13.55,79.4s-12.09,51.55-12.09,70.1c0,0-120.68,4.64-122-9.24-.09-1-15.21-45.17-17.12-68S358.93,454,341.34,435.69Z"/><path d="M317.57,547.19c0-31.55,8.28-112.46,27.33-112.65,14.77-.15,19.27,13.36,26.48,52,2.16,11.56-1.51,44.59-2.47,58.53Z"/><path d="M397.28,579.17H328c-10.26,0-21.29-8.37-19.74-31.06S347,528.61,359.64,546l38.15,5.83Z"/><path class="cls-5" d="M441.45,576.86l-3.28-3.07-10,3.53a16.12,16.12,0,0,1-5.39.93H372.92s-16.91-.62-16.28-15.37c.77-18,13.56-20.78,17.7-20.78l54.08,8.85a15.8,15.8,0,0,0,3.23-.33l15.41-3.22a9.49,9.49,0,0,1,6.67,1.06l8.73,5a22,22,0,0,1,4.62,3.54l15.85,15.88a3.14,3.14,0,0,1-2.22,5.35H445A5.12,5.12,0,0,1,441.45,576.86Z"/><path class="cls-5" d="M430.81,360.66s-10.71,32-16.15,42.91,15.79,21.52,29.94,24.15c9.35,1.74,27.41.87,17.48-11.54,0,0-5.58-6.92,3.44-22.92C465.51,393.27,435.14,355.08,430.81,360.66Z"/><path d="M465.51,393.27s-14.08-17.7-24.44-27.24l-5.32,5.37c-1.9,18.08,7.28,47.5,26.32,44.79C462.07,416.19,456.49,409.27,465.51,393.27Z"/><path class="cls-5" d="M437,353.37c-1.77-10.07-10.48-7.7-10.26,1.16.25,10.12,5.86,15.16,8.58,11.81,0,0,.67,22.82,13.61,32s22.05.53,30.74-17.71c7.47-15.69,10-32.45,9.17-38.27-2.05-15.19-20.8-21.26-34.25-15.53C438.09,333.84,437,353.37,437,353.37Z"/><path d="M183.85,421.33C199,410.09,217.11,439,218.41,473c1,25.06,11.52,60.4,11.52,60.4s34.14,22.76,49.44,25.43C276,565,271.31,565.69,270,577.3c-24.9-1.26-52.29-12.57-55.74-16.2C193,538.83,176.61,484,175.48,459.23,174.17,430.4,183.85,421.33,183.85,421.33Z"/><path class="cls-5" d="M187.51,423.6c10.14,4.53,2.15,11.79,14.86,30.46,1.32,1.94-12.75-2.65-6.5,13.1,14,35.14.84,40.44-12,58.85-13.9,19.92,5.43,58.84-4.75,59.73-21.35,1.86-80.76,1.86-80.76,1.86-8.41-56-34.31-136.47-11.48-158.75S187.51,423.6,187.51,423.6Z"/><path d="M211.41,359c14.35,25.55-2.59,121.89-2.59,121.89s-26-39.92-36.49-56.24c-11.06-17.2,18.09-65.8,18.09-65.8S208.84,354.38,211.41,359Z"/><path d="M185.08,421.24s-8.3,8.77-6.4,12.3c4.24,7.85,13.54,20.53,10,34-5.68,21.32-32.95,13.1-37.54.92-1.74-4.61-10.77-20.9-10.77-20.9l12.85-47.44Z"/><path class="cls-5" d="M175,424.88c-1.26,2.4-.88,4.4,0,7,16.24,47-14.84,42.53,1.23,44.15l-.13,0-1.9.3c-.44.07-.92.31-1.32.11-7.31-3.62-9.4-5.91-11.67-10.1-1.56-2.9-5.57-22.12-6.17-25.63a8.31,8.31,0,0,1-.11-1l-1-23.08a8.38,8.38,0,0,1,13-7.36l11.87,7.86c3.53,2.34-1.79,4.05-3.76,7.8Z"/><path class="cls-5" d="M206.89,355.86c5.08,33-1,63.42-16.93,66.91s-38.62-14.08-38.51-29.44-15-55.47,2.59-64.47S203.65,334.8,206.89,355.86Z"/><path d="M193.53,352.8a140.07,140.07,0,0,0,14.33,10.71c6.07,3.67,4.73-17.27-7-27.19s-27.16-18.4-33.48-12.8c0,0-19.63-5.58-31.7,14.42S125.36,383,121.56,388s-10,6.83-13,16.71a108.43,108.43,0,0,0-20.42,18.57C73.05,440.84,77,455.78,77,455.78S89.7,424,102.07,425.14c5.36.52,3.85,6.21,18.71,5.58,7.73-.33,15.64,35.26,24,56.61.81,2.06,6.47-27.49,6.5-29.7l6.3-80S191.63,373.55,193.53,352.8Z"/><path d="M87.16,428.51c17.75-11.36,38.71,17.38,40,51.4.93,25.06,13,60.34,13,60.34s39.7,22.51,57.55,25.06c-4,6.22-9.46,6.93-11.14,18.57-29.07-1.08-61-12.18-65-15.78C97,546,78.23,491.26,77.1,466.48,75.79,437.65,87.16,428.51,87.16,428.51Z"/><path class="cls-5" d="M214,582.81l-2.3-2.08-6.84,2.57a11.15,11.15,0,0,1-3.71.71l-13.67.25s-6.5-1.27-6.85-8.9,6.18-10,9-10l15-.28a10.93,10.93,0,0,0,2.23-.27l10.62-2.42a6.56,6.56,0,0,1,4.63.65l6.11,3.36a15.25,15.25,0,0,1,3.24,2.39l11.17,10.78a2.17,2.17,0,0,1-1.47,3.73l-24.73.46A3.54,3.54,0,0,1,214,582.81Z"/><rect x="-23.13" y="580.41" width="703.16" height="3.93" transform="translate(-12.61 7.3) rotate(-1.25)"/><path class="cls-5" d="M264.28,593.35H202.69A6.39,6.39,0,0,1,196.3,587h0a2.92,2.92,0,0,1,2.92-2.92h65.06A2.92,2.92,0,0,1,267.2,587v3.48A2.92,2.92,0,0,1,264.28,593.35Z"/><path class="cls-5" d="M373.28,591.22,247,594.41c-5,0-8.56-5.79-7.25-10.57l20.39-79.46A12.33,12.33,0,0,1,272,495.32l126.51-2.13a7.52,7.52,0,0,1,7.25,9.51l-20.58,79.46A12.33,12.33,0,0,1,373.28,591.22Z"/><circle class="cls-6" cx="325.76" cy="545.01" r="6.69"/><path class="cls-7" d="M450.07,551.8H619.71a6.22,6.22,0,0,0,6.08-4.91l21.07-97.57a6.22,6.22,0,0,0-6.08-7.53H471.14a6.22,6.22,0,0,0-6.08,4.91L444,544.26A6.22,6.22,0,0,0,450.07,551.8Z"/><path class="cls-7" d="M542.48,576.21l-3.08-36.83a6.51,6.51,0,1,1,13-1.09l3.15,37.63,24.76-.3v6.58l-62.76,1.51v-7Z"/><path class="cls-3" d="M571.71,464.08c.47-4.13,7-4.18,6.54,0l-1.55,13.45c-.47,4.13-7,4.18-6.54,0Z"/><path class="cls-3" d="M558.64,464.08c.47-4.13,7-4.18,6.54,0l-1.55,13.45c-.47,4.13-7,4.18-6.54,0Z"/><path class="cls-3" d="M545.57,464.08c.47-4.13,7-4.18,6.54,0l-1.55,13.45c-.47,4.13-7,4.18-6.54,0Z"/><path class="cls-3" d="M532.5,464.08c.47-4.13,7-4.18,6.54,0l-1.55,13.45c-.47,4.13-7,4.18-6.54,0Z"/><path class="cls-7" d="M519.42,464.08c.47-4.13,7-4.18,6.54,0l-1.55,13.45c-.47,4.13-7,4.18-6.54,0Z"/><path d="M283.17,410.57H266.85a6.83,6.83,0,0,1-6.82-6.82V387.43a6.83,6.83,0,0,1,6.82-6.82h16.32a6.83,6.83,0,0,1,6.82,6.82v16.32A6.83,6.83,0,0,1,283.17,410.57Zm-16.32-28.07a4.93,4.93,0,0,0-4.92,4.92v16.32a4.93,4.93,0,0,0,4.92,4.92h16.32a4.93,4.93,0,0,0,4.92-4.92V387.43a4.93,4.93,0,0,0-4.92-4.92Z"/><path d="M328.24,365H311.92a6.83,6.83,0,0,1-6.82-6.82V341.83a6.83,6.83,0,0,1,6.82-6.82h16.32a6.83,6.83,0,0,1,6.82,6.82v16.32A6.83,6.83,0,0,1,328.24,365ZM311.92,336.9a4.93,4.93,0,0,0-4.92,4.92v16.32a4.93,4.93,0,0,0,4.92,4.92h16.32a4.93,4.93,0,0,0,4.92-4.92V341.83a4.93,4.93,0,0,0-4.92-4.92Z"/><rect class="cls-7" x="305.11" y="380.62" width="29.94" height="29.94" rx="14.53" ry="14.53"/><path class="cls-8" d="M319.13,402.19l-7.57-6.6a1.49,1.49,0,0,1,2-2.25l5.35,4.67,7.63-8.51a1.49,1.49,0,0,1,2.22,2Z"/><rect class="cls-7" x="260.04" y="335.02" width="29.94" height="29.94" rx="14.53" ry="14.53"/><path class="cls-8" d="M274.06,356.58l-7.57-6.6a1.49,1.49,0,1,1,2-2.25l5.35,4.67,7.63-8.51a1.49,1.49,0,1,1,2.22,2Z"/><rect class="cls-9" x="134.52" y="158.19" width="27.13" height="6.01"/><rect class="cls-9" x="213.68" y="158.19" width="31.8" height="6.01"/><rect class="cls-9" x="293.1" y="158.19" width="19.9" height="6.01"/><rect class="cls-9" x="370.81" y="158.19" width="36.34" height="6.01"/><rect class="cls-9" x="443.18" y="158.19" width="30.06" height="6.01"/><rect class="cls-9" x="514.06" y="158.19" width="37.94" height="6.01"/><rect class="cls-10" x="213.22" y="175.4" width="0.9" height="92.88"/><rect class="cls-10" x="293.1" y="175.4" width="0.9" height="92.88"/><g class="cls-11"><polygon class="cls-12" points="134.52 268.28 159.17 233.56 177.78 259.76 206.65 219.1 219.94 219.1 239.67 231.12 263.39 197.71 295.97 243.61 316.27 215.01 321.71 215.01 332.47 199.85 361.46 240.68 375.08 221.51 388.94 241.03 412.83 207.38 431.02 233.01 444.33 233.01 472.49 193.34 501.94 234.81 552 193.34 552 268.28 134.52 268.28"/></g><polygon class="cls-7" points="203.52 268.28 223.7 239.86 235.51 256.49 259.54 222.63 282.35 254.75 300.31 254.75 316.49 231.97 337.66 231.97 360.64 264.34 375.6 243.25 383.96 255.03 411.39 216.4 431.75 245.09 449.5 245.09 469.62 216.74 478.47 229.21 485.71 219.01 504.42 245.36 523.79 245.36 552 205.63 552 268.28 203.52 268.28"/><path d="M437.17,352.85c1.47,5.65,3.9,9.55,6.43,6.52s6.14-16.77,16-11.35,18.12,10.77,29.93,5c15.27-7.46,11.13-30.3-4.25-29.06,0,0,3.4-9.6-8.66-9.09-11,.46-10.73,2.55-20.48-2.7-5.61-3-28.65,8.05-26.23,35C429.87,347.14,434.89,344,437.17,352.85Z"/><path d="M751.5,472.3l-.6.26-1.08.5c-.71.33-1.35.67-2,1q-1.93,1-3.74,2.12a80.69,80.69,0,0,0-6.9,4.7,92.51,92.51,0,0,0-12.14,11,102.92,102.92,0,0,0-10,12.69,114.71,114.71,0,0,0-7.9,13.94,124.5,124.5,0,0,0-5.87,14.73c-.75,2.51-1.59,5-2.19,7.55l-1,3.8-.8,3.81a160,160,0,0,0-2.67,18.86l.42-24A117.12,117.12,0,0,1,700,526c3.59-10.16,8.85-21.9,14.68-34.6,4.78-10.39,8.86-19.52,12.63-26.93s7.46-12.84,10.45-15.73c-3,2.86-8.51,6.54-14.54,12.77a92.2,92.2,0,0,0-17.69,25.64,123.33,123.33,0,0,0-10.15,35.46l.91-51.67a46.49,46.49,0,0,1,4.86-10.22c3.51-5.8,8.33-12.21,13.19-19.58a129.6,129.6,0,0,0,9.12-16.76,83.43,83.43,0,0,1,5.6-10.93c-1.51,2.16-5.25,4.36-9.54,7.79a60.88,60.88,0,0,0-13.61,14.37,64.18,64.18,0,0,0-9.41,23l.35-19.79c1.55-9.1,4.73-22.8,5-38.71.3-17-4.52-29.86-4.41-35.88-.11,6-5.37,18.67-5.67,35.7-.28,15.91,2.41,29.72,3.64,38.87L695,460.29A138,138,0,0,0,685.38,421a108.86,108.86,0,0,0-17.71-28.69,139.3,139.3,0,0,0-15-14.65c3.37,3.05,7,9.22,10.77,17.39s7.81,18.35,12.63,29.83c5.78,14.09,10.84,27.1,14.21,38.31a124,124,0,0,1,4.37,19.19l-.59,33.27q-.55-6.2-1.52-12.3a199.12,199.12,0,0,0-6.19-26.78A229.54,229.54,0,0,0,676.89,451c-1.82-4.19-3.84-8.34-6-12.46A118.81,118.81,0,0,0,663.34,426c3.54,5,3.94,10.06,3.41,14.95a40.45,40.45,0,0,1-1.67,7.1c-.77,2.28-1.66,4.45-2.51,6.46-1.26,2.91-1.11,5.12-.15,7a16.36,16.36,0,0,0,4.27,4.92c3.32,3,6.85,5.8,4.28,9.81s-5.52,7.69-5.36,12.06a12.78,12.78,0,0,0,2.86,7.36c1.9,2.82,5.14,6,9.73,10.17a56,56,0,0,1,7.54,8.3,69.76,69.76,0,0,1,5.18,8.26c1.32,2.55,2.2,4.78,2.84,6.36l.08.19-.67,38c-.12-.85-3.89-24.91-17.91-38.43-13.17-12.7-25.6-16.89-28.85-18.77,3.28,1.89,21.72,25.5,27.74,33.63,9.28,12.54,18.93,15.31,18.63,32.46v0l.77,1.41.91-2.14a23.28,23.28,0,0,1,1.25-4.37,29.31,29.31,0,0,1,4.06-6.87,44,44,0,0,1,5.41-5.55c2-1.64,3.95-3.08,5.81-4.4a9.09,9.09,0,0,0,4.29-6.18c.46-2.21,0-4.64-.33-7-.18-1.19-.38-2.38-.51-3.53a14.27,14.27,0,0,1,.05-3.24,5.12,5.12,0,0,1,3.6-4.47c4.61-1.63,9.36-2.51,12.36-5.88a10.8,10.8,0,0,0,2-3.05,20.07,20.07,0,0,0,1.44-4.36c.77-3.48,1.21-8,1.9-14.58A46.26,46.26,0,0,1,744,480.5c3.78-5.37,7.64-8.31,8.28-8.53Z"/></g></svg>