<svg id="Layer_1" data-name="Layer 1" xmlns="http://www.w3.org/2000/svg" xmlns:xlink="http://www.w3.org/1999/xlink" viewBox="0 0 710 710"><defs><style>.cls-1{fill:none;}.cls-2{clip-path:url(#clip-path);}.cls-12,.cls-3{fill:#fff;}.cls-4{opacity:0.8;}.cls-14,.cls-5,.cls-6,.cls-9{fill:#5565ff;}.cls-12,.cls-14,.cls-5,.cls-6{stroke:#000;stroke-miterlimit:10;}.cls-12,.cls-5,.cls-6{stroke-width:2px;}.cls-6,.cls-7{opacity:0.2;}.cls-8{fill:#ebebeb;}.cls-10{fill:#e0e0e0;}.cls-11{fill:#007cff;}.cls-13{fill:#fafafa;}</style><clipPath id="clip-path"><circle class="cls-1" cx="355" cy="356" r="350"/></clipPath></defs><title>web devlopment process</title><g class="cls-2"><circle class="cls-3" cx="355" cy="356" r="350"/><rect x="11.89" y="582.32" width="700.16" height="3.73" transform="translate(-12.65 8.03) rotate(-1.25)"/><g class="cls-4"><polygon class="cls-5" points="446.96 294.73 250.85 294.73 263.76 561.82 459.87 561.82 446.96 294.73"/><polygon class="cls-6" points="446.96 294.73 250.85 294.73 263.76 561.82 459.87 561.82 446.96 294.73"/></g><polygon class="cls-7" points="438.42 303.72 261.63 303.72 273.98 549.75 427.71 549.54 453.25 526.89 438.42 303.72"/><path class="cls-3" d="M439.78,303.72a2003.54,2003.54,0,0,0,17.78,220.22q-21,14.45-41.81,28.9H283.56a2006.85,2006.85,0,0,1-21.93-249.12Z"/><path class="cls-8" d="M457.55,523.93q-21,14.45-41.81,28.9,4.55-19.14,9.47-38.29Z"/><path class="cls-9" d="M309.58,326.22q.49,13.51,1.17,27h-27q-.68-13.52-1.17-27h27m2.75-2.85H279.59q.57,16.36,1.42,32.74h32.74q-.84-16.37-1.42-32.74Z"/><path class="cls-10" d="M420,336.37H327.43q-.13-3.06-.25-6.11h92.58Q419.88,333.32,420,336.37Z"/><path class="cls-10" d="M400.45,349.22H328q-.15-3.05-.28-6.11h72.45Q400.3,346.16,400.45,349.22Z"/><path class="cls-9" d="M312.22,379.18q.86,13.52,1.9,27.05h-27q-1-13.53-1.9-27.05h27m2.68-2.85H282.15q1,16.38,2.3,32.76h32.74q-1.28-16.38-2.3-32.76Z"/><path class="cls-10" d="M364.35,389.33h-34q-.21-3.06-.41-6.11h34Q364.14,386.27,364.35,389.33Z"/><path class="cls-10" d="M396.57,389.33h-25q-.21-3.06-.41-6.11h25Q396.36,386.27,396.57,389.33Z"/><path class="cls-10" d="M412.28,402.18h-81q-.23-3.06-.45-6.11h81Q412,399.13,412.28,402.18Z"/><path class="cls-9" d="M316.28,432.15q1.22,13.53,2.62,27.05h-27q-1.4-13.53-2.62-27.05h27m2.6-2.85H286.14q1.45,16.38,3.17,32.76H322q-1.72-16.38-3.17-32.76Z"/><path class="cls-10" d="M427.91,449H335.32q.3,3.06.61,6.11h92.58Q428.21,452.11,427.91,449Z"/><path class="cls-10" d="M406.55,436.2H334.1q.28,3.06.57,6.11h72.45Q406.83,439.25,406.55,436.2Z"/><path class="cls-9" d="M321.75,485.13q1.58,13.52,3.34,27h-27q-1.76-13.52-3.34-27h27m2.52-2.85H291.53q1.89,16.38,4,32.75h32.74q-2.16-16.37-4-32.75Z"/><path class="cls-10" d="M433,495.28H340.42q-.37-3.05-.74-6.11h92.58Q432.63,492.23,433,495.28Z"/><path class="cls-10" d="M384.17,508.13H342q-.39-3.05-.77-6.11h42.15Q383.78,505.07,384.17,508.13Z"/><path class="cls-10" d="M409.34,508.13h-18.2q-.39-3.05-.77-6.11h18.2Q408.95,505.07,409.34,508.13Z"/><path d="M297.63,349.4l-1.2-1.91c-2.62-4.17-8-7.89-9.8-9l1.37-2.44a38.59,38.59,0,0,1,9.59,8.23c4.12-5.61,10.2-11.4,18.54-17.63l1.76,2.3c-8.9,6.66-15.13,12.76-19.06,18.63Z"/><path d="M300.89,402.37l-1.25-1.91c-2.72-4.17-8.17-7.89-10-9L290.9,389a40.12,40.12,0,0,1,9.81,8.23c4-5.62,9.9-11.4,18.07-17.65l1.83,2.31c-8.72,6.67-14.79,12.77-18.56,18.64Z"/><path d="M305.58,455.47l-1.3-1.91c-2.84-4.17-8.39-7.89-10.29-9l1.24-2.44a41.81,41.81,0,0,1,10,8.23c3.82-5.61,9.59-11.4,17.59-17.65l1.89,2.31c-8.54,6.67-14.45,12.77-18.06,18.64Z"/><path class="cls-8" d="M391.35,538.18c-5,0-7.91-1.86-10.46-3.49s-4.74-3-9-3a11.37,11.37,0,0,0-8.12,3,13.46,13.46,0,0,1-9.47,3.49c-5,0-7.91-1.86-10.46-3.49s-4.74-3-9-3a11.37,11.37,0,0,0-8.12,3,13.46,13.46,0,0,1-9.47,3.49c-5,0-7.91-1.86-10.46-3.49s-4.74-3-9-3l-.34-2.45c5,0,7.9,1.85,10.45,3.49s4.74,3,9,3a11.38,11.38,0,0,0,8.12-3,13.5,13.5,0,0,1,9.48-3.49c5,0,7.9,1.85,10.45,3.49s4.74,3,9,3a11.38,11.38,0,0,0,8.12-3,13.5,13.5,0,0,1,9.48-3.49c5,0,7.9,1.85,10.45,3.49s4.74,3,9,3Z"/><path d="M398.54,301.34c-2.87-7.62-9.51-12.68-16.67-12.68H367.32a5.54,5.54,0,0,1-5.06-3.36A13.59,13.59,0,0,0,349.86,277a12.05,12.05,0,0,0-11.59,8.33,4.92,4.92,0,0,1-4.74,3.36H319c-7.15,0-13.31,5.05-15.44,12.68l-.85,3h97Z"/><path class="cls-11" d="M399.07,307.38H303.59a3.18,3.18,0,0,1-3.13-3h0a2.83,2.83,0,0,1,2.85-3h95.48a3.18,3.18,0,0,1,3.13,3h0A2.83,2.83,0,0,1,399.07,307.38Z"/><path class="cls-7" d="M399.07,307.38H303.59a3.18,3.18,0,0,1-3.13-3h0a2.83,2.83,0,0,1,2.85-3h95.48a3.18,3.18,0,0,1,3.13,3h0A2.83,2.83,0,0,1,399.07,307.38Z"/><path class="cls-12" d="M388.84,391.68c2.82-1.28,16-3.07,17.62-1.63s11,15.63,14.81,18.93,21.55,16.73,35.23,20.7c.54.16,2.7,1.88,3.21,2.14,2.2,1.11,2.67,1.92,4.8,3.54,4.89,3.73.93,5.23.26,8.63a10.67,10.67,0,0,1-16.64,6.76c-2.32-1.65-4.41-3.22-6-4.59,0,0-28.12-23.26-31.16-23.72-2.78-.42-5.7-3-8.21-5.19L400.22,415a6.71,6.71,0,0,0-4.16-1.68,5.23,5.23,0,0,1-3-1.39l-.28-.23C389.5,408.86,386,393,388.84,391.68Z"/><path d="M565.52,311.71c-3.6-5.29-1.38-13.29,4-16.75s12.88-2.58,18,1.27,6.54,10.55,5.7,16.29a8.94,8.94,0,0,1-.76,2.36c-2,4.41-7.58,10-12.92,6.78"/><path d="M518.86,340.65c-18.47-31.63,15.71-47.22,33.59-43.11,16.81,3.85,24.29,11.75,27.57,22.7s3.75,23-.07,33.75c-1.88,5.32-5.48,10.8-11,11.73"/><path class="cls-12" d="M562.9,314.75a5.29,5.29,0,0,1,5,5.12h0L569.69,393c.31,8.43-13,12.2-22,12.46h0c-9.12.26-9.65-4.19-10.18-12.2-.89-13.39-1.13-18.41-1.14-18.34s-11.61-1.34-14.75-16.24c-1.56-7.41-1.8-19.68-1.66-29.73.12-9,5.54-20.4,14.57-19.9Z"/><path d="M536.35,373.86a38.27,38.27,0,0,0,19.85-6.37s-4.37,10.56-19.47,9.91Z"/><path d="M524.21,310A14.5,14.5,0,0,0,530.3,324a28.43,28.43,0,0,0,8.56,3.37l5.73,1.56c4.23,1.15,8.52,2.31,12.9,2.25-.22,4.91-.79,8.22,1.85,12.37,2.37,3.72,5.81,6.34,10.28,5.25,1.77-11.82,1.85-17.41,1.67-29.36,0-2.53-.12-5.2-1.49-7.33-2.26-3.51-7-4.18-11.19-4.51L541,306.17a35.12,35.12,0,0,0-8.6,0,11.82,11.82,0,0,0-7.42,4"/><path class="cls-5" d="M544,580l-.46-68.69a6.06,6.06,0,0,0-6.89-5.92l-18.21,2L480,581"/><path d="M542.2,547.69c-3.06-16.76-12.37-42.09-12.37-42.09l51.57-1s14.95,25.2,15.77,41.63A254.08,254.08,0,0,0,601,578l-70,3"/><path d="M511.21,403.22l-30.75,35.39a3.62,3.62,0,0,1-4.48.79l-35.09-20.11a3.62,3.62,0,0,0-4.31.61l-12.22,11.18a4.22,4.22,0,0,0,.24,5.16,2.44,2.44,0,0,0,.67.64l50.11,33a3.62,3.62,0,0,0,2.1.63l21.7-.34a3.62,3.62,0,0,0,3.17-2L522,429.5a3.62,3.62,0,0,0,.1-3.05l-9.8-23.06A.62.62,0,0,0,511.21,403.22Z"/><path class="cls-12" d="M499,439.41l19.23,69.5,62.23-5.34,6.4-36.58,17.6-51.55s-2.64-22.93-30.83-24.41l-5.19-10.47-32,2.81-3.91,9.54s-22.1,1.07-26.45,24a.32.32,0,0,1,0,.1l-5.38,9.15C498.9,429.21,498.19,436,499,439.41Z"/><path d="M561.71,465.37l-8.84,16.94c-.73,1.4-3.55,1.35,1.7,3.32l33.15,4.81,5.76.68a21,21,0,0,0,19-8.17h0c4.58-6,6-15.74,3-22.7l-9.6-44.45s-6-13-9.42-15.32c0,0-5.68-5.95-9.46-6.08S561.71,465.37,561.71,465.37Z"/><path class="cls-12" d="M589.6,458.48c0,.25-2.12-.82-14.75,3.08-6.18,1.91-23.62,3.91-23.66,3.66"/><polygon points="428.7 443.9 446.58 461.14 475.43 488.95 525.07 486.48 484.89 441.1 428.7 443.9"/><path class="cls-9" d="M436.55,443.39s-13,5.75.23,15.71,31.28,13.67,34,20.87a12.12,12.12,0,0,1-1.74,12.18l38-1.67S518.4,480.74,510,472s-30.52-21.24-33.09-24.62,3.6-6.11,3.6-6.11Z"/><polygon points="448.57 442.82 447.09 441.07 467.61 439.81 467.61 441.93 448.57 442.82"/><path class="cls-13" d="M473.55,448.62c0,.14-1.93.44-5.1.78s-7.56.71-12.41,1-9.26.37-12.46.3-5.16-.31-5.15-.44a46.4,46.4,0,0,1,5.15-.2c3.18-.09,7.56-.29,12.41-.56l12.41-.71A35.94,35.94,0,0,1,473.55,448.62Z"/><ellipse class="cls-13" cx="460.95" cy="455.17" rx="16.66" ry="0.45" transform="translate(-21.03 22.33) rotate(-2.71)"/><path class="cls-13" d="M486.4,459.13a24.37,24.37,0,0,1-4.76.84c-3,.39-7.06.84-11.6,1.19s-8.66.55-11.64.61a24.36,24.36,0,0,1-4.84-.1,27,27,0,0,1,4.8-.54l11.61-.88,11.6-.92A26.93,26.93,0,0,1,486.4,459.13Z"/><ellipse class="cls-13" cx="478.11" cy="466.77" rx="14.3" ry="0.45" transform="translate(-35.5 39.37) rotate(-4.55)"/><ellipse class="cls-13" cx="487.51" cy="472.93" rx="13.88" ry="0.45" transform="translate(-46.71 53.48) rotate(-5.99)"/><path class="cls-13" d="M505.49,479.75a18.13,18.13,0,0,1-4.12.69c-2.56.29-6.1.6-10,.8s-7.48.25-10.05.21a18.13,18.13,0,0,1-4.17-.27,20.16,20.16,0,0,1,4.15-.37l10-.47,10-.53A20.18,20.18,0,0,1,505.49,479.75Z"/><path class="cls-12" d="M488.76,470.53c1.1,2.32,8.47,10.5,10.28,10.47s15.37-4,19.51-4,23.21,1.93,34,6.75a30.54,30.54,0,0,0,3.32,1.12c2.5.34,3.05,0,5.27-1.28,4.29-2.47,4.1-5.05,4.06-5.85-.3-6-.82-12.22-7.27-12.77-2.36-.2-4.51-.33-6.24-.3,0,0-30.25-.35-32.42-1.69-2-1.22-5.22-1.16-8-1.11l-2.83,0a5.56,5.56,0,0,1-3.53-1.16,4.34,4.34,0,0,0-2.67-.75h-.3C498.38,460,487.66,468.2,488.76,470.53Z"/><polygon class="cls-3" points="442.33 440.34 444.3 443 444.3 443 464.25 442.12 462.54 439.41 442.33 440.34"/><path d="M214.57,393.25c4.62,2,15.7,4.37,16.7,37.23.31,10,23.8,50.52,11,68.43-4.12,5.78-2.19,14-7.93,18.15-13,9.43-39,24.25-73.52,23.84l-1.26-16.57,46.34-21.86,6.36-2.73-1.41-9.85-8.48-52S189.36,382.52,214.57,393.25Z"/><path class="cls-12" d="M114,589c2.05-17.45,20-63.54,20-63.54l83.52.37c1.1-.25,6.69,38.82,20.45,60.17"/><path d="M128.5,390.64c-5,0-20.5,14.62-24.46,37-1.74,9.81-5.93,50.53-8.33,70.05a19.48,19.48,0,0,0,7.93,18.15c13,9.43,39,24.25,73.52,23.84l1.26-16.57-46.34-21.86-6.36-2.73,1.41-9.85,8.48-52S148.81,390.64,128.5,390.64Z"/><path d="M145.21,300.21c-.26,7-9.63,11.3-9.51,18.34.05,3,1.93,5.73,2.29,8.73.49,4-1.76,7.84-2.59,11.81-1.71,8.19,3,16.83,10.11,21.31s15.93,5.34,24.22,4.2"/><path d="M201.84,298.49c-.28,3.78,2.22,7.15,4.73,10s5.31,5.79,5.85,9.53c1,6.64-5.54,12.81-4.2,19.38.72,3.52,3.6,6.36,4.12,9.91s-1.35,6.81-3.64,9.43-4.94,2.24-7,5.07a28.46,28.46,0,0,1-8.78,7.8c-7.29,4-16-1.78-19.55-2.82"/><path d="M143.8,304.26c-.1-3.42,3.07-6.07,6.26-7.33s6.73-1.73,9.57-3.64c2.52-1.69,4.21-4.34,6.34-6.5a21.09,21.09,0,0,1,35.47,9.68c1.22,4.88.39,10.64-3.46,13.89-4.46,3.76-11.08,2.93-16.8,1.76s-12.19-2.32-17,1c-2.88,2-4.53,5.32-6.29,8.37s-4,6.16-7.3,7.31-7.85-.83-8-4.35"/><path class="cls-12" d="M189.32,384c0-7.86.09-15.52.1-15.48s12.48-2.1,15-18.4c1.27-8.11.83-21.39.12-32.25-.64-9.77-7.14-21.75-16.88-20.7L157.3,305a5.73,5.73,0,0,0-5.11,5.82h0l2.78,73.8a17.18,17.18,0,0,0,17.51,16.53h0A17.18,17.18,0,0,0,189.32,384Z"/><path d="M189.86,367.38a43,43,0,0,1-22.22-5.85c.18,0,6.27,11.34,21.88,9.64Z"/><path d="M150.41,359.48c4.48.9,4.88-1.38,8.23-4.49a14.72,14.72,0,0,0,4.5-12.41c-.51-4-2.66-8.07-1.28-11.86,1.83-5,8.85-6.55,10.72-11.55,1.08-2.9.11-6.3,1.34-9.15,1.15-2.68,4-4.22,6.71-5.21s5.68-1.68,8-3.46,3.74-5.16,2.25-7.67a154.39,154.39,0,0,0-35.61,8.65c-2.66,1-5.45,2.19-7,4.55s-1.58,5.73-1.44,8.73l2,43.89"/><path d="M140.16,326.24a12.5,12.5,0,0,0-23.67-4.33c-2.27,4.6-1.48,10.2.63,14.88,2.51,5.55,7.66,10.63,13.75,10.35,5.73-.26,10.34-5.29,12-10.78s1-11.38.3-17.07"/><path d="M217.15,527.23c-.31-.31-53.7,6.12-77-16.86-3-3-7.21-4.29-6.28-8.38a3.94,3.94,0,0,0,.11-.87l0-14.57a60.36,60.36,0,0,0-.91-7.38c0-.08,0-.16-.05-.24l-15.73-60.44c-.69-3.55-5.89-19.58,11.48-28a4,4,0,0,1,.75-.27L151,384.78a6.29,6.29,0,0,1,1.55-.19H186l.47,0c2.22.17,18.25,4.74,28.35,8.71,3.08,1.21,8.79,10.3,4.61,9.94L228.53,418c2.49,5.7,7.69,42.18,8.79,36.06"/><path class="cls-12" d="M151.93,389.7a80.27,80.27,0,0,1-.08-9.2,6.15,6.15,0,0,1,.9-3.46c1.16-1.52,3.37-1.62,5.28-1.58l28,.55c2.27,0,4.79.2,6.35,1.84s1.5,4.14,1.44,6.42a29.05,29.05,0,0,1-.27,3.18,3.65,3.65,0,0,1-.49,1.31C191.14,392.2,181.41,393.88,151.93,389.7Z"/><path class="cls-12" d="M177.21,525.61H132.28a4.66,4.66,0,0,1-4.66-4.66h0a2.13,2.13,0,0,1,2.13-2.13h47.46a2.13,2.13,0,0,1,2.13,2.13v2.54A2.13,2.13,0,0,1,177.21,525.61Z"/><path class="cls-12" d="M256.72,525.61H162.88a5.48,5.48,0,0,1-5.29-6.94l16.56-60.29a9,9,0,0,1,8.67-6.61h93.84A5.48,5.48,0,0,1,282,458.7L265.39,519A9,9,0,0,1,256.72,525.61Z"/><circle class="cls-14" cx="224.63" cy="485.85" r="5.88"/><path class="cls-12" d="M183.12,538.68c5.81-.26,25.25-.76,25.25-.76s14.27.33,19.1-9.83c.51-1.08,2.9-9.88-.17-13.52-1.36-1.61-12.12,3-14.54,3.58s-20.53,6.12-24.61,7.75c-2,.79-5.91.28-12.71,1.15,1.11,4.67-.2,8.26,1.06,10.69a2.58,2.58,0,0,0,1.93.94C179.8,538.71,182.69,538.7,183.12,538.68Z"/><path d="M80.5,487.3l-.6.26-1.08.5c-.71.33-1.35.67-2,1q-1.93,1-3.74,2.12a80.69,80.69,0,0,0-6.9,4.7,92.51,92.51,0,0,0-12.14,11,102.92,102.92,0,0,0-10,12.69,114.71,114.71,0,0,0-7.9,13.94,124.5,124.5,0,0,0-5.87,14.73c-.75,2.51-1.59,5-2.19,7.55l-1,3.8-.8,3.81a160,160,0,0,0-2.67,18.86l.42-24A117.12,117.12,0,0,1,29,541c3.59-10.16,8.85-21.9,14.68-34.6,4.78-10.39,8.86-19.52,12.63-26.93s7.46-12.84,10.45-15.73c-3,2.86-8.51,6.54-14.54,12.77a92.2,92.2,0,0,0-17.69,25.64,123.33,123.33,0,0,0-10.15,35.46l.91-51.67a46.49,46.49,0,0,1,4.86-10.22c3.51-5.8,8.33-12.21,13.19-19.58a129.6,129.6,0,0,0,9.12-16.76,83.43,83.43,0,0,1,5.6-10.93c-1.51,2.16-5.25,4.36-9.54,7.79a60.88,60.88,0,0,0-13.61,14.37,64.18,64.18,0,0,0-9.41,23l.35-19.79c1.55-9.1,4.73-22.8,5-38.71.3-17-4.52-29.86-4.41-35.88-.11,6-5.37,18.67-5.67,35.7-.28,15.91,2.41,29.72,3.64,38.87L24,475.29A138,138,0,0,0,14.38,436,108.86,108.86,0,0,0-3.33,407.36a139.3,139.3,0,0,0-15-14.65c3.37,3.05,7,9.22,10.77,17.39S.24,428.45,5.06,439.93C10.85,454,15.91,467,19.27,478.24a124,124,0,0,1,4.37,19.19l-.59,33.27q-.55-6.2-1.52-12.3a199.12,199.12,0,0,0-6.19-26.78A229.54,229.54,0,0,0,5.89,466c-1.82-4.19-3.84-8.34-6-12.46A118.81,118.81,0,0,0-7.66,441c3.54,5,3.94,10.06,3.41,14.95a40.45,40.45,0,0,1-1.67,7.1c-.77,2.28-1.66,4.45-2.51,6.46-1.26,2.91-1.11,5.12-.15,7a16.36,16.36,0,0,0,4.27,4.92c3.32,3,6.85,5.8,4.28,9.81s-5.52,7.69-5.36,12.06a12.78,12.78,0,0,0,2.86,7.36c1.9,2.82,5.14,6,9.73,10.17a56,56,0,0,1,7.54,8.3,69.76,69.76,0,0,1,5.18,8.26c1.32,2.55,2.2,4.78,2.84,6.36l.08.19-.67,38c-.12-.85-3.89-24.91-17.91-38.43-13.17-12.7-25.6-16.89-28.85-18.77,3.28,1.89,21.72,25.5,27.74,33.63,9.28,12.54,18.93,15.31,18.63,32.46v0l.77,1.41.91-2.14a23.28,23.28,0,0,1,1.25-4.37,29.31,29.31,0,0,1,4.06-6.87,44,44,0,0,1,5.41-5.55c2-1.64,3.95-3.08,5.81-4.4a9.09,9.09,0,0,0,4.29-6.18c.46-2.21,0-4.64-.33-7-.18-1.19-.38-2.38-.51-3.53a14.27,14.27,0,0,1,.05-3.24,5.12,5.12,0,0,1,3.6-4.47c4.61-1.63,9.36-2.51,12.36-5.88a10.8,10.8,0,0,0,2-3.05,20.07,20.07,0,0,0,1.44-4.36c.77-3.48,1.21-8,1.9-14.58A46.26,46.26,0,0,1,73,495.5c3.78-5.37,7.64-8.31,8.28-8.53Z"/><path d="M724.5,473.3l-.6.26-1.08.5c-.71.33-1.35.67-2,1q-1.93,1-3.74,2.12a80.69,80.69,0,0,0-6.9,4.7,92.51,92.51,0,0,0-12.14,11,102.92,102.92,0,0,0-10,12.69,114.71,114.71,0,0,0-7.9,13.94,124.5,124.5,0,0,0-5.87,14.73c-.75,2.51-1.59,5-2.19,7.55l-1,3.8-.8,3.81a160,160,0,0,0-2.67,18.86l.42-24A117.12,117.12,0,0,1,673,527c3.59-10.16,8.85-21.9,14.68-34.6,4.78-10.39,8.86-19.52,12.63-26.93s7.46-12.84,10.45-15.73c-3,2.86-8.51,6.54-14.54,12.77a92.2,92.2,0,0,0-17.69,25.64,123.33,123.33,0,0,0-10.15,35.46l.91-51.67a46.49,46.49,0,0,1,4.86-10.22c3.51-5.8,8.33-12.21,13.19-19.58a129.6,129.6,0,0,0,9.12-16.76,83.43,83.43,0,0,1,5.6-10.93c-1.51,2.16-5.25,4.36-9.54,7.79a60.88,60.88,0,0,0-13.61,14.37,64.18,64.18,0,0,0-9.41,23l.35-19.79c1.55-9.1,4.73-22.8,5-38.71.3-17-4.52-29.86-4.41-35.88-.11,6-5.37,18.67-5.67,35.7-.28,15.91,2.41,29.72,3.64,38.87L668,461.29A138,138,0,0,0,658.38,422a108.86,108.86,0,0,0-17.71-28.69,139.3,139.3,0,0,0-15-14.65c3.37,3.05,7,9.22,10.77,17.39s7.81,18.35,12.63,29.83c5.78,14.09,10.84,27.1,14.21,38.31a124,124,0,0,1,4.37,19.19l-.59,33.27q-.55-6.2-1.52-12.3a199.12,199.12,0,0,0-6.19-26.78A229.54,229.54,0,0,0,649.89,452c-1.82-4.19-3.84-8.34-6-12.46A118.81,118.81,0,0,0,636.34,427c3.54,5,3.94,10.06,3.41,14.95a40.45,40.45,0,0,1-1.67,7.1c-.77,2.28-1.66,4.45-2.51,6.46-1.26,2.91-1.11,5.12-.15,7a16.36,16.36,0,0,0,4.27,4.92c3.32,3,6.85,5.8,4.28,9.81s-5.52,7.69-5.36,12.06a12.78,12.78,0,0,0,2.86,7.36c1.9,2.82,5.14,6,9.73,10.17a56,56,0,0,1,7.54,8.3,69.76,69.76,0,0,1,5.18,8.26c1.32,2.55,2.2,4.78,2.84,6.36l.08.19-.67,38c-.12-.85-3.89-24.91-17.91-38.43-13.17-12.7-25.6-16.89-28.85-18.77,3.28,1.89,21.72,25.5,27.74,33.63,9.28,12.54,18.93,15.31,18.63,32.46v0l.77,1.41.91-2.14a23.28,23.28,0,0,1,1.25-4.37,29.31,29.31,0,0,1,4.06-6.87,44,44,0,0,1,5.41-5.55c2-1.64,3.95-3.08,5.81-4.4a9.09,9.09,0,0,0,4.29-6.18c.46-2.21,0-4.64-.33-7-.18-1.19-.38-2.38-.51-3.53a14.27,14.27,0,0,1,.05-3.24,5.12,5.12,0,0,1,3.6-4.47c4.61-1.63,9.36-2.51,12.36-5.88a10.8,10.8,0,0,0,2-3.05,20.07,20.07,0,0,0,1.44-4.36c.77-3.48,1.21-8,1.9-14.58A46.26,46.26,0,0,1,717,481.5c3.78-5.37,7.64-8.31,8.28-8.53Z"/></g></svg>