<svg id="Layer_1" data-name="Layer 1" xmlns="http://www.w3.org/2000/svg" viewBox="0 0 256 256"><defs><style>.cls-1{fill:#1d243d;isolation:isolate;}.cls-1,.cls-2{opacity:0.5;}.cls-2{fill:#8d919d;}.cls-3{fill:#5466ff;}</style></defs><title>web development icons</title><path class="cls-1" d="M160,75.06l8.81-8.81a18.14,18.14,0,1,0-8.55-8.55L148.76,69.22a81.81,81.81,0,0,0-11.15-3.8V33.7h11.29V21.6H84.39V33.7H95.68V65.42A82.69,82.69,0,1,0,160,75.06ZM172.38,45.6a6,6,0,1,1-1.77,4.28A6.05,6.05,0,0,1,172.38,45.6ZM107.77,33.7h17.74V63.2a82.66,82.66,0,0,0-17.74,0Zm8.87,182.21a70.55,70.55,0,1,1,70.55-70.55A70.62,70.62,0,0,1,116.64,215.91Z"/><path class="cls-2" d="M116.64,86.1a58.45,58.45,0,1,0,58.45,58.45A58.52,58.52,0,0,0,116.64,86.1Zm0,104.81A46.36,46.36,0,1,1,163,144.56,46.41,46.41,0,0,1,116.64,190.91Z"/><path class="cls-3" d="M112.36,140.28l23.78-23.78L144.7,125l-23.78,23.78Z"/></svg>