<svg id="Layer_1" data-name="Layer 1" xmlns="http://www.w3.org/2000/svg" viewBox="0 0 256 256"><defs><style>.cls-1{fill:#8d919d;}.cls-2{fill:#5466ff;}.cls-3{opacity:0.5;}</style></defs><title>web development icons</title><path class="cls-1" d="M182.22,231.67H79.78C61,231.67,49,219.63,49,200.89V63.11c0-18.74,12-30.78,30.78-30.78H182.22c18.74,0,30.78,12,30.78,30.78V200.89C213,219.63,201,231.67,182.22,231.67ZM79.78,45.24A17.87,17.87,0,0,0,61.91,63.11V200.89a17.87,17.87,0,0,0,17.87,17.87H182.22a17.87,17.87,0,0,0,17.87-17.87V63.11a17.87,17.87,0,0,0-17.87-17.87Z"/><path class="cls-2" d="M131,125.63a24.88,24.88,0,1,1,24.88-24.88A24.91,24.91,0,0,1,131,125.63Zm0-39.1a14.22,14.22,0,1,0,14.22,14.22A14.23,14.23,0,0,0,131,86.53Z"/><path class="cls-2" d="M131,139.85a5.33,5.33,0,0,1-5.33-5.33V120.3a5.33,5.33,0,0,1,10.66,0v14.22A5.33,5.33,0,0,1,131,139.85Z"/><path class="cls-2" d="M131,86.53a5.33,5.33,0,0,1-5.33-5.33V67a5.33,5.33,0,1,1,10.66,0V81.2A5.33,5.33,0,0,1,131,86.53Z"/><path class="cls-2" d="M147.92,96.34a5.33,5.33,0,0,1-2.67-10l12.3-7.11a5.33,5.33,0,0,1,5.34,9.23l-12.3,7.11A5.25,5.25,0,0,1,147.92,96.34Z"/><path class="cls-2" d="M101.79,122.93a5.33,5.33,0,0,1-2.67-10l12.3-7.11a5.33,5.33,0,0,1,5.34,9.23l-12.3,7.11A5.29,5.29,0,0,1,101.79,122.93Z"/><path class="cls-2" d="M114.08,96.34a5.27,5.27,0,0,1-2.67-.72l-12.3-7.11a5.33,5.33,0,0,1,5.34-9.23l12.3,7.11a5.33,5.33,0,0,1-2.67,10Z"/><path class="cls-2" d="M160.21,122.93a5.27,5.27,0,0,1-2.67-.72l-12.3-7.11a5.33,5.33,0,0,1,5.34-9.23l12.3,7.11a5.33,5.33,0,0,1-2.67,10Z"/><g class="cls-3"><path class="cls-1" d="M158.72,202.35H99.42c-8.06-6.17-3.15-14,3.86-14h59.29C170.64,194.52,165.73,202.35,158.72,202.35Z"/></g><g class="cls-3"><path class="cls-1" d="M158.72,175.4H99.42c-8.06-6.17-3.15-14,3.86-14h59.29C170.64,167.57,165.73,175.4,158.72,175.4Z"/></g></svg>