<svg id="Layer_1" data-name="Layer 1" xmlns="http://www.w3.org/2000/svg" xmlns:xlink="http://www.w3.org/1999/xlink" viewBox="0 0 710 710"><defs><style>.cls-1{fill:none;}.cls-2{clip-path:url(#clip-path);}.cls-10,.cls-12,.cls-13,.cls-14,.cls-3{fill:#fff;}.cls-4{fill:#ebebeb;}.cls-11,.cls-5,.cls-9{fill:#5565ff;}.cls-10,.cls-11,.cls-12,.cls-5{stroke:#000;stroke-miterlimit:10;}.cls-10,.cls-11,.cls-5{stroke-width:2px;}.cls-5{opacity:0.9;}.cls-6{opacity:0.2;}.cls-7{fill:#e0e0e0;}.cls-8{fill:#007cff;}.cls-13{font-size:23.54px;}.cls-13,.cls-14{font-family:Mont-HeavyDEMO, Mont;}.cls-14{font-size:24.06px;}</style><clipPath id="clip-path"><circle class="cls-1" cx="356" cy="356" r="350"/></clipPath></defs><title>web devlopment process</title><g class="cls-2"><circle class="cls-3" cx="356" cy="356" r="350"/><path class="cls-4" d="M417,515.86c-6.4,0-10.09-2.37-13.34-4.45s-6-3.88-11.45-3.88-7.82,1.88-10.36,3.88-5.68,4.45-12.07,4.45-10.09-2.37-13.34-4.45-6-3.88-11.45-3.88-7.81,1.88-10.36,3.88-5.67,4.45-12.07,4.45-10.09-2.37-13.34-4.45-6-3.88-11.45-3.88l-.44-3.12c6.4,0,10.08,2.36,13.33,4.45s6,3.88,11.45,3.88,7.81-1.89,10.36-3.88,5.68-4.45,12.08-4.45,10.08,2.36,13.33,4.45,6,3.88,11.45,3.88,7.81-1.89,10.36-3.88,5.69-4.45,12.09-4.45,10.08,2.36,13.33,4.45,6,3.88,11.46,3.88Z"/><rect x="20.17" y="566.81" width="704.08" height="3.88"/><path d="M122.5,464.3l-.6.26-1.08.5c-.71.33-1.35.67-2,1q-1.93,1-3.74,2.12a80.69,80.69,0,0,0-6.9,4.7,92.51,92.51,0,0,0-12.14,11,102.92,102.92,0,0,0-10,12.69,114.71,114.71,0,0,0-7.9,13.94,124.5,124.5,0,0,0-5.87,14.73c-.75,2.51-1.59,5-2.19,7.55l-1,3.8-.8,3.81a160,160,0,0,0-2.67,18.86l.42-24A117.12,117.12,0,0,1,71,518c3.59-10.16,8.85-21.9,14.68-34.6,4.78-10.39,8.86-19.52,12.63-26.93s7.46-12.84,10.45-15.73c-3,2.86-8.51,6.54-14.54,12.77a92.2,92.2,0,0,0-17.69,25.64,123.33,123.33,0,0,0-10.15,35.46l.91-51.67a46.49,46.49,0,0,1,4.86-10.22c3.51-5.8,8.33-12.21,13.19-19.58a129.6,129.6,0,0,0,9.12-16.76,83.43,83.43,0,0,1,5.6-10.93c-1.51,2.16-5.25,4.36-9.54,7.79a60.88,60.88,0,0,0-13.61,14.37,64.18,64.18,0,0,0-9.41,23l.35-19.79c1.55-9.1,4.73-22.8,5-38.71.3-17-4.52-29.86-4.41-35.88-.11,6-5.37,18.67-5.67,35.7-.28,15.91,2.41,29.72,3.64,38.87L66,452.29A138,138,0,0,0,56.38,413a108.86,108.86,0,0,0-17.71-28.69,139.3,139.3,0,0,0-15-14.65c3.37,3.05,7,9.22,10.77,17.39s7.81,18.35,12.63,29.83C52.85,431,57.91,444,61.27,455.24a124,124,0,0,1,4.37,19.19l-.59,33.27q-.55-6.2-1.52-12.3a199.12,199.12,0,0,0-6.19-26.78A229.54,229.54,0,0,0,47.89,443c-1.82-4.19-3.84-8.34-6-12.46A118.81,118.81,0,0,0,34.34,418c3.54,5,3.94,10.06,3.41,14.95a40.45,40.45,0,0,1-1.67,7.1c-.77,2.28-1.66,4.45-2.51,6.46-1.26,2.91-1.11,5.12-.15,7a16.36,16.36,0,0,0,4.27,4.92c3.32,3,6.85,5.8,4.28,9.81s-5.52,7.69-5.36,12.06a12.78,12.78,0,0,0,2.86,7.36c1.9,2.82,5.14,6,9.73,10.17a56,56,0,0,1,7.54,8.3,69.76,69.76,0,0,1,5.18,8.26c1.32,2.55,2.2,4.78,2.84,6.36l.08.19-.67,38c-.12-.85-3.89-24.91-17.91-38.43-13.17-12.7-25.6-16.89-28.85-18.77,3.28,1.89,21.72,25.5,27.74,33.63,9.28,12.54,18.93,15.31,18.63,32.46v0l.77,1.41.91-2.14a23.28,23.28,0,0,1,1.25-4.37,29.31,29.31,0,0,1,4.06-6.87,44,44,0,0,1,5.41-5.55c2-1.64,3.95-3.08,5.81-4.4a9.09,9.09,0,0,0,4.29-6.18c.46-2.21,0-4.64-.33-7-.18-1.19-.38-2.38-.51-3.53a14.27,14.27,0,0,1,.05-3.24,5.12,5.12,0,0,1,3.6-4.47c4.61-1.63,9.36-2.51,12.36-5.88a10.8,10.8,0,0,0,2-3.05,20.07,20.07,0,0,0,1.44-4.36c.77-3.48,1.21-8,1.9-14.58A46.26,46.26,0,0,1,115,472.5c3.78-5.37,7.64-8.31,8.28-8.53Z"/><path d="M745.5,464.3l-.6.26-1.08.5c-.71.33-1.35.67-2,1q-1.93,1-3.74,2.12a80.69,80.69,0,0,0-6.9,4.7,92.51,92.51,0,0,0-12.14,11,102.92,102.92,0,0,0-10,12.69,114.71,114.71,0,0,0-7.9,13.94,124.5,124.5,0,0,0-5.87,14.73c-.75,2.51-1.59,5-2.19,7.55l-1,3.8-.8,3.81a160,160,0,0,0-2.67,18.86l.42-24A117.12,117.12,0,0,1,694,518c3.59-10.16,8.85-21.9,14.68-34.6,4.78-10.39,8.86-19.52,12.63-26.93s7.46-12.84,10.45-15.73c-3,2.86-8.51,6.54-14.54,12.77a92.2,92.2,0,0,0-17.69,25.64,123.33,123.33,0,0,0-10.15,35.46l.91-51.67a46.49,46.49,0,0,1,4.86-10.22c3.51-5.8,8.33-12.21,13.19-19.58a129.6,129.6,0,0,0,9.12-16.76,83.43,83.43,0,0,1,5.6-10.93c-1.51,2.16-5.25,4.36-9.54,7.79a60.88,60.88,0,0,0-13.61,14.37,64.18,64.18,0,0,0-9.41,23l.35-19.79c1.55-9.1,4.73-22.8,5-38.71.3-17-4.52-29.86-4.41-35.88-.11,6-5.37,18.67-5.67,35.7-.28,15.91,2.41,29.72,3.64,38.87L689,452.29A138,138,0,0,0,679.38,413a108.86,108.86,0,0,0-17.71-28.69,139.3,139.3,0,0,0-15-14.65c3.37,3.05,7,9.22,10.77,17.39s7.81,18.35,12.63,29.83c5.78,14.09,10.84,27.1,14.21,38.31a124,124,0,0,1,4.37,19.19l-.59,33.27q-.55-6.2-1.52-12.3a199.12,199.12,0,0,0-6.19-26.78A229.54,229.54,0,0,0,670.89,443c-1.82-4.19-3.84-8.34-6-12.46A118.81,118.81,0,0,0,657.34,418c3.54,5,3.94,10.06,3.41,14.95a40.45,40.45,0,0,1-1.67,7.1c-.77,2.28-1.66,4.45-2.51,6.46-1.26,2.91-1.11,5.12-.15,7a16.36,16.36,0,0,0,4.27,4.92c3.32,3,6.85,5.8,4.28,9.81s-5.52,7.69-5.36,12.06a12.78,12.78,0,0,0,2.86,7.36c1.9,2.82,5.14,6,9.73,10.17a56,56,0,0,1,7.54,8.3,69.76,69.76,0,0,1,5.18,8.26c1.32,2.55,2.2,4.78,2.84,6.36l.08.19-.67,38c-.12-.85-3.89-24.91-17.91-38.43-13.17-12.7-25.6-16.89-28.85-18.77,3.28,1.89,21.72,25.5,27.74,33.63,9.28,12.54,18.93,15.31,18.63,32.46v0l.77,1.41.91-2.14a23.28,23.28,0,0,1,1.25-4.37,29.31,29.31,0,0,1,4.06-6.87,44,44,0,0,1,5.41-5.55c2-1.64,3.95-3.08,5.81-4.4a9.09,9.09,0,0,0,4.29-6.18c.46-2.21,0-4.64-.33-7-.18-1.19-.38-2.38-.51-3.53a14.27,14.27,0,0,1,.05-3.24,5.12,5.12,0,0,1,3.6-4.47c4.61-1.63,9.36-2.51,12.36-5.88a10.8,10.8,0,0,0,2-3.05,20.07,20.07,0,0,0,1.44-4.36c.77-3.48,1.21-8,1.9-14.58A46.26,46.26,0,0,1,738,472.5c3.78-5.37,7.64-8.31,8.28-8.53Z"/><polygon class="cls-5" points="476.9 226.19 250.48 226.19 265.38 534.55 491.8 534.55 476.9 226.19"/><polygon class="cls-6" points="467.94 244.56 263.83 244.56 278.09 528.61 455.58 528.38 485.07 502.23 467.94 244.56"/><path class="cls-3" d="M469.51,244.56A2313.17,2313.17,0,0,0,490,498.81q-24.26,16.69-48.28,33.37H289.15a2317,2317,0,0,1-25.32-287.62Z"/><path class="cls-4" d="M490,498.81q-24.26,16.69-48.28,33.37Q447,510.09,452.69,488Z"/><path class="cls-7" d="M446.69,282.27H339.8q-.15-3.53-.28-7.05H446.41Q446.54,278.74,446.69,282.27Z"/><path class="cls-7" d="M424.11,297.1H340.46q-.17-3.53-.33-7.05h83.64Q423.94,293.57,424.11,297.1Z"/><path class="cls-7" d="M382.43,343.41H343.16q-.24-3.53-.47-7.06H382Q382.19,339.88,382.43,343.41Z"/><path class="cls-7" d="M419.63,343.41H390.74q-.24-3.53-.47-7.06h28.88Q419.38,339.88,419.63,343.41Z"/><path class="cls-7" d="M437.76,358.25H344.22q-.26-3.53-.52-7.06h93.54Q437.5,354.72,437.76,358.25Z"/><path class="cls-7" d="M455.8,412.36H348.91q.35,3.53.71,7.06H456.51Q456.15,415.89,455.8,412.36Z"/><path class="cls-7" d="M431.14,397.52H347.5q.32,3.53.66,7.06H431.8Q431.47,401,431.14,397.52Z"/><path class="cls-7" d="M463.7,467.55H354.46q-.44-3.6-.87-7.21H462.84Q463.26,463.95,463.7,467.55Z"/><path class="cls-7" d="M406.09,482.71H356.36q-.46-3.6-.91-7.21h49.73Q405.62,479.1,406.09,482.71Z"/><path class="cls-7" d="M435.78,482.71H414.31q-.46-3.6-.91-7.21h21.47Q435.32,479.1,435.78,482.71Z"/><path d="M421.9,241.82c-3.31-8.8-11-14.64-19.24-14.64H385.85A6.4,6.4,0,0,1,380,223.3a15.69,15.69,0,0,0-14.31-9.61,13.91,13.91,0,0,0-13.38,9.61,5.68,5.68,0,0,1-5.47,3.88H330c-8.26,0-15.37,5.84-17.83,14.64l-1,3.52h112Z"/><path class="cls-8" d="M422.51,248.79H312.28a3.67,3.67,0,0,1-3.62-3.45h0a3.27,3.27,0,0,1,3.28-3.45H422.18a3.67,3.67,0,0,1,3.62,3.45h0A3.27,3.27,0,0,1,422.51,248.79Z"/><path class="cls-6" d="M422.51,248.79H312.28a3.67,3.67,0,0,1-3.62-3.45h0a3.27,3.27,0,0,1,3.28-3.45H422.18a3.67,3.67,0,0,1,3.62,3.45h0A3.27,3.27,0,0,1,422.51,248.79Z"/><rect class="cls-9" x="287.07" y="319.12" width="28.53" height="28.77"/><path class="cls-10" d="M294.43,380.1c2.95-4.43,19.92-17.93,21.21-19.86s-2.37-15.6-4.09-18.41-17.92,3-20.45,6.85l-.21.33a5.62,5.62,0,0,0-1,3.41,7.2,7.2,0,0,1-1.2,4.62l-2,3c-2,2.94-5.45,8.79-5.52,11.78Z"/><path class="cls-11" d="M148,458.34c0,5.48-3.05,110.66-3.05,110.66l43.06-.23,5.63.14,3.88-.14h41.3L234.3,453.33Z"/><polyline points="195.05 456.3 196.5 569 238.87 569 234.27 453.33"/><path d="M274.83,413.22l22-33.07L280.5,366.78l-27.59,25.8s-2.54-67.25-24.06-72.42l1.4,105.37h0A35.17,35.17,0,0,0,274.83,413.22Z"/><path d="M155.09,305.7l18.35-6.56L206,306.68l22.86,13.49L239.11,466.9c-7.4,7.7-81,6.41-94.26,4.13Z"/><path class="cls-10" d="M191.41,321.92h0c8.29-.77,14.62-8.25,14.56-17.22l-.1-15.37s11-2.2,11.13-16.39-.07-37-.07-37h0a43.05,43.05,0,0,0-46,6.08L169,243.63l5,62.27C174.61,315.53,182.49,322.75,191.41,321.92Z"/><path d="M206,288.51s-12.91,1.06-26.64-7.72c0,0,6.3,15,26.69,13.12Z"/><path class="cls-10" d="M170.84,259.71c-.22-.1-9.05-2.7-8.77,6.39s9.27,6.92,9.28,6.66S170.84,259.71,170.84,259.71Z"/><path d="M223.61,229.29a4.93,4.93,0,0,0-1.8-4.38,3.43,3.43,0,0,0-4.47.34,4.06,4.06,0,0,0-3.46-4.93c-2.15-.14-4,1.5-6.06,2.07a9.71,9.71,0,0,1-6.15-.72c-1.95-.79-3.77-1.89-5.75-2.61a16.92,16.92,0,0,0-12.81.52,17.14,17.14,0,0,0-8.74,9.46c-2.88-.91-6.16.57-7.93,3a12.46,12.46,0,0,0-1.88,8.72,27.88,27.88,0,0,0,1.51,6c0,.17,0,.34,0,.51.14,7.31,1,15.89,4,15.94,5.39.08,4.1-10.16,4.1-10.16,6.61-2.58,4.15-12.57,5.8-14.09s5.11-5,19,2.1c5.38,2.77,12.52,2.68,16.43,1.79l.34-.07.08,0,.11,0a12.41,12.41,0,0,0,3.55-1.52,7.06,7.06,0,0,0,2.93-3.28,3.9,3.9,0,0,0-.76-4.16A8.55,8.55,0,0,0,223.61,229.29Z"/><path d="M164.12,302.43s-31.42,10.14-33.52,15.63c-1.57,4.12-18.08,54.11-21.64,86.68a23.87,23.87,0,0,0,21.48,26.34c21.28,2,52.17,4.53,52.17,2.77v-27l-40-6,14.83-43.95Z"/><path class="cls-10" d="M437.54,375.79a11.24,11.24,0,0,1,6.45-6.4c1.41-.4,8.28-.12,13.93,0a12.16,12.16,0,0,1,6.27,1.57c1.78,1.12,2.89,3.14,4,3.14,2,0,21.38.14,21.38.14a73,73,0,0,1,11.53-7c10.61-2.42,27.6,22.38,10.64,25.44-17.12,4.25-50.91-2-65.12-6.81a15.55,15.55,0,0,1-7.83-5.78C437.77,378.68,437.08,377.09,437.54,375.79Z"/><polygon points="507.03 327.9 500.54 366.72 517.15 388.39 524.32 331.32 507.03 327.9"/><path d="M537.44,478.27c1.91,10.16,17.33,69.2,24.22,89.8l-44.41.92c-8.33-38.8-5.55-103.57-.16-133.1l21.51-.1C536.5,445.76,535.64,468.71,537.44,478.27Z"/><path class="cls-11" d="M538.6,437.12a40.53,40.53,0,0,1,.87-4.47l64.76-5c-.94,46.73-.29,105.19-1.85,140.63l-44.16-.59c-6.9-29.24-18.87-55.85-20.78-70.27C535.64,483.84,536.5,451.25,538.6,437.12Z"/><path d="M559.86,275c40.21-.38,66.41,7.06,70.81,32.48,4,23.21-25.13,95.08-25.13,124.14,0,0-45.94,25.85-89,4.71,0,0,5.42-32.45-1-59.76S500.39,333.6,507.69,314C514.07,296.9,540.67,275.15,559.86,275Z"/><path d="M599.44,367.67c-.4-8.45-5.63-30.36-13-44.37s-3.75-32,6.26-39.06,23.9-5.76,30.5,4c17.77,26.22,12.61,85.18,3,105.08-1.9,4-6.49,6.52-12.71,8.06C627,395.21,613.5,364.45,599.44,367.67Z"/><path class="cls-12" d="M586.78,230.53v.25"/><path class="cls-10" d="M572.07,245.63s3.22,25.59,5.66,34.61S562.66,294,551.65,293.85c-7.27-.1-20.68-3.47-11.37-11.28,0,0,5.22-4.35.86-17.71C541.14,264.86,569.66,240.79,572.07,245.63Z"/><path d="M541.14,264.86s13.22-11.16,22.42-16.75l3.19,4.83c-1.29,13.84-12.6,34.53-26.47,29.63C540.28,282.57,545.51,278.22,541.14,264.86Z"/><path class="cls-10" d="M568.55,239.23c2.84-7.28,9-4.2,7.52,2.41-1.71,7.55-6.67,10.49-8.21,7.57,0,0-3.93,17-15,22s-16.62-2.91-20.39-17.9c-3.24-12.89-2.59-25.83-1.13-30.07,3.82-11.08,18.79-12.82,28-6.5C570.64,224.41,568.55,239.23,568.55,239.23Z"/><path d="M568.55,239.23c-2,4.1-4.45,6.71-5.92,4s-2.13-13.78-10.47-11.13-15.52,5.46-23.67-.77c-10.54-8.05-3.87-24.89,7.71-21.59,0,0-1.13-7.86,8-5.63,8.38,2,7.82,3.6,16.09,1.07C565.07,203.74,581,215.75,575,236,575,236,571.65,232.85,568.55,239.23Z"/><rect class="cls-9" x="510.82" y="348.14" width="28.53" height="28.53" transform="translate(-93.39 205.77) rotate(-20.4)"/><path class="cls-9" d="M326.93,392.85q1.4,15.62,3,31.23H298.74q-1.62-15.62-3-31.23h31.21m3-3.29H292.12q1.67,18.91,3.66,37.82h37.81q-2-18.91-3.66-37.82Z"/><polygon class="cls-9" points="331.08 425.38 298.62 423.96 294.1 392.27 327.59 392.27 331.08 425.38"/><path class="cls-9" d="M332.46,456q1.44,16,3.09,31.92h-31.9q-1.65-16-3.09-31.92h31.9m3.07-3.37H296.89q1.71,19.33,3.74,38.66h38.64q-2-19.33-3.74-38.66Z"/><polygon class="cls-9" points="336.7 489.23 303.53 487.77 298.9 455.39 333.13 455.39 336.7 489.23"/><path class="cls-9" d="M317.87,268.83q1.4,15.62,3,31.23H289.68q-1.62-15.62-3-31.23h31.21m3-3.29H283.07q1.67,18.91,3.66,37.82h37.81q-2-18.91-3.66-37.82Z"/><polygon class="cls-9" points="322.03 301.36 289.57 299.94 285.04 268.25 318.54 268.25 322.03 301.36"/><path class="cls-10" d="M517.76,379a14.57,14.57,0,0,1,8.36-8.29c1.83-.52,10.73-.15,18.05,0a15.76,15.76,0,0,1,8.13,2c2.31,1.45,3.75,4.06,5.17,4.06,2.6,0,27.71.18,27.71.18a94.63,94.63,0,0,1,14.95-9c13.75-3.14,27,27,13.79,33-22.19,5.5-66-2.53-84.4-8.82a20.16,20.16,0,0,1-10.15-7.49C518.06,382.78,517.17,380.71,517.76,379Z"/><text class="cls-13" transform="translate(299.37 293.38)">1</text><text class="cls-13" transform="translate(306.18 417.41)">3</text><text class="cls-14" transform="translate(311.03 481.07)">4</text></g></svg>