<svg id="Layer_1" data-name="Layer 1" xmlns="http://www.w3.org/2000/svg" xmlns:xlink="http://www.w3.org/1999/xlink" viewBox="0 0 710 710"><defs><style>.cls-1{fill:none;}.cls-2{clip-path:url(#clip-path);}.cls-3,.cls-4{fill:#fff;}.cls-4,.cls-6{stroke:#000;}.cls-10,.cls-11,.cls-4,.cls-5,.cls-6{stroke-miterlimit:10;}.cls-11,.cls-4{stroke-width:2px;}.cls-5{stroke:#fff;}.cls-14,.cls-6,.cls-7,.cls-9{fill:#5565ff;}.cls-8{fill:#3c4fd6;}.cls-9{opacity:0.7;}.cls-10{fill:#f8f9ff;}.cls-10,.cls-11{stroke:#020202;}.cls-11{fill:#eef0ff;}.cls-12{fill:#1a2e35;}.cls-13{fill:#fafafa;}.cls-14{fill-rule:evenodd;}</style><clipPath id="clip-path"><circle class="cls-1" cx="355" cy="356" r="350"/></clipPath></defs><title>web devlopment process</title><g class="cls-2"><circle class="cls-3" cx="355" cy="356" r="350"/><path class="cls-4" d="M494.77,459.66c-1-.21-12.86,26-12,57.38.4,14.49,6.09,65.28,6.09,65.28h89.65s7.6-61.87,5.22-76.59a368.31,368.31,0,0,0-10.8-47.34Z"/><rect class="cls-5" x="510.81" y="280.32" width="16.61" height="16.61"/><rect class="cls-5" x="540.93" y="280.32" width="16.61" height="16.61"/><path class="cls-4" d="M461.07,296.77c2.65,1.09,12.18,8.82,12.25,10.83s-3.53,17.33-3.37,22,3.49,25.73,9.47,37.45c.24.46-.78,2.44-.51,2.89,1.46,2.45,1.72,2.83.65,5.47-2.13,5.27-2.93,3.94-5.65,5.64a9.86,9.86,0,0,1-15.09-6.93c-.36-2.61-.63-5-.7-6.93,0,0-2.14-33.66-3.75-36-1.47-2.14-1.59-5.74-1.7-8.81l-.11-3.15a6.2,6.2,0,0,0-1.5-3.86,4.84,4.84,0,0,1-1-2.93q0-.16,0-.34C449.92,308.09,458.42,295.68,461.07,296.77Z"/><path d="M573.06,344.05c4.25,0,17.38,12.4,20.74,31.36,1.47,8.32,5,42.85,7.07,59.41a16.52,16.52,0,0,1-6.72,15.39c-11,8-33,20.57-62.35,20.22l-1.07-14.05L570,437.84l5.39-2.31-1.19-8.35L567,383.07S555.84,344.05,573.06,344.05Z"/><path d="M562.54,267.37c.22,6,8.17,9.58,8.07,15.55,0,2.56-1.63,4.86-1.94,7.4-.42,3.42,1.49,6.65,2.2,10,1.45,6.94-2.59,14.27-8.58,18.07s-13.51,4.53-20.54,3.57"/><path d="M514.52,265.91c.24,3.2-1.88,6.06-4,8.47s-4.5,4.91-5,8.08c-.82,5.63,4.7,10.86,3.56,16.44-.61,3-3.06,5.39-3.49,8.41s1.14,5.78,3.08,8,4.19,1.9,5.9,4.3a24.13,24.13,0,0,0,7.44,6.62c6.18,3.38,13.6-1.51,16.58-2.39"/><path d="M563.74,270.8c.08-2.9-2.6-5.15-5.31-6.21s-5.71-1.47-8.12-3.09c-2.13-1.44-3.57-3.68-5.38-5.51a17.89,17.89,0,0,0-30.08,8.21c-1,4.14-.33,9,2.93,11.78,3.78,3.19,9.39,2.48,14.24,1.49s10.34-2,14.39.88c2.44,1.72,3.84,4.51,5.33,7.1s3.37,5.22,6.19,6.2,6.65-.71,6.76-3.69"/><path class="cls-4" d="M525.13,338.46c0-6.66-.08-13.16-.08-13.12s-10.59-1.78-12.75-15.61c-1.08-6.87-.71-18.14-.11-27.35.54-8.29,6.06-18.45,14.31-17.56l25.78,6.58a4.86,4.86,0,0,1,4.34,4.94h0l-2.36,62.58a14.57,14.57,0,0,1-14.85,14h0A14.57,14.57,0,0,1,525.13,338.46Z"/><path d="M524.67,324.33a36.44,36.44,0,0,0,18.84-5c-.16,0-5.31,9.62-18.56,8.17Z"/><path d="M558.13,317.63c-3.8.77-4.14-1.17-7-3.81a12.48,12.48,0,0,1-3.82-10.53c.43-3.39,2.26-6.85,1.08-10.06-1.56-4.25-7.51-5.55-9.09-9.79-.92-2.46-.09-5.34-1.13-7.76s-3.37-3.58-5.69-4.42-4.82-1.42-6.77-2.94-3.17-4.38-1.91-6.51a130.93,130.93,0,0,1,30.2,7.34c2.26.84,4.62,1.85,6,3.86s1.34,4.86,1.22,7.41l-1.74,37.22"/><path d="M566.83,289.44a10.6,10.6,0,0,1,20.07-3.67c1.92,3.9,1.26,8.65-.54,12.62-2.13,4.71-6.5,9-11.66,8.78-4.86-.22-8.77-4.49-10.17-9.14s-.83-9.65-.26-14.48"/><path d="M573.1,343.72l-18.19-4.63a5.33,5.33,0,0,0-1.32-.16H524.83c-1.88.14-15.52,1.38-23.36,8.3a18.59,18.59,0,0,0-4.59,7.52l-5.94,13.6a5.33,5.33,0,0,1-10.14-1.2l-2.66-14.89a5.33,5.33,0,0,0-6-4.34l-13.36,1.9a5.33,5.33,0,0,0-4.57,5.59l3.47,59.22A31.49,31.49,0,0,0,479,441.36a5.34,5.34,0,0,0,5.68-1.52l3.28-3.69a5.33,5.33,0,0,1,9.27,2.86c.84,6.49,1.45,10.93,1.54,10.84.26-.26,46.94-3.14,65.31-4.27a5.83,5.83,0,0,0,5.32-7.11,3.34,3.34,0,0,1-.1-.74l0-12.35a51.19,51.19,0,0,1,.78-6.26c0-.07,0-.13,0-.2l13.34-51.25c.59-3,5-16.61-9.74-23.72A3.39,3.39,0,0,0,573.1,343.72Z"/><path class="cls-4" d="M557.75,343.26a68.07,68.07,0,0,0,.07-7.8,5.21,5.21,0,0,0-.76-2.93c-1-1.29-2.86-1.37-4.48-1.34l-23.75.47c-1.92,0-4.06.17-5.38,1.56s-1.27,3.51-1.22,5.44a24.64,24.64,0,0,0,.23,2.7,3.1,3.1,0,0,0,.41,1.11C524.5,345.37,532.76,346.8,557.75,343.26Z"/><path class="cls-4" d="M539.31,458.3h38.93a4,4,0,0,0,4-4h0a1.84,1.84,0,0,0-1.84-1.84H539.31a1.84,1.84,0,0,0-1.84,1.84v2.2A1.84,1.84,0,0,0,539.31,458.3Z"/><path class="cls-4" d="M470.41,456l81.31,2.26a4.75,4.75,0,0,0,4.58-6L542,401.18a7.79,7.79,0,0,0-7.51-5.73l-81.31-1.13a4.75,4.75,0,0,0-4.58,6l14.35,50A7.79,7.79,0,0,0,470.41,456Z"/><circle class="cls-6" cx="498.22" cy="423.85" r="5.09"/><path class="cls-4" d="M527.65,469.6c-4.93-.22-21.41-.64-21.41-.64s-12.11.28-16.2-8.34c-.43-.91-2.46-8.38.14-11.46,1.16-1.37,10.28,2.53,12.33,3s17.41,5.19,20.87,6.57c1.67.67,5,.24,10.78,1-.94,4,.17,7-.9,9.07a2.19,2.19,0,0,1-1.64.79C530.47,469.62,528,469.61,527.65,469.6Z"/><path class="cls-3" d="M166.67,297.62s4,6.47,14.63,5.45c0,0,2.5-2.64,3.2-.64a6.16,6.16,0,0,1-1.67,7c-2.52,2.17-.41,12.39,1.53,12.77s-11.18,6.78-14.65-4.79l-2.38.36a66.43,66.43,0,0,0-.42-8.24C166.22,306.42,164.36,304.08,166.67,297.62Z"/><path d="M152.23,363.42c-16.17-2-25.93-15.38-31.12-32.57,6.59-2.62,22.09-8.84,26.36-11.26,5.47-3.09,2.74-25.77,2.74-25.77l30.07,6.93,1.14,22.1c.11,2.07,10.24,5.21,19.74,7.92C192.77,353.62,173.31,366,152.23,363.42Z"/><path class="cls-4" d="M176.4,296.07,146.33,303l-1,18.78c12.18,7.41-33.64,30.64,17.47,45.93,24.28,7.26,28.91,8.25,39.26-35.06-6.59-2.62-18.69-8.39-23-10.81C173.67,318.75,176.4,296.07,176.4,296.07Z"/><path class="cls-4" d="M184.93,257.91c5.72,9.85,6.91,44.27-7.37,48.19-12.48,3.43-20.14-8.53-20.14-8.53l-1.17-22.81a16.7,16.7,0,0,0,7.45-12.86c.42-7,4.52-8,4.52-8S177.15,258.6,184.93,257.91Z"/><path class="cls-4" d="M330.59,331.33c-2.51-1.14-14.21-2.73-15.67-1.45s-9.82,13.9-13.17,16.83-19.16,14.88-31.32,18.4c-.48.14-2.4,1.67-2.86,1.9-2,1-2.37,1.7-4.27,3.15-4.34,3.32-.83,4.65-.23,7.67a9.48,9.48,0,0,0,14.8,6c2.07-1.47,3.92-2.86,5.32-4.08,0,0,25-20.68,27.7-21.09,2.47-.38,5.07-2.67,7.3-4.62l2.28-2a6,6,0,0,1,3.7-1.5,4.65,4.65,0,0,0,2.71-1.24l.25-.21C330,346.59,333.1,332.46,330.59,331.33Z"/><path d="M204,331.7,249.13,373a3.22,3.22,0,0,0,4,.7l31.2-17.88a3.22,3.22,0,0,1,3.83.54L299,366.35a3.75,3.75,0,0,1-.21,4.58,2.17,2.17,0,0,1-.6.57l-44.55,29.3c-.55.38-8.25,3.39-10.13,3.39l-3.77-.94c-1.19,0-19.23-14.94-19.77-16l-18.83-16c-.43-.85,3.39-4.78,3.77-5.65L203,356.18C200.21,349.59,203.71,331.4,204,331.7Z"/><path class="cls-4" d="M192.68,327.94c-.94,27.3,0,33-10.36,33.89-11.29,1-45.19,8.47-42.36-32,.08-1.14-11.58-.09-12.69.17-7.51,1.8-9.68,3.54-14.62,5.48-1.45.57,6-3.33,6.59-1.88,5.31,13.27-.53,44.47,9.41,66.84,11.21,25.22-14.29,85.83-16,136.27,0,.8-.09,1.6-.16,2.4-.56,5.62-.33,29.39,3.82,44.09,0,0,17-.06,18.28,0h74c1.26.06,6.09,0,7,0,0,0,2.19-8.72,2.48-10.6,8.44-56.59-.55-84.19-8.69-104.86-7.81-19.83-13.26-30.73-7.26-54.12,4-15.48,16.95-24.48,6.59-48-5.88-13.36-3.11-31.1-4.71-33l-4.71-1.88-6.59-2.82"/><path class="cls-4" d="M136.53,428.79a1.3,1.3,0,0,1,1.51-.69c13,3.4,25.71,6,32.15,5.74,13.1-.51,28.41-11.49,40.56-3.81s10.52,11.72,3.56,17-28.72-2.16-39.55.45a212.35,212.35,0,0,1-39.07,4.77C134,445.59,133.29,435.92,136.53,428.79Z"/><path d="M111.07,422.8c9.68.44,24.17,3.51,37.36,6.81-3.69,7.25-2.62,16.08-.75,23-21.91.79-47.91,2.19-51.85-4S89.82,421.83,111.07,422.8Z"/><path d="M128.64,314.58c11.59-9.08-4-50.7,16-68.32,16.52-14.5,44.5-5.68,45.83,20l3.17,61.63c0,1.89-12.16-3.47-12.24-5.08l-.91-17.7,0-.4c10.7-7.61,9.89-35.47,5-45.75a1.8,1.8,0,0,0-1.67-1c-6.15.16-12.72-2.67-14.88-3.69a1.83,1.83,0,0,0-1.76.1c-1.24.78-3.21,2.75-3.5,7.51A16.71,16.71,0,0,1,157,274.22a1.84,1.84,0,0,0-.74,1.57l1.12,21.79c1.1,21.42-2.85,45.1-15,47-11,1.74-22.55-4.13-32.34-4.51a1.83,1.83,0,0,1-1.53-2.75A83.57,83.57,0,0,1,128.64,314.58Z"/><path d="M112.68,332.53c18.81-3.65,18.81,18,18.81,34,0,17.27-12.53,57.69-12.53,57.69L95.77,448C86.82,438.14,101.61,334.68,112.68,332.53Z"/><polygon class="cls-7" points="418.68 356.21 376.37 354.41 376.37 312.1 418.68 312.1 418.68 356.21"/><polygon class="cls-8" points="418.68 356.15 435.45 344.05 435.45 299.99 418.68 312.1 418.68 356.15"/><polygon class="cls-9" points="376.37 312.1 393.14 299.99 435.45 299.99 418.68 312.1 376.37 312.1"/><path d="M441.37,343.92a6.21,6.21,0,0,1,.26,2.49l-.1.21h0l0,0-.05,0-.1.08-.2.15-.38.27-.67.43c-.39.23-.65.35-.69.29s.14-.28.47-.59c.17-.15.37-.33.6-.52l.36-.29.2-.15.1-.08.05,0,0,0h0l-.1.21A6.21,6.21,0,0,1,441.37,343.92Z"/><ellipse cx="441.37" cy="335.9" rx="0.26" ry="2.67"/><ellipse cx="441.37" cy="325.21" rx="0.26" ry="2.67"/><ellipse cx="441.37" cy="314.52" rx="0.26" ry="2.67"/><ellipse cx="441.37" cy="303.83" rx="0.26" ry="2.67"/><path d="M438.88,293.32a6.21,6.21,0,0,1,2.49-.26l.26.26h0v.49l0,.47c0,.3,0,.57-.06.79,0,.45-.11.73-.18.73s-.14-.28-.18-.73c0-.23,0-.49-.06-.79l0-.47v-.49h0l.26.26A6.21,6.21,0,0,1,438.88,293.32Z"/><ellipse cx="431.7" cy="293.32" rx="2.39" ry="0.26"/><ellipse cx="422.14" cy="293.32" rx="2.39" ry="0.26"/><ellipse cx="412.57" cy="293.32" rx="2.39" ry="0.26"/><ellipse cx="403.01" cy="293.32" rx="2.39" ry="0.26"/><path d="M391.26,293.88c-.05-.06.16-.33.54-.71l0,0h.09c.41,0,.94-.06,1.52-.06a5.73,5.73,0,0,1,2.39.26,5.73,5.73,0,0,1-2.39.26c-.58,0-1.11,0-1.52-.06l.13,0C391.61,293.78,391.31,293.94,391.26,293.88Z"/><ellipse cx="385.74" cy="298.46" rx="2.39" ry="0.26" transform="translate(-101.7 315.11) rotate(-39.69)"/><ellipse cx="378.38" cy="304.56" rx="2.39" ry="0.26" transform="translate(-107.29 311.81) rotate(-39.69)"/><path d="M370.91,313.23a6.21,6.21,0,0,1-.24-2.5l.09-.2h0l0,0,0,0,.1-.08.19-.16.37-.29.65-.46c.38-.25.63-.38.68-.32s-.13.28-.44.61c-.16.16-.35.35-.57.55l-.35.31-.19.16-.1.08,0,0,0,0h0l.09-.2A6.21,6.21,0,0,1,370.91,313.23Z"/><ellipse cx="370.84" cy="320.65" rx="2.47" ry="0.26" transform="translate(46.58 688.34) rotate(-89.44)"/><ellipse cx="370.74" cy="330.54" rx="2.47" ry="0.26" transform="matrix(0.01, -1, 1, 0.01, 36.59, 698.03)"/><ellipse cx="370.65" cy="340.43" rx="2.47" ry="0.26" transform="translate(26.6 707.72) rotate(-89.44)"/><ellipse cx="370.55" cy="350.32" rx="2.47" ry="0.26" transform="translate(16.61 717.42) rotate(-89.44)"/><path d="M372.95,360.28a6.21,6.21,0,0,1-2.5.22l-.26-.26h0v-.49l0-.47c0-.3,0-.57.06-.79.05-.45.12-.73.19-.73s.13.28.18.73c0,.23,0,.49,0,.79v1h0l-.26-.26A6.21,6.21,0,0,1,372.95,360.28Z"/><ellipse cx="380.03" cy="360.39" rx="0.26" ry="2.36" transform="translate(13.44 734.45) rotate(-89.06)"/><ellipse cx="389.48" cy="360.55" rx="0.26" ry="2.36" transform="translate(22.58 744.05) rotate(-89.06)"/><ellipse cx="398.92" cy="360.7" rx="0.26" ry="2.36" transform="translate(31.72 753.65) rotate(-89.06)"/><ellipse cx="408.37" cy="360.86" rx="0.26" ry="2.36" transform="translate(40.86 763.25) rotate(-89.06)"/><ellipse cx="417.82" cy="361.01" rx="0.26" ry="2.36" transform="translate(49.98 772.84) rotate(-89.06)"/><ellipse cx="426.2" cy="357.9" rx="2.36" ry="0.26" transform="translate(-129.63 329.76) rotate(-37.12)"/><ellipse cx="433.73" cy="352.2" rx="2.36" ry="0.26" transform="translate(-124.66 333.15) rotate(-37.12)"/><ellipse cx="429.61" cy="291.09" rx="1.25" ry="0.26" transform="translate(51.09 646.09) rotate(-77.28)"/><ellipse cx="431.6" cy="282.27" rx="2.6" ry="0.26" transform="translate(61.25 641.15) rotate(-77.28)"/><ellipse cx="433.89" cy="272.13" rx="2.6" ry="0.26" transform="translate(72.92 635.47) rotate(-77.28)"/><ellipse cx="436.18" cy="261.99" rx="2.6" ry="0.26" transform="translate(84.6 629.8) rotate(-77.28)"/><ellipse cx="438.46" cy="251.85" rx="2.6" ry="0.26" transform="translate(96.28 624.13) rotate(-77.28)"/><ellipse cx="440.75" cy="241.71" rx="2.6" ry="0.26" transform="translate(107.95 618.45) rotate(-77.28)"/><ellipse cx="442.74" cy="232.89" rx="1.25" ry="0.26" transform="translate(118.11 613.51) rotate(-77.28)"/><ellipse cx="391.37" cy="292.21" rx="0.26" ry="1.25" transform="translate(-89.6 207.22) rotate(-26.73)"/><ellipse cx="387.53" cy="284.58" rx="0.26" ry="2.43" transform="translate(-86.58 204.69) rotate(-26.73)"/><ellipse cx="383.16" cy="275.9" rx="0.26" ry="2.43" transform="translate(-83.14 201.78) rotate(-26.73)"/><ellipse cx="378.78" cy="267.22" rx="0.26" ry="2.43" transform="translate(-79.71 198.89) rotate(-26.73)"/><ellipse cx="374.41" cy="258.54" rx="0.26" ry="2.43" transform="translate(-76.27 196.01) rotate(-26.73)"/><ellipse cx="370.04" cy="249.85" rx="0.26" ry="2.43" transform="translate(-72.83 193.11) rotate(-26.73)"/><ellipse cx="365.67" cy="241.17" rx="0.26" ry="2.43" transform="translate(-69.4 190.22) rotate(-26.73)"/><ellipse cx="361.3" cy="232.49" rx="0.26" ry="2.43" transform="translate(-65.96 187.32) rotate(-26.73)"/><ellipse cx="357.46" cy="224.87" rx="0.26" ry="1.25" transform="translate(-62.94 184.78) rotate(-26.73)"/><ellipse cx="311.47" cy="306.08" rx="0.26" ry="1.25" transform="translate(-18 592.7) rotate(-85.52)"/><ellipse cx="320.31" cy="306.77" rx="0.26" ry="2.54" transform="translate(-10.53 602.16) rotate(-85.52)"/><ellipse cx="330.45" cy="307.57" rx="0.26" ry="2.54" transform="translate(-1.98 612.99) rotate(-85.52)"/><ellipse cx="340.58" cy="308.36" rx="0.26" ry="2.54" transform="translate(6.57 623.82) rotate(-85.52)"/><ellipse cx="350.72" cy="309.15" rx="0.26" ry="2.54" transform="translate(15.12 634.66) rotate(-85.52)"/><ellipse cx="360.85" cy="309.95" rx="0.26" ry="2.54" transform="translate(23.67 645.49) rotate(-85.52)"/><ellipse cx="369.69" cy="310.64" rx="0.26" ry="1.25" transform="translate(31.14 654.95) rotate(-85.52)"/><circle class="cls-10" cx="336.26" cy="186.61" r="43.91"/><path class="cls-10" d="M380.17,186.61s0-.24-.06-.71l-.13-2.08-.09-1.54c-.06-.56-.18-1.17-.28-1.83l-.34-2.14a23.78,23.78,0,0,0-.57-2.39,41.85,41.85,0,0,0-4.86-11.65,43.64,43.64,0,0,0-11.12-12.41l-1.89-1.41c-.66-.44-1.36-.83-2.06-1.26s-1.37-.89-2.13-1.23l-2.27-1.09-1.15-.55-1.21-.44-2.46-.9c-.84-.28-1.71-.45-2.57-.69a22.18,22.18,0,0,0-2.64-.6,40.62,40.62,0,0,0-5.52-.64c-.94,0-1.89-.12-2.85-.11l-2.89.15c-.48,0-1,0-1.46.09l-1.46.22c-1,.16-2,.27-2.94.48a46.18,46.18,0,0,0-5.82,1.71,45.51,45.51,0,0,0-5.69,2.5c-.92.5-1.81,1.08-2.72,1.62-.45.29-.92.53-1.35.85l-1.29,1a49.17,49.17,0,0,0-5,4.21l-2.22,2.44-.56.61-.5.66-1,1.34-1,1.34-.88,1.44-.88,1.45-.44.73-.37.76L296,169.6l-1.18,3.23a43.26,43.26,0,0,0,0,27.55l1.18,3.23,1.48,3.08.37.76.44.73.88,1.45.88,1.44,1,1.34,1,1.34.5.66.56.61,2.22,2.44a49.12,49.12,0,0,0,5,4.21l1.29,1c.43.32.9.57,1.35.85.91.54,1.8,1.12,2.72,1.62a45.53,45.53,0,0,0,5.7,2.5,46.21,46.21,0,0,0,5.82,1.71c1,.2,2,.32,2.94.48l1.46.22c.48.06,1,.06,1.46.09l2.89.15c1,0,1.91-.08,2.85-.11a40.66,40.66,0,0,0,5.52-.64,22.23,22.23,0,0,0,2.64-.6c.86-.24,1.74-.41,2.57-.69l2.46-.9,1.21-.44,1.15-.55,2.27-1.09c.76-.34,1.43-.83,2.13-1.23s1.39-.82,2.06-1.26l1.89-1.41A43.64,43.64,0,0,0,373.84,209a41.85,41.85,0,0,0,4.86-11.65,23.74,23.74,0,0,0,.57-2.39l.34-2.14c.1-.66.22-1.27.28-1.83l.09-1.53.13-2.08c0-.47.06-.71.06-.71s0,.24,0,.71l-.08,2.09L380,191c-.05.56-.16,1.18-.25,1.84l-.32,2.15a23.54,23.54,0,0,1-.55,2.41,41.65,41.65,0,0,1-4.81,11.75,43.77,43.77,0,0,1-11.15,12.55l-1.9,1.43c-.67.44-1.37.85-2.07,1.28s-1.38.9-2.15,1.25l-2.29,1.11-1.16.56-1.22.45-2.48.91c-.84.28-1.72.46-2.6.7a22.53,22.53,0,0,1-2.67.61,41,41,0,0,1-5.58.66c-1,0-1.91.13-2.88.12l-2.92-.14c-.49,0-1,0-1.47-.09l-1.47-.22c-1-.16-2-.27-3-.48a46.58,46.58,0,0,1-5.89-1.72,45.93,45.93,0,0,1-5.76-2.52c-.93-.5-1.83-1.09-2.75-1.64-.45-.29-.93-.54-1.37-.86l-1.3-1a49.54,49.54,0,0,1-5-4.25l-2.25-2.47-.57-.62-.51-.67-1-1.35-1-1.36-.89-1.45-.89-1.46-.45-.73-.38-.77-1.5-3.12-1.2-3.27a43.73,43.73,0,0,1,0-27.87l1.2-3.27,1.5-3.11.38-.77.45-.73.89-1.46.89-1.45,1-1.36,1-1.35.51-.67.56-.62,2.25-2.47a49.59,49.59,0,0,1,5-4.25l1.3-1c.43-.33.91-.57,1.37-.86.92-.55,1.82-1.13,2.75-1.64a45.92,45.92,0,0,1,5.76-2.52,46.58,46.58,0,0,1,5.89-1.72c1-.2,2-.32,3-.48l1.47-.22c.49-.06,1-.06,1.47-.09l2.92-.14c1,0,1.92.08,2.88.12a41,41,0,0,1,5.58.66,22.49,22.49,0,0,1,2.67.61c.87.24,1.75.42,2.6.7l2.48.91,1.22.45,1.16.56,2.29,1.11c.76.35,1.44.84,2.15,1.25s1.4.84,2.07,1.28l1.9,1.43a43.77,43.77,0,0,1,11.15,12.55,41.65,41.65,0,0,1,4.81,11.75,23.63,23.63,0,0,1,.55,2.41l.32,2.15c.09.67.2,1.28.25,1.84l.07,1.54.08,2.09C380.17,186.37,380.17,186.61,380.17,186.61Z"/><circle class="cls-10" cx="456.28" cy="190.96" r="43.91"/><path class="cls-10" d="M500.19,191s0-.24-.06-.71l-.13-2.08-.09-1.53c-.06-.56-.18-1.17-.28-1.83l-.34-2.14a23.81,23.81,0,0,0-.57-2.39,41.85,41.85,0,0,0-4.86-11.65,43.64,43.64,0,0,0-11.12-12.41l-1.89-1.41c-.66-.44-1.36-.83-2.06-1.26s-1.37-.89-2.13-1.23l-2.27-1.09-1.15-.55-1.21-.44-2.46-.9c-.84-.28-1.71-.45-2.57-.69a22.19,22.19,0,0,0-2.64-.6,40.62,40.62,0,0,0-5.52-.64c-.94,0-1.89-.12-2.85-.11l-2.89.15c-.48,0-1,0-1.46.09l-1.46.22c-1,.16-2,.27-2.94.48a46.18,46.18,0,0,0-5.82,1.71,45.51,45.51,0,0,0-5.69,2.5c-.92.5-1.81,1.08-2.72,1.62-.45.29-.92.53-1.35.85l-1.29,1a49.18,49.18,0,0,0-5,4.21l-2.22,2.44-.56.61-.5.66-1,1.34-1,1.34-.88,1.44-.88,1.45-.44.73-.37.76L416.07,174l-1.18,3.23a43.26,43.26,0,0,0,0,27.55l1.18,3.23,1.48,3.08.37.76.44.73.88,1.45.88,1.44,1,1.34,1,1.34.5.66.56.61,2.22,2.44a49.12,49.12,0,0,0,5,4.21l1.29,1c.43.32.9.57,1.35.85.91.54,1.8,1.12,2.72,1.62a45.51,45.51,0,0,0,5.7,2.5,46.19,46.19,0,0,0,5.82,1.71c1,.2,2,.32,2.94.48l1.46.22c.48.06,1,.06,1.46.09l2.89.15c1,0,1.91-.08,2.85-.11a40.66,40.66,0,0,0,5.52-.64,22.2,22.2,0,0,0,2.64-.6c.86-.24,1.74-.41,2.57-.69l2.46-.9,1.21-.44,1.15-.55,2.27-1.09c.76-.34,1.43-.83,2.13-1.23s1.39-.82,2.06-1.26l1.89-1.41a43.64,43.64,0,0,0,11.12-12.41,41.85,41.85,0,0,0,4.86-11.65,23.72,23.72,0,0,0,.57-2.39l.34-2.14c.1-.66.22-1.27.28-1.83l.09-1.53.13-2.08c0-.47.06-.71.06-.71s0,.24,0,.71l-.08,2.09L500,195.3c-.05.56-.16,1.18-.25,1.84l-.32,2.15a23.57,23.57,0,0,1-.55,2.41,41.65,41.65,0,0,1-4.81,11.75A43.77,43.77,0,0,1,483,226l-1.9,1.43c-.67.44-1.37.85-2.07,1.28s-1.38.9-2.15,1.25l-2.29,1.11-1.16.56-1.22.45-2.48.91c-.84.28-1.72.46-2.6.7a22.53,22.53,0,0,1-2.67.61,41,41,0,0,1-5.58.66c-1,0-1.91.13-2.88.12l-2.92-.14c-.49,0-1,0-1.47-.09l-1.47-.22c-1-.16-2-.27-3-.48a46.61,46.61,0,0,1-5.89-1.72,45.93,45.93,0,0,1-5.76-2.52c-.93-.5-1.83-1.09-2.75-1.64-.45-.29-.94-.54-1.37-.86l-1.3-1a49.56,49.56,0,0,1-5-4.25l-2.25-2.47-.57-.62-.51-.67-1-1.35-1-1.36-.89-1.45-.89-1.46-.45-.73-.38-.77-1.5-3.12-1.2-3.27a43.73,43.73,0,0,1,0-27.87l1.2-3.27,1.5-3.11.38-.77.45-.73.89-1.46.89-1.45,1-1.36,1-1.35.51-.67.56-.62,2.25-2.47a49.59,49.59,0,0,1,5-4.25l1.3-1c.43-.33.91-.57,1.37-.86.92-.55,1.82-1.13,2.75-1.64a45.92,45.92,0,0,1,5.76-2.52,46.59,46.59,0,0,1,5.89-1.72c1-.2,2-.32,3-.48l1.47-.22c.49-.06,1-.06,1.47-.09l2.92-.14c1,0,1.92.08,2.88.12a41,41,0,0,1,5.58.66,22.47,22.47,0,0,1,2.67.61c.87.24,1.75.42,2.6.7l2.48.91,1.22.45,1.16.56,2.29,1.11c.76.35,1.44.84,2.15,1.25s1.4.84,2.07,1.28l1.9,1.43a43.77,43.77,0,0,1,11.15,12.55,41.65,41.65,0,0,1,4.81,11.75,23.6,23.6,0,0,1,.55,2.41l.32,2.15c.09.67.2,1.28.25,1.84l.07,1.54.08,2.09C500.19,190.72,500.19,191,500.19,191Z"/><ellipse cx="368.6" cy="361.9" rx="2.49" ry="0.26" transform="translate(-147.47 339.31) rotate(-41.97)"/><ellipse cx="361.18" cy="368.57" rx="2.49" ry="0.26" transform="translate(-153.83 336.07) rotate(-41.97)"/><ellipse cx="353.77" cy="375.24" rx="2.49" ry="0.26" transform="translate(-160.19 332.81) rotate(-41.97)"/><ellipse cx="346.36" cy="381.91" rx="2.49" ry="0.26" transform="translate(-166.55 329.57) rotate(-41.97)"/><ellipse cx="338.94" cy="388.58" rx="2.49" ry="0.26" transform="matrix(0.74, -0.67, 0.67, 0.74, -172.92, 326.33)"/><circle class="cls-10" cx="310.22" cy="425.84" r="43.91"/><path class="cls-10" d="M354.13,425.84s0-.24-.06-.71l-.13-2.08-.09-1.53c-.06-.56-.18-1.17-.28-1.83l-.34-2.14a23.77,23.77,0,0,0-.57-2.39,41.85,41.85,0,0,0-4.86-11.65,43.64,43.64,0,0,0-11.12-12.41l-1.89-1.41c-.66-.44-1.36-.83-2.06-1.26s-1.37-.89-2.13-1.23l-2.27-1.09-1.15-.55L326,385.1l-2.46-.9c-.84-.28-1.71-.45-2.57-.69a22.2,22.2,0,0,0-2.64-.6,40.64,40.64,0,0,0-5.52-.64c-.94,0-1.89-.12-2.85-.11l-2.89.15c-.48,0-1,0-1.46.09l-1.46.22c-1,.16-2,.27-2.94.48a46.18,46.18,0,0,0-5.82,1.71,45.51,45.51,0,0,0-5.69,2.5c-.92.5-1.81,1.08-2.72,1.62-.45.29-.92.53-1.35.85l-1.29,1a49.18,49.18,0,0,0-5,4.21l-2.22,2.44-.56.61-.5.66-1,1.34-1,1.34-.88,1.44-.88,1.45-.44.73-.37.76L270,408.83l-1.18,3.23a43.26,43.26,0,0,0,0,27.55l1.18,3.23,1.48,3.08.37.76.44.73.88,1.45.88,1.44,1,1.34,1,1.34.5.66.56.61,2.22,2.44a49.11,49.11,0,0,0,5,4.21l1.29,1c.43.32.9.57,1.35.85.91.54,1.8,1.12,2.72,1.62a45.53,45.53,0,0,0,5.7,2.5,46.2,46.2,0,0,0,5.82,1.71c1,.2,2,.32,2.94.48l1.46.22c.48.06,1,.06,1.46.09l2.89.15c1,0,1.91-.08,2.85-.11a40.66,40.66,0,0,0,5.52-.64,22.2,22.2,0,0,0,2.64-.6c.86-.24,1.74-.41,2.57-.69l2.46-.9,1.21-.44,1.15-.55,2.27-1.09c.76-.34,1.43-.83,2.13-1.23s1.39-.82,2.06-1.26l1.89-1.41a43.64,43.64,0,0,0,11.12-12.41,41.85,41.85,0,0,0,4.86-11.65,23.72,23.72,0,0,0,.57-2.39l.34-2.14c.1-.66.22-1.27.28-1.83l.09-1.53.13-2.08c0-.47.06-.71.06-.71s0,.24,0,.71l-.08,2.09-.07,1.54c-.05.56-.16,1.18-.25,1.84l-.32,2.15a23.57,23.57,0,0,1-.55,2.41,41.65,41.65,0,0,1-4.81,11.75,43.77,43.77,0,0,1-11.15,12.55l-1.9,1.43c-.67.44-1.37.85-2.07,1.28s-1.38.9-2.15,1.25l-2.29,1.11-1.16.56-1.22.45-2.48.91c-.84.28-1.72.46-2.6.7a22.53,22.53,0,0,1-2.67.61,41,41,0,0,1-5.58.66c-1,0-1.91.13-2.88.12l-2.92-.14c-.49,0-1,0-1.47-.09L304,469.5c-1-.16-2-.27-3-.48a46.6,46.6,0,0,1-5.89-1.72,46,46,0,0,1-5.76-2.52c-.93-.5-1.83-1.09-2.75-1.64-.45-.29-.93-.54-1.37-.86l-1.3-1a49.54,49.54,0,0,1-5-4.25l-2.25-2.47-.57-.62-.51-.67-1-1.35-1-1.36-.89-1.45-.89-1.46-.45-.73-.38-.77-1.5-3.12-1.2-3.27a43.73,43.73,0,0,1,0-27.87l1.2-3.27,1.5-3.11.38-.77.45-.73.89-1.46.89-1.45,1-1.36,1-1.35.51-.67.56-.62,2.25-2.47a49.59,49.59,0,0,1,5-4.25l1.3-1c.43-.33.91-.57,1.37-.86.92-.55,1.82-1.13,2.75-1.64a45.92,45.92,0,0,1,5.76-2.52,46.6,46.6,0,0,1,5.89-1.72c1-.2,2-.32,3-.48l1.47-.22c.49-.06,1-.06,1.47-.09l2.92-.14c1,0,1.92.08,2.88.12a41,41,0,0,1,5.58.66,22.49,22.49,0,0,1,2.67.61c.87.24,1.75.42,2.6.7l2.48.91,1.22.45,1.16.56,2.29,1.11c.76.35,1.44.84,2.15,1.25s1.4.84,2.07,1.28l1.9,1.43a43.77,43.77,0,0,1,11.15,12.55,41.65,41.65,0,0,1,4.81,11.75,23.63,23.63,0,0,1,.55,2.41l.32,2.15c.09.67.2,1.28.25,1.84L354,423l.08,2.09C354.14,425.6,354.13,425.84,354.13,425.84Z"/><path class="cls-7" d="M327.39,424.68a13.78,13.78,0,0,1-.19-2.73c0-1.69-.08-4-.09-6.65l.28.28h-.47c-2.72,0-5.19,0-7-.08a14.93,14.93,0,0,1-2.89-.2,15,15,0,0,1,2.89-.2c1.78-.05,4.25-.08,7-.08h.75v.28c0,2.62,0,5-.09,6.65A13.77,13.77,0,0,1,327.39,424.68Z"/><circle class="cls-11" cx="266.31" cy="302.86" r="43.91"/><path class="cls-11" d="M310.22,302.86s0-.24-.06-.71l-.13-2.08-.09-1.54c-.06-.56-.18-1.17-.28-1.83l-.34-2.14a23.81,23.81,0,0,0-.57-2.39,41.85,41.85,0,0,0-4.86-11.65,43.64,43.64,0,0,0-11.12-12.41l-1.89-1.41c-.66-.44-1.36-.83-2.06-1.26s-1.37-.89-2.13-1.23l-2.27-1.09-1.15-.55-1.21-.44-2.46-.9c-.84-.28-1.71-.45-2.57-.69a22.2,22.2,0,0,0-2.64-.6,40.62,40.62,0,0,0-5.52-.64c-.94,0-1.89-.12-2.85-.11l-2.89.15c-.48,0-1,0-1.46.09l-1.46.22c-1,.16-2,.27-2.94.48a46.2,46.2,0,0,0-5.82,1.71,45.51,45.51,0,0,0-5.69,2.5c-.92.5-1.81,1.08-2.72,1.62-.45.29-.92.53-1.35.85l-1.29,1a49.16,49.16,0,0,0-5,4.21l-2.22,2.44-.56.61-.5.66-1,1.34-1,1.34-.88,1.44-.88,1.45L228,282l-.37.76-1.48,3.08-1.18,3.23a43.26,43.26,0,0,0,0,27.55l1.18,3.23,1.48,3.08.37.76.44.73.88,1.45.88,1.44,1,1.34,1,1.34.5.66.56.61,2.22,2.44a49.12,49.12,0,0,0,5,4.21l1.29,1c.43.32.9.57,1.35.85.91.54,1.8,1.12,2.72,1.62a45.53,45.53,0,0,0,5.7,2.5,46.19,46.19,0,0,0,5.82,1.71c1,.2,2,.32,2.94.48l1.46.22c.48.06,1,.06,1.46.09l2.89.15c1,0,1.91-.08,2.85-.11a40.64,40.64,0,0,0,5.52-.64,22.24,22.24,0,0,0,2.64-.6c.86-.24,1.74-.41,2.57-.69l2.46-.9,1.21-.44,1.15-.55,2.27-1.09c.76-.34,1.43-.83,2.13-1.23s1.39-.82,2.06-1.26l1.89-1.41a43.64,43.64,0,0,0,11.12-12.41,41.85,41.85,0,0,0,4.86-11.65,23.71,23.71,0,0,0,.57-2.39l.34-2.14c.1-.66.22-1.27.28-1.83l.09-1.53.13-2.08c0-.47.06-.71.06-.71s0,.24,0,.71l-.08,2.09-.07,1.54c-.05.56-.16,1.18-.25,1.84l-.32,2.15a23.54,23.54,0,0,1-.55,2.41,41.65,41.65,0,0,1-4.81,11.75A43.77,43.77,0,0,1,293,337.91l-1.9,1.43c-.67.44-1.37.85-2.07,1.28s-1.38.9-2.15,1.25L284.59,343l-1.16.56-1.22.45-2.48.91c-.84.28-1.72.46-2.6.7a22.53,22.53,0,0,1-2.67.61,41,41,0,0,1-5.58.66c-1,0-1.91.13-2.88.12l-2.92-.14c-.49,0-1,0-1.47-.09l-1.47-.22c-1-.16-2-.27-3-.48a46.58,46.58,0,0,1-5.89-1.72,45.92,45.92,0,0,1-5.76-2.52c-.93-.5-1.83-1.09-2.75-1.64-.45-.29-.94-.54-1.37-.86l-1.3-1a49.54,49.54,0,0,1-5-4.25l-2.25-2.47-.57-.62-.51-.67-1-1.35-1-1.36-.89-1.45-.89-1.46-.45-.73-.38-.77-1.5-3.12-1.2-3.27a43.73,43.73,0,0,1,0-27.87l1.2-3.27,1.5-3.11.38-.77L228,281l.89-1.46.89-1.45,1-1.36,1-1.35.51-.67.56-.62,2.25-2.47a49.58,49.58,0,0,1,5-4.25l1.3-1c.43-.33.91-.57,1.37-.86.92-.55,1.82-1.13,2.75-1.64a45.93,45.93,0,0,1,5.76-2.52,46.59,46.59,0,0,1,5.89-1.72c1-.2,2-.32,3-.48l1.47-.22c.49-.06,1-.06,1.47-.09l2.92-.14c1,0,1.92.08,2.88.12a41,41,0,0,1,5.58.66,22.51,22.51,0,0,1,2.67.61c.87.24,1.75.42,2.6.7l2.48.91,1.22.45,1.16.56,2.29,1.11c.76.35,1.44.84,2.15,1.25s1.4.84,2.07,1.28l1.9,1.43a43.77,43.77,0,0,1,11.15,12.55,41.65,41.65,0,0,1,4.81,11.75,23.6,23.6,0,0,1,.55,2.41l.32,2.15c.09.67.2,1.28.25,1.84l.07,1.54.08,2.09C310.23,302.62,310.22,302.86,310.22,302.86Z"/><path class="cls-10" d="M267.45,283.77l4.76,9.64a1.24,1.24,0,0,0,.93.68l10.64,1.55a1.24,1.24,0,0,1,.69,2.11l-7.7,7.5a1.24,1.24,0,0,0-.36,1.09l1.82,10.59a1.24,1.24,0,0,1-1.79,1.3l-9.51-5a1.24,1.24,0,0,0-1.15,0l-9.51,5a1.24,1.24,0,0,1-1.79-1.3l1.82-10.59a1.24,1.24,0,0,0-.36-1.09l-7.7-7.5a1.24,1.24,0,0,1,.69-2.11l10.64-1.55a1.24,1.24,0,0,0,.93-.68l4.76-9.64A1.24,1.24,0,0,1,267.45,283.77Z"/><path class="cls-10" d="M267.45,283.77s-.06-.1-.2-.25a1.2,1.2,0,0,0-2,.39l-.93,1.93-2.56,5.28-.78,1.6-.41.84a1.4,1.4,0,0,1-.83.66c-1.32.23-2.65.41-4.08.63l-4.47.67-2.36.36a1,1,0,0,0-.56,1.64L256,305a1.53,1.53,0,0,1,.47,1.52l-.24,1.43-.5,2.91-1,6a1,1,0,0,0,.43,1.09,1,1,0,0,0,.59.15,1.57,1.57,0,0,0,.63-.24l2.82-1.48,5.76-3,.74-.39a1.49,1.49,0,0,1,1-.12,3.57,3.57,0,0,1,.81.36l.72.38,2.86,1.5,5.58,2.93a1,1,0,0,0,1.12-.25.94.94,0,0,0,.24-.55,2.93,2.93,0,0,0-.08-.69l-.51-3-1-5.76-.24-1.4a1.53,1.53,0,0,1,.53-1.46l2-1.91,3.77-3.65,1.79-1.74a1,1,0,0,0-.13-1.71,3.7,3.7,0,0,0-1.06-.23l-1.13-.17-2.19-.33-4.06-.61-1.87-.28c-.31-.06-.58-.07-.91-.16a1.38,1.38,0,0,1-.75-.6l-2.57-5.29-1.6-3.35-.4-.88a1.56,1.56,0,0,1-.12-.31,1.56,1.56,0,0,1,.17.28l.45.85,1.68,3.3,2.63,5.23a1.09,1.09,0,0,0,.59.46c.24.06.57.09.86.14l1.87.26,4.07.57,2.19.31,1.13.16a3.84,3.84,0,0,1,1.2.27,1.43,1.43,0,0,1,.73,1.11,1.46,1.46,0,0,1-.5,1.25l-1.78,1.75L279,303.38l-2,1.92a1,1,0,0,0-.39,1l.24,1.4,1,5.76.51,3a3.24,3.24,0,0,1,.09.82,1.44,1.44,0,0,1-.37.83,1.48,1.48,0,0,1-1.7.38l-5.61-2.94-2.86-1.5-.72-.38a3.33,3.33,0,0,0-.68-.31,1,1,0,0,0-.63.08l-.72.38-5.76,3-2.82,1.48a2.06,2.06,0,0,1-.83.3,1.46,1.46,0,0,1-.9-.23,1.51,1.51,0,0,1-.66-1.61l1-6,.5-2.91.25-1.43a1,1,0,0,0-.33-1.09L248,297.76a1.45,1.45,0,0,1-.23-1.39,1.42,1.42,0,0,1,1-.92l2.39-.35,4.47-.63,4-.58a1.08,1.08,0,0,0,.64-.5l.41-.82.79-1.59,2.64-5.24,1-1.91a1.31,1.31,0,0,1,1.31-.8,1.22,1.22,0,0,1,.86.45A.76.76,0,0,1,267.45,283.77Z"/><circle class="cls-10" cx="266.31" cy="302.86" r="43.91"/><path class="cls-10" d="M310.22,302.86s0-.24-.06-.71l-.13-2.08-.09-1.54c-.06-.56-.18-1.17-.28-1.83l-.34-2.14a23.81,23.81,0,0,0-.57-2.39,41.85,41.85,0,0,0-4.86-11.65,43.64,43.64,0,0,0-11.12-12.41l-1.89-1.41c-.66-.44-1.36-.83-2.06-1.26s-1.37-.89-2.13-1.23l-2.27-1.09-1.15-.55-1.21-.44-2.46-.9c-.84-.28-1.71-.45-2.57-.69a22.2,22.2,0,0,0-2.64-.6,40.62,40.62,0,0,0-5.52-.64c-.94,0-1.89-.12-2.85-.11l-2.89.15c-.48,0-1,0-1.46.09l-1.46.22c-1,.16-2,.27-2.94.48a46.2,46.2,0,0,0-5.82,1.71,45.51,45.51,0,0,0-5.69,2.5c-.92.5-1.81,1.08-2.72,1.62-.45.29-.92.53-1.35.85l-1.29,1a49.16,49.16,0,0,0-5,4.21l-2.22,2.44-.56.61-.5.66-1,1.34-1,1.34-.88,1.44-.88,1.45L228,282l-.37.76-1.48,3.08-1.18,3.23a43.26,43.26,0,0,0,0,27.55l1.18,3.23,1.48,3.08.37.76.44.73.88,1.45.88,1.44,1,1.34,1,1.34.5.66.56.61,2.22,2.44a49.12,49.12,0,0,0,5,4.21l1.29,1c.43.32.9.57,1.35.85.91.54,1.8,1.12,2.72,1.62a45.53,45.53,0,0,0,5.7,2.5,46.19,46.19,0,0,0,5.82,1.71c1,.2,2,.32,2.94.48l1.46.22c.48.06,1,.06,1.46.09l2.89.15c1,0,1.91-.08,2.85-.11a40.64,40.64,0,0,0,5.52-.64,22.24,22.24,0,0,0,2.64-.6c.86-.24,1.74-.41,2.57-.69l2.46-.9,1.21-.44,1.15-.55,2.27-1.09c.76-.34,1.43-.83,2.13-1.23s1.39-.82,2.06-1.26l1.89-1.41a43.64,43.64,0,0,0,11.12-12.41,41.85,41.85,0,0,0,4.86-11.65,23.71,23.71,0,0,0,.57-2.39l.34-2.14c.1-.66.22-1.27.28-1.83l.09-1.53.13-2.08c0-.47.06-.71.06-.71s0,.24,0,.71l-.08,2.09-.07,1.54c-.05.56-.16,1.18-.25,1.84l-.32,2.15a23.54,23.54,0,0,1-.55,2.41,41.65,41.65,0,0,1-4.81,11.75A43.77,43.77,0,0,1,293,337.91l-1.9,1.43c-.67.44-1.37.85-2.07,1.28s-1.38.9-2.15,1.25L284.59,343l-1.16.56-1.22.45-2.48.91c-.84.28-1.72.46-2.6.7a22.53,22.53,0,0,1-2.67.61,41,41,0,0,1-5.58.66c-1,0-1.91.13-2.88.12l-2.92-.14c-.49,0-1,0-1.47-.09l-1.47-.22c-1-.16-2-.27-3-.48a46.58,46.58,0,0,1-5.89-1.72,45.92,45.92,0,0,1-5.76-2.52c-.93-.5-1.83-1.09-2.75-1.64-.45-.29-.94-.54-1.37-.86l-1.3-1a49.54,49.54,0,0,1-5-4.25l-2.25-2.47-.57-.62-.51-.67-1-1.35-1-1.36-.89-1.45-.89-1.46-.45-.73-.38-.77-1.5-3.12-1.2-3.27a43.73,43.73,0,0,1,0-27.87l1.2-3.27,1.5-3.11.38-.77L228,281l.89-1.46.89-1.45,1-1.36,1-1.35.51-.67.56-.62,2.25-2.47a49.58,49.58,0,0,1,5-4.25l1.3-1c.43-.33.91-.57,1.37-.86.92-.55,1.82-1.13,2.75-1.64a45.93,45.93,0,0,1,5.76-2.52,46.59,46.59,0,0,1,5.89-1.72c1-.2,2-.32,3-.48l1.47-.22c.49-.06,1-.06,1.47-.09l2.92-.14c1,0,1.92.08,2.88.12a41,41,0,0,1,5.58.66,22.51,22.51,0,0,1,2.67.61c.87.24,1.75.42,2.6.7l2.48.91,1.22.45,1.16.56,2.29,1.11c.76.35,1.44.84,2.15,1.25s1.4.84,2.07,1.28l1.9,1.43a43.77,43.77,0,0,1,11.15,12.55,41.65,41.65,0,0,1,4.81,11.75,23.6,23.6,0,0,1,.55,2.41l.32,2.15c.09.67.2,1.28.25,1.84l.07,1.54.08,2.09C310.23,302.62,310.22,302.86,310.22,302.86Z"/><path class="cls-12" d="M332.25,445.49a4.85,4.85,0,0,1-.85.06l-2.43.05-8.93.09-29.47.08H288.2v-.28c0-11,.06-20.88.09-28.07l.09-8.43.05-2.29a4.39,4.39,0,0,1,.05-.8,4.43,4.43,0,0,1,.05.8l.05,2.29.09,8.43c0,7.19.05,17.06.09,28.07l-.28-.28h2.1l29.47.08,8.93.09,2.43.05A4.85,4.85,0,0,1,332.25,445.49Z"/><path class="cls-7" d="M327.39,415.51a11.22,11.22,0,0,1-1.31,1.25l-3.7,3.24c-3.14,2.72-7.49,6.45-12.33,10.54l-.73.62-.19.16-.18-.17-5.48-5.1h.34l-8.05,6.64-2.34,1.87a5.16,5.16,0,0,1-.87.62,5.14,5.14,0,0,1,.76-.75l2.24-2,7.92-6.8.17-.15.17.16,5.51,5.07H309l.73-.62c4.83-4.09,9.23-7.78,12.43-10.42l3.81-3.11A11.21,11.21,0,0,1,327.39,415.51Z"/><path class="cls-13" d="M267.45,283.77l4.76,9.64a1.24,1.24,0,0,0,.93.68l10.64,1.55a1.24,1.24,0,0,1,.69,2.11l-7.7,7.5a1.24,1.24,0,0,0-.36,1.09l1.82,10.59a1.24,1.24,0,0,1-1.79,1.3l-9.51-5a1.24,1.24,0,0,0-1.15,0l-9.51,5a1.24,1.24,0,0,1-1.79-1.3l1.82-10.59a1.24,1.24,0,0,0-.36-1.09l-7.7-7.5a1.24,1.24,0,0,1,.69-2.11l10.64-1.55a1.24,1.24,0,0,0,.93-.68l4.76-9.64A1.24,1.24,0,0,1,267.45,283.77Z"/><path class="cls-12" d="M267.45,283.77s-.06-.1-.2-.25a1.2,1.2,0,0,0-2,.39l-.93,1.93-2.56,5.28-.78,1.6-.41.84a1.4,1.4,0,0,1-.83.66c-1.32.23-2.65.41-4.08.63l-4.47.67-2.36.36a1,1,0,0,0-.56,1.64L256,305a1.53,1.53,0,0,1,.47,1.52l-.24,1.43-.5,2.91-1,6a1,1,0,0,0,.43,1.09,1,1,0,0,0,.59.15,1.57,1.57,0,0,0,.63-.24l2.82-1.48,5.76-3,.74-.39a1.49,1.49,0,0,1,1-.12,3.57,3.57,0,0,1,.81.36l.72.38,2.86,1.5,5.58,2.93a1,1,0,0,0,1.12-.25.94.94,0,0,0,.24-.55,2.93,2.93,0,0,0-.08-.69l-.51-3-1-5.76-.24-1.4a1.53,1.53,0,0,1,.53-1.46l2-1.91,3.77-3.65,1.79-1.74a1,1,0,0,0-.13-1.71,3.7,3.7,0,0,0-1.06-.23l-1.13-.17-2.19-.33-4.06-.61-1.87-.28c-.31-.06-.58-.07-.91-.16a1.38,1.38,0,0,1-.75-.6l-2.57-5.29-1.6-3.35-.4-.88a1.56,1.56,0,0,1-.12-.31,1.56,1.56,0,0,1,.17.28l.45.85,1.68,3.3,2.63,5.23a1.09,1.09,0,0,0,.59.46c.24.06.57.09.86.14l1.87.26,4.07.57,2.19.31,1.13.16a3.84,3.84,0,0,1,1.2.27,1.43,1.43,0,0,1,.73,1.11,1.46,1.46,0,0,1-.5,1.25l-1.78,1.75L279,303.38l-2,1.92a1,1,0,0,0-.39,1l.24,1.4,1,5.76.51,3a3.24,3.24,0,0,1,.09.82,1.44,1.44,0,0,1-.37.83,1.48,1.48,0,0,1-1.7.38l-5.61-2.94-2.86-1.5-.72-.38a3.33,3.33,0,0,0-.68-.31,1,1,0,0,0-.63.08l-.72.38-5.76,3-2.82,1.48a2.06,2.06,0,0,1-.83.3,1.46,1.46,0,0,1-.9-.23,1.51,1.51,0,0,1-.66-1.61l1-6,.5-2.91.25-1.43a1,1,0,0,0-.33-1.09L248,297.76a1.45,1.45,0,0,1-.23-1.39,1.42,1.42,0,0,1,1-.92l2.39-.35,4.47-.63,4-.58a1.08,1.08,0,0,0,.64-.5l.41-.82.79-1.59,2.64-5.24,1-1.91a1.31,1.31,0,0,1,1.31-.8,1.22,1.22,0,0,1,.86.45A.76.76,0,0,1,267.45,283.77Z"/><path class="cls-1" d="M340.77,162.26a14.71,14.71,0,0,1,3.78,1l2.78-2.33,4.77,3.63-1.5,3.3a14.69,14.69,0,0,1,2,3.38l3.61.32.81,5.94-3.39,1.27a14.66,14.66,0,0,1-1,3.78l2.33,2.78-3.63,4.77-3.3-1.5a14.7,14.7,0,0,1-3.38,2l-.32,3.61-5.94.81-1.27-3.39a14.67,14.67,0,0,1-3.78-1l-2.78,2.33-4.77-3.63,1.5-3.3a14.72,14.72,0,0,1-2-3.38l-3.61-.32-.81-5.94,3.39-1.27a14.66,14.66,0,0,1,1-3.78l-2.33-2.78,3.63-4.77,3.3,1.5a14.69,14.69,0,0,1,3.38-2l.32-3.61,5.94-.81,1.27,3.39Zm-2.44,8.25a6.43,6.43,0,1,0,7.24,5.51A6.43,6.43,0,0,0,338.33,170.51Z"/><path class="cls-12" d="M338.33,170.51a1.24,1.24,0,0,1,.41-.09,5,5,0,0,1,1.19,0,6.4,6.4,0,0,1,3.94,1.81,6.62,6.62,0,0,1,0,9.48,6.63,6.63,0,0,1-7.83,1.06,6.62,6.62,0,0,1-2.56-9.13,6.4,6.4,0,0,1,3.32-2.8,5,5,0,0,1,1.15-.29,1.24,1.24,0,0,1,.41,0c0,.05-.56.11-1.49.5a6.42,6.42,0,0,0-3.07,2.79,6.26,6.26,0,0,0-.05,6,6.13,6.13,0,0,0,2.53,2.55,6.17,6.17,0,0,0,7.24-1,6.13,6.13,0,0,0,1.76-3.13,6.26,6.26,0,0,0-1.63-5.72,6.41,6.41,0,0,0-3.71-1.87C338.9,170.46,338.33,170.56,338.33,170.51Z"/><path class="cls-12" d="M340.77,162.26a1,1,0,0,1-.1-.2l-.26-.63-1-2.53.09.05-5.93.85.11-.12-.3,3.61v.09l-.09,0a14.63,14.63,0,0,0-3.33,2l-.08.06-.09,0-3.3-1.49.22-.06-3.62,4.78v-.25l2.34,2.77.08.1,0,.12a14.52,14.52,0,0,0-1,3.73l0,.13-.13,0L321,176.56l.15-.25.82,5.94-.22-.21,3.61.31h.15l.06.14a14.56,14.56,0,0,0,1.94,3.32l.09.12-.06.14-1.5,3.3-.08-.31,4.77,3.63h-.32l2.78-2.33.12-.1.15.06a14.47,14.47,0,0,0,3.71,1h0l.21.17h0v0l0,.05,0,.11.08.21.16.43.32.85.63,1.69-.28-.17,5.94-.8-.22.23.32-3.61v-.15l.14-.06a14.46,14.46,0,0,0,3.32-1.93l.12-.09.14.06,3.3,1.51-.3.08,3.64-4.77v.3l-2.32-2.78-.09-.11.05-.13a14.48,14.48,0,0,0,1-3.72l0-.14.13,0,3.4-1.26-.14.23-.79-5.94.18.17-3.61-.33h-.11l0-.1a14.59,14.59,0,0,0-1.93-3.34l-.06-.08,0-.09L352,164.5l0,.19L347.25,161h.15l-2.8,2.3,0,0,0,0a15.46,15.46,0,0,0-2.8-.88l-.71-.14-.24-.05H341c.16,0,.4,0,.72.1a14,14,0,0,1,2.85.81h-.09l2.76-2.35.07-.06.08.06,4.79,3.6.1.07-.05.11-1.49,3.3,0-.18a14.86,14.86,0,0,1,2,3.41l-.16-.11,3.61.31h.16l0,.16.82,5.94,0,.17-.16.06L353.66,179l.14-.18a14.9,14.9,0,0,1-1,3.84l0-.24,2.33,2.77.12.15-.12.15-3.62,4.78-.12.16-.18-.08-3.3-1.5.26,0a14.94,14.94,0,0,1-3.43,2l.16-.21-.32,3.61,0,.2-.2,0-5.94.81-.21,0-.07-.19-.63-1.69-.32-.85-.16-.43-.08-.21,0-.11,0-.05v0h0l.21.17h0a15,15,0,0,1-3.84-1l.27,0-2.78,2.33-.16.13-.16-.12-4.77-3.63-.16-.12.08-.18,1.51-3.3,0,.26a15,15,0,0,1-2-3.44l.21.15-3.61-.32-.19,0,0-.19-.8-5.94,0-.18.17-.06,3.4-1.26L324,175a14.91,14.91,0,0,1,1-3.83l0,.22-2.32-2.78-.11-.13.1-.13,3.65-4.76.09-.12.13.06,3.29,1.52-.18,0a14.86,14.86,0,0,1,3.42-2l-.09.13.34-3.61v-.11h.1l5.95-.76h.07l0,.06.9,2.53.23.66A1.34,1.34,0,0,1,340.77,162.26Z"/><path class="cls-14" d="M330.25,197.54a8.12,8.12,0,0,1,2.09.55l1.53-1.28,2.63,2-.83,1.82a8.11,8.11,0,0,1,1.09,1.86l2,.18.44,3.28-1.87.7a8.09,8.09,0,0,1-.55,2.09l1.28,1.53-2,2.63-1.82-.83a8.11,8.11,0,0,1-1.86,1.09l-.18,2-3.28.45-.7-1.87a8.1,8.1,0,0,1-2.09-.55l-1.53,1.28-2.63-2,.83-1.82a8.13,8.13,0,0,1-1.09-1.86l-2-.18-.44-3.28,1.87-.7a8.09,8.09,0,0,1,.55-2.09L320.4,201l2-2.63,1.82.83a8.11,8.11,0,0,1,1.86-1.09l.18-2,3.28-.44.7,1.87Zm-1.35,4.55a3.55,3.55,0,1,0,4,3A3.55,3.55,0,0,0,328.9,202.09Z"/><circle class="cls-3" cx="454.99" cy="191.19" r="22.1" transform="matrix(0.07, -1, 1, 0.07, 234.4, 632.68)"/><path class="cls-3" d="M432.94,189.74a1.86,1.86,0,0,1,0,.36v1.05q0,.35,0,.77c0,.28.06.59.08.93a16.15,16.15,0,0,0,.32,2.3,21.11,21.11,0,0,0,2.07,6,21.89,21.89,0,0,0,25.63,11,20.09,20.09,0,0,0,5.71-2.61,20,20,0,0,0,4.91-4.33,21.16,21.16,0,0,0,3.51-5.8,21.65,21.65,0,0,0,.9-13.75,21.16,21.16,0,0,0-2.72-6.21,20,20,0,0,0-4.3-4.93,20.09,20.09,0,0,0-5.32-3.33,21.95,21.95,0,0,0-26.85,7.58,21.11,21.11,0,0,0-2.84,5.66,16.16,16.16,0,0,0-.62,2.24c-.07.33-.16.63-.21.91l-.1.77-.15,1a1.86,1.86,0,0,1-.07.35,1.82,1.82,0,0,1,0-.36l.1-1,.08-.77c0-.28.12-.59.18-.92a15.64,15.64,0,0,1,.58-2.27,20.91,20.91,0,0,1,2.79-5.77,22.25,22.25,0,0,1,15.64-9.56,22.35,22.35,0,0,1,11.64,1.7,20.51,20.51,0,0,1,5.45,3.39,20.44,20.44,0,0,1,4.41,5,21.63,21.63,0,0,1,2.79,6.35,22.12,22.12,0,0,1-.93,14.08,21.62,21.62,0,0,1-3.6,5.93,20.44,20.44,0,0,1-5,4.42,20.52,20.52,0,0,1-5.85,2.65,22.35,22.35,0,0,1-11.76.17,22.25,22.25,0,0,1-14.26-11.52,20.91,20.91,0,0,1-2-6.08,15.64,15.64,0,0,1-.27-2.32c0-.34-.06-.65-.06-.94l0-.78,0-1.05A1.81,1.81,0,0,1,432.94,189.74Z"/><path class="cls-12" d="M465,191.87a4.42,4.42,0,0,1-.78.05l-2.15,0c-1.82,0-4.36,0-7.23,0h-.14v-.14c0-.46,0-.94,0-1.43,0-3.2,0-6.1,0-8.2l0-2.48a5.56,5.56,0,0,1,.06-.91,5.59,5.59,0,0,1,.06.91l0,2.48c0,2.1,0,5,0,8.2,0,.49,0,1,0,1.43l-.14-.14c2.87,0,5.41,0,7.23,0l2.15,0A4.41,4.41,0,0,1,465,191.87Z"/><ellipse class="cls-12" cx="454.93" cy="174.58" rx="0.14" ry="1.86"/><ellipse class="cls-12" cx="463.71" cy="177" rx="1.83" ry="0.14" transform="translate(10.66 379.72) rotate(-45)"/><path class="cls-12" d="M470.89,182.14a21.58,21.58,0,0,1-3.13,1.9,8.13,8.13,0,0,1,3.13-1.9Z"/><ellipse class="cls-12" cx="471.81" cy="191.68" rx="2.53" ry="0.14"/><ellipse class="cls-12" cx="436.85" cy="191.34" rx="2.39" ry="0.14"/><ellipse class="cls-12" cx="439.83" cy="199.97" rx="2.43" ry="0.14" transform="translate(-28.14 320.14) rotate(-38.85)"/><path class="cls-12" d="M447.85,203.94a69.08,69.08,0,0,1-2.53,4.22,12.61,12.61,0,0,1,2.53-4.22Z"/><ellipse class="cls-12" cx="454.93" cy="208.5" rx="0.14" ry="2.53"/><path class="cls-12" d="M465.84,207.66a10.9,10.9,0,0,1-3.79-3.3,418.71,418.71,0,0,0,3.79,3.3Z"/><ellipse class="cls-12" cx="469.39" cy="200.57" rx="0.14" ry="2.23" transform="translate(-4.34 390.64) rotate(-45)"/><ellipse class="cls-12" cx="440.11" cy="183.16" rx="0.14" ry="1.95" transform="translate(-0.61 364.85) rotate(-45)"/><ellipse class="cls-12" cx="446.46" cy="176.53" rx="0.14" ry="1.91" transform="translate(6.37 368.39) rotate(-45.13)"/><circle class="cls-7" cx="471.81" cy="172.72" r="11.59"/><path class="cls-3" d="M477.37,169.11a10.46,10.46,0,0,1-1.42,1.86c-.93,1.1-2.23,2.6-3.7,4.24l-1.18,1.31-.17.19-.19-.17c-1.32-1.19-2.46-2.24-3.25-3a7,7,0,0,1-1.21-1.29,7,7,0,0,1,1.43,1c.86.7,2,1.7,3.37,2.87l-.36,0,1.17-1.31c1.47-1.63,2.82-3.09,3.81-4.13A10.46,10.46,0,0,1,477.37,169.11Z"/><rect x="33.69" y="583.18" width="646.42" height="3.54"/><path d="M84.5,479.3l-.6.26-1.08.5c-.71.33-1.35.67-2,1q-1.93,1-3.74,2.12a80.69,80.69,0,0,0-6.9,4.7,92.51,92.51,0,0,0-12.14,11,102.92,102.92,0,0,0-10,12.69,114.71,114.71,0,0,0-7.9,13.94,124.5,124.5,0,0,0-5.87,14.73c-.75,2.51-1.59,5-2.19,7.55l-1,3.8-.8,3.81a160,160,0,0,0-2.67,18.86l.42-24A117.12,117.12,0,0,1,33,533c3.59-10.16,8.85-21.9,14.68-34.6,4.78-10.39,8.86-19.52,12.63-26.93s7.46-12.84,10.45-15.73c-3,2.86-8.51,6.54-14.54,12.77a92.2,92.2,0,0,0-17.69,25.64,123.33,123.33,0,0,0-10.15,35.46l.91-51.67a46.49,46.49,0,0,1,4.86-10.22c3.51-5.8,8.33-12.21,13.19-19.58a129.6,129.6,0,0,0,9.12-16.76,83.43,83.43,0,0,1,5.6-10.93c-1.51,2.16-5.25,4.36-9.54,7.79a60.88,60.88,0,0,0-13.61,14.37,64.18,64.18,0,0,0-9.41,23l.35-19.79c1.55-9.1,4.73-22.8,5-38.71.3-17-4.52-29.86-4.41-35.88-.11,6-5.37,18.67-5.67,35.7-.28,15.91,2.41,29.72,3.64,38.87L28,467.29A138,138,0,0,0,18.38,428,108.86,108.86,0,0,0,.67,399.36a139.3,139.3,0,0,0-15-14.65c3.37,3.05,7,9.22,10.77,17.39s7.81,18.35,12.63,29.83C14.85,446,19.91,459,23.27,470.24a124,124,0,0,1,4.37,19.19l-.59,33.27q-.55-6.2-1.52-12.3a199.12,199.12,0,0,0-6.19-26.78A229.54,229.54,0,0,0,9.89,458c-1.82-4.19-3.84-8.34-6-12.46A118.81,118.81,0,0,0-3.66,433C-.13,438,.28,443.1-.25,448a40.45,40.45,0,0,1-1.67,7.1c-.77,2.28-1.66,4.45-2.51,6.46-1.26,2.91-1.11,5.12-.15,7a16.36,16.36,0,0,0,4.27,4.92c3.32,3,6.85,5.8,4.28,9.81s-5.52,7.69-5.36,12.06a12.78,12.78,0,0,0,2.86,7.36c1.9,2.82,5.14,6,9.73,10.17a56,56,0,0,1,7.54,8.3,69.76,69.76,0,0,1,5.18,8.26c1.32,2.55,2.2,4.78,2.84,6.36l.08.19-.67,38c-.12-.85-3.89-24.91-17.91-38.43-13.17-12.7-25.6-16.89-28.85-18.77,3.28,1.89,21.72,25.5,27.74,33.63,9.28,12.54,18.93,15.31,18.63,32.46v0l.77,1.41.91-2.14a23.28,23.28,0,0,1,1.25-4.37,29.31,29.31,0,0,1,4.06-6.87,44,44,0,0,1,5.41-5.55c2-1.64,3.95-3.08,5.81-4.4a9.09,9.09,0,0,0,4.29-6.18c.46-2.21,0-4.64-.33-7-.18-1.19-.38-2.38-.51-3.53a14.27,14.27,0,0,1,.05-3.24,5.12,5.12,0,0,1,3.6-4.47c4.61-1.63,9.36-2.51,12.36-5.88a10.8,10.8,0,0,0,2-3.05,20.07,20.07,0,0,0,1.44-4.36c.77-3.48,1.21-8,1.9-14.58A46.26,46.26,0,0,1,77,487.5c3.78-5.37,7.64-8.31,8.28-8.53Z"/><path d="M718.5,481.3l-.6.26-1.08.5c-.71.33-1.35.67-2,1q-1.93,1-3.74,2.12a80.69,80.69,0,0,0-6.9,4.7,92.51,92.51,0,0,0-12.14,11,102.92,102.92,0,0,0-10,12.69,114.71,114.71,0,0,0-7.9,13.94,124.5,124.5,0,0,0-5.87,14.73c-.75,2.51-1.59,5-2.19,7.55l-1,3.8-.8,3.81a160,160,0,0,0-2.67,18.86l.42-24A117.12,117.12,0,0,1,667,535c3.59-10.16,8.85-21.9,14.68-34.6,4.78-10.39,8.86-19.52,12.63-26.93s7.46-12.84,10.45-15.73c-3,2.86-8.51,6.54-14.54,12.77a92.2,92.2,0,0,0-17.69,25.64,123.33,123.33,0,0,0-10.15,35.46l.91-51.67a46.49,46.49,0,0,1,4.86-10.22c3.51-5.8,8.33-12.21,13.19-19.58a129.6,129.6,0,0,0,9.12-16.76,83.43,83.43,0,0,1,5.6-10.93c-1.51,2.16-5.25,4.36-9.54,7.79a60.88,60.88,0,0,0-13.61,14.37,64.18,64.18,0,0,0-9.41,23l.35-19.79c1.55-9.1,4.73-22.8,5-38.71.3-17-4.52-29.86-4.41-35.88-.11,6-5.37,18.67-5.67,35.7-.28,15.91,2.41,29.72,3.64,38.87L662,469.29A138,138,0,0,0,652.38,430a108.86,108.86,0,0,0-17.71-28.69,139.3,139.3,0,0,0-15-14.65c3.37,3.05,7,9.22,10.77,17.39s7.81,18.35,12.63,29.83c5.78,14.09,10.84,27.1,14.21,38.31a124,124,0,0,1,4.37,19.19l-.59,33.27q-.55-6.2-1.52-12.3a199.12,199.12,0,0,0-6.19-26.78A229.54,229.54,0,0,0,643.89,460c-1.82-4.19-3.84-8.34-6-12.46A118.81,118.81,0,0,0,630.34,435c3.54,5,3.94,10.06,3.41,14.95a40.45,40.45,0,0,1-1.67,7.1c-.77,2.28-1.66,4.45-2.51,6.46-1.26,2.91-1.11,5.12-.15,7a16.36,16.36,0,0,0,4.27,4.92c3.32,3,6.85,5.8,4.28,9.81s-5.52,7.69-5.36,12.06a12.78,12.78,0,0,0,2.86,7.36c1.9,2.82,5.14,6,9.73,10.17a56,56,0,0,1,7.54,8.3,69.76,69.76,0,0,1,5.18,8.26c1.32,2.55,2.2,4.78,2.84,6.36l.08.19-.67,38c-.12-.85-3.89-24.91-17.91-38.43-13.17-12.7-25.6-16.89-28.85-18.77,3.28,1.89,21.72,25.5,27.74,33.63,9.28,12.54,18.93,15.31,18.63,32.46v0l.77,1.41.91-2.14a23.28,23.28,0,0,1,1.25-4.37,29.31,29.31,0,0,1,4.06-6.87,44,44,0,0,1,5.41-5.55c2-1.64,3.95-3.08,5.81-4.4a9.09,9.09,0,0,0,4.29-6.18c.46-2.21,0-4.64-.33-7-.18-1.19-.38-2.38-.51-3.53a14.27,14.27,0,0,1,.05-3.24,5.12,5.12,0,0,1,3.6-4.47c4.61-1.63,9.36-2.51,12.36-5.88a10.8,10.8,0,0,0,2-3.05,20.07,20.07,0,0,0,1.44-4.36c.77-3.48,1.21-8,1.9-14.58A46.26,46.26,0,0,1,711,489.5c3.78-5.37,7.64-8.31,8.28-8.53Z"/></g></svg>