<svg id="Layer_1" data-name="Layer 1" xmlns="http://www.w3.org/2000/svg" viewBox="0 0 256 256"><defs><style>.cls-1,.cls-2{fill:#fff;}.cls-1{opacity:0.5;}.cls-2{isolation:isolate;}</style></defs><title>web development icons</title><path class="cls-1" d="M64.92,142.5H86a18.8,18.8,0,0,1,13.85,5.57,19,19,0,0,1,0,27.06A18.8,18.8,0,0,1,86,180.7H77.65v17.51H64.92Zm12.73,26.26H86a6.32,6.32,0,0,0,4.86-2.07,7.75,7.75,0,0,0,0-10.19A6.32,6.32,0,0,0,86,154.43H77.65Z"/><path class="cls-1" d="M140.52,163.83V142.5h12.73v55.71H140.52V176.08H123v22.13H110.27V142.5H123v21.33Z"/><path class="cls-1" d="M161.22,142.5h21.09a18.8,18.8,0,0,1,13.85,5.57,19,19,0,0,1,0,27.06,18.8,18.8,0,0,1-13.85,5.57H174v17.51H161.22ZM174,168.76h8.36a6.32,6.32,0,0,0,4.86-2.07,7.75,7.75,0,0,0,0-10.19,6.32,6.32,0,0,0-4.86-2.07H174Z"/><path class="cls-2" d="M232.51,68.86,188.76,25.71a13.84,13.84,0,0,0-9.72-4H49.76A20.76,20.76,0,0,0,29,42.49v173a20.76,20.76,0,0,0,20.76,20.76h166.1a20.76,20.76,0,0,0,20.76-20.76V78.71A13.84,13.84,0,0,0,232.51,68.86Zm-16,4.77H184.72V41.89Zm-.59,148.8H49.76a6.92,6.92,0,0,1-6.92-6.92v-173a6.92,6.92,0,0,1,6.92-6.92H170.88V87.47h51.91v128A6.92,6.92,0,0,1,215.86,222.43Z"/></svg>