<svg id="Layer_1" data-name="Layer 1" xmlns="http://www.w3.org/2000/svg" viewBox="0 0 256 256"><defs><style>.cls-1,.cls-2{fill:none;stroke:#fff;stroke-miterlimit:10;}.cls-1{stroke-width:7px;}.cls-2{stroke-width:5px;opacity:0.5;}</style></defs><title>web development icons</title><path class="cls-1" d="M69,22.79C92.32,9.51,138.25,45,171.6,102s41.51,114.05,18.21,127.33-69.22-22.2-102.57-79.24S45.74,36.07,69,22.79Z"/><path class="cls-1" d="M6.78,122.64C6.72,95.83,60.24,73.39,126.32,72.52s119.68,20.17,119.74,47-53.46,49.25-119.53,50.12S6.84,149.45,6.78,122.64Z"/><path class="cls-1" d="M197.5,35.83c21.39,16.16,6.91,72.36-32.34,125.51s-88.42,83.14-109.82,67S48.43,156,87.68,102.81,176.11,19.66,197.5,35.83Z"/><circle class="cls-2" cx="128.97" cy="123.53" r="12.14"/></svg>