<svg id="Layer_1" data-name="Layer 1" xmlns="http://www.w3.org/2000/svg" viewBox="0 0 256 256"><defs><style>.cls-1{fill:#1d243d;opacity:0.5;isolation:isolate;}.cls-2{fill:#5466ff;}</style></defs><title>web development icons</title><path class="cls-1" d="M214.56,213H43.44A25.46,25.46,0,0,1,18,187.52V81.15A25.46,25.46,0,0,1,43.44,55.71H214.56A25.46,25.46,0,0,1,240,81.15V187.52A25.46,25.46,0,0,1,214.56,213ZM43.44,69.58A11.58,11.58,0,0,0,31.88,81.15V187.52a11.58,11.58,0,0,0,11.56,11.56H214.56a11.58,11.58,0,0,0,11.56-11.56V81.15a11.58,11.58,0,0,0-11.56-11.56Z"/><path class="cls-2" d="M129,166.71a32.37,32.37,0,1,1,32.38-32.38A32.41,32.41,0,0,1,129,166.71Zm0-50.87a18.5,18.5,0,1,0,18.5,18.5A18.52,18.52,0,0,0,129,115.83Z"/><path class="cls-2" d="M129,185.21a6.94,6.94,0,0,1-6.94-6.94v-18.5a6.94,6.94,0,1,1,13.87,0v18.5A6.94,6.94,0,0,1,129,185.21Z"/><path class="cls-2" d="M129,115.83a6.94,6.94,0,0,1-6.94-6.94V90.4a6.94,6.94,0,1,1,13.87,0v18.5A6.94,6.94,0,0,1,129,115.83Z"/><path class="cls-2" d="M151,128.6a6.94,6.94,0,0,1-3.48-13l16-9.25a6.94,6.94,0,0,1,6.95,12l-16,9.25A6.83,6.83,0,0,1,151,128.6Z"/><path class="cls-2" d="M91,163.19a6.94,6.94,0,0,1-3.48-13l16-9.25a6.94,6.94,0,1,1,6.95,12l-16,9.25A6.88,6.88,0,0,1,91,163.19Z"/><path class="cls-2" d="M107,128.6a6.85,6.85,0,0,1-3.47-.93l-16-9.25a6.94,6.94,0,0,1,6.95-12l16,9.25a6.94,6.94,0,0,1-3.48,13Z"/><path class="cls-2" d="M167,163.19a6.85,6.85,0,0,1-3.47-.93l-16-9.25a6.94,6.94,0,1,1,6.95-12l16,9.25a6.94,6.94,0,0,1-3.48,13Z"/></svg>