<svg id="Layer_1" data-name="Layer 1" xmlns="http://www.w3.org/2000/svg" viewBox="0 0 256 256"><defs><style>.cls-1,.cls-3{fill:#8d919d;}.cls-2{fill:#5466ff;}.cls-3{opacity:0.5;}</style></defs><title>web development icons</title><path class="cls-1" d="M165.4,234.89H90.6c-26.9,0-45.6-18.69-45.6-45.6V78.71c0-26.9,18.69-45.6,45.6-45.6H165.4c26.9,0,45.6,18.69,45.6,45.6V189.29C211,216.19,192.31,234.89,165.4,234.89ZM90.6,46.18A32.56,32.56,0,0,0,58.07,78.71V189.29A32.56,32.56,0,0,0,90.6,221.82H165.4a32.56,32.56,0,0,0,32.53-32.53V78.71A32.56,32.56,0,0,0,165.4,46.18Z"/><path class="cls-2" d="M95.81,144.16A10.16,10.16,0,1,0,106,134,10.16,10.16,0,0,0,95.81,144.16Zm44.32,45.94a10.16,10.16,0,1,0,10.16-10.16A10.16,10.16,0,0,0,140.13,190.11Zm-29.91,7.66,48-50a8.13,8.13,0,1,0-11.74-11.26l-48,50a8.13,8.13,0,0,0,11.74,11.26Z"/><path class="cls-3" d="M181.26,104.73a8.13,8.13,0,0,0-8.13-8.13H159.31a12.21,12.21,0,0,1-12.2-12.2V70.58a8.13,8.13,0,0,0-16.26,0V84.4a28.49,28.49,0,0,0,28.46,28.46h13.82A8.13,8.13,0,0,0,181.26,104.73Z"/></svg>