<svg id="Layer_1" data-name="Layer 1" xmlns="http://www.w3.org/2000/svg" xmlns:xlink="http://www.w3.org/1999/xlink" viewBox="0 0 710 710"><defs><style>.cls-1{fill:none;}.cls-2{clip-path:url(#clip-path);}.cls-10,.cls-3{fill:#fff;}.cls-10,.cls-4{stroke:#000;}.cls-10,.cls-4,.cls-5{stroke-miterlimit:10;}.cls-5,.cls-9{fill:#5565ff;}.cls-5{stroke:#5268ef;}.cls-10,.cls-5{stroke-width:2px;}.cls-6{fill:#fafafa;}.cls-7{fill:#1a2e35;}.cls-8{opacity:0.5;}.cls-11{opacity:0.3;}.cls-12{font-size:36.07px;font-family:Mont-HeavyDEMO, Mont;}</style><clipPath id="clip-path"><circle class="cls-1" cx="355" cy="356" r="350"/></clipPath></defs><title>web devlopment process</title><g class="cls-2"><circle class="cls-3" cx="355" cy="356" r="350"/><rect x="15.96" y="594.37" width="699.1" height="3.93" transform="translate(-12.91 8.11) rotate(-1.25)"/><path d="M178.89,360.64c0,.19-27.24.35-60.83.35s-60.83-.16-60.83-.35,27.23-.35,60.83-.35S178.89,360.44,178.89,360.64Z"/><path d="M178.89,371.42c0,.19-27.24.35-60.83.35s-60.83-.16-60.83-.35,27.23-.35,60.83-.35S178.89,371.23,178.89,371.42Z"/><path d="M135.55,382.2a3.48,3.48,0,0,1-.8.07l-2.28.06-8.39.11-27.69.1-27.69-.1-8.39-.11L58,382.27a3.48,3.48,0,0,1-.8-.07,3.43,3.43,0,0,1,.8-.07l2.28-.07L68.7,382l27.69-.1,27.69.1,8.39.11,2.28.07A3.43,3.43,0,0,1,135.55,382.2Z"/><ellipse cx="192.13" cy="410.31" rx="1.95" ry="0.51"/><ellipse cx="184.31" cy="410.31" rx="1.95" ry="0.51"/><ellipse cx="176.5" cy="410.31" rx="1.95" ry="0.51"/><ellipse cx="168.68" cy="410.31" rx="1.95" ry="0.51"/><ellipse cx="160.87" cy="410.31" rx="1.95" ry="0.51"/><ellipse cx="153.06" cy="410.31" rx="1.95" ry="0.51"/><ellipse cx="145.24" cy="410.31" rx="1.95" ry="0.51"/><ellipse cx="137.43" cy="410.31" rx="1.95" ry="0.51"/><ellipse cx="129.61" cy="410.31" rx="1.95" ry="0.51"/><ellipse cx="121.8" cy="410.31" rx="1.95" ry="0.51"/><ellipse cx="113.98" cy="410.31" rx="1.95" ry="0.51"/><ellipse cx="106.17" cy="410.31" rx="1.95" ry="0.51"/><ellipse cx="98.35" cy="410.31" rx="1.95" ry="0.51"/><ellipse cx="90.54" cy="410.31" rx="1.95" ry="0.51"/><ellipse cx="82.73" cy="410.31" rx="1.95" ry="0.51"/><ellipse cx="74.91" cy="410.31" rx="1.95" ry="0.51"/><ellipse cx="67.1" cy="410.31" rx="1.95" ry="0.51"/><ellipse cx="59.28" cy="410.31" rx="1.95" ry="0.51"/><ellipse cx="51.47" cy="410.31" rx="1.95" ry="0.51"/><ellipse cx="43.65" cy="410.31" rx="1.95" ry="0.51"/><ellipse cx="35.84" cy="410.31" rx="1.95" ry="0.51"/><ellipse cx="28.03" cy="410.31" rx="1.95" ry="0.51"/><ellipse cx="20.21" cy="410.31" rx="1.95" ry="0.51"/><ellipse cx="12.4" cy="410.31" rx="1.95" ry="0.51"/><ellipse cx="4.58" cy="410.31" rx="1.95" ry="0.51"/><ellipse cx="-1.88" cy="322.49" rx="1.95" ry="0.51"/><ellipse cx="5.94" cy="322.49" rx="1.95" ry="0.51"/><ellipse cx="13.75" cy="322.49" rx="1.95" ry="0.51"/><ellipse cx="21.57" cy="322.49" rx="1.95" ry="0.51"/><ellipse cx="29.38" cy="322.49" rx="1.95" ry="0.51"/><ellipse cx="37.19" cy="322.49" rx="1.95" ry="0.51"/><ellipse cx="45.01" cy="322.49" rx="1.95" ry="0.51"/><ellipse cx="52.82" cy="322.49" rx="1.95" ry="0.51"/><ellipse cx="60.64" cy="322.49" rx="1.95" ry="0.51"/><ellipse cx="68.45" cy="322.49" rx="1.95" ry="0.51"/><ellipse cx="76.27" cy="322.49" rx="1.95" ry="0.51"/><ellipse cx="84.08" cy="322.49" rx="1.95" ry="0.51"/><ellipse cx="91.9" cy="322.49" rx="1.95" ry="0.51"/><ellipse cx="99.71" cy="322.49" rx="1.95" ry="0.51"/><ellipse cx="107.52" cy="322.49" rx="1.95" ry="0.51"/><ellipse cx="115.34" cy="322.49" rx="1.95" ry="0.51"/><ellipse cx="123.15" cy="322.49" rx="1.95" ry="0.51"/><ellipse cx="130.97" cy="322.49" rx="1.95" ry="0.51"/><ellipse cx="138.78" cy="322.49" rx="1.95" ry="0.51"/><ellipse cx="146.6" cy="322.49" rx="1.95" ry="0.51"/><ellipse cx="154.41" cy="322.49" rx="1.95" ry="0.51"/><ellipse cx="162.22" cy="322.49" rx="1.95" ry="0.51"/><ellipse cx="170.04" cy="322.49" rx="1.95" ry="0.51"/><ellipse cx="177.85" cy="322.49" rx="1.95" ry="0.51"/><ellipse cx="185.67" cy="322.49" rx="1.95" ry="0.51"/><path d="M194.08,323.85c-.23,0-.42-.57-.48-1.35l.48.48-.6,0c-1.08,0-2-.23-2-.51s.87-.51,2-.51l.6,0,.52,0,0,.44C194.5,323.28,194.31,323.85,194.08,323.85Z"/><ellipse cx="194.08" cy="329.71" rx="0.51" ry="1.95"/><ellipse cx="194.08" cy="337.52" rx="0.51" ry="1.95"/><ellipse cx="194.08" cy="345.34" rx="0.51" ry="1.95"/><ellipse cx="194.08" cy="353.15" rx="0.51" ry="1.95"/><ellipse cx="194.08" cy="360.97" rx="0.51" ry="1.95"/><ellipse cx="194.08" cy="368.78" rx="0.51" ry="1.95"/><ellipse cx="194.08" cy="376.59" rx="0.51" ry="1.95"/><ellipse cx="194.08" cy="384.41" rx="0.51" ry="1.95"/><ellipse cx="194.08" cy="392.22" rx="0.51" ry="1.95"/><ellipse cx="194.08" cy="400.04" rx="0.51" ry="1.95"/><ellipse cx="194.08" cy="407.85" rx="0.51" ry="1.95"/><path d="M47.37,394.87c0-.28.87-.51,2-.51l-.51.51h0v-.37l0-.37a4.46,4.46,0,0,1,.11-.62c.09-.35.22-.57.36-.57s.27.22.36.57a4.46,4.46,0,0,1,.11.62l0,.37v.37h0l-.51.51C48.24,395.37,47.37,395.15,47.37,394.87Z"/><ellipse cx="41.9" cy="394.87" rx="1.82" ry="0.51"/><ellipse cx="34.6" cy="394.87" rx="1.82" ry="0.51"/><ellipse cx="27.3" cy="394.87" rx="1.82" ry="0.51"/><ellipse cx="20.01" cy="394.87" rx="1.82" ry="0.51"/><ellipse cx="12.71" cy="394.87" rx="1.82" ry="0.51"/><ellipse cx="5.41" cy="394.87" rx="1.82" ry="0.51"/><ellipse cx="5.41" cy="339.84" rx="1.82" ry="0.51"/><ellipse cx="12.71" cy="339.84" rx="1.82" ry="0.51"/><ellipse cx="20.01" cy="339.84" rx="1.82" ry="0.51"/><ellipse cx="27.3" cy="339.84" rx="1.82" ry="0.51"/><ellipse cx="34.6" cy="339.84" rx="1.82" ry="0.51"/><ellipse cx="41.9" cy="339.84" rx="1.82" ry="0.51"/><path d="M49.32,341.79c-.28,0-.51-.87-.51-2l.51.51h-.39l-.37,0a4.47,4.47,0,0,1-.62-.11c-.35-.09-.57-.22-.57-.36s.22-.27.57-.36a4.47,4.47,0,0,1,.62-.11l.37,0h.39l.51.51C49.83,340.92,49.6,341.79,49.32,341.79Z"/><ellipse cx="49.32" cy="347.69" rx="0.51" ry="1.97"/><ellipse cx="49.32" cy="355.55" rx="0.51" ry="1.97"/><ellipse cx="49.32" cy="363.42" rx="0.51" ry="1.97"/><ellipse cx="49.32" cy="371.28" rx="0.51" ry="1.97"/><ellipse cx="49.32" cy="379.15" rx="0.51" ry="1.97"/><ellipse cx="49.32" cy="387.01" rx="0.51" ry="1.97"/><rect x="47.92" y="338.44" width="2.8" height="2.8"/><rect x="47.92" y="392.07" width="2.8" height="2.8"/><rect x="17.21" y="393.47" width="2.8" height="2.8"/><rect x="18.61" y="338.44" width="2.8" height="2.8"/><rect x="46.53" y="365.95" width="2.8" height="2.8"/><path d="M261.06,268.66s0-.7,0-2,0-3.26,0-5.77c0-5.06-.06-12.44-.1-21.83,0-18.8-.12-45.66-.2-78.05l.38.38-132.11.08h0l.46-.46c0,38.92,0,75.67,0,107.66l-.41-.41,95.41.21,27,.11,7.18,0,1.86,0,.64,0-.6,0-1.81,0-7.1,0-26.95.11-95.67.21h-.41v-.41c0-32,0-68.74,0-107.66v-.46h.47l132.11.08h.38V161c-.08,32.49-.15,59.44-.2,78.29,0,9.36-.08,16.71-.1,21.75,0,2.47,0,4.37,0,5.69S261.06,268.66,261.06,268.66Z"/><path d="M262.1,177c0,.25-29.82.46-66.61.46s-66.61-.21-66.61-.46,29.82-.46,66.61-.46S262.1,176.72,262.1,177Z"/><ellipse cx="137.94" cy="169.12" rx="1.78" ry="1.79"/><ellipse cx="144.42" cy="169.12" rx="1.78" ry="1.79"/><ellipse cx="150.91" cy="169.12" rx="1.78" ry="1.79"/><path d="M491.53,192.76c0-6.87,3.6-11,8.59-11s8.62,4.1,8.62,11-3.63,11-8.62,11S491.53,199.63,491.53,192.76Zm14.94,0c0-5.76-2.59-8.93-6.34-8.93s-6.34,3.17-6.34,8.93,2.59,8.93,6.34,8.93S506.47,198.52,506.47,192.76Z"/><path d="M511.92,192.76c0-6.87,3.6-11,8.59-11s8.62,4.1,8.62,11-3.63,11-8.62,11S511.92,199.63,511.92,192.76Zm14.94,0c0-5.76-2.59-8.93-6.34-8.93s-6.34,3.17-6.34,8.93,2.59,8.93,6.34,8.93S526.86,198.52,526.86,192.76Z"/><path d="M538.23,182v21.56H536V184h-5.08v-2Z"/><path d="M543.38,192.76c0-6.87,3.6-11,8.59-11s8.62,4.1,8.62,11-3.63,11-8.62,11S543.38,199.63,543.38,192.76Zm14.94,0c0-5.76-2.59-8.93-6.34-8.93s-6.34,3.17-6.34,8.93,2.59,8.93,6.34,8.93S558.32,198.52,558.32,192.76Z"/><path d="M569.69,182v21.56h-2.22V184h-5.08v-2Z"/><path d="M470.3,223.37c0-6.87,3.6-11,8.59-11s8.62,4.1,8.62,11-3.63,11-8.62,11S470.3,230.24,470.3,223.37Zm14.94,0c0-5.76-2.59-8.93-6.34-8.93s-6.34,3.17-6.34,8.93,2.59,8.93,6.34,8.93S485.23,229.13,485.23,223.37Z"/><path d="M490.69,223.37c0-6.87,3.6-11,8.59-11s8.62,4.1,8.62,11-3.63,11-8.62,11S490.69,230.24,490.69,223.37Zm14.94,0c0-5.76-2.59-8.93-6.34-8.93s-6.34,3.17-6.34,8.93,2.59,8.93,6.34,8.93S505.63,229.13,505.63,223.37Z"/><path d="M517,212.59v21.56h-2.22V214.56H509.7v-2Z"/><path d="M522.14,223.37c0-6.87,3.6-11,8.59-11s8.62,4.1,8.62,11-3.63,11-8.62,11S522.14,230.24,522.14,223.37Zm14.94,0c0-5.76-2.59-8.93-6.34-8.93s-6.34,3.17-6.34,8.93,2.59,8.93,6.34,8.93S537.08,229.13,537.08,223.37Z"/><path d="M548.45,212.59v21.56h-2.22V214.56h-5.08v-2Z"/><path d="M559.57,212.59v21.56h-2.22V214.56h-5.08v-2Z"/><path d="M564.72,223.37c0-6.87,3.6-11,8.59-11s8.62,4.1,8.62,11-3.63,11-8.62,11S564.72,230.24,564.72,223.37Zm14.94,0c0-5.76-2.59-8.93-6.34-8.93s-6.34,3.17-6.34,8.93,2.59,8.93,6.34,8.93S579.66,229.13,579.66,223.37Z"/><path d="M591,212.59v21.56h-2.22V214.56h-5.08v-2Z"/><path d="M491.53,253c0-6.87,3.6-11,8.59-11s8.62,4.1,8.62,11-3.63,11-8.62,11S491.53,259.83,491.53,253Zm14.94,0c0-5.76-2.59-8.93-6.34-8.93s-6.34,3.17-6.34,8.93,2.59,8.93,6.34,8.93S506.47,258.72,506.47,253Z"/><path d="M517.84,242.18v21.56h-2.22V244.16h-5.08v-2Z"/><path d="M529,242.18v21.56h-2.22V244.16h-5.08v-2Z"/><path d="M540.08,242.18v21.56h-2.22V244.16h-5.08v-2Z"/><path d="M545.23,253c0-6.87,3.6-11,8.59-11s8.62,4.1,8.62,11-3.63,11-8.62,11S545.23,259.83,545.23,253Zm14.94,0c0-5.76-2.59-8.93-6.34-8.93s-6.34,3.17-6.34,8.93,2.59,8.93,6.34,8.93S560.17,258.72,560.17,253Z"/><path d="M571.54,242.18v21.56h-2.22V244.16h-5.08v-2Z"/><path class="cls-4" d="M373.79,173.45s.36,0,1.07,0l3.15.1c.69,0,1.47,0,2.32.11l2.78.4,3.24.47,3.62.9a64.53,64.53,0,0,1,8.32,2.76l4.53,2.16c1.56.77,3.06,1.79,4.68,2.73A62,62,0,0,1,436,229.53a66.79,66.79,0,0,1,.19,8.47c-.09,1.43-.1,2.89-.26,4.34l-.66,4.36A61.11,61.11,0,0,1,429.45,264a61.92,61.92,0,0,1-27.33,27.3c-1.55.71-3,1.55-4.65,2.16l-4.86,1.78c-1.67.47-3.36.88-5,1.32a49.66,49.66,0,0,1-5.17.91c-.87.11-1.74.31-2.62.36l-2.65.13c-1.77.09-3.55.21-5.33.14a63.08,63.08,0,0,1-10.69-1.26,62.36,62.36,0,0,1-17.29-6.34h.5l-20.83,9.91-1,.46.2-1,4.35-23,.12.45a62.37,62.37,0,0,1-14.72-53.8,61.36,61.36,0,0,1,9.3-22.49,63.06,63.06,0,0,1,14.38-15.13,66,66,0,0,1,7.56-4.94c1.24-.68,2.52-1.22,3.71-1.81a26.73,26.73,0,0,1,3.55-1.52,50.61,50.61,0,0,1,6.57-2.12,41.5,41.5,0,0,1,5.64-1.2c1.71-.23,3.22-.49,4.54-.62l3.33-.13,2-.06a4,4,0,0,1,.69,0,4,4,0,0,1-.69.08l-2,.15-3.32.21c-1.31.15-2.8.44-4.5.7a42.18,42.18,0,0,0-5.59,1.28,51,51,0,0,0-6.5,2.17,26.54,26.54,0,0,0-3.51,1.54c-1.18.6-2.44,1.14-3.66,1.83a66.05,66.05,0,0,0-7.45,4.95,62.7,62.7,0,0,0-14.12,15,60.73,60.73,0,0,0-9.08,22.23A61.53,61.53,0,0,0,328,276.56l.17.19,0,.25-4.32,23-.76-.59,20.82-9.93.25-.12.25.13a61.35,61.35,0,0,0,17,6.23,62.06,62.06,0,0,0,10.5,1.24c1.75.08,3.5,0,5.24-.13l2.6-.13c.87,0,1.72-.24,2.57-.35a48.73,48.73,0,0,0,5.08-.89c1.66-.44,3.32-.83,5-1.29l4.78-1.75c1.58-.6,3.05-1.43,4.57-2.12a61,61,0,0,0,26.92-26.8,60.25,60.25,0,0,0,5.77-17l.66-4.29c.16-1.43.17-2.86.27-4.27a66.05,66.05,0,0,0-.16-8.35,61.5,61.5,0,0,0-27.93-46c-1.6-.94-3.07-2-4.62-2.74l-4.47-2.18a65.44,65.44,0,0,0-8.22-2.83l-3.58-.95-3.21-.52-2.76-.45c-.85-.09-1.62-.11-2.31-.16l-3.13-.21C374.15,173.5,373.79,173.45,373.79,173.45Z"/><path class="cls-5" d="M390.08,251.25a7.14,7.14,0,0,1,1.09-1.24l3.17-3.19c2.7-2.67,6.47-6.32,10.66-10.31l.1-.09V237c-4.22-3.92-8-7.5-10.73-10.11l-3.19-3.12a7.07,7.07,0,0,1-1.1-1.22,7,7,0,0,1,1.3,1l3.35,3c2.81,2.52,6.65,6,10.88,10l.29.27-.28.27-.1.09c-4.19,4-8,7.59-10.81,10.16l-3.33,3A7.15,7.15,0,0,1,390.08,251.25Z"/><path class="cls-5" d="M390.06,251.81a.49.49,0,0,1-.36-.19c-.4-.42-.14-.69,1.1-2l3.18-3.19c2.67-2.64,6.23-6.08,10.07-9.76-3.82-3.55-7.36-6.89-10-9.47l-3.2-3.13c-1.26-1.27-1.52-1.53-1.11-2s.7-.16,2,1l3.36,3c2.92,2.62,6.78,6.15,10.89,10l.29.27a.52.52,0,0,1,.17.38.53.53,0,0,1-.16.39l-.29.27c-4.11,3.92-7.95,7.53-10.91,10.25l-3.34,3C390.78,251.44,390.37,251.81,390.06,251.81Z"/><path class="cls-5" d="M357.49,222.5a7.16,7.16,0,0,1-1.09,1.24l-3.17,3.19c-2.7,2.67-6.47,6.32-10.66,10.31l-.1.09v-.54c4.22,3.92,8,7.5,10.73,10.11l3.19,3.12a7,7,0,0,1,1.1,1.22,7.06,7.06,0,0,1-1.3-1l-3.35-3c-2.81-2.52-6.65-6-10.88-10l-.29-.27.28-.27.1-.09c4.19-4,8-7.59,10.81-10.16l3.33-3A7.14,7.14,0,0,1,357.49,222.5Z"/><path class="cls-5" d="M357.52,251.81c-.3,0-.72-.36-1.66-1.16l-3.36-3c-3-2.65-6.83-6.19-10.89-10l-.29-.27a.53.53,0,0,1-.17-.38.53.53,0,0,1,.16-.39l.29-.27c4.17-4,8-7.59,10.91-10.25l3.33-3c1.35-1.18,1.63-1.43,2-1s.14.69-1.1,2l-3.18,3.19c-2.67,2.64-6.23,6.08-10.07,9.76,3.82,3.55,7.36,6.89,10,9.47l3.19,3.13c1.26,1.27,1.52,1.53,1.12,2A.5.5,0,0,1,357.52,251.81Z"/><ellipse class="cls-5" cx="373.84" cy="236.67" rx="22.79" ry="0.37" transform="translate(21.19 503.9) rotate(-69.49)"/><path class="cls-5" d="M365.93,258.58a.76.76,0,0,1-.26-.07h0c-.61-.23-.84-.32,7.33-22.16,7.94-21.21,8.42-21.43,8.6-21.51a.55.55,0,0,1,.41,0c.61.23.84.32-7.33,22.16-2.14,5.71-4.18,11.06-5.75,15.06C366.72,257.7,366.36,258.58,365.93,258.58Z"/><rect class="cls-6" x="446.9" y="297.04" width="193.31" height="127.56"/><path class="cls-7" d="M640.21,424.59s0-.81,0-2.34,0-3.81,0-6.74L640,389.86c-.05-22.16-.13-54-.23-92.83l.44.44-193.29.11h0l.55-.55c0,45.39,0,88.57,0,127.56l-.51-.51,139.17.25,39.83.14,10.61.06,2.75,0,.95,0s-.29,0-.89,0l-2.69,0-10.51.06-39.72.14-139.5.25h-.51v-.51c0-39,0-82.17,0-127.56v-.55h.57l193.29.11h.44V297c-.1,38.95-.18,70.87-.23,93.1,0,11-.09,19.66-.11,25.56,0,2.9,0,5.12,0,6.66S640.21,424.59,640.21,424.59Z"/><g class="cls-8"><path d="M641.09,310c0,.3-43.18.55-96.42.55s-96.43-.25-96.43-.55,43.17-.55,96.43-.55S641.09,309.74,641.09,310Z"/></g><rect class="cls-9" x="463.72" y="328.42" width="61.59" height="81.2"/><g class="cls-8"><path d="M623.39,332.2c0,.3-19.33.55-43.17.55S537,332.51,537,332.2s19.33-.55,43.18-.55S623.39,331.9,623.39,332.2Z"/></g><g class="cls-8"><path d="M623.39,342.36c0,.3-19.33.55-43.17.55s-43.18-.25-43.18-.55,19.33-.55,43.18-.55S623.39,342.06,623.39,342.36Z"/></g><g class="cls-8"><path d="M623.39,352.53c0,.3-19.33.55-43.17.55s-43.18-.25-43.18-.55,19.33-.55,43.18-.55S623.39,352.22,623.39,352.53Z"/></g><g class="cls-8"><path d="M623.39,362.69c0,.3-19.33.55-43.17.55S537,363,537,362.69s19.33-.55,43.18-.55S623.39,362.38,623.39,362.69Z"/></g><rect class="cls-9" x="586.01" y="371.1" width="34.71" height="38.51"/><g class="cls-8"><ellipse cx="559.22" cy="372.85" rx="21.09" ry="0.55"/></g><g class="cls-8"><ellipse cx="559.22" cy="383.01" rx="21.09" ry="0.55"/></g><g class="cls-8"><ellipse cx="559.22" cy="394.78" rx="21.09" ry="0.55"/></g><g class="cls-8"><ellipse cx="558.13" cy="406.8" rx="21.09" ry="0.55"/></g><path class="cls-10" d="M328.49,507.61H447.7a4.71,4.71,0,0,0,3.48-1.54L495.91,457a4.71,4.71,0,0,0,1.23-3.17V364.12a4.71,4.71,0,0,0-4.71-4.71H378.34a4.71,4.71,0,0,0-4.71,4.71v85.81a4.71,4.71,0,0,1-1.41,3.36l-47,46.26A4.71,4.71,0,0,0,328.49,507.61Z"/><rect class="cls-10" x="377.96" y="365.02" width="115.05" height="81.86"/><path class="cls-10" d="M495.61,452.62c0,.3-26.78.55-59.8.55s-59.81-.25-59.81-.55,26.77-.55,59.81-.55S495.61,452.32,495.61,452.62Z"/><path class="cls-9" d="M484.15,440.86a15.55,15.55,0,0,1,3.68-.22h.55l-.22.22a12.46,12.46,0,0,1,.22-3.13,12.46,12.46,0,0,1,.22,3.13v.22h-.77A15.55,15.55,0,0,1,484.15,440.86Z"/><ellipse class="cls-9" cx="477.8" cy="440.86" rx="2.11" ry="0.22"/><ellipse class="cls-9" cx="469.35" cy="440.86" rx="2.11" ry="0.22"/><ellipse class="cls-9" cx="460.89" cy="440.86" rx="2.11" ry="0.22"/><ellipse class="cls-9" cx="452.43" cy="440.86" rx="2.11" ry="0.22"/><ellipse class="cls-9" cx="443.97" cy="440.86" rx="2.11" ry="0.22"/><ellipse class="cls-9" cx="435.52" cy="440.86" rx="2.11" ry="0.22"/><ellipse class="cls-9" cx="427.06" cy="440.86" rx="2.11" ry="0.22"/><ellipse class="cls-9" cx="418.6" cy="440.86" rx="2.11" ry="0.22"/><ellipse class="cls-9" cx="410.14" cy="440.86" rx="2.11" ry="0.22"/><ellipse class="cls-9" cx="401.69" cy="440.86" rx="2.11" ry="0.22"/><ellipse class="cls-9" cx="393.23" cy="440.86" rx="2.11" ry="0.22"/><ellipse class="cls-9" cx="384.77" cy="440.86" rx="2.11" ry="0.22"/><ellipse class="cls-9" cx="382.6" cy="434.58" rx="0.22" ry="2.11"/><ellipse class="cls-9" cx="382.6" cy="426.12" rx="0.22" ry="2.11"/><ellipse class="cls-9" cx="382.6" cy="417.66" rx="0.22" ry="2.11"/><ellipse class="cls-9" cx="382.6" cy="409.2" rx="0.22" ry="2.11"/><ellipse class="cls-9" cx="382.6" cy="400.75" rx="0.22" ry="2.11"/><ellipse class="cls-9" cx="382.6" cy="392.29" rx="0.22" ry="2.11"/><ellipse class="cls-9" cx="387.38" cy="388.61" rx="2.11" ry="0.22"/><ellipse class="cls-9" cx="395.83" cy="388.61" rx="2.11" ry="0.22"/><ellipse class="cls-9" cx="404.29" cy="388.61" rx="2.11" ry="0.22"/><ellipse class="cls-9" cx="412.75" cy="388.61" rx="2.11" ry="0.22"/><ellipse class="cls-9" cx="421.2" cy="388.61" rx="2.11" ry="0.22"/><ellipse class="cls-9" cx="429.66" cy="388.61" rx="2.11" ry="0.22"/><ellipse class="cls-9" cx="438.12" cy="388.61" rx="2.11" ry="0.22"/><ellipse class="cls-9" cx="446.58" cy="388.61" rx="2.11" ry="0.22"/><ellipse class="cls-9" cx="455.03" cy="388.61" rx="2.11" ry="0.22"/><ellipse class="cls-9" cx="463.49" cy="388.61" rx="2.11" ry="0.22"/><ellipse class="cls-9" cx="471.95" cy="388.61" rx="2.11" ry="0.22"/><ellipse class="cls-9" cx="480.41" cy="388.61" rx="2.11" ry="0.22"/><path class="cls-9" d="M488.38,391.21a5.26,5.26,0,0,1-.22-2.11c0-.14,0-.28,0-.49l.21.21a3.7,3.7,0,0,1-1.63-.21,3.71,3.71,0,0,1,1.63-.21h.21v.71A5.27,5.27,0,0,1,488.38,391.21Z"/><ellipse class="cls-9" cx="488.38" cy="397.56" rx="0.22" ry="2.11"/><ellipse class="cls-9" cx="488.38" cy="406.02" rx="0.22" ry="2.11"/><ellipse class="cls-9" cx="488.38" cy="414.47" rx="0.22" ry="2.11"/><ellipse class="cls-9" cx="488.38" cy="422.93" rx="0.22" ry="2.11"/><ellipse class="cls-9" cx="488.38" cy="431.39" rx="0.22" ry="2.11"/><rect class="cls-9" x="382.6" y="369.35" width="105.78" height="15.25"/><path class="cls-10" d="M227.62,317l-.31,101.3,43.46,2.07L272,395.75s15.44,3.06,19.42-11.27c2.54-9.16,1.91-79.93,1.91-79.93Z"/><path d="M299.07,311.68c-6.85,2-8.33,13.15-8.33,13.15L280,348.54c-5.47-4.28-12.81-4-14.21,5.57-1,6.95,7.63,8.35,7.63,8.35-5,8.56-8.44,15.48-15.76,23.61-7.92,8.81-12.36,9.7-21,9.84h-9.47s-4.64-15.05-13.23-52.7c-9.53-41.77,39.86-36.39,49-47C277.95,278.8,320.65,305.5,299.07,311.68Z"/><path d="M214.92,347.15c-8-5.38-8.73-20.42-4.06-29.45a29,29,0,0,1,24.66-15.33,11.74,11.74,0,0,0,4-.45c1.88-.73,3.1-2.51,4.33-4.1,7.15-9.3,14.19-18.44,27.52-18.44a15.17,15.17,0,0,1,8.38,2.08,13.17,13.17,0,0,1,5,6.67,28.51,28.51,0,0,1,7.8-2.81,9.63,9.63,0,0,1,7.83,1.91c2.07,1.84,2.84,5.24,1.23,7.5,4.49-.28,8.75,3.44,9.46,7.88s-5.67,7.57-6.33,7.92c0,0,3.5,7.32-4.84,11.71-3.36,1.77-7.73-.36-8.22-.62"/><path class="cls-10" d="M410.36,392c-3.72.95-17.81,9.38-18.29,12s1.4,23.64.31,29.73-11.45,31.64-21.6,46a41.62,41.62,0,0,1-5.37,6.05c3.88,8,13.52,19.14,24,22.77a4.69,4.69,0,0,0,6.07-3c2.2-7.25,4.54-14.7,5.46-19.8,0,0,9.2-44.19,11.78-47,2.36-2.55,3.19-7.3,3.92-11.35l1.48-8.23s2.83.32,3.85-4.46q0-.21.09-.44C423,409.13,414.08,391.08,410.36,392Z"/><path class="cls-10" d="M173.46,395.51c-3.6,1.33-16.73,11.2-16.93,13.89s3.87,23.36,3.42,29.54-8.07,32.67-16.66,48a41.62,41.62,0,0,1-4.7,6.58c4.69,7.51,15.45,17.62,26.23,20.14a4.69,4.69,0,0,0,5.72-3.64c1.43-7.44,3-15.09,3.35-20.26,0,0,4.53-44.92,6.8-48,2.08-2.79,2.41-7.6,2.71-11.7l.61-8.34s2.85,0,3.37-4.84q0-.22,0-.45C187.81,411.2,177.06,394.18,173.46,395.51Z"/><path d="M183.45,423.26l-53.11,95c-3.09,8.05-1.31,18.56,4.1,25.24l-1.1-1.58A22.67,22.67,0,0,0,151,550.3h1a22.67,22.67,0,0,0,20.79-13.63l12.47-18.92Z"/><path d="M298.47,416.47c-10.42-5.32-20.71-6.52-31.93-6.85-13.07-.38-31.5-2.21-45.58-.71,0,0-42.92-1.32-43.12,32l5.68,127.7L177.27,600l124.48-3.83-.92-64.57c2.78-2.59-.62-50.16-.62-50.16,2-18.06,11.86-26.19,13.27-37.94C314.72,433.12,307.78,421.23,298.47,416.47Z"/><path d="M262.22,570.42a10.31,10.31,0,0,1-1.89,1.79,41.47,41.47,0,0,1-5.86,4,46.85,46.85,0,0,1-45.18.8,41.46,41.46,0,0,1-6-3.81,10.31,10.31,0,0,1-2-1.72c.13-.18,3,2.23,8.31,4.84a48.49,48.49,0,0,0,44.45-.79C259.32,572.76,262.08,570.25,262.22,570.42Z"/><path d="M177.83,440.86a5.48,5.48,0,0,1,.15,1.26l.22,3.61.62,13.28,1.83,43.82,2,43.82.68,13.28.15,3.61a5.49,5.49,0,0,1,0,1.27,5.47,5.47,0,0,1-.2-1.25l-.36-3.6c-.3-3.13-.63-7.66-1-13.26-.76-11.2-1.59-26.7-2.31-43.82S178.33,470.26,178,459l-.27-13.3v-3.62A5.46,5.46,0,0,1,177.83,440.86Z"/><path d="M150.87,451.89s-4.87,14.29-5.73,16.22c0,0-12,34.72-15.93,58.17l38.4-69.35C167.94,457,151.38,452,150.87,451.89Z"/><path d="M169.78,447.7a4.15,4.15,0,0,1-.44,1l-1.46,2.78c-1.3,2.4-3.23,5.84-5.7,10-4.88,8.44-12.22,19.74-19.64,32.59-3.71,6.42-6.85,12.77-9.58,18.58s-4.09,11.49-3.74,16.3a26.18,26.18,0,0,0,3,10.91c1.27,2.39,2.33,3.49,2.23,3.57s-.29-.24-.78-.78a18.62,18.62,0,0,1-1.83-2.57A25.32,25.32,0,0,1,128.44,529c-.47-5,.9-10.88,3.59-16.76s5.82-12.25,9.55-18.71c7.45-12.9,14.89-24.12,19.93-32.44l6-9.85,1.64-2.68A4.16,4.16,0,0,1,169.78,447.7Z"/><path d="M406.37,483.16,376.6,463.69l-18.78,32.54s-26-36.2-37.87-57.41c-10.89-19.52-25-24.78-31.77-26.19a3,3,0,0,0-3.61,3.29l10.27,70.39c1.29,3.66,22.78,34.81,34.78,50.48,20,26.16,49.56,9.42,57.66-8.89C393.71,513.37,403.73,491.3,406.37,483.16Z"/><path d="M366.38,525.6c-.16,0-.34-1.78-.57-4.64a88.83,88.83,0,0,0-1.44-11.08,36.61,36.61,0,0,0-3.8-10.39c-1.4-2.48-2.59-3.82-2.45-3.94s1.5,1.08,3.12,3.53a31.06,31.06,0,0,1,4.21,10.56,59.33,59.33,0,0,1,1.14,11.28C366.62,523.81,366.52,525.6,366.38,525.6Z"/><path d="M375.09,511.06c-.18,0-.32-1.51-1.06-3.81a21,21,0,0,0-4.76-8c-2.51-2.66-5.56-4.28-7.91-4.33a11.16,11.16,0,0,0-3.77.66c-.11-.06,1.14-1.35,3.78-1.44s6.07,1.54,8.7,4.35a18.88,18.88,0,0,1,4.72,8.53C375.35,509.49,375.21,511.06,375.09,511.06Z"/><path d="M286.24,421.33a4.15,4.15,0,0,1-.71.83l-.92.94-1.14,1.37a29.08,29.08,0,0,0-5.15,10,39.13,39.13,0,0,0-1.13,16.62,36.75,36.75,0,0,0,2.56,9.52,103.8,103.8,0,0,0,4.81,9.56C291.84,483,299.34,494,304.77,502l6.53,9.39a35.39,35.39,0,0,1,2.36,3.47,4.08,4.08,0,0,1-.75-.79c-.46-.54-1.13-1.35-2-2.42-1.68-2.13-4-5.27-6.83-9.2-5.6-7.89-13.21-18.9-20.53-31.76a100.75,100.75,0,0,1-4.85-9.68,37.19,37.19,0,0,1-2.57-9.8,39,39,0,0,1,1.39-17,27.87,27.87,0,0,1,5.57-10l1.23-1.33,1-.87A4,4,0,0,1,286.24,421.33Z"/><g class="cls-11"><path d="M253,576.16c9.49-4.33,17-14.26,17.26-24.3.07-2.7-.41-5.62-2.33-7.52-2.81-2.77-7.55-2.26-11-.42-5.75,3-9.51,8.69-13.55,13.78s-9.17,10.09-15.63,10.7c-2.77.26-5.55-.32-8.31-.62s-5.71-.31-8.17,1-4.24,4.26-3.37,6.91c0,0,11.37,7.07,23.23,6.23A67,67,0,0,0,253,576.16Z"/></g><text class="cls-12" transform="translate(150.98 232.08)">WEB</text><path d="M622.37,514.93l-.45.2-.81.38c-.53.25-1,.5-1.5.75q-1.44.77-2.79,1.58a60.24,60.24,0,0,0-5.15,3.51,69.07,69.07,0,0,0-9.07,8.2,76.84,76.84,0,0,0-7.5,9.48,85.64,85.64,0,0,0-5.9,10.41,93,93,0,0,0-4.38,11c-.56,1.87-1.19,3.74-1.63,5.63l-.72,2.83-.6,2.85a119.43,119.43,0,0,0-2,14.08l.32-17.89A87.44,87.44,0,0,1,583.92,555c2.68-7.58,6.61-16.35,11-25.83,3.57-7.75,6.61-14.58,9.43-20.1s5.57-9.59,7.81-11.74c-2.21,2.14-6.36,4.89-10.86,9.54A68.84,68.84,0,0,0,588.05,526a92.08,92.08,0,0,0-7.58,26.47l.68-38.58a34.71,34.71,0,0,1,3.63-7.63c2.62-4.33,6.22-9.11,9.85-14.62a96.76,96.76,0,0,0,6.81-12.51,62.29,62.29,0,0,1,4.18-8.16c-1.13,1.61-3.92,3.26-7.12,5.81a45.46,45.46,0,0,0-10.16,10.73,47.91,47.91,0,0,0-7,17.15l.26-14.77c1.16-6.79,3.53-17,3.74-28.9.22-12.72-3.37-22.3-3.29-26.79-.08,4.49-4,13.94-4.24,26.66-.21,11.88,1.8,22.19,2.72,29L580.22,506a103,103,0,0,0-7.21-29.3,81.28,81.28,0,0,0-13.22-21.42,104,104,0,0,0-11.2-10.94c2.52,2.28,5.24,6.88,8,13s5.83,13.7,9.43,22.27c4.32,10.52,8.09,20.23,10.61,28.6a92.57,92.57,0,0,1,3.27,14.32l-.44,24.84q-.41-4.63-1.13-9.18a148.66,148.66,0,0,0-4.62-20A171.37,171.37,0,0,0,566.67,499c-1.36-3.13-2.87-6.22-4.47-9.3a88.71,88.71,0,0,0-5.65-9.3,15.35,15.35,0,0,1,2.55,11.16,30.2,30.2,0,0,1-1.25,5.3c-.58,1.7-1.24,3.32-1.88,4.82a5.78,5.78,0,0,0-.11,5.21,12.22,12.22,0,0,0,3.19,3.67c2.48,2.23,5.12,4.33,3.2,7.32s-4.12,5.74-4,9a9.54,9.54,0,0,0,2.13,5.5c1.42,2.1,3.84,4.49,7.26,7.59a41.77,41.77,0,0,1,5.63,6.2,52.08,52.08,0,0,1,3.87,6.17c1,1.9,1.64,3.57,2.12,4.75l.06.14-.5,28.41c-.09-.64-2.91-18.6-13.37-28.69-9.83-9.48-19.11-12.61-21.54-14,2.45,1.41,16.22,19,20.71,25.11,6.93,9.36,14.14,11.43,13.91,24.23v0l.57,1.05.68-1.6a17.38,17.38,0,0,1,.93-3.26,21.88,21.88,0,0,1,3-5.13,32.83,32.83,0,0,1,4-4.14c1.46-1.22,2.95-2.3,4.34-3.28a6.78,6.78,0,0,0,3.2-4.62,16.09,16.09,0,0,0-.25-5.24c-.13-.89-.28-1.78-.38-2.63a10.65,10.65,0,0,1,0-2.42,3.82,3.82,0,0,1,2.69-3.33c3.44-1.22,7-1.87,9.23-4.39a8.06,8.06,0,0,0,1.49-2.28,15,15,0,0,0,1.08-3.26c.57-2.6.9-6,1.42-10.89A34.54,34.54,0,0,1,616.8,521c2.82-4,5.7-6.2,6.18-6.37Z"/><path d="M114.37,526.93l-.45.2-.81.38c-.53.25-1,.5-1.5.75q-1.44.77-2.79,1.58a60.24,60.24,0,0,0-5.15,3.51,69.07,69.07,0,0,0-9.07,8.2,76.84,76.84,0,0,0-7.5,9.48,85.64,85.64,0,0,0-5.9,10.41,93,93,0,0,0-4.38,11c-.56,1.87-1.19,3.74-1.63,5.63l-.72,2.83-.6,2.85a119.43,119.43,0,0,0-2,14.08l.32-17.89A87.44,87.44,0,0,1,75.92,567c2.68-7.58,6.61-16.35,11-25.83,3.57-7.75,6.61-14.58,9.43-20.1s5.57-9.59,7.81-11.74c-2.21,2.14-6.36,4.89-10.86,9.54A68.84,68.84,0,0,0,80.05,538a92.08,92.08,0,0,0-7.58,26.47l.68-38.58a34.71,34.71,0,0,1,3.63-7.63c2.62-4.33,6.22-9.11,9.85-14.62a96.76,96.76,0,0,0,6.81-12.51A62.29,62.29,0,0,1,97.62,483c-1.13,1.61-3.92,3.26-7.12,5.81A45.46,45.46,0,0,0,80.34,499.5a47.91,47.91,0,0,0-7,17.15l.26-14.77c1.16-6.79,3.53-17,3.74-28.9.22-12.72-3.37-22.3-3.29-26.79-.08,4.49-4,13.94-4.24,26.66-.21,11.88,1.8,22.19,2.72,29L72.22,518A103,103,0,0,0,65,488.66a81.28,81.28,0,0,0-13.22-21.42,104,104,0,0,0-11.2-10.94c2.52,2.28,5.24,6.88,8,13s5.83,13.7,9.43,22.27c4.32,10.52,8.09,20.23,10.61,28.6a92.57,92.57,0,0,1,3.27,14.32l-.44,24.84q-.41-4.63-1.13-9.18a148.66,148.66,0,0,0-4.62-20A171.37,171.37,0,0,0,58.67,511c-1.36-3.13-2.87-6.22-4.47-9.3a88.71,88.71,0,0,0-5.65-9.3,15.35,15.35,0,0,1,2.55,11.16,30.2,30.2,0,0,1-1.25,5.3c-.58,1.7-1.24,3.32-1.88,4.82a5.78,5.78,0,0,0-.11,5.21,12.22,12.22,0,0,0,3.19,3.67c2.48,2.23,5.12,4.33,3.2,7.32s-4.12,5.74-4,9a9.54,9.54,0,0,0,2.13,5.5c1.42,2.1,3.84,4.49,7.26,7.59a41.77,41.77,0,0,1,5.63,6.2,52.08,52.08,0,0,1,3.87,6.17c1,1.9,1.64,3.57,2.12,4.75l.06.14-.5,28.41c-.09-.64-2.91-18.6-13.37-28.69-9.83-9.48-19.11-12.61-21.54-14,2.45,1.41,16.22,19,20.71,25.11,6.93,9.36,14.14,11.43,13.91,24.23v0l.57,1.05.68-1.6a17.38,17.38,0,0,1,.93-3.26,21.88,21.88,0,0,1,3-5.13,32.83,32.83,0,0,1,4-4.14c1.46-1.22,2.95-2.3,4.34-3.28a6.78,6.78,0,0,0,3.2-4.62,16.09,16.09,0,0,0-.25-5.24c-.13-.89-.28-1.78-.38-2.63a10.65,10.65,0,0,1,0-2.42,3.82,3.82,0,0,1,2.69-3.33c3.44-1.22,7-1.87,9.23-4.39a8.06,8.06,0,0,0,1.49-2.28,15,15,0,0,0,1.08-3.26c.57-2.6.9-6,1.42-10.89A34.54,34.54,0,0,1,108.8,533c2.82-4,5.7-6.2,6.18-6.37Z"/></g></svg>