<svg id="Layer_1" data-name="Layer 1" xmlns="http://www.w3.org/2000/svg" viewBox="0 0 256 256"><defs><style>.cls-1,.cls-3{opacity:0.5;}.cls-2,.cls-3{fill:#fff;}</style></defs><title>web development icons</title><g class="cls-1"><path class="cls-2" d="M83.69,20.29V41.41L68.85,20.29h-5.2V54.92h6.83V33.74L85.32,54.92h5.2V20.29Z"/><path class="cls-2" d="M113.32,55.61a18,18,0,1,0-18-18A17.89,17.89,0,0,0,113.32,55.61Zm0-6.68A11,11,0,0,1,102.14,37.6a11.18,11.18,0,1,1,22.37,0A11,11,0,0,1,113.32,48.94Z"/><path class="cls-2" d="M149.89,20.29H136.13V54.92h13.76c9.55,0,16.68-7.57,16.68-17.32S159.44,20.29,149.89,20.29Zm0,28.11H143V26.82h6.93c6,0,10.14,4.4,10.14,10.79S155.88,48.39,149.89,48.39Z"/><path class="cls-2" d="M178.23,48.39V40.62h13.11V34.19H178.23V26.82h14.35V20.29H171.41V54.92h21.43V48.39Z"/></g><path class="cls-3" d="M137.14,185.12c10.65,0,18.15-5.72,18.15-15.08,0-10.22-8.43-12.86-16.37-15.37-7.58-2.29-9.51-3.93-9.51-7,0-2.86,2.43-5,6.58-5,5.07,0,7.79,2.64,9.58,6.43l8.29-4.79A19,19,0,0,0,136,133.09c-8.58,0-16.44,5.43-16.44,14.87s7.43,12.72,15.08,14.94c7.43,2.14,10.79,3.57,10.79,7.29,0,2.79-2.07,5.29-8,5.29-6.22,0-9.72-3-11.51-7.65l-8.43,4.93C120.2,180.19,126.92,185.12,137.14,185.12Z"/><path class="cls-2" d="M118.16,80a13.74,13.74,0,0,1,13.74,0l57.22,33A13.74,13.74,0,0,1,196,125V191a13.74,13.74,0,0,1-6.87,11.9l-57.09,33a13.75,13.75,0,0,1-14.08-.2l-13.68-8.42,5.76-9.36,13.68,8.42a2.75,2.75,0,0,0,2.82,0l57.09-33A2.75,2.75,0,0,0,185,191V125a2.75,2.75,0,0,0-1.37-2.38l-57.22-33a2.75,2.75,0,0,0-2.75,0l-57.22,33A2.75,2.75,0,0,0,65.06,125v66.09a2.75,2.75,0,0,0,1.37,2.38l16,9.3-5.52,9.51-16-9.3,2.76-4.75-2.76,4.75a13.74,13.74,0,0,1-6.84-11.88V125a13.74,13.74,0,0,1,6.87-11.9Z"/><path class="cls-3" d="M108,133.27v61.16a20.69,20.69,0,0,1-20.62,20.76,20.45,20.45,0,0,1-11.27-3.37l6-9.18a9.45,9.45,0,0,0,5.22,1.56A9.69,9.69,0,0,0,97,194.43V133.27Z"/></svg>