<svg id="Layer_1" data-name="Layer 1" xmlns="http://www.w3.org/2000/svg" viewBox="0 0 256 256"><defs><style>.cls-1,.cls-2,.cls-3{fill:none;stroke-miterlimit:10;}.cls-1{stroke:#1d243d;}.cls-1,.cls-3{stroke-width:14px;}.cls-1,.cls-4{opacity:0.5;}.cls-2{stroke:#fff;stroke-width:15px;}.cls-3{stroke:#5466ff;}.cls-4{fill:#8d919d;}</style></defs><title>web development icons</title><path class="cls-1" d="M216.55,204.63H35.45A7.38,7.38,0,0,1,28.17,199,7,7,0,0,1,32,191c.73-.47,6.21-4.3,11.7-15.9,10.08-21.29,12.19-51.28,12.19-72.7a70.06,70.06,0,0,1,140.13-.28c0,.09,0,.19,0,.28,0,21.41,2.12,51.4,12.19,72.7,5.49,11.59,11,15.43,11.7,15.9a7,7,0,0,1,3.88,8A7.38,7.38,0,0,1,216.55,204.63ZM220,191h0Z"/><path class="cls-2" d="M126,32.3a70.14,70.14,0,0,1,70.06,69.79c0,.09,0,.19,0,.28"/><path class="cls-3" d="M126,49a53.84,53.84,0,0,1,53.78,53.57c0,.07,0,.14,0,.21"/><circle class="cls-4" cx="126" cy="233.5" r="12.5"/><path class="cls-3" d="M126,18.06a84.77,84.77,0,0,1,84.68,84.34c0,.11,0,.22,0,.34"/></svg>