<svg id="Layer_1" data-name="Layer 1" xmlns="http://www.w3.org/2000/svg" viewBox="0 0 256 256"><defs><style>.cls-1,.cls-2{fill:#8d919d;}.cls-2{opacity:0.5;}.cls-3{fill:#5466ff;}</style></defs><title>web development icons</title><path class="cls-1" d="M238,85.12v45.45a1.84,1.84,0,0,1-.49,1.26c-7.7,8.09-17.16,2.76-17.16-4.78V77.82a28,28,0,0,0-28-28H57.66a28,28,0,0,0-28,28v86.11a28,28,0,0,0,28,28h66a1.84,1.84,0,0,1,1.26.49c8.09,7.7,2.76,17.16-4.78,17.16H57.66A45.67,45.67,0,0,1,12,163.93V77.82A45.67,45.67,0,0,1,57.66,32.15H185a53,53,0,0,1,53,53Zm-8.84,131.1"/><path class="cls-2" d="M202.45,96.36a1.84,1.84,0,0,0,.71-1.16c1.76-11-8.22-15.32-14.21-10.75l-42.53,32.45a35.4,35.4,0,0,1-42.83,0L58.7,82.67a1.84,1.84,0,0,0-1.3-.38c-11.11,1.22-12.6,12-6.61,16.55l42.09,32.1a53.1,53.1,0,0,0,64.25,0Z"/><path class="cls-3" d="M234.17,176.91,229.06,180a32.53,32.53,0,0,1,0,19.82l7.72,4.63a1.62,1.62,0,0,1,.73.95c2,7.29-2.53,11.73-7.29,11.73a7.63,7.63,0,0,1-3.94-1.09l-5.2-3.12a32.56,32.56,0,0,1-15.38,8.66v9.72a1.59,1.59,0,0,1-.43,1.1c-6.69,7-14.9,2.4-14.9-4.15v-6.67a32.57,32.57,0,0,1-15.66-9L169,216a7.63,7.63,0,0,1-3.94,1.09c-4.76,0-9.3-4.44-7.3-11.72a1.62,1.62,0,0,1,.73-.95l8.36-5a32.57,32.57,0,0,1,0-19l-8.37-5a1.59,1.59,0,0,1-.72-.93c-2.58-9.35,5.61-14,11.23-10.64l5.69,3.41a32.57,32.57,0,0,1,15.66-9V148.5a1.59,1.59,0,0,1,.43-1.1c6.69-7,14.9-2.4,14.9,4.15v6.67a32.56,32.56,0,0,1,15.38,8.66l7.82-4.69a1.6,1.6,0,0,1,1.16-.2c9.47,2.12,9.72,11.54,4.11,14.91ZM212,200.6c11-17.25-7.41-35.64-24.66-24.66a10.48,10.48,0,0,0-3.2,3.2c-11,17.25,7.41,35.64,24.66,24.66A10.48,10.48,0,0,0,212,200.6Z"/></svg>