<svg id="Layer_1" data-name="Layer 1" xmlns="http://www.w3.org/2000/svg" viewBox="0 0 256 256"><defs><style>.cls-1{fill:none;stroke:#1d243d;stroke-miterlimit:10;stroke-width:7px;opacity:0.5;isolation:isolate;}.cls-2{fill:#5466ff;}</style></defs><title>web development icons</title><path class="cls-1" d="M70.32,22.8c23.4-13.34,69.54,22.3,103.05,79.62s41.7,114.59,18.3,127.93S122.13,208,88.62,150.73,46.92,36.14,70.32,22.8Z"/><path class="cls-1" d="M7.78,123.12c-.06-26.94,53.71-49.48,120.1-50.35S248.13,93,248.18,120s-53.71,49.48-120.1,50.35S7.84,150.06,7.78,123.12Z"/><path class="cls-1" d="M199.4,35.9c21.49,16.24,6.95,72.7-32.5,126.1S78.06,245.54,56.57,229.3s-6.95-72.7,32.5-126.1S177.9,19.66,199.4,35.9Z"/><circle class="cls-2" cx="130.54" cy="124.02" r="12.2"/></svg>