<svg id="Layer_1" data-name="Layer 1" xmlns="http://www.w3.org/2000/svg" viewBox="0 0 256 256"><defs><style>.cls-1{fill:#5466ff;}.cls-2{fill:#1d243d;opacity:0.5;isolation:isolate;}</style></defs><title>web development icons</title><path class="cls-1" d="M57.29,142.5H78.38a18.8,18.8,0,0,1,13.85,5.57,19,19,0,0,1,0,27.06,18.8,18.8,0,0,1-13.85,5.57H70v17.51H57.29ZM70,168.76h8.36a6.32,6.32,0,0,0,4.86-2.07,7.75,7.75,0,0,0,0-10.19,6.32,6.32,0,0,0-4.86-2.07H70Z"/><path class="cls-1" d="M132.89,163.83V142.5h12.73v55.71H132.89V176.08H115.38v22.13H102.65V142.5h12.73v21.33Z"/><path class="cls-1" d="M153.6,142.5h21.09a18.8,18.8,0,0,1,13.85,5.57,19,19,0,0,1,0,27.06,18.8,18.8,0,0,1-13.85,5.57h-8.36v17.51H153.6Zm12.73,26.26h8.36a6.32,6.32,0,0,0,4.86-2.07,7.75,7.75,0,0,0,0-10.19,6.32,6.32,0,0,0-4.86-2.07h-8.36Z"/><path class="cls-2" d="M224.88,68.86,181.14,25.71a13.84,13.84,0,0,0-9.72-4H42.14A20.76,20.76,0,0,0,21.37,42.49v173a20.76,20.76,0,0,0,20.76,20.76h166.1A20.76,20.76,0,0,0,229,215.51V78.71A13.84,13.84,0,0,0,224.88,68.86Zm-16,4.77H177.09V41.89Zm-.59,148.8H42.14a6.92,6.92,0,0,1-6.92-6.92v-173a6.92,6.92,0,0,1,6.92-6.92H163.25V87.47h51.91v128A6.92,6.92,0,0,1,208.24,222.43Z"/></svg>