<svg id="Layer_1" data-name="Layer 1" xmlns="http://www.w3.org/2000/svg" viewBox="0 0 256 256"><defs><style>.cls-1,.cls-3{fill:#8d919d;}.cls-2{fill:#5466ff;}.cls-3{stroke:#8d919d;stroke-miterlimit:10;stroke-width:5px;opacity:0.5;}</style></defs><title>web development icons</title><path class="cls-1" d="M182.74,23.58H59.26A40.26,40.26,0,0,0,19,63.84V144.3a40.25,40.25,0,0,0,40.25,40.25H182.74A40.26,40.26,0,0,0,223,144.29V63.84A40.26,40.26,0,0,0,182.74,23.58Zm24.32,120.71a24.32,24.32,0,0,1-24.32,24.32H59.25A24.31,24.31,0,0,1,34.94,144.3V63.84A24.32,24.32,0,0,1,59.26,39.52H182.74a24.32,24.32,0,0,1,24.32,24.32Zm-47.7-25.54-5.31-3.19a33.82,33.82,0,0,0,0-20.6l8.35-5a.74.74,0,0,0,.32-.42c3-10-5.66-15-11.57-11.42l-5.41,3.24a33.86,33.86,0,0,0-16-9V61.86a.74.74,0,0,0-.19-.49c-7-7.7-15.75-2.85-15.75,4v6.93a33.86,33.86,0,0,0-16.28,9.31l-8.94-5.36a.8.8,0,0,0-.56-.1c-10.18,2.05-10.52,12-4.61,15.58l6,3.59a33.86,33.86,0,0,0,0,19.8l-9,5.41a.76.76,0,0,0-.33.43c-2.34,7.79,2.46,12.55,7.48,12.55a7.93,7.93,0,0,0,4.09-1.14l5.91-3.55a33.86,33.86,0,0,0,16.28,9.31v10.48a.74.74,0,0,0,.19.49c7,7.7,15.75,2.85,15.75-4v-6.93a33.85,33.85,0,0,0,16-9l5.41,3.24a8,8,0,0,0,8.2-13.67Zm-26.26.89c-18,11.67-37.36-7.66-25.69-25.69a10.38,10.38,0,0,1,3.07-3.07c18-11.67,37.36,7.66,25.69,25.69A10.38,10.38,0,0,1,133.11,119.64Z"/><path class="cls-2" d="M159.37,118.74l-5.31-3.19a33.82,33.82,0,0,0,0-20.6l8.35-5a.74.74,0,0,0,.32-.42c3-10-5.66-15-11.57-11.42l-5.41,3.24a33.86,33.86,0,0,0-16-9V61.86a.74.74,0,0,0-.19-.49c-7-7.7-15.75-2.85-15.75,4v6.93a33.86,33.86,0,0,0-16.28,9.31l-8.94-5.36a.8.8,0,0,0-.56-.1c-10.18,2.05-10.52,12-4.61,15.58l6,3.59a33.86,33.86,0,0,0,0,19.8l-9,5.41a.76.76,0,0,0-.33.43c-2.34,7.79,2.46,12.55,7.48,12.55a7.93,7.93,0,0,0,4.09-1.14l5.91-3.55a33.86,33.86,0,0,0,16.28,9.31v10.48a.74.74,0,0,0,.19.49c7,7.7,15.75,2.85,15.75-4v-6.93a33.85,33.85,0,0,0,16-9l5.41,3.24a8,8,0,0,0,8.2-13.67Zm-26.26.89c-18,11.67-37.36-7.66-25.69-25.69a10.38,10.38,0,0,1,3.07-3.07c18-11.67,37.36,7.66,25.69,25.69A10.38,10.38,0,0,1,133.11,119.64Z"/><path class="cls-3" d="M163.29,218.23a.74.74,0,0,1-.49.19H79.2a.74.74,0,0,1-.49-.19c-7.7-7-2.85-15.75,4-15.75h76.5C166.14,202.48,171,211.23,163.29,218.23Z"/></svg>