<svg id="Layer_1" data-name="Layer 1" xmlns="http://www.w3.org/2000/svg" viewBox="0 0 256 256"><defs><style>.cls-1{fill:#8d919d;}.cls-2{fill:#5466ff;}.cls-3{opacity:0.5;}</style></defs><title>web development icons</title><path class="cls-1" d="M97,221H70.17a16,16,0,0,1-16-16V63.87a16,16,0,0,1,16-16h98.54a16,16,0,0,1,16,16v49.29a8,8,0,1,0,16,0V63.87a32.1,32.1,0,0,0-32.06-32.06H70.17A32.1,32.1,0,0,0,38.11,63.87V204.94A32.1,32.1,0,0,0,70.17,237H97a8,8,0,0,0,0-16Z"/><path class="cls-2" d="M209,153.79a20.6,20.6,0,0,0-29.09,0l-37.65,37.57a6.86,6.86,0,0,0-1.72,2.86l-8.2,27a6.86,6.86,0,0,0,8.39,8.6l27.68-7.67a6.86,6.86,0,0,0,3-1.76L209,182.88A20.6,20.6,0,0,0,209,153.79ZM163,209.4l-13.93,3.86,4.08-13.42,25.41-25.35,9.7,9.7Zm36.29-36.22L198,174.51l-9.7-9.7,1.32-1.32a6.86,6.86,0,0,1,9.7,9.69Z"/><g class="cls-3"><path class="cls-1" d="M168.71,120a8,8,0,0,0-8-8H78.14a8,8,0,0,0,0,16h82.56A8,8,0,0,0,168.71,120Z"/><path class="cls-1" d="M78.14,144a8,8,0,0,0,0,16h50.14a8,8,0,0,0,0-16Z"/><path class="cls-1" d="M160.69,79.9H78.14a8,8,0,0,0,0,16h82.56a8,8,0,1,0,0-16Z"/></g></svg>