<svg id="Layer_1" data-name="Layer 1" xmlns="http://www.w3.org/2000/svg" viewBox="0 0 256 256"><defs><style>.cls-1{fill:none;stroke:#1d243d;stroke-width:14px;}.cls-1,.cls-4{stroke-miterlimit:10;}.cls-1,.cls-3{opacity:0.5;}.cls-2{fill:#5466ff;}.cls-4{fill:#8d919d;stroke:#8d919d;stroke-width:5px;}</style></defs><title>web development icons</title><path class="cls-1" d="M224.58,48.24a19.85,19.85,0,0,0-19.83-19.83H51.82A19.85,19.85,0,0,0,32,48.24V201.18A19.85,19.85,0,0,0,51.82,221H204.76a19.85,19.85,0,0,0,19.83-19.82Z"/><path class="cls-2" d="M194.64,55.59l-35-1.49a3.76,3.76,0,0,0-3.91,3.59l-.13,3.18a3.72,3.72,0,0,0,1,2.69,3.8,3.8,0,0,0,2.62,1.24l20.43.89-33.8,31a3.66,3.66,0,0,0-.23,5.22l2.15,2.34a3.8,3.8,0,0,0,5.33.33L187,73.48l-.91,20.6A3.72,3.72,0,0,0,189.68,98l3.17.13a3.76,3.76,0,0,0,3.91-3.59l1.49-35a3.78,3.78,0,0,0-3.6-3.92Z"/><g class="cls-3"><path class="cls-4" d="M63.69,191.32l31.46.68a2.74,2.74,0,0,0,2.79-2.68L98,187a2.74,2.74,0,0,0-2.68-2.79l-26.41-.57.57-26.44a2.74,2.74,0,0,0-2.68-2.79l-2.32,0A2.74,2.74,0,0,0,61.68,157L61,188.52a2.76,2.76,0,0,0,2.68,2.8Z"/></g></svg>