<svg id="Layer_1" data-name="Layer 1" xmlns="http://www.w3.org/2000/svg" viewBox="0 0 256 256"><defs><style>.cls-1,.cls-3{fill:#8d919d;}.cls-2{opacity:0.5;}.cls-3{stroke:#8d919d;stroke-miterlimit:10;stroke-width:5px;}.cls-4{fill:#5466ff;}</style></defs><title>web development icons</title><path class="cls-1" d="M124,196.89a50.69,50.69,0,0,1-50.63-50.63,11.68,11.68,0,1,0-23.37,0,74.08,74.08,0,0,0,74,74,11.68,11.68,0,0,0,0-23.37Z"/><g class="cls-2"><path class="cls-3" d="M186.32,134.58a11.68,11.68,0,0,0-11.68,11.68,50.8,50.8,0,0,1-21.17,41.19,11.68,11.68,0,0,0,13.62,19A74.22,74.22,0,0,0,198,146.26,11.68,11.68,0,0,0,186.32,134.58Z"/></g><path class="cls-4" d="M147.37,134.58a11.68,11.68,0,0,0-11.68,11.68,11.68,11.68,0,1,1-23.37,0V133.8a11.68,11.68,0,1,0-23.37,0v12.46a35.05,35.05,0,0,0,70.11,0A11.68,11.68,0,0,0,147.37,134.58Z"/><path class="cls-1" d="M124,17.74a74.08,74.08,0,0,0-74,74v15.58a11.68,11.68,0,0,0,23.37,0V91.74a50.63,50.63,0,1,1,101.26,0v15.58a11.68,11.68,0,0,0,23.37,0V91.74A74.08,74.08,0,0,0,124,17.74Z"/><path class="cls-4" d="M124,56.69A35.09,35.09,0,0,0,88.95,91.74v7.79a11.68,11.68,0,0,0,23.37,0V91.74a11.68,11.68,0,1,1,23.37,0v23.37a11.68,11.68,0,0,0,23.37,0V91.74A35.09,35.09,0,0,0,124,56.69Z"/></svg>