<svg id="Layer_1" data-name="Layer 1" xmlns="http://www.w3.org/2000/svg" viewBox="0 0 256 256"><defs><style>.cls-1,.cls-3{opacity:0.5;}.cls-2,.cls-3{fill:#fff;}</style></defs><title>web development icons</title><g class="cls-1"><path class="cls-2" d="M47.94,107.57H41.83l-1.71-5.13H28.77l-1.71,5.13H21L31,79.08h7Zm-13.47-22L30.56,97.19h7.82Z"/><path class="cls-2" d="M59.8,108.14a12.75,12.75,0,0,1-7.08-1.87,10.22,10.22,0,0,1-4.11-5.17l4.8-2.81A6.4,6.4,0,0,0,60,102.64a5.89,5.89,0,0,0,3.42-.81,2.68,2.68,0,0,0-.2-4.52,19.93,19.93,0,0,0-4.8-1.83,21.18,21.18,0,0,1-5.9-2.65A6.84,6.84,0,0,1,49.79,87a7.52,7.52,0,0,1,2.73-6.15,9.89,9.89,0,0,1,6.63-2.32A10.87,10.87,0,0,1,69.32,84.9L64.6,87.62A5.69,5.69,0,0,0,59.15,84a4.24,4.24,0,0,0-2.73.81,2.43,2.43,0,0,0-1,2A2.66,2.66,0,0,0,56.5,89a16.46,16.46,0,0,0,4.31,1.79l2,.65q.53.16,1.83.69a7.92,7.92,0,0,1,1.79.85,7.16,7.16,0,0,1,2.69,2.52,7.5,7.5,0,0,1,1.06,4,7.62,7.62,0,0,1-2.89,6.27A11.53,11.53,0,0,1,59.8,108.14Z"/><path class="cls-2" d="M73.6,79.08H84.23a9.56,9.56,0,0,1,6.92,2.77,9.63,9.63,0,0,1,0,13.59,9.56,9.56,0,0,1-6.92,2.77h-5v9.36H73.6ZM79.22,93h5a4,4,0,0,0,3-1.22,4.36,4.36,0,0,0,1.18-3.09,4.27,4.27,0,0,0-1.18-3.09,4,4,0,0,0-3-1.22h-5Z"/><path class="cls-2" d="M99.82,104.64a3.47,3.47,0,1,1-1-2.44A3.33,3.33,0,0,1,99.82,104.64Z"/><path class="cls-2" d="M120.93,96.46V79.08h5.62v28.49h-4.27L110.06,90.15v17.42h-5.62V79.08h4.27Z"/><path class="cls-2" d="M137.45,95.81v6.39h12v5.37H131.83V79.08h17.42v5.37h-11.8v6.06h10.79v5.29Z"/><path class="cls-2" d="M151.3,79.08h21v5.37h-7.69v23.12H159V84.45H151.3Z"/></g><path class="cls-2" d="M89,190.67l.25-.47-.46-.27-6.47-3.83-.52-.31-.27.55a27.36,27.36,0,0,1-24.66,15c-8.94,0-16.3-3-21.93-9.11a33.88,33.88,0,0,1,0-44.93c5.62-6.1,13-9.11,21.93-9.11a27.36,27.36,0,0,1,24.66,15l.27.55.53-.32,6.47-3.94.46-.28-.25-.47a36.31,36.31,0,0,0-32.14-19.1c-11.21,0-20.55,3.88-27.87,11.66s-11,17.3-11,28.48,3.71,20.72,11,28.48,16.66,11.66,27.87,11.66A36.17,36.17,0,0,0,89,190.67Zm52,10.85h0a29,29,0,0,0,8.2-20.83,28.6,28.6,0,0,0-8.2-20.73,27.54,27.54,0,0,0-39.76,0c-5.44,5.58-8.09,12.5-8.09,20.73a29,29,0,0,0,8.09,20.83h0a27.79,27.79,0,0,0,39.76,0Zm-34-35.75h0a19.46,19.46,0,0,1,28.41,0h0a20.81,20.81,0,0,1,5.8,14.91,21.25,21.25,0,0,1-5.8,15,19.7,19.7,0,0,1-28.41,0,21.25,21.25,0,0,1-5.8-15A20.81,20.81,0,0,1,107,165.77Zm58.57-12.42v-.57h-8v55.79h8v-31c0-6.18,1.72-10.56,4.52-13.39s6.77-4.19,11.41-4.19h.57v-8.13h-.57a19.5,19.5,0,0,0-10.26,2.55,16.88,16.88,0,0,0-5.67,5.75ZM233.82,197l.28-.48-.47-.29-6.06-3.72-.52-.32-.28.54c-2.82,5.37-8.56,9-16.31,9a20.62,20.62,0,0,1-13.7-4.74,19.53,19.53,0,0,1-6.43-12.17h45.72l0-.52.06-.76c.08-1.08.15-2,.15-2.67A31,31,0,0,0,229,160.32c-4.81-5.93-11.24-8.84-19.13-8.84-8.19,0-14.81,2.79-20,8.38S182,172.36,182,180.69s2.65,15.47,7.88,20.94,12.07,8.26,20.46,8.26C220.68,209.89,229.12,205,233.82,197Zm-24-37.44a17.62,17.62,0,0,1,12,4.67c3.3,2.94,5.31,7.08,6.1,12.46H190.34C191.89,166.52,199.5,159.61,209.84,159.61Z"/><circle class="cls-3" cx="57.05" cy="170.88" r="9.05"/></svg>