<svg id="Layer_1" data-name="Layer 1" xmlns="http://www.w3.org/2000/svg" viewBox="0 0 256 256"><defs><style>.cls-1{fill:#8d919d;}.cls-2{fill:#5466ff;}</style></defs><title>web development icons</title><path class="cls-1" d="M214,88.81v76.44a8,8,0,0,1-15.93,0V96.78H182.15v23.89a8,8,0,0,1-15.93,0V96.78H89.78v23.89a8,8,0,0,1-15.93,0V96.78H57.93V221h84.41a8,8,0,1,1,0,15.93H50a8,8,0,0,1-8-8V88.81a8,8,0,0,1,8-8H74.23a54.15,54.15,0,0,1,107.54,0H206A8,8,0,0,1,214,88.81Zm-48.31-8a38.22,38.22,0,0,0-75.38,0Z"/><path class="cls-2" d="M214,212a8,8,0,0,1-8,8h-8v8a8,8,0,0,1-15.93,0v-8h-8a8,8,0,1,1,0-15.93h8v-8a8,8,0,0,1,15.93,0v8h8A8,8,0,0,1,214,212Z"/></svg>