<svg xmlns="http://www.w3.org/2000/svg" xmlns:xlink="http://www.w3.org/1999/xlink" viewBox="0 0 710 710"><defs><style>.cls-1{fill:none;}.cls-2{isolation:isolate;}.cls-3{clip-path:url(#clip-path);}.cls-11,.cls-4,.cls-6,.cls-7{fill:#fff;}.cls-12,.cls-5{fill:#5565ff;}.cls-5,.cls-6,.cls-7{stroke:#000;}.cls-11,.cls-5,.cls-6,.cls-7{stroke-miterlimit:10;}.cls-11,.cls-5,.cls-7{stroke-width:2px;}.cls-10,.cls-8{fill:#dce9ff;}.cls-10,.cls-11,.cls-8{opacity:0.9;}.cls-9{fill:#407bff;}.cls-10{mix-blend-mode:multiply;}.cls-11{stroke:#020202;}.cls-13{fill:#020202;opacity:0.5;}.cls-14{fill:#fafafa;}</style><clipPath id="clip-path"><circle class="cls-1" cx="355" cy="356" r="350"/></clipPath></defs><title>web devlopment process</title><g class="cls-2"><g id="Layer_1" data-name="Layer 1"><g class="cls-3"><circle class="cls-4" cx="355" cy="356" r="350"/><polygon points="223.22 331.9 229.61 370.12 213.25 391.47 206.19 335.27 223.22 331.9"/><path d="M194.15,478.82c-1.84,10-16.69,68-23.34,88.27l42.79.91c8-38.14,5.35-101.8.16-130.82l-20.72-.1C195.06,446.86,195.88,469.43,194.15,478.82Z"/><path class="cls-5" d="M193,438.36a40.18,40.18,0,0,0-.83-4.37l-64.8.19c.91,45.7,2.69,97.79,4.19,132.45l42.54-.58c6.64-28.6,18.18-54.63,20-68.73C195.88,484.06,195.06,452.18,193,438.36Z"/><path d="M171.19,279.77c-39.6-.37-65.4,7-69.72,32-4,22.86,24.75,93.63,24.75,122.25,0,0,45.23,25.45,87.68,4.64,0,0-5.34-32,1-58.84s14.83-42.29,7.64-61.57C216.28,301.37,190.09,280,171.19,279.77Z"/><path class="cls-6" d="M144.69,236v.25"/><path class="cls-7" d="M159.17,250.88S156,276.08,153.6,285s14.85,13.56,25.68,13.41c7.16-.1,20.37-3.41,11.2-11.11,0,0-5.14-4.29-.85-17.44C189.63,269.82,161.55,246.12,159.17,250.88Z"/><path d="M189.63,269.82s-13-11-22.08-16.5l-3.14,4.75c1.27,13.63,12.4,34,26.06,29.18C190.48,287.26,185.33,283,189.63,269.82Z"/><path class="cls-7" d="M162.64,244.59c-2.8-7.17-8.88-4.14-7.41,2.37,1.68,7.44,6.57,10.33,8.08,7.46,0,0,3.87,16.75,14.79,21.62s16.36-2.87,20.08-17.63c3.19-12.69,2.55-25.43,1.11-29.61-3.76-10.91-18.51-12.62-27.59-6.4C160.58,230,162.64,244.59,162.64,244.59Z"/><path d="M162.64,244.59c2,4,4.38,6.61,5.83,3.94s2.1-13.57,10.31-11,15.28,5.38,23.31-.76c10.38-7.93,3.81-24.51-7.59-21.26,0,0,1.11-7.74-7.9-5.54-8.25,2-7.7,3.54-15.84,1.06-4.69-1.43-20.37,10.39-14.49,30.32C156.27,241.39,159.59,238.3,162.64,244.59Z"/><rect x="-2.83" y="566.81" width="704.08" height="3.88"/><path class="cls-8" d="M271,232.86l-14.9,314.73,207.19,9.81,14.9-314.73Z"/><circle class="cls-9" cx="326.17" cy="293.48" r="35.93" transform="translate(17.59 605.4) rotate(-87.29)"/><circle class="cls-4" cx="326.17" cy="293.48" r="28.47" transform="translate(17.59 605.4) rotate(-87.29)"/><rect class="cls-9" x="286.54" y="344.52" width="66.02" height="14.84" transform="translate(17 -14.72) rotate(2.71)"/><rect class="cls-9" x="279.64" y="468.54" width="36.39" height="57.68" transform="translate(23.86 -13.53) rotate(2.71)"/><rect class="cls-9" x="408.28" y="474.63" width="36.39" height="57.68" transform="translate(24.29 -19.61) rotate(2.71)"/><rect class="cls-9" x="343.96" y="471.58" width="36.39" height="57.68" transform="translate(24.07 -16.57) rotate(2.71)"/><rect class="cls-9" x="361.18" y="347.55" width="44.66" height="14.84" transform="translate(17.22 -17.74) rotate(2.71)"/><rect class="cls-4" x="285.17" y="379.02" width="163.42" height="6.11" transform="translate(18.48 -16.92) rotate(2.71)"/><rect class="cls-4" x="284.6" y="390.05" width="81.26" height="6.11" transform="translate(18.96 -14.94) rotate(2.71)"/><rect class="cls-4" x="379.68" y="393.92" width="54.36" height="6.11" transform="translate(19.23 -18.8) rotate(2.71)"/><rect class="cls-4" x="283.96" y="404.2" width="130.64" height="6.11" transform="translate(19.65 -16.06) rotate(2.71)"/><rect class="cls-4" x="283.34" y="417.64" width="150.17" height="6.11" transform="translate(20.3 -16.48) rotate(2.71)"/><rect class="cls-4" x="282.8" y="427.48" width="17.35" height="6.11" transform="translate(20.69 -13.3) rotate(2.71)"/><rect class="cls-4" x="313.99" y="430.36" width="76.65" height="6.11" transform="translate(20.89 -16.18) rotate(2.71)"/><rect class="cls-4" x="282.1" y="443.91" width="163.42" height="6.11" transform="translate(21.55 -16.71) rotate(2.71)"/><path class="cls-10" d="M270.37,246.8,256.12,547.59l200.14,9.48,6.82-309.43Z"/><path class="cls-11" d="M250.89,248.47,246,568l208.29-1.83,4-315.06Z"/><circle class="cls-12" cx="308.1" cy="307.15" r="35.93" transform="translate(-2.95 611.31) rotate(-89.27)"/><circle class="cls-4" cx="308.1" cy="307.15" r="28.47" transform="translate(-2.95 611.31) rotate(-89.27)"/><rect class="cls-12" x="270.5" y="358.39" width="66.02" height="14.84" transform="translate(4.68 -3.83) rotate(0.73)"/><rect class="cls-12" x="268.64" y="483.07" width="36.39" height="57.68" transform="translate(6.54 -3.61) rotate(0.73)"/><rect class="cls-12" x="397.41" y="484.71" width="36.39" height="57.68" transform="translate(6.57 -5.25) rotate(0.73)"/><rect class="cls-12" x="333.02" y="483.89" width="36.39" height="57.68" transform="translate(6.55 -4.43) rotate(0.73)"/><rect class="cls-12" x="345.2" y="359.2" width="44.66" height="14.84" transform="translate(4.7 -4.65) rotate(0.73)"/><rect class="cls-13" x="270.14" y="391.23" width="163.42" height="6.11" transform="translate(5.05 -4.45) rotate(0.73)"/><rect class="cls-13" x="269.98" y="403.7" width="81.26" height="6.11" transform="translate(5.2 -3.92) rotate(0.73)"/><rect class="cls-4" x="365.14" y="404.74" width="54.36" height="6.11" transform="translate(5.22 -4.96) rotate(0.73)"/><rect class="cls-13" x="269.81" y="417.01" width="130.64" height="6.11" transform="translate(5.37 -4.23) rotate(0.73)"/><rect class="cls-13" x="269.65" y="430.12" width="150.17" height="6.11" transform="translate(5.54 -4.35) rotate(0.73)"/><rect class="cls-13" x="269.49" y="442.27" width="17.35" height="6.11" transform="translate(5.69 -3.5) rotate(0.73)"/><rect class="cls-13" x="300.74" y="443.04" width="76.65" height="6.11" transform="translate(5.7 -4.28) rotate(0.73)"/><rect class="cls-13" x="269.32" y="456.19" width="163.42" height="6.11" transform="translate(5.87 -4.43) rotate(0.73)"/><path class="cls-4" d="M530.18,294.37s-3.8,6.13-13.85,5.16c0,0-2.37-2.5-3-.61a5.84,5.84,0,0,0,1.59,6.66c2.39,2.05.39,11.73-1.44,12.09s10.59,6.42,13.87-4.53l2.25.34a62.9,62.9,0,0,1,.4-7.81C530.6,302.71,532.36,300.49,530.18,294.37Z"/><path d="M543.84,356.68c15.31-1.89,24.56-14.56,29.46-30.84-6.24-2.48-20.91-8.37-25-10.66-5.18-2.93-2.59-24.41-2.59-24.41l-28.47,6.56-1.08,20.92c-.1,2-9.7,4.93-18.69,7.5C505.46,347.39,523.89,359.14,543.84,356.68Z"/><path class="cls-7" d="M521,292.9l28.47,6.56.92,17.78c-11.53,7,31.86,29-16.54,43.49-23,6.88-27.37,7.81-37.18-33.2,6.24-2.48,17.7-7.94,21.74-10.23C523.55,314.38,521,292.9,521,292.9Z"/><path class="cls-7" d="M512.88,256.77c-5.42,9.32-6.55,41.91,7,45.63,11.82,3.24,19.07-8.07,19.07-8.07l1.11-21.6A15.81,15.81,0,0,1,533,260.55c-.4-6.66-4.28-7.56-4.28-7.56S520.25,257.42,512.88,256.77Z"/><path class="cls-7" d="M375,326.29c2.38-1.08,13.46-2.58,14.84-1.37s9.3,13.16,12.47,15.94,18.14,14.09,29.66,17.42c.46.13,2.28,1.58,2.7,1.8,1.85.93,2.25,1.61,4,3,4.11,3.14.78,4.4.22,7.26a9,9,0,0,1-14,5.69c-2-1.39-3.71-2.71-5-3.86,0,0-23.67-19.58-26.23-20-2.34-.36-4.8-2.53-6.91-4.37l-2.16-1.89a5.65,5.65,0,0,0-3.5-1.42,4.41,4.41,0,0,1-2.56-1.17l-.23-.2C375.52,340.74,372.58,327.36,375,326.29Z"/><path d="M494.85,326.65,452.1,365.79a3,3,0,0,1-3.77.67l-29.54-16.93a3,3,0,0,0-3.63.51l-10.29,9.41a3.55,3.55,0,0,0,.2,4.34,2.05,2.05,0,0,0,.56.54l42.18,27.75c.52.36,7.81,3.21,9.59,3.21l3.57-.89c1.13,0,18.21-14.15,18.72-15.15l17.83-15.15c.41-.8-3.21-4.52-3.57-5.35l1.78-8.91C498.41,343.58,495.1,326.35,494.85,326.65Z"/><path class="cls-7" d="M505.54,323.08c.89,25.85,0,31.2,9.81,32.09,10.69,1,42.79,8,40.11-30.31-.08-1.08,11-.09,12,.16,7.12,1.7,9.16,3.35,13.84,5.19,1.37.54-5.69-3.15-6.24-1.78-5,12.57-1.13,41.46-8.91,63.29C560,409,587,442,586,484v8c.53,5.22-5.06,61-9,75-.32,1.12-14.83.94-16,1H490c-1.19.06-6.59.12-7-1,0,0-1.42-10.47-1.48-12.27C480,500,484,476,489.76,455.44c5.44-19.43,12.55-29.1,6.87-51.24-3.76-14.66-16-23.18-6.24-45.46,5.57-12.65,2.94-29.45,4.46-31.2l4.46-1.78,6.24-2.67"/><path class="cls-7" d="M558,419a1.23,1.23,0,0,0-1.42-.67c-12.38,3.06-24.41,5.38-30.5,5.06-12.4-.64-26.77-11.21-38.36-4.08s-10.1,11-3.57,16,27.21-1.71,37.44.89a201.07,201.07,0,0,0,36.94,5C560.21,435,561,425.83,558,419Z"/><path d="M582.82,412.9c-9.17.42-22.88,3.32-35.38,6.45,3.49,6.86,3.55,15.72,1.78,22.29,20.75.75,44.29,1.58,48-4.31S602.94,412,582.82,412.9Z"/><path d="M566.18,310.43c-11-8.59,3.83-48-15.17-64.69-15.64-13.73-42.14-5.37-43.39,19l-3,58.36c0,1.79,11.51-3.29,11.59-4.81l.86-16.76,0-.38c-10.13-7.21-9.36-33.59-4.75-43.32a1.7,1.7,0,0,1,1.58-1c5.82.16,12-2.52,14.09-3.5a1.73,1.73,0,0,1,1.66.1c1.18.74,3,2.61,3.31,7.12a15.83,15.83,0,0,0,6.3,11.66,1.75,1.75,0,0,1,.7,1.49l-1.06,20.63c-1,20.28,2.7,42.7,14.19,44.53,10.38,1.65,21.35-3.91,30.62-4.27A1.73,1.73,0,0,0,585.2,332,79.13,79.13,0,0,0,566.18,310.43Z"/><path d="M581.3,327.43c-17.81-3.46-17.81,17-17.81,32.2,0,16.35,11.87,54.63,11.87,54.63l22,22.5C605.78,427.43,591.78,329.46,581.3,327.43Z"/><polygon class="cls-4" points="272.5 346.36 254.85 363.37 226.39 390.82 177.41 388.37 217.05 343.59 272.5 346.36"/><path class="cls-12" d="M261.21,345.79s12.16,5.29-.86,15.23-30.87,13.63-33.6,20.81,3.51,13.74,3.51,13.74l-39,1.69s-11.42-14.66-3.11-23.33,29.94-21.32,32.65-24.55-3.72-5.78-3.72-5.78Z"/><path class="cls-14" d="M225.11,351c0,.14,1.91.44,5,.77s7.46.7,12.25,1,9.14.36,12.29.29a21,21,0,0,0,5.08-.43,45.79,45.79,0,0,0-5.08-.2c-3.13-.09-7.46-.29-12.24-.55l-12.24-.7A35.47,35.47,0,0,0,225.11,351Z"/><ellipse class="cls-14" cx="237.54" cy="357.48" rx="0.45" ry="16.44" transform="translate(-130.79 577.83) rotate(-87.29)"/><path class="cls-14" d="M212.43,361.39a24,24,0,0,0,4.7.83c2.92.39,7,.82,11.44,1.17s8.55.54,11.49.61a24,24,0,0,0,4.77-.1,26.62,26.62,0,0,0-4.74-.53l-11.45-.87-11.45-.91A26.57,26.57,0,0,0,212.43,361.39Z"/><ellipse class="cls-14" cx="220.61" cy="368.93" rx="0.45" ry="14.11" transform="translate(-164.65 559.59) rotate(-85.45)"/><path class="cls-7" d="M221.76,382.24a14.35,14.35,0,0,0-8.24-8.17c-1.81-.52-10.57-.15-17.78,0a15.52,15.52,0,0,0-8,2c-2.27,1.43-3.69,4-5.09,4-2.56,0-27.29.18-27.29.18a93.18,93.18,0,0,0-14.72-8.9c-13.54-3.09-26.57,26.54-13.57,32.47,21.85,5.42,65-2.49,83.11-8.69a19.85,19.85,0,0,0,10-7.37C221.47,385.93,222.34,383.9,221.76,382.24Z"/><polygon points="255.26 343.14 253.41 345.64 253.41 345.64 233.98 344.33 235.33 342.14 255.26 343.14"/><path d="M96.5,464.3l-.6.26-1.08.5c-.71.33-1.35.67-2,1q-1.93,1-3.74,2.12a80.69,80.69,0,0,0-6.9,4.7,92.51,92.51,0,0,0-12.14,11,102.92,102.92,0,0,0-10,12.69,114.71,114.71,0,0,0-7.9,13.94,124.5,124.5,0,0,0-5.87,14.73c-.75,2.51-1.59,5-2.19,7.55l-1,3.8-.8,3.81a160,160,0,0,0-2.67,18.86l.42-24A117.12,117.12,0,0,1,45,518c3.59-10.16,8.85-21.9,14.68-34.6,4.78-10.39,8.86-19.52,12.63-26.93s7.46-12.84,10.45-15.73c-3,2.86-8.51,6.54-14.54,12.77a92.2,92.2,0,0,0-17.69,25.64,123.33,123.33,0,0,0-10.15,35.46l.91-51.67a46.49,46.49,0,0,1,4.86-10.22c3.51-5.8,8.33-12.21,13.19-19.58a129.6,129.6,0,0,0,9.12-16.76,83.43,83.43,0,0,1,5.6-10.93c-1.51,2.16-5.25,4.36-9.54,7.79a60.88,60.88,0,0,0-13.61,14.37,64.18,64.18,0,0,0-9.41,23l.35-19.79c1.55-9.1,4.73-22.8,5-38.71.3-17-4.52-29.86-4.41-35.88-.11,6-5.37,18.67-5.67,35.7-.28,15.91,2.41,29.72,3.64,38.87L40,452.29A138,138,0,0,0,30.38,413a108.86,108.86,0,0,0-17.71-28.69,139.3,139.3,0,0,0-15-14.65c3.37,3.05,7,9.22,10.77,17.39s7.81,18.35,12.63,29.83C26.85,431,31.91,444,35.27,455.24a124,124,0,0,1,4.37,19.19l-.59,33.27q-.55-6.2-1.52-12.3a199.12,199.12,0,0,0-6.19-26.78A229.54,229.54,0,0,0,21.89,443c-1.82-4.19-3.84-8.34-6-12.46A118.81,118.81,0,0,0,8.34,418c3.54,5,3.94,10.06,3.41,14.95a40.45,40.45,0,0,1-1.67,7.1c-.77,2.28-1.66,4.45-2.51,6.46-1.26,2.91-1.11,5.12-.15,7a16.36,16.36,0,0,0,4.27,4.92c3.32,3,6.85,5.8,4.28,9.81s-5.52,7.69-5.36,12.06a12.78,12.78,0,0,0,2.86,7.36c1.9,2.82,5.14,6,9.73,10.17a56,56,0,0,1,7.54,8.3,69.76,69.76,0,0,1,5.18,8.26c1.32,2.55,2.2,4.78,2.84,6.36l.08.19-.67,38c-.12-.85-3.89-24.91-17.91-38.43C7.08,507.87-5.35,503.68-8.6,501.8c3.28,1.89,21.72,25.5,27.74,33.63,9.28,12.54,18.93,15.31,18.63,32.46v0l.77,1.41.91-2.14a23.28,23.28,0,0,1,1.25-4.37,29.31,29.31,0,0,1,4.06-6.87,44,44,0,0,1,5.41-5.55c2-1.64,3.95-3.08,5.81-4.4a9.09,9.09,0,0,0,4.29-6.18c.46-2.21,0-4.64-.33-7-.18-1.19-.38-2.38-.51-3.53a14.27,14.27,0,0,1,.05-3.24,5.12,5.12,0,0,1,3.6-4.47c4.61-1.63,9.36-2.51,12.36-5.88a10.8,10.8,0,0,0,2-3.05,20.07,20.07,0,0,0,1.44-4.36c.77-3.48,1.21-8,1.9-14.58A46.26,46.26,0,0,1,89,472.5c3.78-5.37,7.64-8.31,8.28-8.53Z"/><path d="M717.5,464.3l-.6.26-1.08.5c-.71.33-1.35.67-2,1q-1.93,1-3.74,2.12a80.69,80.69,0,0,0-6.9,4.7,92.51,92.51,0,0,0-12.14,11,102.92,102.92,0,0,0-10,12.69,114.71,114.71,0,0,0-7.9,13.94,124.5,124.5,0,0,0-5.87,14.73c-.75,2.51-1.59,5-2.19,7.55l-1,3.8-.8,3.81a160,160,0,0,0-2.67,18.86l.42-24A117.12,117.12,0,0,1,666,518c3.59-10.16,8.85-21.9,14.68-34.6,4.78-10.39,8.86-19.52,12.63-26.93s7.46-12.84,10.45-15.73c-3,2.86-8.51,6.54-14.54,12.77a92.2,92.2,0,0,0-17.69,25.64,123.33,123.33,0,0,0-10.15,35.46l.91-51.67a46.49,46.49,0,0,1,4.86-10.22c3.51-5.8,8.33-12.21,13.19-19.58a129.6,129.6,0,0,0,9.12-16.76,83.43,83.43,0,0,1,5.6-10.93c-1.51,2.16-5.25,4.36-9.54,7.79a60.88,60.88,0,0,0-13.61,14.37,64.18,64.18,0,0,0-9.41,23l.35-19.79c1.55-9.1,4.73-22.8,5-38.71.3-17-4.52-29.86-4.41-35.88-.11,6-5.37,18.67-5.67,35.7-.28,15.91,2.41,29.72,3.64,38.87L661,452.29A138,138,0,0,0,651.38,413a108.86,108.86,0,0,0-17.71-28.69,139.3,139.3,0,0,0-15-14.65c3.37,3.05,7,9.22,10.77,17.39s7.81,18.35,12.63,29.83c5.78,14.09,10.84,27.1,14.21,38.31a124,124,0,0,1,4.37,19.19l-.59,33.27q-.55-6.2-1.52-12.3a199.12,199.12,0,0,0-6.19-26.78A229.54,229.54,0,0,0,642.89,443c-1.82-4.19-3.84-8.34-6-12.46A118.81,118.81,0,0,0,629.34,418c3.54,5,3.94,10.06,3.41,14.95a40.45,40.45,0,0,1-1.67,7.1c-.77,2.28-1.66,4.45-2.51,6.46-1.26,2.91-1.11,5.12-.15,7a16.36,16.36,0,0,0,4.27,4.92c3.32,3,6.85,5.8,4.28,9.81s-5.52,7.69-5.36,12.06a12.78,12.78,0,0,0,2.86,7.36c1.9,2.82,5.14,6,9.73,10.17a56,56,0,0,1,7.54,8.3,69.76,69.76,0,0,1,5.18,8.26c1.32,2.55,2.2,4.78,2.84,6.36l.08.19-.67,38c-.12-.85-3.89-24.91-17.91-38.43-13.17-12.7-25.6-16.89-28.85-18.77,3.28,1.89,21.72,25.5,27.74,33.63,9.28,12.54,18.93,15.31,18.63,32.46v0l.77,1.41.91-2.14a23.28,23.28,0,0,1,1.25-4.37,29.31,29.31,0,0,1,4.06-6.87,44,44,0,0,1,5.41-5.55c2-1.64,3.95-3.08,5.81-4.4a9.09,9.09,0,0,0,4.29-6.18c.46-2.21,0-4.64-.33-7-.18-1.19-.38-2.38-.51-3.53a14.27,14.27,0,0,1,.05-3.24,5.12,5.12,0,0,1,3.6-4.47c4.61-1.63,9.36-2.51,12.36-5.88a10.8,10.8,0,0,0,2-3.05,20.07,20.07,0,0,0,1.44-4.36c.77-3.48,1.21-8,1.9-14.58A46.26,46.26,0,0,1,710,472.5c3.78-5.37,7.64-8.31,8.28-8.53Z"/></g></g></g></svg>