<svg id="Layer_1" data-name="Layer 1" xmlns="http://www.w3.org/2000/svg" viewBox="0 0 256 256"><defs><style>.cls-1{fill:#5466ff;}.cls-2{opacity:0.5;}.cls-3{fill:#8d919d;}</style></defs><title>web development icons</title><path class="cls-1" d="M100.51,186.52H93.79a5.75,5.75,0,1,0,0,11.49h6.72a5.75,5.75,0,1,0,0-11.49Z"/><path class="cls-1" d="M136.45,186.52h-6.72a5.75,5.75,0,0,0,0,11.49h6.72a5.75,5.75,0,1,0,0-11.49Z"/><path class="cls-1" d="M172.39,186.52h-6.72a5.75,5.75,0,1,0,0,11.49h6.72a5.75,5.75,0,1,0,0-11.49Z"/><g class="cls-2"><path class="cls-3" d="M227.16,85.38,177,35.26,160.78,19a17.29,17.29,0,0,0-24.41,0L62.61,92.68H42.24A17.27,17.27,0,0,0,25,109.91v93.84A17.28,17.28,0,0,0,42.28,221H188a17.28,17.28,0,0,0,17.28-17.24V131.67l21.92-21.88C230.42,106.53,236.2,94.39,227.16,85.38ZM144.48,27.15a5.78,5.78,0,0,1,8.15,0l12.14,12.18L111.39,92.68H78.91ZM188,209.5H42.28a5.74,5.74,0,0,1-5.75-5.75V138.6H193.74v65.16h0A5.74,5.74,0,0,1,188,209.5Zm5.75-82.39H36.53v-17.2a5.74,5.74,0,0,1,5.75-5.75H188a5.74,5.74,0,0,1,5.75,5.75ZM219,101.64l-13.77,13.77v-5.5A17.28,17.28,0,0,0,188,92.68H127.65l45.27-45.23L219,93.53C222.35,96.83,220.11,100.58,219,101.64Z"/></g><path class="cls-3" d="M62.61,92.68H42.24A17.27,17.27,0,0,0,25,109.91v93.84A17.28,17.28,0,0,0,42.28,221H188a17.28,17.28,0,0,0,17.28-17.24V131.67l-.16-16.21c-1.63-18.74-5.22-13-14.26-22m-79.46-.78H78.91M188,209.5H42.28a5.74,5.74,0,0,1-5.75-5.75V138.6H193.74v65.16h0A5.74,5.74,0,0,1,188,209.5Zm5.75-82.39H36.53v-17.2a5.74,5.74,0,0,1,5.75-5.75H188a5.74,5.74,0,0,1,5.75,5.75Zm7.7-21.84,3.79,10.14v-5.5A17.28,17.28,0,0,0,188,92.68L130.54,93"/></svg>