<svg id="Layer_1" data-name="Layer 1" xmlns="http://www.w3.org/2000/svg" xmlns:xlink="http://www.w3.org/1999/xlink" viewBox="0 0 710 710"><defs><style>.cls-1{fill:none;}.cls-2{clip-path:url(#clip-path);}.cls-11,.cls-12,.cls-3{fill:#fff;}.cls-4{opacity:0.2;}.cls-5,.cls-7{fill:#5565ff;}.cls-17,.cls-5{fill-rule:evenodd;}.cls-6{fill:#fafafa;}.cls-8{opacity:0.3;}.cls-9{fill:#ff4f5b;}.cls-10,.cls-11,.cls-12{stroke:#000;stroke-miterlimit:10;}.cls-10,.cls-11{stroke-width:2px;}.cls-12{stroke-width:0.75px;}.cls-13{opacity:0.4;}.cls-14{fill:#1a2e35;}.cls-15{opacity:0.1;}.cls-16{opacity:0.8;}.cls-18{fill:#375a64;}</style><clipPath id="clip-path"><circle class="cls-1" cx="355" cy="356" r="350"/></clipPath></defs><title>web devlopment process</title><g class="cls-2"><circle class="cls-3" cx="355" cy="356" r="350"/><path d="M548,224.25a6.9,6.9,0,0,1,2.16.68,9.1,9.1,0,0,1,4.31,4.36,9.21,9.21,0,0,1,.88,4.21,9.35,9.35,0,0,1-1.45,4.72,9.36,9.36,0,0,1-4.13,3.55A9.32,9.32,0,0,1,539,239.34a9.37,9.37,0,0,1-2.22-5,9.35,9.35,0,0,1,.71-4.89A9.21,9.21,0,0,1,540,226a9.1,9.1,0,0,1,5.75-2.1,6.9,6.9,0,0,1,2.24.31c0,.06-.8-.16-2.24-.11a9.11,9.11,0,0,0-5.52,2.18,8.93,8.93,0,0,0-3.06,8,8.93,8.93,0,0,0,2.13,4.7,8.85,8.85,0,0,0,10.24,2.3,8.93,8.93,0,0,0,3.93-3.34,8.93,8.93,0,0,0,.64-8.51,9.11,9.11,0,0,0-4.06-4.33C548.83,224.45,548,224.32,548,224.25Z"/><path d="M555.37,214.47a2,2,0,0,1,0-.32l0-1-.05-3.85.07.08L547,207.59l.15-.07L545,212.18l0,.08h-.09a20.84,20.84,0,0,0-5.43,1l-.1,0-.07-.07-3.66-3.62.23,0-7.18,4.58.08-.24,1.74,4.85,0,.12-.09.1a20.72,20.72,0,0,0-3.16,4.5l-.06.12h-.14l-5.15,0,.23-.18-1.85,8.31-.13-.27,4.65,2.2.14.06v.15a20.77,20.77,0,0,0,.95,5.4l0,.15-.11.11-3.63,3.65,0-.32,4.56,7.19-.31-.11,4.85-1.73.15-.05.12.11a20.65,20.65,0,0,0,4.48,3.16h0l.14.23h0v5.13l-.2-.25,8.31,1.87-.29.14,2.21-4.65.07-.14h.16a20.63,20.63,0,0,0,5.41-.94l.15,0,.11.11,3.65,3.64-.31,0,7.2-4.55-.1.28-1.72-4.85,0-.13.1-.1a20.67,20.67,0,0,0,3.17-4.48l.06-.12h5.28l-.21.17,1.88-8.31.11.23-4.64-2.22-.1,0v-.11a20.79,20.79,0,0,0-.93-5.43l0-.1.07-.07,3.64-3.64,0,.19L564.66,216l.14,0-4.86,1.7,0,0,0,0a21.65,21.65,0,0,0-3.31-2.55l-.89-.53-.29-.18.31.14c.2.1.51.26.91.5a20.19,20.19,0,0,1,3.38,2.5l-.09,0,4.84-1.76.09,0,.05.08,4.59,7.18.07.1-.09.09-3.62,3.66,0-.17a21.06,21.06,0,0,1,1,5.52l-.11-.16,4.65,2.2.14.07,0,.16-1.85,8.32,0,.17h-.17l-5.15,0,.2-.12a21.1,21.1,0,0,1-3.23,4.59l0-.24L563,252.1l.06.18-.16.1L555.74,257l-.17.11-.14-.14-3.65-3.63.26.06a21.11,21.11,0,0,1-5.54,1l.22-.15-2.21,4.65-.09.19-.2,0-8.31-1.86-.2,0v-5.34h0l.14.23h0a21.15,21.15,0,0,1-4.59-3.24l.27.05-4.85,1.73-.2.07-.11-.18-4.56-7.2-.11-.17.14-.15,3.64-3.65-.06.26a21.25,21.25,0,0,1-1-5.54l.14.22-4.65-2.21-.18-.08,0-.19,1.87-8.31,0-.18h5.33l-.2.12a21.1,21.1,0,0,1,3.24-4.58l0,.22-1.72-4.85-.06-.16.14-.09,7.21-4.54.13-.08.11.11,3.64,3.64-.17,0a21.06,21.06,0,0,1,5.52-.94l-.13.09,2.23-4.64,0-.1.1,0,8.3,1.91.07,0v.07l0,3.82,0,1A2.53,2.53,0,0,1,555.37,214.47Z"/><g class="cls-4"><path class="cls-5" d="M511,123.48a41.35,41.35,0,0,1,9,6.33l9.59-3.42,9,14.23-7.19,7.22a41.29,41.29,0,0,1,1.89,10.82l9.2,4.37-3.69,16.44-10.18,0a41.2,41.2,0,0,1-6.33,9l3.42,9.6-14.23,9-7.22-7.19a41.29,41.29,0,0,1-10.82,1.88L489,211l-16.44-3.69,0-10.18a41.22,41.22,0,0,1-9-6.33L454,194.2,445,180l7.19-7.22a41.38,41.38,0,0,1-1.88-10.82l-9.19-4.37,3.69-16.44,10.18,0a41.2,41.2,0,0,1,6.33-9l-3.42-9.6,14.23-9,7.22,7.19a41.29,41.29,0,0,1,10.82-1.88l4.37-9.2L511,113.29l0,10.18Zm-14.5,19.35a18.08,18.08,0,1,0,13.68,21.59A18.08,18.08,0,0,0,496.48,142.82Z"/></g><rect class="cls-6" x="382.87" y="242.93" width="209.53" height="140.29"/><path class="cls-6" d="M592.39,383.23s0-.88,0-2.55l0-7.4-.08-28.22c0-24.37-.09-59.41-.16-102.12l.3.3-209.51.08h0l.38-.38c0,50,0,97.51,0,140.29l-.34-.34,151,.17,43.13.09,11.47,0,3,0,1,0-1,0-2.92,0-11.4,0-43,.09-151.18.17h-.34v-.34c0-42.78,0-90.31,0-140.29v-.38h.39l209.51.08h.3v.3c-.07,42.79-.12,77.89-.16,102.31l-.08,28.15,0,7.35C592.42,382.39,592.39,383.23,592.39,383.23Z"/><path d="M382.87,255.45c0-.21,46.87-.38,104.67-.38s104.68.17,104.68.38-46.86.38-104.68.38S382.87,255.66,382.87,255.45Z"/><rect class="cls-7" x="400.88" y="270.08" width="55.89" height="55.89"/><path d="M563.66,285.88c0,.21-21.8.38-48.68.38s-48.69-.17-48.69-.38,21.79-.38,48.69-.38S563.66,285.67,563.66,285.88Z"/><path d="M563.66,296.27c0,.21-21.8.38-48.68.38s-48.69-.17-48.69-.38,21.79-.38,48.69-.38S563.66,296.06,563.66,296.27Z"/><path d="M563.66,306.65c0,.21-21.8.38-48.68.38s-48.69-.17-48.69-.38,21.79-.38,48.69-.38S563.66,306.45,563.66,306.65Z"/><path d="M523.84,317a13.06,13.06,0,0,1-2.26.15l-6.17.12c-5.21.07-12.4.11-20.34.11s-15.14,0-20.35-.11l-6.17-.12a13.05,13.05,0,0,1-2.26-.15,13.1,13.1,0,0,1,2.26-.15l6.17-.12c5.21-.07,12.4-.11,20.35-.11s15.14,0,20.34.11l6.17.12A13.11,13.11,0,0,1,523.84,317Z"/><g class="cls-8"><rect class="cls-9" x="404.38" y="344.82" width="26.27" height="26.27"/></g><rect class="cls-7" x="452.01" y="344.82" width="26.27" height="26.27"/><rect class="cls-7" x="499.65" y="344.82" width="26.27" height="26.27"/><rect class="cls-7" x="547.28" y="344.82" width="26.27" height="26.27"/><rect class="cls-6" x="-0.33" y="293.47" width="186.65" height="75.82"/><path class="cls-6" d="M186.33,369.29s0-.47,0-1.35l0-3.93-.05-15.09c0-13.09-.06-32-.11-55.44l.21.21-186.64.09h0l.3-.3C0,320,0,345.65,0,369.29L-.33,369l133.83.13,38.82.08,10.39,0,2.69,0,.92,0-.89,0-2.66,0-10.33,0-38.76.08-134,.13H-.61v-.28c0-23.64,0-49.27,0-75.82v-.3h.31l186.64.09h.21v.21c0,23.48-.09,42.45-.11,55.57,0,6.53,0,11.59-.05,15l0,3.9C186.34,368.85,186.33,369.29,186.33,369.29Z"/><path d="M-.14,303.7c0-.16,41.72-.3,93.17-.3s93.18.13,93.18.3-41.71.3-93.18.3S-.14,303.86-.14,303.7Z"/><rect class="cls-7" x="15.54" y="316.02" width="45.08" height="45.08"/><path d="M173.41,328.1c0,.16-23.2.3-51.81.3s-51.82-.13-51.82-.3,23.19-.3,51.82-.3S173.41,327.94,173.41,328.1Z"/><path d="M173.41,337.29c0,.16-23.2.3-51.81.3s-51.82-.13-51.82-.3S93,337,121.6,337,173.41,337.13,173.41,337.29Z"/><path d="M136.49,346.47a3,3,0,0,1-.68.06l-1.94.06-7.15.09-23.58.09-23.59-.09-7.15-.09-1.94-.06a3,3,0,0,1-.68-.06,2.94,2.94,0,0,1,.68-.06l1.94-.06,7.15-.09,23.59-.09,23.58.09,7.15.09,1.94.06A2.94,2.94,0,0,1,136.49,346.47Z"/><ellipse class="cls-7" cx="243.21" cy="506.11" rx="0.38" ry="1.81" transform="translate(-238.13 216.95) rotate(-33.34)"/><path class="cls-7" d="M236,491.59c.2-.07,1,1.36,1.72,3.2s1.21,3.39,1,3.48-1-1.34-1.72-3.2S235.84,491.66,236,491.59Z"/><path class="cls-7" d="M232.69,477.57c.21,0,.67,1.53,1,3.48s.49,3.57.29,3.62-.66-1.51-1-3.48S232.48,477.6,232.69,477.57Z"/><path class="cls-7" d="M232.18,463.17c.21,0,.35,1.63.33,3.61s-.22,3.59-.43,3.6-.35-1.61-.33-3.61S232,463.15,232.18,463.17Z"/><path class="cls-7" d="M234.52,448.94c.2.06,0,1.67-.39,3.61S233.2,456,233,456s0-1.65.39-3.61S234.32,448.88,234.52,448.94Z"/><path class="cls-7" d="M239.7,435.5c.18.1-.32,1.64-1.13,3.45s-1.62,3.21-1.82,3.14.31-1.62,1.13-3.45S239.52,435.4,239.7,435.5Z"/><path class="cls-7" d="M247.65,423.48c.16.13-.67,1.53-1.85,3.12s-2.29,2.78-2.44,2.68.64-1.52,1.84-3.13S247.49,423.35,247.65,423.48Z"/><ellipse class="cls-7" cx="254.86" cy="415.41" rx="3.61" ry="0.38" transform="translate(-221.71 313.44) rotate(-46.39)"/><ellipse class="cls-7" cx="264.97" cy="405.11" rx="3.61" ry="0.38" transform="translate(-209.56 309.46) rotate(-45.42)"/><ellipse class="cls-7" cx="274.69" cy="394.46" rx="3.61" ry="0.38" transform="translate(-204.5 356.62) rotate(-50.63)"/><path class="cls-7" d="M284.34,379.29c.19.08-.29,1.65-1.21,3.43s-1.92,3.09-2.09,3,.52-1.56,1.43-3.32S284.14,379.21,284.34,379.29Z"/><path class="cls-7" d="M287.85,365.35c.2,0,.25,1.66-.08,3.64s-.91,3.52-1.11,3.47,0-1.65.36-3.59S287.64,365.34,287.85,365.35Z"/><path class="cls-7" d="M286.78,351c.2-.05.76,1.49,1.07,3.48s.24,3.63,0,3.64-.48-1.58-.78-3.53S286.57,351.07,286.78,351Z"/><path class="cls-7" d="M281.11,337.82c.17-.12,1.23,1.14,2.18,2.92s1.42,3.35,1.23,3.43-1-1.34-1.89-3.07S280.94,337.94,281.11,337.82Z"/><path class="cls-7" d="M271,327.59c.11-.17,1.57.6,3.12,1.89s2.56,2.59,2.41,2.73-1.38-.89-2.9-2.16S270.93,327.76,271,327.59Z"/><path class="cls-7" d="M257.94,321.73c0-.2,1.68,0,3.58.65s3.32,1.49,3.24,1.68-1.61-.33-3.48-1S257.89,321.94,257.94,321.73Z"/><path class="cls-7" d="M243.61,321.08c0-.2,1.55-.65,3.57-.75s3.64.17,3.63.37-1.62.28-3.59.38S243.65,321.29,243.61,321.08Z"/><path class="cls-7" d="M230.3,326.38c-.12-.16,1.12-1.26,2.9-2.21s3.38-1.39,3.45-1.2-1.36.92-3.09,1.86S230.43,326.56,230.3,326.38Z"/><path class="cls-7" d="M220.4,336.75c-.17-.1.53-1.59,1.77-3.19s2.51-2.65,2.65-2.5-.85,1.41-2.06,3S220.58,336.86,220.4,336.75Z"/><path class="cls-7" d="M215.54,350.23c-.2,0-.2-1.67.28-3.64s1.22-3.44,1.41-3.36-.22,1.63-.68,3.54S215.75,350.25,215.54,350.23Z"/><path class="cls-7" d="M217.25,364.43c-.19.07-.93-1.4-1.41-3.36s-.49-3.62-.29-3.64.55,1.55,1,3.46S217.45,364.35,217.25,364.43Z"/><path class="cls-7" d="M224.57,376.78c-.15.13-1.35-1-2.52-2.63s-1.86-3.13-1.68-3.23,1.13,1.19,2.29,2.79S224.73,376.65,224.57,376.78Z"/><path class="cls-7" d="M235.19,386.51c-.12.17-1.55-.63-3.11-1.89s-2.64-2.49-2.5-2.64,1.43.81,3,2.06S235.31,386.34,235.19,386.51Z"/><path class="cls-7" d="M247.69,393.68c-.08.19-1.6-.39-3.39-1.3s-3.15-1.79-3-2,1.62.4,3.39,1.3S247.77,393.49,247.69,393.68Z"/><path class="cls-7" d="M261.41,398c0,.2-1.67.08-3.61-.43s-3.44-1.17-3.37-1.36,1.64.15,3.56.64S261.45,397.84,261.41,398Z"/><path class="cls-7" d="M275.78,398.79c0,.2-1.58.55-3.59.58s-3.63-.24-3.61-.44,1.62-.27,3.6-.31S275.76,398.58,275.78,398.79Z"/><path class="cls-7" d="M289.66,395.07c.09.18-1.32,1-3.21,1.71s-3.52.92-3.57.72,1.46-.76,3.32-1.43S289.57,394.88,289.66,395.07Z"/><path class="cls-7" d="M301.69,387.2c.14.15-1,1.37-2.55,2.6s-3.06,2-3.17,1.79,1.15-1.18,2.71-2.39S301.55,387,301.69,387.2Z"/><path class="cls-7" d="M311.08,376.28c.17.11-.56,1.57-1.77,3.18s-2.41,2.72-2.56,2.59.77-1.46,2-3S310.9,376.17,311.08,376.28Z"/><path class="cls-7" d="M317.33,363.31c.19.06-.14,1.67-.89,3.53s-1.63,3.25-1.81,3.16.37-1.61,1.11-3.44S317.12,363.25,317.33,363.31Z"/><path class="cls-7" d="M320.12,349.19c.2,0,.26,1.65,0,3.64s-.76,3.55-1,3.51,0-1.65.22-3.61S319.91,349.17,320.12,349.19Z"/><path class="cls-7" d="M319.75,334.78c.21,0,.5,1.57.65,3.57s.11,3.62-.1,3.63-.5-1.59-.65-3.57S319.54,334.81,319.75,334.78Z"/><path class="cls-7" d="M316.61,320.7c.2-.06.78,1.45,1.31,3.39s.78,3.54.58,3.58-.79-1.47-1.31-3.39S316.42,320.77,316.61,320.7Z"/><path class="cls-7" d="M311.09,307.37c.18-.09,1.05,1.28,1.92,3.09s1.31,3.38,1.12,3.46-1-1.33-1.8-3.14S310.91,307.47,311.09,307.37Z"/><ellipse class="cls-7" cx="305.82" cy="297.92" rx="0.38" ry="3.61" transform="translate(-108.69 195.64) rotate(-30.39)"/><ellipse class="cls-7" cx="298.58" cy="285.44" rx="0.38" ry="3.61" transform="translate(-100.87 180.25) rotate(-28.96)"/><path class="cls-7" d="M291.2,269c.2-.06.92,1.39,1.61,3.25s1.1,3.42.91,3.51-.91-1.37-1.61-3.25S291,269.08,291.2,269Z"/><path class="cls-7" d="M288.75,254.84c.21,0,.43,1.59.64,3.56s.33,3.58.12,3.61-.66-1.54-.87-3.53S288.55,254.84,288.75,254.84Z"/><path class="cls-7" d="M289.94,240.49c.21,0,0,1.65-.26,3.61s-.57,3.55-.78,3.53-.25-1.65,0-3.64S289.74,240.44,289.94,240.49Z"/><path class="cls-7" d="M294.64,226.88c.19.1-.39,1.6-1.15,3.43s-1.43,3.29-1.63,3.23.16-1.66.94-3.52S294.46,226.78,294.64,226.88Z"/><path class="cls-7" d="M302.68,214.94c.16.14-.8,1.44-2,3s-2.24,2.81-2.41,2.69.58-1.57,1.82-3.15S302.53,214.8,302.68,214.94Z"/><path class="cls-7" d="M313.51,205.45c.12.18-1.13,1.2-2.7,2.41s-2.88,2.15-3,2,1-1.36,2.56-2.59S313.4,205.28,313.51,205.45Z"/><path class="cls-7" d="M326.35,198.92c.07.2-1.39.88-3.21,1.67s-3.32,1.38-3.41,1.19,1.27-1.08,3.12-1.88S326.28,198.73,326.35,198.92Z"/><path class="cls-7" d="M336.8,196.27c0,.21-.73.52-1.71.7s-1.8.16-1.84,0,.72-.51,1.71-.7S336.78,196.07,336.8,196.27Z"/><path class="cls-10" d="M366.24,153.81s16.94-12.08,40.38-4.28c0,0,1.93,19.41-16.87,34.84"/><path class="cls-11" d="M312.84,189.67c.72,1.08,19.1,30.64,19.1,30.64l55.2-34a19.32,19.32,0,0,0,5.39-27.95h0a19.32,19.32,0,0,0-26.29-4.54Z"/><path d="M331.94,220.3l-1.24,20.79s35.77-17.32,26.84-36.57Z"/><path d="M338.4,172.5s-24.25-10.7-44.22,5l18.66,12.18Z"/><path d="M338.23,189.68l-34.52,21.59s1.19,3.71,2.11,3.4c.78-.26,26.72-15.58,35.13-20.55a2.6,2.6,0,0,0,.68-3.89h0A2.61,2.61,0,0,0,338.23,189.68Z"/><circle class="cls-12" cx="370.03" cy="173.32" r="11.05"/><path class="cls-12" d="M381.08,173.32c-.09,0,0-1-.49-2.66a11,11,0,0,0-4-5.91,10.76,10.76,0,0,0-10.17-1.48,10.6,10.6,0,0,0-5,3.74,10.66,10.66,0,0,0,0,12.63,10.6,10.6,0,0,0,5,3.74,10.76,10.76,0,0,0,10.17-1.48,11,11,0,0,0,4-5.91c.45-1.68.4-2.67.49-2.66a2.51,2.51,0,0,1,0,.71,8.74,8.74,0,0,1-.24,2,11,11,0,0,1-4,6.26,11.17,11.17,0,0,1-4.75,2.17,11.36,11.36,0,0,1-6-.46,11.23,11.23,0,0,1-5.31-4,11.33,11.33,0,0,1,0-13.5,11.23,11.23,0,0,1,5.31-4,11.36,11.36,0,0,1,6-.46,11.17,11.17,0,0,1,4.75,2.17,11,11,0,0,1,4,6.26,8.74,8.74,0,0,1,.24,2A2.51,2.51,0,0,1,381.08,173.32Z"/><g class="cls-13"><rect x="516.36" y="448.64" width="10.05" height="32.47"/><rect x="534.86" y="435.28" width="10.05" height="45.84"/><rect x="554.55" y="429.04" width="10.05" height="52.08"/><rect x="574.24" y="422.45" width="10.05" height="58.66"/></g><path class="cls-14" d="M177.51,490.77a6.9,6.9,0,0,1,2.16.68,9.1,9.1,0,0,1,4.31,4.36,9.21,9.21,0,0,1,.88,4.21,9.36,9.36,0,0,1-1.45,4.72,9.37,9.37,0,0,1-4.13,3.55,9.32,9.32,0,0,1-10.84-2.43,9.37,9.37,0,0,1-2.22-5,9.35,9.35,0,0,1,.71-4.89,9.21,9.21,0,0,1,2.59-3.43,9.1,9.1,0,0,1,5.75-2.1,6.9,6.9,0,0,1,2.24.31c0,.06-.8-.16-2.24-.11a9.11,9.11,0,0,0-5.52,2.18,8.93,8.93,0,0,0-3.06,8,8.93,8.93,0,0,0,2.13,4.7,8.85,8.85,0,0,0,10.24,2.3,8.93,8.93,0,0,0,3.93-3.34,8.93,8.93,0,0,0,.64-8.51,9.11,9.11,0,0,0-4.06-4.33C178.3,491,177.49,490.84,177.51,490.77Z"/><path class="cls-14" d="M184.84,481a2,2,0,0,1,0-.32l0-1-.05-3.85.07.08-8.32-1.82.15-.07-2.19,4.66,0,.08h-.09a20.84,20.84,0,0,0-5.43,1l-.1,0-.07-.07-3.66-3.62.23,0-7.18,4.58.08-.24,1.74,4.85,0,.12-.09.1a20.72,20.72,0,0,0-3.16,4.5l-.06.12h-.14l-5.15,0,.23-.18-1.85,8.31-.13-.27,4.65,2.2.14.06v.15a20.77,20.77,0,0,0,.95,5.4l0,.15-.11.11-3.63,3.65,0-.32,4.56,7.19-.31-.11,4.85-1.73.15-.05.12.11a20.65,20.65,0,0,0,4.48,3.16h0l.14.23h0v2.57q0,1.29,0,2.57l-.2-.25,8.31,1.87-.29.14,2.21-4.65.07-.14h.16a20.63,20.63,0,0,0,5.41-.94l.15,0,.11.11,3.65,3.64-.31,0,7.2-4.55-.1.28-1.72-4.85,0-.13.1-.1a20.66,20.66,0,0,0,3.17-4.48l.06-.12h5.28l-.21.17,1.88-8.31.11.23L196,498.95l-.1,0v-.11a20.79,20.79,0,0,0-.93-5.43l0-.1.07-.07,3.64-3.64,0,.19-4.53-7.22.14,0-4.86,1.7,0,0,0,0a21.65,21.65,0,0,0-3.31-2.55l-.89-.53-.29-.18.31.14c.2.1.51.26.91.5a20.2,20.2,0,0,1,3.38,2.5l-.09,0,4.84-1.76.09,0,.05.08,4.59,7.18.07.1-.09.09-3.62,3.66,0-.17a21.06,21.06,0,0,1,1,5.52l-.11-.16,4.65,2.2.14.07,0,.16-1.85,8.32,0,.17h-.17l-5.15,0,.2-.12a21.09,21.09,0,0,1-3.23,4.59l0-.24,1.73,4.85.06.18-.16.1-7.19,4.57-.17.11-.14-.14-3.65-3.63.26.06a21.12,21.12,0,0,1-5.54,1l.22-.15L174,525.34l-.09.19-.2,0-8.31-1.86-.2,0v-5.34h0l.14.23h0a21.15,21.15,0,0,1-4.59-3.24l.27.05L156.12,517l-.2.07-.11-.18-4.56-7.2-.11-.17.14-.15,3.64-3.65-.06.25a21.25,21.25,0,0,1-1-5.54l.14.22-4.65-2.21-.18-.08,0-.19,1.87-8.31,0-.18h5.33l-.2.12a21.1,21.1,0,0,1,3.24-4.58l0,.22-1.72-4.85-.06-.16.14-.09,7.21-4.54.13-.08.11.11,3.64,3.64-.17,0a21.06,21.06,0,0,1,5.52-.94l-.13.09,2.23-4.64,0-.1.1,0,8.3,1.91.07,0v.07c0,1.66,0,2.93,0,3.82l0,1A2.56,2.56,0,0,1,184.84,481Z"/><g class="cls-15"><path class="cls-5" d="M169.14,416.3a23.11,23.11,0,0,1,5,3.54l5.36-1.91,5,8-4,4a23.07,23.07,0,0,1,1.05,6l5.14,2.44-2.06,9.19H179a23,23,0,0,1-3.54,5l1.91,5.36-8,5-4-4a23.08,23.08,0,0,1-6,1.05l-2.44,5.14-9.19-2.06v-5.69a23,23,0,0,1-5-3.54l-5.36,1.91-5-8,4-4a23.12,23.12,0,0,1-1.05-6l-5.14-2.44,2.06-9.19h5.69a23,23,0,0,1,3.54-5l-1.91-5.36,8-5,4,4a23.08,23.08,0,0,1,6-1.05l2.44-5.14,9.19,2.06v5.69ZM161,427.11a10.1,10.1,0,1,0,7.65,12.07A10.1,10.1,0,0,0,161,427.11Z"/><g class="cls-16"><path class="cls-5" d="M169.14,416.3a23.11,23.11,0,0,1,5,3.54l5.36-1.91,5,8-4,4a23.07,23.07,0,0,1,1.05,6l5.14,2.44-2.06,9.19H179a23,23,0,0,1-3.54,5l1.91,5.36-8,5-4-4a23.08,23.08,0,0,1-6,1.05l-2.44,5.14-9.19-2.06v-5.69a23,23,0,0,1-5-3.54l-5.36,1.91-5-8,4-4a23.12,23.12,0,0,1-1.05-6l-5.14-2.44,2.06-9.19h5.69a23,23,0,0,1,3.54-5l-1.91-5.36,8-5,4,4a23.08,23.08,0,0,1,6-1.05l2.44-5.14,9.19,2.06v5.69ZM161,427.11a10.1,10.1,0,1,0,7.65,12.07A10.1,10.1,0,0,0,161,427.11Z"/></g></g><path class="cls-17" d="M135.92,470.43a13.45,13.45,0,0,1,2.92,2.06l3.12-1.11,2.93,4.63-2.34,2.35a13.43,13.43,0,0,1,.61,3.52l3,1.42-1.2,5.35h-3.31a13.4,13.4,0,0,1-2.06,2.92l1.11,3.12-4.63,2.93-2.35-2.34a13.44,13.44,0,0,1-3.52.61l-1.42,3-5.35-1.2v-3.31a13.42,13.42,0,0,1-2.92-2.06l-3.12,1.11-2.93-4.63,2.34-2.35a13.47,13.47,0,0,1-.61-3.52l-3-1.42,1.2-5.35h3.31a13.41,13.41,0,0,1,2.06-2.92l-1.11-3.12,4.63-2.93,2.35,2.34a13.44,13.44,0,0,1,3.52-.61l1.42-3,5.35,1.2v3.31Zm-4.72,6.29a5.88,5.88,0,1,0,4.45,7A5.88,5.88,0,0,0,131.2,476.72Z"/><g class="cls-13"><path class="cls-17" d="M135.92,470.43a13.45,13.45,0,0,1,2.92,2.06l3.12-1.11,2.93,4.63-2.34,2.35a13.43,13.43,0,0,1,.61,3.52l3,1.42-1.2,5.35h-3.31a13.4,13.4,0,0,1-2.06,2.92l1.11,3.12-4.63,2.93-2.35-2.34a13.44,13.44,0,0,1-3.52.61l-1.42,3-5.35-1.2v-3.31a13.42,13.42,0,0,1-2.92-2.06l-3.12,1.11-2.93-4.63,2.34-2.35a13.47,13.47,0,0,1-.61-3.52l-3-1.42,1.2-5.35h3.31a13.41,13.41,0,0,1,2.06-2.92l-1.11-3.12,4.63-2.93,2.35,2.34a13.44,13.44,0,0,1,3.52-.61l1.42-3,5.35,1.2v3.31Zm-4.72,6.29a5.88,5.88,0,1,0,4.45,7A5.88,5.88,0,0,0,131.2,476.72Z"/></g><path d="M454.44,417.35a14.08,14.08,0,0,0,10.19-14.05c-.18-2.82-1.23-5.57-1.11-8.39.19-4.39,3.1-8.09,5.29-11.9s3.66-8.82,1.11-12.39c-1.66-2.32-4.58-3.36-6.58-5.38s-2.89-4.72-3.95-7.3-2.41-5.24-4.84-6.62-6.14-.77-7.12,1.84"/><path d="M428.24,346.21c4.32-2.74,5.36-9.1,3-13.65s-7.31-7.31-12.36-8.13a23.55,23.55,0,0,0-20.29,6.72c-2.79,2.87-5,6.62-8.83,7.93-3.32,1.16-7,.11-10.49.56-4.68.61-8.69,3.93-11.08,8s-3.39,8.8-3.94,13.48c-.51,4.3-.84,9-3.83,12.15s-7.5,3.71-11.12,5.88c-6.8,4.09-9,14.24-4.52,20.79,1.43,2.09,3.49,4,3.65,6.53.15,2.31-1.34,4.36-2,6.57-1.8,5.67,2.85,12.42,8.79,12.76,3,.17,6.21-1,8.9.34s3.67,4.55,5.37,7a12.85,12.85,0,0,0,15.66,4c2.21-1.08,4.29-2.87,6.74-2.7s4.37,2.25,6.78,2.72c3.15.61,6.15-1.71,8-4.32s3.18-5.68,5.58-7.81c3.14-2.79,7.55-3.48,11.53-4.85a32.52,32.52,0,0,0,18.37-45.56"/><path class="cls-11" d="M437.73,351.89a6.91,6.91,0,0,1,6.16,7h0l-4.12,93.27c-.17,11-16.27,17.21-28.07,16.93h0c-11.91-.28-12.29-6.12-12.44-16.6-.25-17.51-.23-24.08-.23-24S384,426,380.9,406.35c-1.53-9.77-1-25.78-.15-38.86.77-11.78,8.61-26.21,20.34-24.95Z"/><path d="M399,427.53a50,50,0,0,0,26.31-7s-6.66,13.84-26.31,12Z"/><path d="M424.84,345.5c4.5-3,10.32-4.42,15.56-2.91s9.58,6.22,9.76,11.56c.11,3.47-1.38,7.16.16,10.28,1.47,3,5.08,4.19,7.63,6.35a11.72,11.72,0,0,1,2.71,14.17c-2.14,3.94-6.65,6.82-7,11.26-.36,4.18,3.17,7.71,4,11.82.95,4.54-1.56,9.23-5.16,12.23s-8.14,4.67-12.59,6.26c-3.47,1.25-7.18,2.51-10.78,1.7a11,11,0,0,1-8.08-9.21,15,15,0,0,1,4.09-11.85c2.52-2.78,6.06-5.14,6.66-8.8.94-5.71-5.86-10.4-5.44-16.17.22-3,2.31-5.44,4.06-7.88s3.27-5.52,2.2-8.32c-1.39-3.63-6.16-4.58-9-7.24a8.81,8.81,0,0,1-2.41-8.93,9.09,9.09,0,0,1,7.12-6.07"/><path d="M426.95,341.07a13.43,13.43,0,0,1-15.85,13.27c-3-.55-6.29-2.06-8.88-.47s-2.84,5.8-5.27,7.9c-3.46,3-9,.19-13.36,1.49-3.39,1-5.51,4.25-7.77,7s-5.63,5.32-9,4.32a39.84,39.84,0,0,1,1.35-9.05,13.39,13.39,0,0,1,5.14-7.38,49.59,49.59,0,0,0,4.34-2.53c2.82-2.27,3.47-6.23,5.21-9.41A14.72,14.72,0,0,1,394,338.75c3.86-.39,7.84.76,11.61-.19,2.78-.7,5.21-2.51,8-3,5.49-1,10.6,2.9,14.58,6.82"/><path class="cls-9" d="M299,535.45l34.83-3.19s21.44-56.46,47.86-70.15L398.78,492l-36.64,68.84H290.6Z"/><path d="M299,535.45l34.83-3.19s21.44-56.46,47.86-70.15L398.78,492l-36.64,68.84H290.6Z"/><ellipse class="cls-6" cx="315.99" cy="545.95" rx="6.35" ry="0.38" transform="matrix(0.51, -0.86, 0.86, 0.51, -314.75, 537.02)"/><ellipse class="cls-6" cx="326.31" cy="555.91" rx="0.38" ry="3.73" transform="matrix(0.55, -0.84, 0.84, 0.55, -317.54, 524.8)"/><path class="cls-14" d="M472.26,460.79a16.24,16.24,0,0,0-6.41-3.22,17.09,17.09,0,0,0-7.73.05,21,21,0,0,0-8.4,4.38c-5.27,4.41-8.13,10.15-10.08,14.16-1,2-1.7,3.72-2.22,4.87a10,10,0,0,1-.88,1.76,9.79,9.79,0,0,1,.61-1.87c.44-1.19,1.1-2.9,2-5a54,54,0,0,1,3.69-7.08,31.49,31.49,0,0,1,6.39-7.44,21.13,21.13,0,0,1,8.73-4.48,17.09,17.09,0,0,1,8,.11,13.65,13.65,0,0,1,4.87,2.35,9.21,9.21,0,0,1,1.09,1C472.17,460.64,472.28,460.77,472.26,460.79Z"/><path class="cls-11" d="M485.61,477c-2-13-9.14-16.09-16.56-20.13-2.43-1.32-14.12-4.32-23.4-6.58-.89-5.62-1.31-7.12-1.66-9.25-.49-3-49.41,3.88-50,5-.39.74-.47,4.43-1.15,12.2l-11.19,3.91-14.61,18.57-7.6,10.8A58.16,58.16,0,0,0,350,512.21c-1.84,8.27-2.1,16.34-2.1,25.12L345.67,585l97.82,27.66,7.57-48.25L476.3,530C478.46,516.13,488,492.91,485.61,477Z"/><ellipse class="cls-6" cx="356.41" cy="561.87" rx="0.38" ry="6.04" transform="translate(-298.71 445.46) rotate(-47.54)"/><path class="cls-6" d="M390.31,555.08c.06.22-3.26,1.16-7.12,2.87s-6.81,3.48-6.94,3.29,2.69-2.26,6.63-4S390.28,554.89,390.31,555.08Z"/><path class="cls-6" d="M439.77,571.69c0,.22-3.58.56-8,1.29s-7.9,1.55-8,1.34,3.4-1.35,7.84-2.08S439.76,571.5,439.77,571.69Z"/><ellipse class="cls-6" cx="419.56" cy="561.43" rx="6.54" ry="0.38" transform="translate(-275.74 473.17) rotate(-45.99)"/><path class="cls-6" d="M399,581.73c-.21,0-.85-2.55-1.95-5.64s-2.21-5.52-2-5.62,1.62,2.21,2.72,5.37S399.18,581.7,399,581.73Z"/><ellipse class="cls-6" cx="417.78" cy="587.5" rx="0.38" ry="7.75" transform="translate(-288.7 731) rotate(-66.06)"/><ellipse class="cls-6" cx="381.47" cy="582.87" rx="5.43" ry="0.38" transform="translate(-291.92 761.19) rotate(-71.63)"/><path class="cls-6" d="M409.48,593.06c0,.22-4.14-.45-9.24-.71s-9.25-.06-9.27-.28,4.14-.76,9.31-.47S409.52,592.87,409.48,593.06Z"/><path d="M379.61,581.29c-1.6.53-104.25-28.23-145.76-39.9a39.43,39.43,0,0,0-32.1,4.86l-.5.32a39.43,39.43,0,0,0-17,42h0a39.41,39.41,0,0,0,17.8,24.68C229.45,630.07,314.23,676.69,316,676c2.32-.9,61-3,61-3L276.78,599.29,318.19,626l61.42-44.76Z"/><path class="cls-11" d="M293.91,550.05l21.82-11.29,21.4,13.41,80.11,2.62,11.6,39-116-26.88s-21.1,1.87-22.69-2.88S293.91,550.05,293.91,550.05Z"/><path class="cls-7" d="M361.55,612.56,350.76,648l1.34,10.79h0a55.42,55.42,0,0,0,73.09,4.93h0a54.31,54.31,0,0,0,21.23-43.31l-.16-37Z"/><ellipse class="cls-18" cx="184.58" cy="718.1" rx="0.38" ry="34.6" transform="translate(-501.4 436.73) rotate(-53.28)"/><path class="cls-11" d="M286.52,497.87l20,65.76a3.79,3.79,0,0,0,3.34,2.68l53.65,4a3.79,3.79,0,0,1,3.51,3.78h0a3.79,3.79,0,0,1-3.86,3.79l-151.56-2.85a3.79,3.79,0,0,1-3.47-2.44l-25.86-67.76a3.79,3.79,0,0,1,3.37-5.14l97.1-4.54A3.79,3.79,0,0,1,286.52,497.87Z"/><path class="cls-7" d="M237.38,530.07a4.87,4.87,0,0,0-3.06,3.47,4.68,4.68,0,0,0,2,4.26A5.09,5.09,0,0,0,242,538a4.71,4.71,0,0,0,1.54-5.71c-.68-1.89-4.14-3.21-6.13-2.23"/><path class="cls-18" d="M417.24,611a1.74,1.74,0,0,1-.31.29l-1,.78-3.71,3-2.69,2.13c-1,.78-2.14,1.5-3.34,2.35l-3.87,2.65c-.69.47-1.38,1-2.12,1.44L397.93,625c-3.17,1.89-6.58,4.06-10.46,6-1.92,1-3.88,2.1-6,3.12l-6.44,3.05c-8.87,4-18.81,8.11-29.46,11.73-21.28,7.33-41,12.61-55.06,16.89-3.53,1-6.72,2-9.51,2.89s-5.2,1.61-7.15,2.27l-4.51,1.47-1.18.36a.21.21,0,1,1,0-.07l1.16-.43,4.47-1.6c1.94-.71,4.33-1.49,7.12-2.39s6-1.93,9.48-3c14.06-4.41,33.72-9.77,55-17.09,10.64-3.62,20.55-7.65,29.42-11.65l6.44-3c2.07-1,4-2.09,6-3.08,3.88-1.93,7.3-4.06,10.47-5.92l2.32-1.37c.74-.47,1.44-1,2.13-1.41l3.89-2.6c1.2-.83,2.37-1.53,3.37-2.29l2.73-2.07,3.79-2.85,1-.73A1.79,1.79,0,0,1,417.24,611Z"/><path class="cls-18" d="M420.07,623.22a4.53,4.53,0,0,1-1.18.62c-.77.36-1.92.82-3.34,1.35a85.18,85.18,0,0,1-23.21,5c-1.52.1-2.75.15-3.6.14a4.53,4.53,0,0,1-1.32-.08,44.55,44.55,0,0,1,4.88-.59c3-.34,7.15-.92,11.67-1.89s8.53-2.14,11.41-3.07A44.55,44.55,0,0,1,420.07,623.22Z"/><path d="M424,556l26-78c3.13-12.63,7.14-22.83,19.95-20.52h0a24.68,24.68,0,0,1,20,28.07l-11,70.91a35.48,35.48,0,0,1-29.44,28.7l-14.28,2.23Z"/><path class="cls-7" d="M265,675l-48,1L371.49,555.53a46.83,46.83,0,0,1,25.45-10.43h0a46.83,46.83,0,0,1,50.91,50.53L446,617.91l-77.35,24.86Z"/><rect x="-14.04" y="673.37" width="699.1" height="3.93" transform="translate(-14.64 7.47) rotate(-1.25)"/><circle class="cls-7" cx="369.99" cy="173.32" r="8.45"/><path class="cls-7" d="M378.43,173.32c-.07,0,0-.75-.37-2a8.42,8.42,0,0,0-3.09-4.52,8.22,8.22,0,0,0-7.77-1.13,8.1,8.1,0,0,0-3.79,2.86,8.14,8.14,0,0,0,0,9.65A8.1,8.1,0,0,0,367.2,181a8.22,8.22,0,0,0,7.77-1.13,8.42,8.42,0,0,0,3.09-4.52c.34-1.28.31-2,.37-2a1.92,1.92,0,0,1,0,.54,6.68,6.68,0,0,1-.19,1.55,8.41,8.41,0,0,1-3.06,4.78,8.54,8.54,0,0,1-3.63,1.66,8.68,8.68,0,0,1-4.57-.35,8.58,8.58,0,0,1-4.06-3,8.66,8.66,0,0,1,0-10.32,8.58,8.58,0,0,1,4.06-3,8.68,8.68,0,0,1,4.57-.35,8.54,8.54,0,0,1,3.63,1.66,8.41,8.41,0,0,1,3.06,4.78,6.68,6.68,0,0,1,.19,1.55A1.92,1.92,0,0,1,378.43,173.32Z"/><circle class="cls-1" cx="355" cy="356" r="350"/><path d="M644.5,614.3l-.6.26-1.08.5c-.71.33-1.35.67-2,1q-1.93,1-3.74,2.12a80.69,80.69,0,0,0-6.9,4.7,92.51,92.51,0,0,0-12.14,11,102.92,102.92,0,0,0-10,12.69,114.71,114.71,0,0,0-7.9,13.94,124.5,124.5,0,0,0-5.87,14.73c-.75,2.51-1.59,5-2.19,7.55l-1,3.8-.8,3.81a160,160,0,0,0-2.67,18.86l.42-24A117.12,117.12,0,0,1,593,668c3.59-10.16,8.85-21.9,14.68-34.6,4.78-10.39,8.86-19.52,12.63-26.93s7.46-12.84,10.45-15.73c-3,2.86-8.51,6.54-14.54,12.77a92.2,92.2,0,0,0-17.69,25.64,123.33,123.33,0,0,0-10.15,35.46l.91-51.67a46.49,46.49,0,0,1,4.86-10.22c3.51-5.8,8.33-12.21,13.19-19.58a129.6,129.6,0,0,0,9.12-16.76,83.43,83.43,0,0,1,5.6-10.93c-1.51,2.16-5.25,4.36-9.54,7.79a60.88,60.88,0,0,0-13.61,14.37,64.18,64.18,0,0,0-9.41,23l.35-19.79c1.55-9.1,4.73-22.8,5-38.71.3-17-4.52-29.86-4.41-35.88-.11,6-5.37,18.67-5.67,35.7-.28,15.91,2.41,29.72,3.64,38.87L588,602.29A138,138,0,0,0,578.38,563a108.86,108.86,0,0,0-17.71-28.69,139.3,139.3,0,0,0-15-14.65c3.37,3.05,7,9.22,10.77,17.39s7.81,18.35,12.63,29.83c5.78,14.09,10.84,27.1,14.21,38.31a124,124,0,0,1,4.37,19.19l-.59,33.27q-.55-6.2-1.52-12.3a199.12,199.12,0,0,0-6.19-26.78A229.54,229.54,0,0,0,569.89,593c-1.82-4.19-3.84-8.34-6-12.46A118.81,118.81,0,0,0,556.34,568c3.54,5,3.94,10.06,3.41,14.95a40.45,40.45,0,0,1-1.67,7.1c-.77,2.28-1.66,4.45-2.51,6.46-1.26,2.91-1.11,5.12-.15,7a16.36,16.36,0,0,0,4.27,4.92c3.32,3,6.85,5.8,4.28,9.81s-5.52,7.69-5.36,12.06a12.78,12.78,0,0,0,2.86,7.36c1.9,2.82,5.14,6,9.73,10.17a56,56,0,0,1,7.54,8.3,69.76,69.76,0,0,1,5.18,8.26c1.32,2.55,2.2,4.78,2.84,6.36l.08.19-.67,38c-.12-.85-3.89-24.91-17.91-38.43-13.17-12.7-25.6-16.89-28.85-18.77,3.28,1.89,21.72,25.5,27.74,33.63,9.28,12.54,18.93,15.31,18.63,32.46v0l.77,1.41.91-2.14a23.28,23.28,0,0,1,1.25-4.37,29.31,29.31,0,0,1,4.06-6.87,44,44,0,0,1,5.41-5.55c2-1.64,3.95-3.08,5.81-4.4a9.09,9.09,0,0,0,4.29-6.18c.46-2.21,0-4.64-.33-7-.18-1.19-.38-2.38-.51-3.53a14.27,14.27,0,0,1,.05-3.24,5.12,5.12,0,0,1,3.6-4.47c4.61-1.63,9.36-2.51,12.36-5.88a10.8,10.8,0,0,0,2-3.05,20.07,20.07,0,0,0,1.44-4.36c.77-3.48,1.21-8,1.9-14.58A46.26,46.26,0,0,1,637,622.5c3.78-5.37,7.64-8.31,8.28-8.53Z"/></g></svg>