<svg id="Layer_1" data-name="Layer 1" xmlns="http://www.w3.org/2000/svg" viewBox="0 0 256 256"><defs><style>.cls-1{opacity:0.5;}.cls-2,.cls-3{fill:#8d919d;}.cls-2{stroke:#8d919d;stroke-miterlimit:10;stroke-width:5px;}.cls-4{fill:#5466ff;}</style></defs><title>web development icons</title><g class="cls-1"><path class="cls-2" d="M121.07,152.2l-22-22m-9.42-9.42-11-11-6.28-6.28A6.66,6.66,0,1,0,63,113l1.57,1.57L44.15,134.94a51.13,51.13,0,0,0-4.4,67.19L28.46,213.42a6.66,6.66,0,1,0,9.42,9.42l11.29-11.29a51.13,51.13,0,0,0,67.19-4.4l20.41-20.41,1.57,1.57a6.66,6.66,0,1,0,9.42-9.42l-6.28-6.28-11-11m-23.55,36.1a37.74,37.74,0,0,1-53.37-53.37L74,123.95l53.37,53.37Z"/></g><path class="cls-3" d="M101.1,67.14,107.78,73l11.68,10.25L103.34,101.6a6.66,6.66,0,0,0,10,8.79L129.46,92l23.35,20.51L136.7,130.89a6.66,6.66,0,0,0,10,8.79l16.11-18.35,11.68,10.25,6.67,5.86a6.66,6.66,0,1,0,8.79-10L188.29,126l19-21.69a51.13,51.13,0,0,0,0-67.33l10.54-12a6.66,6.66,0,1,0-10-8.79l-10.54,12a51.13,51.13,0,0,0-66.76,8.75l-19,21.69-1.67-1.46a6.66,6.66,0,1,0-8.79,10ZM140.61,45.7a37.74,37.74,0,1,1,56.72,49.8l-19,21.69-56.72-49.8Z"/><path class="cls-4" d="M119.74,83.25,103.63,101.6a6.66,6.66,0,0,0,10,8.79L129.75,92l23.35,20.51L137,130.89a6.66,6.66,0,0,0,10,8.79l16.11-18.35m15.46-4.15"/></svg>