<svg id="Layer_1" data-name="Layer 1" xmlns="http://www.w3.org/2000/svg" viewBox="0 0 256 256"><defs><style>.cls-1{fill:#fff;}.cls-2{fill:none;}.cls-2,.cls-3{stroke:#fff;stroke-miterlimit:10;stroke-width:2px;}</style></defs><title>php benefits</title><path class="cls-1" d="M219.46,142.27a29.32,29.32,0,0,0-16.64-39.4l-1.8,4.88a24.14,24.14,0,0,1,14,31.7l-4.81-3.06,1.31,13.16L224,145.16Z"/><path class="cls-1" d="M206.9,149.86a24.08,24.08,0,0,1-32.75-4l4.68-2.65-12.22-5-2,13.07,5-2.8a29.31,29.31,0,0,0,40.41,5.6Z"/><path class="cls-1" d="M187.75,96l0,5.47a29.26,29.26,0,0,0-24.16,33.14l5.14-.74a24.13,24.13,0,0,1,19.06-27.13l0,5.6,10.33-8.25Z"/><path class="cls-1" d="M204,130.39a11.18,11.18,0,0,0-.19-2l2.69-1.55a14.1,14.1,0,0,0-3.71-6.43l-2.69,1.55a11.12,11.12,0,0,0-3.52-2v-3.1a13.74,13.74,0,0,0-7.42,0v3.1a11.12,11.12,0,0,0-3.52,2l-2.69-1.55a14.1,14.1,0,0,0-3.71,6.43l2.69,1.55a10.73,10.73,0,0,0,0,4.06L179.2,134a14.1,14.1,0,0,0,3.71,6.43l2.69-1.55a11.12,11.12,0,0,0,3.52,2V144a13.74,13.74,0,0,0,7.42,0v-3.1a11.12,11.12,0,0,0,3.52-2l2.69,1.55a14.1,14.1,0,0,0,3.71-6.43l-2.69-1.55A11.29,11.29,0,0,0,204,130.39Zm-11.14,5.2a5.2,5.2,0,1,1,5.2-5.2A5.2,5.2,0,0,1,192.83,135.59Z"/><path class="cls-2" d="M55,196.53s-6,3-39,21"/><path class="cls-2" d="M107.85,195.62s30,13,51.94,23"/><path class="cls-1" d="M70.26,82.59C74.94,75.71,72.05,65.3,65,60.81s-16.75-3.35-23.4,1.66-8.51,13.72-7.41,21.18a11.62,11.62,0,0,0,1,3.07c2.64,5.73,9.86,13,16.8,8.82"/><path class="cls-1" d="M126.5,119.11C150.52,78,106.08,57.72,82.82,63,61,68.06,51.23,78.33,47,92.57s-4.88,29.87.09,43.89c2.45,6.91,7.12,14,14.36,15.25"/><path class="cls-3" d="M69.24,85.43a6.88,6.88,0,0,0-6.5,6.66h0l-2.33,95.1c-.4,11,16.27,5.88,28,6.22h3c7-2,10.18,4.53,10.87-5.89,1.16-17.4,1.48-23.94,1.48-23.84s15.1-1.74,19.17-21.12c2-9.64,2.33-25.59,2.16-38.65-.15-11.76-7.2-26.52-18.94-25.87Z"/><path class="cls-1" d="M104.4,162.44s-16,1.45-28.41-8.08c0,0,1.9,18.09,27.62,16.19Z"/><path class="cls-1" d="M119.55,79.28a18.86,18.86,0,0,1-7.92,18.13c-3.32,2.23-7.26,3.32-11.13,4.38l-7.45,2c-5.5,1.5-11.08,3-16.78,2.92.29,6.39,1,10.68-2.41,16.08-3.08,4.84-7.56,8.24-13.36,6.83-2.3-15.37-2.41-22.64-2.17-38.18.05-3.29.16-6.76,1.94-9.53,2.94-4.57,9.14-5.44,14.56-5.87l22.83-1.8a45.67,45.67,0,0,1,11.18,0,15.37,15.37,0,0,1,9.64,5.2"/><path class="cls-3" d="M108.51,196.44a68.67,68.67,0,0,0,.05-9.72,5.62,5.62,0,0,0-1.2-3.66c-1.52-1.61-4.41-1.73-6.91-1.7l-36.59.42c-3,0-6.26.18-8.28,1.91s-1.93,4.37-1.84,6.77a25,25,0,0,0,.37,3.36,2.85,2.85,0,0,0,.65,1.39C58.06,199.09,83.05,203.25,108.51,196.44Z"/></svg>