<svg id="Layer_1" data-name="Layer 1" xmlns="http://www.w3.org/2000/svg" xmlns:xlink="http://www.w3.org/1999/xlink" viewBox="0 0 710 710"><defs><style>.cls-1,.cls-11,.cls-13{fill:none;}.cls-2{clip-path:url(#clip-path);}.cls-3,.cls-4,.cls-6,.cls-8{fill:#fff;}.cls-10,.cls-12,.cls-13,.cls-4,.cls-5,.cls-6,.cls-8{stroke:#000;}.cls-10,.cls-11,.cls-12,.cls-13,.cls-4,.cls-5,.cls-6,.cls-8{stroke-miterlimit:10;}.cls-10,.cls-11,.cls-4,.cls-5{stroke-width:2px;}.cls-12,.cls-5,.cls-7{fill:#5565ff;}.cls-13,.cls-6{stroke-width:3px;}.cls-9{fill:#fafafa;}.cls-10{fill:#070707;}.cls-11{stroke:#5565ff;}</style><clipPath id="clip-path"><circle class="cls-1" cx="355" cy="354" r="350"/></clipPath></defs><title>workflow svg</title><g class="cls-2"><circle class="cls-3" cx="355" cy="354" r="350"/><path d="M339,280.4l-.61.29-1.11.56c-.73.37-1.37.75-2.05,1.12q-2,1.14-3.8,2.34a83.84,83.84,0,0,0-7,5.13,96.13,96.13,0,0,0-12.21,11.84,107,107,0,0,0-10,13.55A119.19,119.19,0,0,0,294.56,330,129.37,129.37,0,0,0,289,345.52c-.69,2.63-1.46,5.26-2,7.92l-.86,4-.69,4a166.22,166.22,0,0,0-2.08,19.68l-.44-24.9A121.7,121.7,0,0,1,287.48,338c3.36-10.68,8.38-23.07,14-36.47,4.58-11,8.48-20.6,12.12-28.43s7.27-13.61,10.28-16.72c-3,3.08-8.6,7.11-14.63,13.8a95.81,95.81,0,0,0-17.43,27.27,128.15,128.15,0,0,0-9.24,37.19l-1-53.69a48.3,48.3,0,0,1,4.67-10.79c3.43-6.15,8.2-13,13-20.82a134.67,134.67,0,0,0,8.86-17.74c2.17-5.19,3.94-9.28,5.41-11.56-1.49,2.3-5.29,4.72-9.62,8.44a63.26,63.26,0,0,0-13.61,15.42,66.69,66.69,0,0,0-8.92,24.21L281,247.56c1.28-9.51,4.07-23.85,3.78-40.38-.31-17.7-5.79-30.85-5.9-37.1.11,6.25-4.89,19.58-4.58,37.29.29,16.53,3.6,30.77,5.21,40.23l.4,22.4a143.36,143.36,0,0,0-11.47-40.4A113.12,113.12,0,0,0,249,200.46a144.75,144.75,0,0,0-16.12-14.67c3.61,3,7.63,9.32,11.82,17.67s8.78,18.77,14.21,30.51c6.52,14.42,12.25,27.74,16.16,39.26A128.83,128.83,0,0,1,280.33,293l.61,34.57q-.8-6.42-2-12.72a206.9,206.9,0,0,0-7.41-27.58A238.51,238.51,0,0,0,260.74,261c-2-4.29-4.3-8.51-6.67-12.72a123.46,123.46,0,0,0-8.32-12.66c3.85,5,4.46,10.3,4.09,15.4a42,42,0,0,1-1.47,7.43c-.72,2.4-1.56,4.68-2.37,6.8-1.2,3.07-1,5.36.1,7.26a17,17,0,0,0,4.61,4.95c3.56,3,7.33,5.77,4.81,10s-5.45,8.18-5.12,12.72a13.28,13.28,0,0,0,3.24,7.54c2.08,2.85,5.56,6.05,10.47,10.2a58.14,58.14,0,0,1,8.13,8.34,72.49,72.49,0,0,1,5.68,8.39c1.46,2.59,2.46,4.89,3.18,6.5l.09.2.7,39.53c-.16-.88-5-25.73-20-39.25-14.14-12.71-27.2-16.6-30.65-18.43,3.48,1.84,23.49,25.69,30,33.91,10.1,12.68,20.23,15.21,20.54,33v0l.85,1.44.87-2.25a24.19,24.19,0,0,1,1.14-4.58,30.45,30.45,0,0,1,4-7.29,45.69,45.69,0,0,1,5.42-6c2-1.77,4-3.35,5.87-4.78a9.44,9.44,0,0,0,4.23-6.58c.4-2.31-.19-4.82-.6-7.27-.23-1.23-.48-2.46-.65-3.65a14.83,14.83,0,0,1-.06-3.36,5.32,5.32,0,0,1,3.57-4.77c4.73-1.87,9.63-3,12.62-6.56a11.22,11.22,0,0,0,2-3.24,20.85,20.85,0,0,0,1.34-4.59c.67-3.64,1-8.4,1.43-15.21a48.07,48.07,0,0,1,7.79-22.29c3.73-5.71,7.63-8.91,8.29-9.16Z"/><path d="M241.7,294.93c24.95,29.22,30.72,116.21,30.72,116.21l-28.68-4.21L223.18,349.5Z"/><path d="M103.1,299.5c5.57-6.33,35.22-27.14,73-24.88,33.34,2,60.31,12.29,65.56,20.3,3.84,5.86-6.81,42.7-8.51,59.41-1.76,17.31-9.12,48.53-9.12,62.81,0,0-95.23,20-95.78,20.52s-12-69.52-13.47-87.09S116.65,313.6,103.1,299.5Z"/><path class="cls-4" d="M154.13,241.81s-.47,29.3,0,38.05,14,16.62,19.06,16.84,16.18-7.22,17.93-19.68V250.56Z"/><path d="M153.95,257.73c.06-8.49.18-15.92.18-15.92l37,8.75v21.7c-3.08,13.56-23.54,9.86-28.41-3C159.92,261.89,157.53,259.7,153.95,257.73Z"/><path class="cls-4" d="M200.92,230.43c-1.39,21.47-10.14,42.25-24,40.06-17.2-2.72-22.42-28.8-21.74-43s8.78-23.1,21.11-23.11C188,204.35,202.1,212.25,200.92,230.43Z"/><path class="cls-4" d="M151.14,237.58c.92,4.28,3,7.53,4.65,7.25s2.24-4,1.32-8.25-3-7.53-4.65-7.25S150.22,233.3,151.14,237.58Z"/><path d="M200.64,233.79c2.62-4,2.8-5.58,2.61-12.24s-5.81-6.89-5.69-9.74S194,201.31,179.23,200.7s-13.93,6.18-18.52,6.62-11.71,5.15-8.24,22c0,0,4,.38,5.62,8.53a.73.73,0,0,0,1.29.24,10.69,10.69,0,0,0,1.36-3.12c1.11-4.07,5.54,2,6.35-6.07.57-5.78,14.69,4.83,25.16-4.55,0,0,1.56,2.07,6,1.94C200.84,226.22,200.64,233.79,200.64,233.79Z"/><path class="cls-4" d="M191.12,277v-6.37c5.53,2.43,10.65,4.48,11.21,7.64,1.1,6.2-3.87,24.22-11.21,30.58,0,0-1.22,1.56-3.5-1.92s-10.08-11.45-12.78-10.41v0C180.33,295.38,189.54,288.26,191.12,277Z"/><path class="cls-4" d="M144.89,275.94c1.53-3.46,6.49-6.27,9-7.48,0,4.7.07,8.9.21,11.4.41,7.61,10.71,14.55,16.7,16.38h0c-2.83-1.1-13.22,10-15,13s-4-.5-7.68-8.75S142.39,281.58,144.89,275.94Z"/><path d="M81.49,383.57c0-24.3,6.57-81.71,23.37-84.79,11.19-2.05,15.82,10.13,21.38,39.92,1.66,8.9-1.17,34.34-1.9,45.08Z"/><path class="cls-4" d="M423.45,339.79a12.42,12.42,0,0,1,7.13-7.07c1.56-.45,9.15-.13,15.39,0a13.43,13.43,0,0,1,6.93,1.73c2,1.23,3.19,3.46,4.41,3.46,2.22,0,23.62.16,23.62.16a80.65,80.65,0,0,1,12.74-7.7c11.72-2.68,30.49,24.72,11.75,28.11-18.91,4.69-56.24-2.16-71.93-7.52a17.18,17.18,0,0,1-8.65-6.38C423.71,343,422.95,341.23,423.45,339.79Z"/><polygon points="500.21 286.89 493.05 329.77 511.39 353.71 519.32 290.67 500.21 286.89"/><path d="M532.82,450.8c2.06,11,13.78,26.44,21.23,48.74H511.47c-4.08-26.79-6.47-62.64-.64-94.6l23.25-.11C531.81,415.6,530.88,440.45,532.82,450.8Z"/><path class="cls-5" d="M534.07,406.25a43.81,43.81,0,0,1,.94-4.83l72.69.21c-1,50.51-2.62,104.78-4.31,143.09l-48.12,2.64c-7.45-31.61-20.39-60.37-22.45-76C530.88,456.75,531.81,421.52,534.07,406.25Z"/><path d="M558.58,228.42c43.79-11.75,73.36,7.8,78.22,35.87,4.43,25.64-27.76,105-27.76,137.13,0,0-50.74,28.55-98.36,5.2,0,0,6-35.85-1.16-66s-16.64-47.44-8.57-69.07C508,252.65,538.1,233.91,558.58,228.42Z"/><path d="M602.84,331.19c-.43-9.13-6.08-32.82-14-48s-4.06-34.6,6.77-42.22,25.83-6.22,33,4.32c19.2,28.34,13.63,92.06,3.27,113.57-2.06,4.27-7,7-13.74,8.71C632.64,361,618,327.71,602.84,331.19Z"/><polygon class="cls-6" points="543.43 498.78 276.14 512.34 247.87 565.36 568.91 546.57 543.43 498.78"/><rect x="304.93" y="525.66" width="8.78" height="8.78"/><rect class="cls-7" x="319.65" y="525.66" width="8.78" height="8.78"/><path class="cls-8" d="M575.6,173.12l0,.28"/><path class="cls-4" d="M562.94,192.66s9,27,13.65,36.26-13.34,18.19-25.3,20.41c-7.9,1.47-23.15.73-14.76-9.75,0,0,4.71-5.85-2.91-19.37C533.62,220.21,559.28,187.94,562.94,192.66Z"/><path d="M533.62,220.21s11.9-15,20.65-23l4.5,4.54c1.61,15.27-6.15,40.13-22.23,37.84C536.53,239.57,541.24,233.72,533.62,220.21Z"/><path class="cls-4" d="M557.74,186.5c1.49-8.5,8.85-6.51,8.67,1-.21,8.55-5,12.81-7.25,10,0,0-.57,19.28-11.5,27s-18.63.45-26-15c-6.31-13.26-8.41-27.41-7.75-32.33,1.73-12.83,17.58-18,28.93-13.12C556.78,170,557.74,186.5,557.74,186.5Z"/><path d="M557.74,186.5c-1.26,4.87-3.36,8.23-5.55,5.62s-5.3-14.46-13.76-9.79-15.62,9.29-25.81,4.3c-13.16-6.44-9.6-26.12,3.67-25.05,0,0-2.93-8.27,7.47-7.84,9.52.4,9.25,2.2,17.66-2.33,4.84-2.61,24.7,6.94,22.62,30.16C564,181.57,559.71,178.91,557.74,186.5Z"/><path d="M126.73,435.29S92.06,421.82,81.8,415.13c-6-3.89-1.19-25.24-.16-36,2.76-28.69,41.2-10.31,43.37,18.25l9,14.2Z"/><path class="cls-4" d="M138.91,429.29l-2.18-2.16-6.88,2.21a11,11,0,0,1-3.7.53l-3.76-.39s-6.35-1.56-6.34-9.11a9.23,9.23,0,0,1,9.4-9.48l5.07.43a10.8,10.8,0,0,0,2.22-.16l10.6-1.89a6.49,6.49,0,0,1,4.54.86l5.87,3.6a15.07,15.07,0,0,1,3.09,2.51l10.51,11.17a2.14,2.14,0,0,1-1.62,3.61l-24.44-.71A3.5,3.5,0,0,1,138.91,429.29Z"/><polygon points="475.11 295.48 490.11 315.5 514.3 347.79 564.02 353.32 531.41 301.75 475.11 295.48"/><path class="cls-7" d="M483,296.24s-13.81,3.62-2.3,15.65,28.89,18.62,30.47,26.23a12.2,12.2,0,0,1-3.7,11.82l38.07,4.47s12.78-7.86,5.82-17.86-26.91-26-28.92-29.8,4.56-5.49,4.56-5.49Z"/><polygon points="495.04 297.61 493.85 295.63 514.44 297.68 514.1 299.79 495.04 297.61"/><path class="cls-9" d="M518.93,307.4c0,.15-2,.13-5.19,0s-7.62-.51-12.49-1-9.27-1.13-12.43-1.71-5.08-1.14-5-1.26a46.72,46.72,0,0,1,5.15.63c3.17.42,7.56.93,12.42,1.44l12.45,1.29A36.19,36.19,0,0,1,518.93,307.4Z"/><ellipse class="cls-9" cx="505.35" cy="311.88" rx="0.46" ry="16.77" transform="translate(138.28 778.68) rotate(-83.5)"/><path class="cls-9" d="M530,319.91a24.53,24.53,0,0,1-4.87.07c-3-.09-7.15-.31-11.72-.69s-8.69-.85-11.67-1.27a24.52,24.52,0,0,1-4.79-.88,27.16,27.16,0,0,1,4.86.24l11.68,1,11.68,1A27.11,27.11,0,0,1,530,319.91Z"/><ellipse class="cls-9" cx="520.53" cy="326.17" rx="0.46" ry="14.4" transform="translate(153.1 818.45) rotate(-85.33)"/><ellipse class="cls-9" cx="528.88" cy="333.81" rx="0.46" ry="13.97" transform="matrix(0.06, -1, 1, 0.06, 165.89, 843.1)"/><path class="cls-9" d="M545.65,343.48a18.26,18.26,0,0,1-4.2,0c-2.59-.12-6.16-.39-10.09-.82s-7.47-1-10-1.41a18.25,18.25,0,0,1-4.1-.94,20.3,20.3,0,0,1,4.19.3l10,1.14,10,1.08A20.32,20.32,0,0,1,545.65,343.48Z"/><circle class="cls-7" cx="236.11" cy="402.44" r="5.85"/><path class="cls-4" d="M511.85,343.37a16.1,16.1,0,0,1,9.24-9.16c2-.58,11.85-.16,19.94,0a17.41,17.41,0,0,1,9,2.24c2.55,1.6,4.14,4.49,5.71,4.49,2.87,0,30.61.2,30.61.2a104.53,104.53,0,0,1,16.51-10c15.19-3.47,29.8,29.77,15.23,36.43-24.51,6.08-72.89-2.8-93.23-9.74a22.27,22.27,0,0,1-11.21-8.27C512.18,347.51,511.2,345.23,511.85,343.37Z"/><path d="M84.28,466.56s23,26.61,57.61,33.26,82.46,4.6,82.46,4.6l31.09-74-155.17.33Z"/><rect class="cls-4" x="122.72" y="433.07" width="44.1" height="8.51"/><path class="cls-4" d="M268,441.57H161.76l23-67a7.08,7.08,0,0,1,6.74-4.69H292.17a3.44,3.44,0,0,1,3.38,4.49l-21.64,63A6.26,6.26,0,0,1,268,441.57Z"/><path class="cls-10" d="M180.93,473.36S281.74,423.25,291.12,420s24.91-.29,23.15,22.27-119.86,62.13-119.86,62.13Z"/><path class="cls-5" d="M207.74,485S119.69,435.85,106.5,432s-25.5-.88-29,8.5-1.76,23.44,17.88,34,104.32,36.34,104.32,36.34Z"/><path class="cls-4" d="M207.74,485s24.1-9,29.46-9.56,10,4.69,7.91,16.12-4.64,23.74-15.21,26.37-30.21-7-30.21-7Z"/><path class="cls-11" d="M153.05,439.33l-13.5.43,9.54,69.07c.21,6.54,5,11.69,10.68,11.51l24.27-.78c3-.1,5.48,2.6,5.59,6h0c.11,3.43-2.22,6.28-5.19,6.38l-38.25,1.23c-5.55.18-9.89,5.5-9.68,11.88h0c.21,6.38,4.87,11.41,10.43,11.24L251.14,553c2.84-.09,5.06-2.82,5-6.09h0c-.11-3.27-2.5-5.85-5.34-5.75l-15.32.49c-2.37.08-4.36-2.07-4.45-4.8h0c-.09-2.72,1.76-5,4.13-5.07l75.09-2.42"/><circle class="cls-12" cx="234.26" cy="405.64" r="5.91"/><line class="cls-13" x1="39.97" y1="577" x2="664.03" y2="541.85"/><path class="cls-4" d="M468.64,316.37c-14-89.85-61.19-142.52-61.19-142.52s-47.15,52.67-61.19,142.52c-8.83,56.49,2.68,139.2,2.68,139.2h0a197.4,197.4,0,0,0,117,0h0S477.46,372.87,468.64,316.37Z"/><path d="M345.24,419l-21.46,19.79-1,67.41a4.91,4.91,0,0,0,9.21,2.43l30.23-50.12-16.48-33.68Z"/><path d="M469.66,408l21.46,19.79-.22,69.85a4.91,4.91,0,0,1-9.21,2.43l-29-52.55,16.48-33.68Z"/><path d="M345.73,426c1.57,17.74,3.21,29.56,3.21,29.56a197.4,197.4,0,0,0,117,0h0s1.64-11.82,3.21-29.56A209.11,209.11,0,0,1,345.73,426Z"/><path d="M407.45,173.86S365.54,220.7,349,301.39H465.91C449.36,220.7,407.45,173.86,407.45,173.86Z"/><circle class="cls-4" cx="407.45" cy="301.39" r="37.27"/><circle class="cls-7" cx="407.45" cy="301.39" r="27.4"/><rect x="402.14" y="420.17" width="10.62" height="84.7"/><path d="M407.45,504.87h0a5.31,5.31,0,0,1-5.31-5.31V433h10.62v66.52A5.31,5.31,0,0,1,407.45,504.87Z"/></g></svg>