<svg id="Layer_1" data-name="Layer 1" xmlns="http://www.w3.org/2000/svg" xmlns:xlink="http://www.w3.org/1999/xlink" viewBox="0 0 700 700"><defs><style>.cls-1,.cls-11,.cls-13{fill:none;}.cls-2{clip-path:url(#clip-path);}.cls-3,.cls-4,.cls-6,.cls-8{fill:#fff;}.cls-10,.cls-12,.cls-13,.cls-4,.cls-5,.cls-6,.cls-8{stroke:#000;}.cls-10,.cls-11,.cls-12,.cls-13,.cls-4,.cls-5,.cls-6,.cls-8{stroke-miterlimit:10;}.cls-10,.cls-11,.cls-4,.cls-5{stroke-width:2px;}.cls-12,.cls-5,.cls-7{fill:#5565ff;}.cls-13,.cls-6{stroke-width:3px;}.cls-9{fill:#fafafa;}.cls-10{fill:#070707;}.cls-11{stroke:#5565ff;}</style><clipPath id="clip-path"><circle class="cls-1" cx="350" cy="349" r="350"/></clipPath></defs><title>workflow svg</title><g class="cls-2"><circle class="cls-3" cx="350" cy="349" r="350"/><path d="M334,275.4l-.61.29-1.11.56c-.73.37-1.37.75-2.05,1.12q-2,1.14-3.8,2.34a83.84,83.84,0,0,0-7,5.13,96.13,96.13,0,0,0-12.21,11.84,107,107,0,0,0-10,13.55A119.19,119.19,0,0,0,289.56,325,129.37,129.37,0,0,0,284,340.52c-.69,2.63-1.46,5.26-2,7.92l-.86,4-.69,4a166.22,166.22,0,0,0-2.08,19.68l-.44-24.9A121.7,121.7,0,0,1,282.48,333c3.36-10.68,8.38-23.07,14-36.47,4.58-11,8.48-20.6,12.12-28.43s7.27-13.61,10.28-16.72c-3,3.08-8.6,7.11-14.63,13.8a95.81,95.81,0,0,0-17.43,27.27,128.15,128.15,0,0,0-9.24,37.19l-1-53.69a48.3,48.3,0,0,1,4.67-10.79c3.43-6.15,8.2-13,13-20.82a134.67,134.67,0,0,0,8.86-17.74c2.17-5.19,3.94-9.28,5.41-11.56-1.49,2.3-5.29,4.72-9.62,8.44a63.26,63.26,0,0,0-13.61,15.42,66.69,66.69,0,0,0-8.92,24.21L276,242.56c1.28-9.51,4.07-23.85,3.78-40.38-.31-17.7-5.79-30.85-5.9-37.1.11,6.25-4.89,19.58-4.58,37.29.29,16.53,3.6,30.77,5.21,40.23l.4,22.4a143.36,143.36,0,0,0-11.47-40.4A113.12,113.12,0,0,0,244,195.46a144.75,144.75,0,0,0-16.12-14.67c3.61,3,7.63,9.32,11.82,17.67s8.78,18.77,14.21,30.51c6.52,14.42,12.25,27.74,16.16,39.26A128.83,128.83,0,0,1,275.33,288l.61,34.57q-.8-6.42-2-12.72a206.9,206.9,0,0,0-7.41-27.58A238.51,238.51,0,0,0,255.74,256c-2-4.29-4.3-8.51-6.67-12.72a123.46,123.46,0,0,0-8.32-12.66c3.85,5,4.46,10.3,4.09,15.4a42,42,0,0,1-1.47,7.43c-.72,2.4-1.56,4.68-2.37,6.8-1.2,3.07-1,5.36.1,7.26a17,17,0,0,0,4.61,4.95c3.56,3,7.33,5.77,4.81,10s-5.45,8.18-5.12,12.72a13.28,13.28,0,0,0,3.24,7.54c2.08,2.85,5.56,6.05,10.47,10.2a58.14,58.14,0,0,1,8.13,8.34,72.49,72.49,0,0,1,5.68,8.39c1.46,2.59,2.46,4.89,3.18,6.5l.09.2.7,39.53c-.16-.88-5-25.73-20-39.25-14.14-12.71-27.2-16.6-30.65-18.43,3.48,1.84,23.49,25.69,30,33.91,10.1,12.68,20.23,15.21,20.54,33v0l.85,1.44.87-2.25a24.19,24.19,0,0,1,1.14-4.58,30.45,30.45,0,0,1,4-7.29,45.69,45.69,0,0,1,5.42-6c2-1.77,4-3.35,5.87-4.78a9.44,9.44,0,0,0,4.23-6.58c.4-2.31-.19-4.82-.6-7.27-.23-1.23-.48-2.46-.65-3.65a14.83,14.83,0,0,1-.06-3.36,5.32,5.32,0,0,1,3.57-4.77c4.73-1.87,9.63-3,12.62-6.56a11.22,11.22,0,0,0,2-3.24,20.85,20.85,0,0,0,1.34-4.59c.67-3.64,1-8.4,1.43-15.21a48.07,48.07,0,0,1,7.79-22.29c3.73-5.71,7.63-8.91,8.29-9.16Z"/><path d="M236.7,289.93c24.95,29.22,30.72,116.21,30.72,116.21l-28.68-4.21L218.18,344.5Z"/><path d="M98.1,294.5c5.57-6.33,35.22-27.14,73-24.88,33.34,2,60.31,12.29,65.56,20.3,3.84,5.86-6.81,42.7-8.51,59.41-1.76,17.31-9.12,48.53-9.12,62.81,0,0-95.23,20-95.78,20.52s-12-69.52-13.47-87.09S111.65,308.6,98.1,294.5Z"/><path class="cls-4" d="M149.13,236.81s-.47,29.3,0,38.05,14,16.62,19.06,16.84,16.18-7.22,17.93-19.68V245.56Z"/><path d="M148.95,252.73c.06-8.49.18-15.92.18-15.92l37,8.75v21.7c-3.08,13.56-23.54,9.86-28.41-3C154.92,256.89,152.53,254.7,148.95,252.73Z"/><path class="cls-4" d="M195.92,225.43c-1.39,21.47-10.14,42.25-24,40.06-17.2-2.72-22.42-28.8-21.74-43s8.78-23.1,21.11-23.11C183,199.35,197.1,207.25,195.92,225.43Z"/><path class="cls-4" d="M146.14,232.58c.92,4.28,3,7.53,4.65,7.25s2.24-4,1.32-8.25-3-7.53-4.65-7.25S145.22,228.3,146.14,232.58Z"/><path d="M195.64,228.79c2.62-4,2.8-5.58,2.61-12.24s-5.81-6.89-5.69-9.74S189,196.31,174.23,195.7s-13.93,6.18-18.52,6.62-11.71,5.15-8.24,22c0,0,4,.38,5.62,8.53a.73.73,0,0,0,1.29.24,10.69,10.69,0,0,0,1.36-3.12c1.11-4.07,5.54,2,6.35-6.07.57-5.78,14.69,4.83,25.16-4.55,0,0,1.56,2.07,6,1.94C195.84,221.22,195.64,228.79,195.64,228.79Z"/><path class="cls-4" d="M186.12,272v-6.37c5.53,2.43,10.65,4.48,11.21,7.64,1.1,6.2-3.87,24.22-11.21,30.58,0,0-1.22,1.56-3.5-1.92s-10.08-11.45-12.78-10.41v0C175.33,290.38,184.54,283.26,186.12,272Z"/><path class="cls-4" d="M139.89,270.94c1.53-3.46,6.49-6.27,9-7.48,0,4.7.07,8.9.21,11.4.41,7.61,10.71,14.55,16.7,16.38h0c-2.83-1.1-13.22,10-15,13s-4-.5-7.68-8.75S137.39,276.58,139.89,270.94Z"/><path d="M76.49,378.57c0-24.3,6.57-81.71,23.37-84.79,11.19-2.05,15.82,10.13,21.38,39.92,1.66,8.9-1.17,34.34-1.9,45.08Z"/><path class="cls-4" d="M418.45,334.79a12.42,12.42,0,0,1,7.13-7.07c1.56-.45,9.15-.13,15.39,0a13.43,13.43,0,0,1,6.93,1.73c2,1.23,3.19,3.46,4.41,3.46,2.22,0,23.62.16,23.62.16a80.65,80.65,0,0,1,12.74-7.7c11.72-2.68,30.49,24.72,11.75,28.11-18.91,4.69-56.24-2.16-71.93-7.52a17.18,17.18,0,0,1-8.65-6.38C418.71,338,417.95,336.23,418.45,334.79Z"/><polygon points="495.21 281.89 488.05 324.77 506.39 348.71 514.32 285.67 495.21 281.89"/><path d="M527.82,445.8c2.06,11,13.78,26.44,21.23,48.74H506.47c-4.08-26.79-6.47-62.64-.64-94.6l23.25-.11C526.81,410.6,525.88,435.45,527.82,445.8Z"/><path class="cls-5" d="M529.07,401.25a43.81,43.81,0,0,1,.94-4.83l72.69.21c-1,50.51-2.62,104.78-4.31,143.09l-48.12,2.64c-7.45-31.61-20.39-60.37-22.45-76C525.88,451.75,526.81,416.52,529.07,401.25Z"/><path d="M553.58,223.42c43.79-11.75,73.36,7.8,78.22,35.87,4.43,25.64-27.76,105-27.76,137.13,0,0-50.74,28.55-98.36,5.2,0,0,6-35.85-1.16-66s-16.64-47.44-8.57-69.07C503,247.65,533.1,228.91,553.58,223.42Z"/><path d="M597.84,326.19c-.43-9.13-6.08-32.82-14-48s-4.06-34.6,6.77-42.22,25.83-6.22,33,4.32c19.2,28.34,13.63,92.06,3.27,113.57-2.06,4.27-7,7-13.74,8.71C627.64,356,613,322.71,597.84,326.19Z"/><polygon class="cls-6" points="538.43 493.78 271.14 507.34 242.87 560.36 563.91 541.57 538.43 493.78"/><rect x="299.93" y="520.66" width="8.78" height="8.78"/><rect class="cls-7" x="314.65" y="520.66" width="8.78" height="8.78"/><path class="cls-8" d="M570.6,168.12l0,.28"/><path class="cls-4" d="M557.94,187.66s9,27,13.65,36.26-13.34,18.19-25.3,20.41c-7.9,1.47-23.15.73-14.76-9.75,0,0,4.71-5.85-2.91-19.37C528.62,215.21,554.28,182.94,557.94,187.66Z"/><path d="M528.62,215.21s11.9-15,20.65-23l4.5,4.54c1.61,15.27-6.15,40.13-22.23,37.84C531.53,234.57,536.24,228.72,528.62,215.21Z"/><path class="cls-4" d="M552.74,181.5c1.49-8.5,8.85-6.51,8.67,1-.21,8.55-5,12.81-7.25,10,0,0-.57,19.28-11.5,27s-18.63.45-26-15c-6.31-13.26-8.41-27.41-7.75-32.33,1.73-12.83,17.58-18,28.93-13.12C551.78,165,552.74,181.5,552.74,181.5Z"/><path d="M552.74,181.5c-1.26,4.87-3.36,8.23-5.55,5.62s-5.3-14.46-13.76-9.79-15.62,9.29-25.81,4.3c-13.16-6.44-9.6-26.12,3.67-25.05,0,0-2.93-8.27,7.47-7.84,9.52.4,9.25,2.2,17.66-2.33,4.84-2.61,24.7,6.94,22.62,30.16C559,176.57,554.71,173.91,552.74,181.5Z"/><path d="M121.73,430.29S87.06,416.82,76.8,410.13c-6-3.89-1.19-25.24-.16-36,2.76-28.69,41.2-10.31,43.37,18.25l9,14.2Z"/><path class="cls-4" d="M133.91,424.29l-2.18-2.16-6.88,2.21a11,11,0,0,1-3.7.53l-3.76-.39s-6.35-1.56-6.34-9.11a9.23,9.23,0,0,1,9.4-9.48l5.07.43a10.8,10.8,0,0,0,2.22-.16l10.6-1.89a6.49,6.49,0,0,1,4.54.86l5.87,3.6a15.07,15.07,0,0,1,3.09,2.51l10.51,11.17a2.14,2.14,0,0,1-1.62,3.61l-24.44-.71A3.5,3.5,0,0,1,133.91,424.29Z"/><polygon points="470.11 290.48 485.11 310.5 509.3 342.79 559.02 348.32 526.41 296.75 470.11 290.48"/><path class="cls-7" d="M478,291.24s-13.81,3.62-2.3,15.65,28.89,18.62,30.47,26.23a12.2,12.2,0,0,1-3.7,11.82l38.07,4.47s12.78-7.86,5.82-17.86-26.91-26-28.92-29.8,4.56-5.49,4.56-5.49Z"/><polygon points="490.04 292.61 488.85 290.63 509.44 292.68 509.1 294.79 490.04 292.61"/><path class="cls-9" d="M513.93,302.4c0,.15-2,.13-5.19,0s-7.62-.51-12.49-1-9.27-1.13-12.43-1.71-5.08-1.14-5-1.26a46.72,46.72,0,0,1,5.15.63c3.17.42,7.56.93,12.42,1.44l12.45,1.29A36.19,36.19,0,0,1,513.93,302.4Z"/><ellipse class="cls-9" cx="500.35" cy="306.88" rx="0.46" ry="16.77" transform="translate(138.81 769.28) rotate(-83.5)"/><path class="cls-9" d="M525,314.91a24.53,24.53,0,0,1-4.87.07c-3-.09-7.15-.31-11.72-.69s-8.69-.85-11.67-1.27a24.52,24.52,0,0,1-4.79-.88,27.16,27.16,0,0,1,4.86.24l11.68,1,11.68,1A27.11,27.11,0,0,1,525,314.91Z"/><ellipse class="cls-9" cx="515.53" cy="321.17" rx="0.46" ry="14.4" transform="translate(153.49 808.87) rotate(-85.33)"/><ellipse class="cls-9" cx="523.88" cy="328.81" rx="0.46" ry="13.97" transform="matrix(0.06, -1, 1, 0.06, 166.16, 833.39)"/><path class="cls-9" d="M540.65,338.48a18.26,18.26,0,0,1-4.2,0c-2.59-.12-6.16-.39-10.09-.82s-7.47-1-10-1.41a18.25,18.25,0,0,1-4.1-.94,20.3,20.3,0,0,1,4.19.3l10,1.14,10,1.08A20.32,20.32,0,0,1,540.65,338.48Z"/><circle class="cls-7" cx="231.11" cy="397.44" r="5.85"/><path class="cls-4" d="M506.85,338.37a16.1,16.1,0,0,1,9.24-9.16c2-.58,11.85-.16,19.94,0a17.41,17.41,0,0,1,9,2.24c2.55,1.6,4.14,4.49,5.71,4.49,2.87,0,30.61.2,30.61.2a104.53,104.53,0,0,1,16.51-10c15.19-3.47,29.8,29.77,15.23,36.43-24.51,6.08-72.89-2.8-93.23-9.74a22.27,22.27,0,0,1-11.21-8.27C507.18,342.51,506.2,340.23,506.85,338.37Z"/><path d="M79.28,461.56s23,26.61,57.61,33.26,82.46,4.6,82.46,4.6l31.09-74-155.17.33Z"/><rect class="cls-4" x="117.72" y="428.07" width="44.1" height="8.51"/><path class="cls-4" d="M263,436.57H156.76l23-67a7.08,7.08,0,0,1,6.74-4.69H287.17a3.44,3.44,0,0,1,3.38,4.49l-21.64,63A6.26,6.26,0,0,1,263,436.57Z"/><path class="cls-10" d="M175.93,468.36S276.74,418.25,286.12,415s24.91-.29,23.15,22.27-119.86,62.13-119.86,62.13Z"/><path class="cls-5" d="M202.74,480S114.69,430.85,101.5,427s-25.5-.88-29,8.5-1.76,23.44,17.88,34,104.32,36.34,104.32,36.34Z"/><path class="cls-4" d="M202.74,480s24.1-9,29.46-9.56,10,4.69,7.91,16.12-4.64,23.74-15.21,26.37-30.21-7-30.21-7Z"/><path class="cls-11" d="M148.05,434.33l-13.5.43,9.54,69.07c.21,6.54,5,11.69,10.68,11.51l24.27-.78c3-.1,5.48,2.6,5.59,6h0c.11,3.43-2.22,6.28-5.19,6.38l-38.25,1.23c-5.55.18-9.89,5.5-9.68,11.88h0c.21,6.38,4.87,11.41,10.43,11.24L246.14,548c2.84-.09,5.06-2.82,5-6.09h0c-.11-3.27-2.5-5.85-5.34-5.75l-15.32.49c-2.37.08-4.36-2.07-4.45-4.8h0c-.09-2.72,1.76-5,4.13-5.07l75.09-2.42"/><circle class="cls-12" cx="229.26" cy="400.64" r="5.91"/><line class="cls-13" x1="34.97" y1="572" x2="659.03" y2="536.85"/><path class="cls-4" d="M463.64,311.37c-14-89.85-61.19-142.52-61.19-142.52s-47.15,52.67-61.19,142.52c-8.83,56.49,2.68,139.2,2.68,139.2h0a197.4,197.4,0,0,0,117,0h0S472.46,367.87,463.64,311.37Z"/><path d="M340.24,414l-21.46,19.79-1,67.41a4.91,4.91,0,0,0,9.21,2.43l30.23-50.12-16.48-33.68Z"/><path d="M464.66,403l21.46,19.79-.22,69.85a4.91,4.91,0,0,1-9.21,2.43l-29-52.55,16.48-33.68Z"/><path d="M340.73,421c1.57,17.74,3.21,29.56,3.21,29.56a197.4,197.4,0,0,0,117,0h0s1.64-11.82,3.21-29.56A209.11,209.11,0,0,1,340.73,421Z"/><path d="M402.45,168.86S360.54,215.7,344,296.39H460.91C444.36,215.7,402.45,168.86,402.45,168.86Z"/><circle class="cls-4" cx="402.45" cy="296.39" r="37.27"/><circle class="cls-7" cx="402.45" cy="296.39" r="27.4"/><rect x="397.14" y="415.17" width="10.62" height="84.7"/><path d="M402.45,499.87h0a5.31,5.31,0,0,1-5.31-5.31V428h10.62v66.52A5.31,5.31,0,0,1,402.45,499.87Z"/></g></svg>