<svg id="Layer_1" data-name="Layer 1" xmlns="http://www.w3.org/2000/svg" xmlns:xlink="http://www.w3.org/1999/xlink" viewBox="0 0 710 710"><defs><style>.cls-1{fill:none;}.cls-2{clip-path:url(#clip-path);}.cls-3,.cls-4{fill:#fff;}.cls-4,.cls-5,.cls-8{stroke:#000;stroke-miterlimit:10;}.cls-4,.cls-5{stroke-width:2px;}.cls-5,.cls-6,.cls-8{fill:#5565ff;}.cls-7{fill:#fafafa;}</style><clipPath id="clip-path"><circle class="cls-1" cx="355" cy="355" r="350"/></clipPath></defs><title>workflow svg</title><g class="cls-2"><circle class="cls-3" cx="355" cy="355" r="350"/><path d="M158,422.49l-.64.31-1.16.59c-.76.39-1.43.78-2.14,1.17q-2,1.19-4,2.44a87.4,87.4,0,0,0-7.29,5.35,100.21,100.21,0,0,0-12.73,12.35,111.49,111.49,0,0,0-10.39,14.13,124.26,124.26,0,0,0-8,15.4,134.86,134.86,0,0,0-5.79,16.17c-.72,2.75-1.53,5.48-2.08,8.25l-.9,4.15-.72,4.16A173.28,173.28,0,0,0,100,527.46l-.46-26a126.87,126.87,0,0,1,4.74-18.94c3.5-11.13,8.74-24,14.56-38,4.77-11.43,8.84-21.47,12.64-29.63s7.58-14.19,10.72-17.43c-3.1,3.21-9,7.41-15.25,14.38a99.88,99.88,0,0,0-18.17,28.43,133.6,133.6,0,0,0-9.63,38.77l-1-56A50.35,50.35,0,0,1,103,411.84c3.58-6.41,8.55-13.53,13.53-21.7a140.39,140.39,0,0,0,9.23-18.49c2.26-5.41,4.1-9.67,5.64-12.05-1.55,2.4-5.51,4.92-10,8.8a66,66,0,0,0-14.19,16.07,69.52,69.52,0,0,0-9.3,25.23l-.38-21.44c1.33-9.91,4.24-24.86,3.94-42.09-.33-18.46-6-32.16-6.15-38.68.12,6.52-5.1,20.41-4.77,38.87.31,17.24,3.75,32.08,5.43,41.94l.41,23.35a149.45,149.45,0,0,0-12-42.12,117.92,117.92,0,0,0-20.27-30.38,150.89,150.89,0,0,0-16.8-15.29c3.77,3.17,8,9.71,12.32,18.42s9.16,19.56,14.82,31.81c6.8,15,12.77,28.92,16.85,40.93a134.3,134.3,0,0,1,5.47,20.6l.64,36q-.83-6.69-2.11-13.26a215.69,215.69,0,0,0-7.73-28.75,248.64,248.64,0,0,0-11.22-27.41c-2.13-4.47-4.48-8.88-7-13.26a128.7,128.7,0,0,0-8.67-13.2c4,5.23,4.65,10.74,4.27,16.05a43.82,43.82,0,0,1-1.54,7.75c-.75,2.5-1.63,4.88-2.47,7.09-1.25,3.2-1,5.59.1,7.57a17.73,17.73,0,0,0,4.81,5.16c3.71,3.1,7.64,6,5,10.45s-5.68,8.53-5.34,13.26A13.85,13.85,0,0,0,69,451c2.17,3,5.79,6.31,10.92,10.64a60.61,60.61,0,0,1,8.48,8.7A75.57,75.57,0,0,1,94.3,479c1.52,2.7,2.56,5.09,3.31,6.78l.09.21.73,41.21c-.16-.92-5.17-26.82-20.86-40.92-14.74-13.25-28.36-17.3-32-19.21,3.62,1.92,24.49,26.78,31.32,35.35C87.47,515.67,98,518.3,98.36,536.87v0l.88,1.5.91-2.35a25.22,25.22,0,0,1,1.19-4.78,31.74,31.74,0,0,1,4.13-7.6,47.64,47.64,0,0,1,5.65-6.21c2.06-1.85,4.15-3.49,6.12-5,2.9-2.13,4.08-4.42,4.41-6.86s-.19-5-.62-7.58c-.24-1.28-.5-2.56-.68-3.8a15.46,15.46,0,0,1-.07-3.51,5.54,5.54,0,0,1,3.73-5c4.93-1.95,10-3.08,13.15-6.84a11.7,11.7,0,0,0,2-3.38,21.74,21.74,0,0,0,1.39-4.78c.7-3.79,1-8.76,1.49-15.86a50.11,50.11,0,0,1,8.12-23.23c3.89-6,7.95-9.28,8.64-9.55Z"/><path d="M554.87,413.55l.64.31,1.16.59c.76.39,1.43.78,2.14,1.17q2,1.19,4,2.44a87.4,87.4,0,0,1,7.29,5.35,100.21,100.21,0,0,1,12.73,12.35,111.49,111.49,0,0,1,10.39,14.13,124.26,124.26,0,0,1,8,15.4A134.86,134.86,0,0,1,607,481.44c.72,2.75,1.53,5.48,2.08,8.25l.9,4.15.72,4.16a173.28,173.28,0,0,1,2.17,20.52l.46-26a126.87,126.87,0,0,0-4.74-18.94c-3.5-11.13-8.74-24-14.56-38-4.77-11.43-8.84-21.47-12.64-29.63s-7.58-14.19-10.72-17.43c3.1,3.21,9,7.41,15.25,14.38a99.88,99.88,0,0,1,18.17,28.43,133.6,133.6,0,0,1,9.63,38.77l1-56a50.35,50.35,0,0,0-4.87-11.25c-3.58-6.41-8.55-13.53-13.53-21.7a140.39,140.39,0,0,1-9.23-18.49c-2.26-5.41-4.1-9.67-5.64-12.05,1.55,2.4,5.51,4.92,10,8.8a66,66,0,0,1,14.19,16.07,69.52,69.52,0,0,1,9.3,25.23l.38-21.44c-1.33-9.91-4.24-24.86-3.94-42.09.33-18.46,6-32.16,6.15-38.68-.12,6.52,5.1,20.41,4.77,38.87-.31,17.24-3.75,32.08-5.43,41.94l-.41,23.35a149.45,149.45,0,0,1,12-42.12,117.92,117.92,0,0,1,20.27-30.38,150.89,150.89,0,0,1,16.8-15.29c-3.77,3.17-8,9.71-12.32,18.42s-9.16,19.56-14.82,31.81c-6.8,15-12.77,28.92-16.85,40.93a134.3,134.3,0,0,0-5.47,20.6l-.64,36q.83-6.69,2.11-13.26a215.69,215.69,0,0,1,7.73-28.75,248.64,248.64,0,0,1,11.22-27.41c2.13-4.47,4.48-8.88,7-13.26a128.7,128.7,0,0,1,8.67-13.2c-4,5.23-4.65,10.74-4.27,16.05a43.82,43.82,0,0,0,1.54,7.75c.75,2.5,1.63,4.88,2.47,7.09,1.25,3.2,1,5.59-.1,7.57a17.73,17.73,0,0,1-4.81,5.16c-3.71,3.1-7.64,6-5,10.45s5.68,8.53,5.34,13.26a13.85,13.85,0,0,1-3.37,7.86c-2.17,3-5.79,6.31-10.92,10.64a60.61,60.61,0,0,0-8.48,8.7,75.57,75.57,0,0,0-5.92,8.74c-1.52,2.7-2.56,5.09-3.31,6.78l-.09.21-.73,41.21c.16-.92,5.17-26.82,20.86-40.92,14.74-13.25,28.36-17.3,32-19.21-3.62,1.92-24.49,26.78-31.32,35.35-10.53,13.22-21.08,15.85-21.41,34.42v0l-.88,1.5-.91-2.35a25.22,25.22,0,0,0-1.19-4.78,31.74,31.74,0,0,0-4.13-7.6,47.64,47.64,0,0,0-5.65-6.21c-2.06-1.85-4.15-3.49-6.12-5-2.9-2.13-4.08-4.42-4.41-6.86s.19-5,.62-7.58c.24-1.28.5-2.56.68-3.8a15.46,15.46,0,0,0,.07-3.51,5.54,5.54,0,0,0-3.73-5c-4.93-1.95-10-3.08-13.15-6.84a11.7,11.7,0,0,1-2-3.38,21.74,21.74,0,0,1-1.39-4.78c-.7-3.79-1-8.76-1.49-15.86a50.11,50.11,0,0,0-8.12-23.23c-3.89-6-7.95-9.28-8.64-9.55Z"/><path d="M266.75,304.6c5.58,2.38,19,5.28,20.2,45,.37,12,28.78,61.1,13.34,82.76-5,7-2.64,16.9-9.59,21.95-15.7,11.4-47.12,29.33-88.91,28.83l-1.53-20,56-26.44,7.69-3.3-1.7-11.91L252,358.57S236.26,291.62,266.75,304.6Z"/><path class="cls-4" d="M146,536.47c2.48-21.11,23.32-72,23.32-72l101,.45c1.32-.3,6.86,42.68,23.5,68.51"/><path d="M162.65,301.44c-6.07,0-24.79,17.68-29.58,44.72C131,358,125.9,407.28,123,430.89a23.56,23.56,0,0,0,9.59,21.95c15.7,11.4,47.12,29.33,88.91,28.83l1.53-20-56-26.44-7.69-3.3L161,420l10.26-62.9S187.22,301.45,162.65,301.44Z"/><path d="M182.86,192.09c-.31,8.51-11.65,13.66-11.5,22.18.06,3.65,2.33,6.93,2.77,10.56.6,4.87-2.13,9.48-3.13,14.28-2.07,9.9,3.69,20.35,12.23,25.77s19.27,6.46,29.29,5.08"/><path d="M251.35,190c-.34,4.57,2.68,8.65,5.72,12.07s6.42,7,7.08,11.53c1.16,8-6.7,15.49-5.08,23.44.87,4.26,4.36,7.69,5,12s-1.63,8.24-4.4,11.41-6,2.71-8.42,6.13A34.41,34.41,0,0,1,240.62,276c-8.81,4.83-19.39-2.16-23.64-3.41"/><path d="M181.16,197c-.12-4.14,3.71-7.34,7.57-8.86s8.14-2.09,11.58-4.4c3-2,5.09-5.24,7.67-7.86a25.51,25.51,0,0,1,42.9,11.7c1.48,5.9.47,12.87-4.18,16.79-5.4,4.55-13.4,3.54-20.31,2.12s-14.74-2.81-20.51,1.25c-3.48,2.45-5.48,6.43-7.61,10.12s-4.8,7.45-8.82,8.84-9.49-1-9.65-5.26"/><path class="cls-4" d="M236.21,293.47c.06-9.5.11-18.77.12-18.72s15.1-2.54,18.18-22.25c1.53-9.8,1-25.87.15-39-.77-11.82-8.64-26.31-20.41-25l-36.76,9.38a6.93,6.93,0,0,0-6.19,7h0l3.37,89.25a20.78,20.78,0,0,0,21.18,20h0A20.78,20.78,0,0,0,236.21,293.47Z"/><path d="M236.87,273.32A52,52,0,0,1,210,266.25c.22,0,7.58,13.72,26.46,11.65Z"/><path d="M189.15,263.76c5.42,1.09,5.9-1.67,10-5.43a17.8,17.8,0,0,0,5.45-15c-.61-4.84-3.22-9.76-1.54-14.34,2.22-6.06,10.71-7.92,13-14,1.31-3.51.13-7.62,1.62-11.06,1.4-3.24,4.8-5.1,8.12-6.3s6.87-2,9.65-4.19,4.52-6.25,2.72-9.28A186.71,186.71,0,0,0,195,194.64c-3.22,1.2-6.59,2.64-8.5,5.5-2,3-1.92,6.93-1.75,10.56l2.48,53.08"/><path d="M176.76,223.56a15.12,15.12,0,0,0-28.62-5.24c-2.74,5.57-1.79,12.34.77,18,3,6.72,9.26,12.85,16.63,12.52,6.93-.31,12.51-6.4,14.5-13s1.19-13.76.37-20.65"/><path d="M269.87,466.63c-.37-.37-64.94,7.4-93.14-20.39-3.68-3.63-8.72-5.19-7.59-10.14a4.77,4.77,0,0,0,.14-1.05l0-17.62a73,73,0,0,0-1.11-8.93c0-.1,0-.19-.07-.29l-19-73.09c-.84-4.3-7.12-23.68,13.89-33.83a4.83,4.83,0,0,1,.9-.33l25.93-6.61a7.6,7.6,0,0,1,1.88-.24h40.45l.57,0c2.68.2,22.07,5.73,34.29,10.53,3.73,1.47,10.63,12.45,5.57,12l11,17.87c3,6.89,9.3,51,10.63,43.61"/><path class="cls-4" d="M191,300.31a97.07,97.07,0,0,1-.1-11.12A7.43,7.43,0,0,1,192,285c1.4-1.84,4.07-2,6.38-1.91l33.87.67c2.74.05,5.79.24,7.68,2.23s1.81,5,1.74,7.76a35.14,35.14,0,0,1-.32,3.85,4.42,4.42,0,0,1-.59,1.59C238.41,303.33,226.64,305.36,191,300.31Z"/><path class="cls-4" d="M312.72,307.86c3.39-1.53,19.16-3.68,21.13-2s13.24,18.75,17.76,22.7,25.84,20.06,42.24,24.82c.65.19,3.24,2.26,3.85,2.56,2.63,1.33,3.2,2.3,5.75,4.25,5.86,4.47,1.12,6.27.31,10.35a12.79,12.79,0,0,1-20,8.11c-2.79-2-5.29-3.86-7.17-5.5,0,0-33.71-27.89-37.36-28.45-3.33-.51-6.84-3.6-9.84-6.22l-3.08-2.7a8,8,0,0,0-5-2,6.28,6.28,0,0,1-3.65-1.67l-.33-.28C313.51,328.45,309.33,309.39,312.72,307.86Z"/><path d="M520.49,213c-4.32-6.35-1.65-15.94,4.81-20.08s15.45-3.09,21.58,1.53,7.84,12.65,6.84,19.53a10.72,10.72,0,0,1-.91,2.83c-2.43,5.29-9.09,12-15.49,8.13"/><path d="M468.63,246.66C446.48,208.73,487.46,190,508.91,195c20.16,4.62,29.13,14.09,33.06,27.22s4.5,27.55-.08,40.47c-2.26,6.37-6.57,12.95-13.24,14.07"/><path class="cls-4" d="M521.43,215.61a6.34,6.34,0,0,1,6,6.14h0l2.15,87.69c.37,10.11-15.58,14.62-26.41,14.94h0c-10.94.32-11.57-5-12.21-14.63-1.07-16-1.36-22.08-1.36-22s-13.92-1.6-17.68-19.48c-1.87-8.89-2.15-23.6-2-35.64.14-10.84,6.64-24.46,17.47-23.86Z"/><path d="M489.59,286.49a45.88,45.88,0,0,0,23.8-7.64s-5.24,12.67-23.35,11.88Z"/><path d="M475,209.93a17.39,17.39,0,0,0,7.31,16.72c3.06,2.06,6.7,3.06,10.26,4l6.87,1.87c5.07,1.38,10.22,2.77,15.47,2.69-.27,5.89-.95,9.85,2.22,14.83,2.84,4.46,7,7.6,12.32,6.3,2.12-14.18,2.22-20.87,2-35.21,0-3-.15-6.24-1.79-8.79-2.71-4.21-8.43-5-13.42-5.41l-21-1.66a42.12,42.12,0,0,0-10.31,0,14.17,14.17,0,0,0-8.89,4.8"/><path class="cls-5" d="M499.26,529.34l-1.05-78a7.27,7.27,0,0,0-8.27-7.1l-21.83,2.35L424.59,530.2"/><path d="M496.61,494.92c-3.67-20.09-14.83-50.47-14.83-50.47l61.83-1.23s17.92,30.22,18.91,49.91a189.78,189.78,0,0,0,5.09,35.19l-80.37,1"/><path d="M459.45,321.7l-36.88,42.43a4.34,4.34,0,0,1-5.37,1L375.13,341a4.34,4.34,0,0,0-5.17.73l-14.65,13.4c-1,1.64-1.58,3.47.28,6.18a2.92,2.92,0,0,0,.8.77l60.08,39.52a4.34,4.34,0,0,0,2.52.76l26-.4a4.34,4.34,0,0,0,3.8-2.37l23.51-46.35a4.34,4.34,0,0,0,.12-3.66L460.7,321.9A.75.75,0,0,0,459.45,321.7Z"/><path class="cls-4" d="M444.8,365.09l23.06,83.34L542.48,442l7.68-43.86,21.1-61.81s-3.16-27.5-37-29.27l-6.23-12.55-38.41,3.37L485,309.35s-26.49,1.28-31.71,28.77a.38.38,0,0,1,0,.12l-6.45,11C444.69,352.86,443.83,361,444.8,365.09Z"/><path d="M520,396.21l-10.6,20.31c-.87,1.68-4.26,1.62,2,4l39.75,5.77,6.9.82a25.21,25.21,0,0,0,22.73-9.8h0c5.5-7.22,7.16-18.87,3.58-27.21l-11.51-53.3s-7.24-15.61-11.29-18.37c0,0-6.81-7.13-11.35-7.29S520,396.21,520,396.21Z"/><path class="cls-4" d="M553.45,388c.05.3-2.54-1-17.68,3.7-7.41,2.29-28.32,4.68-28.37,4.39"/><polygon points="360.51 370.47 381.96 391.15 416.55 424.5 476.06 421.52 427.89 367.11 360.51 370.47"/><path class="cls-6" d="M369.92,369.86s-15.55,6.89.27,18.83,37.51,16.39,40.83,25a14.53,14.53,0,0,1-2.09,14.6l45.61-2s13.53-11.68,3.44-22.11-36.6-25.46-39.68-29.52,4.32-7.32,4.32-7.32Z"/><polygon points="384.35 369.18 382.57 367.08 407.17 365.56 407.17 368.1 384.35 369.18"/><path class="cls-7" d="M414.3,376.13c0,.17-2.32.53-6.11.93s-9.06.85-14.88,1.17-11.11.44-14.94.36-6.19-.38-6.18-.52,2.37-.12,6.17-.25,9.07-.35,14.88-.67l14.88-.85A43.1,43.1,0,0,1,414.3,376.13Z"/><ellipse class="cls-7" cx="399.19" cy="383.99" rx="19.98" ry="0.54" transform="translate(-17.73 19.33) rotate(-2.71)"/><path class="cls-7" d="M429.7,388.74c0,.15-2.16.54-5.71,1s-8.46,1-13.91,1.42-10.38.65-14,.74-5.79,0-5.8-.12,2.2-.37,5.76-.65L410,390.09l13.91-1.1C427.47,388.71,429.68,388.58,429.7,388.74Z"/><ellipse class="cls-7" cx="419.76" cy="397.9" rx="17.15" ry="0.54" transform="translate(-30.22 34.53) rotate(-4.55)"/><ellipse class="cls-7" cx="431.03" cy="405.29" rx="16.64" ry="0.54" transform="translate(-39.96 47.22) rotate(-5.99)"/><path class="cls-7" d="M452.59,413.46c0,.15-1.87.47-4.94.83s-7.32.72-12,1-9,.3-12.06.25-5-.18-5-.33,1.9-.29,5-.44l12-.57,12-.64C450.67,413.36,452.58,413.31,452.59,413.46Z"/><path class="cls-4" d="M432.53,402.4c1.32,2.79,10.15,12.6,12.32,12.56s18.42-4.76,23.4-4.84,27.83,2.31,40.76,8.09a36.62,36.62,0,0,0,4,1.35c3,.41,3.66,0,6.32-1.54,5.15-3,4.91-6.06,4.86-7-.36-7.25-1-14.66-8.71-15.31-2.82-.24-5.41-.4-7.49-.36,0,0-36.28-.42-38.88-2-2.38-1.46-6.25-1.39-9.56-1.33l-3.39.05a6.67,6.67,0,0,1-4.23-1.39,5.2,5.2,0,0,0-3.2-.9h-.36C444.06,389.8,431.21,399.62,432.53,402.4Z"/><path class="cls-4" d="M221.56,464.67H167.23a5.64,5.64,0,0,1-5.64-5.64h0a2.57,2.57,0,0,1,2.57-2.57h57.4a2.57,2.57,0,0,1,2.57,2.57v3.07A2.57,2.57,0,0,1,221.56,464.67Z"/><path class="cls-4" d="M317.72,464.67H204.24a6.63,6.63,0,0,1-6.39-8.39l20-72.92a10.87,10.87,0,0,1,10.49-8H341.84a6.63,6.63,0,0,1,6.39,8.39l-20,72.92A10.87,10.87,0,0,1,317.72,464.67Z"/><circle class="cls-8" cx="278.91" cy="416.58" r="7.11"/><rect x="29.96" y="530.79" width="650.07" height="3.81" transform="translate(-11.53 7.86) rotate(-1.25)"/><polygon class="cls-3" points="376.86 366.2 379.21 369.39 379.21 369.39 403.14 368.33 401.09 365.09 376.86 366.2"/><path class="cls-4" d="M228.72,480.48c7-.31,30.53-.92,30.53-.92s17.26.4,23.1-11.89c.62-1.3,3.5-11.95-.21-16.34-1.65-2-14.66,3.6-17.58,4.33S239.73,463,234.8,465c-2.38,1-7.14.34-15.37,1.39,1.34,5.65-.24,10,1.29,12.93a3.13,3.13,0,0,0,2.33,1.13C224.7,480.51,228.19,480.5,228.72,480.48Z"/></g></svg>