<svg id="Layer_1" data-name="Layer 1" xmlns="http://www.w3.org/2000/svg" xmlns:xlink="http://www.w3.org/1999/xlink" viewBox="0 0 700 700"><defs><style>.cls-1{fill:none;}.cls-2{clip-path:url(#clip-path);}.cls-3,.cls-4,.cls-8{fill:#fff;}.cls-11,.cls-4,.cls-8,.cls-9{stroke:#000;}.cls-11,.cls-4,.cls-5,.cls-7,.cls-8,.cls-9{stroke-miterlimit:10;}.cls-4,.cls-9{stroke-width:2px;}.cls-5,.cls-7{stroke:#fff;}.cls-6{opacity:0.3;}.cls-10,.cls-11,.cls-7,.cls-9{fill:#5565ff;}</style><clipPath id="clip-path"><circle class="cls-1" cx="350" cy="349" r="350"/></clipPath></defs><title>workflow svg</title><g class="cls-2"><circle class="cls-3" cx="350" cy="349" r="350"/><path d="M165.25,430.87l-.67.32-1.22.62c-.8.41-1.51.82-2.25,1.23q-2.15,1.25-4.17,2.57a92,92,0,0,0-7.67,5.63,105.45,105.45,0,0,0-13.39,13,117.32,117.32,0,0,0-10.93,14.87,130.76,130.76,0,0,0-8.44,16.2,141.92,141.92,0,0,0-6.09,17c-.75,2.89-1.61,5.77-2.19,8.68l-.94,4.36-.76,4.38a182.34,182.34,0,0,0-2.28,21.59L103.76,514a133.51,133.51,0,0,1,5-19.93c3.69-11.72,9.2-25.3,15.32-40,5-12,9.31-22.6,13.3-31.19s8-14.93,11.28-18.34c-3.26,3.38-9.43,7.8-16,15.14a105.1,105.1,0,0,0-19.12,29.92,140.58,140.58,0,0,0-10.14,40.8l-1-58.9a53,53,0,0,1,5.13-11.83c3.77-6.75,9-14.24,14.24-22.84a147.73,147.73,0,0,0,9.72-19.46c2.38-5.7,4.32-10.17,5.94-12.68-1.63,2.52-5.8,5.18-10.56,9.26a69.4,69.4,0,0,0-14.93,16.91A73.16,73.16,0,0,0,102,417.41l-.4-22.56c1.4-10.43,4.47-26.16,4.14-44.3-.34-19.42-6.35-33.84-6.47-40.7.12,6.86-5.37,21.48-5,40.9.32,18.14,3.95,33.76,5.71,44.13l.44,24.57a157.26,157.26,0,0,0-12.58-44.32,124.09,124.09,0,0,0-21.33-32c-7.22-7.87-13.78-12.81-17.68-16.09,4,3.34,8.37,10.22,13,19.38s9.64,20.59,15.59,33.47c7.16,15.81,13.44,30.43,17.73,43.07a141.33,141.33,0,0,1,5.76,21.68l.67,37.93q-.87-7-2.22-14a227,227,0,0,0-8.13-30.26,261.65,261.65,0,0,0-11.81-28.85c-2.24-4.7-4.72-9.34-7.32-14A135.44,135.44,0,0,0,63,381.71c4.23,5.5,4.89,11.3,4.49,16.89a46.11,46.11,0,0,1-1.62,8.15c-.79,2.63-1.71,5.13-2.6,7.46-1.32,3.36-1.06,5.88.11,8a18.65,18.65,0,0,0,5.06,5.43c3.91,3.27,8,6.33,5.28,11s-6,9-5.62,14c.14,2.5,1.12,5.18,3.55,8.27C73.89,464,77.7,467.47,83.1,472A63.78,63.78,0,0,1,92,481.17a79.52,79.52,0,0,1,6.23,9.2c1.6,2.85,2.7,5.36,3.49,7.13l.09.22.77,43.37c-.17-1-5.44-28.23-21.95-43.06C65.14,484.09,50.82,479.83,47,477.81c3.81,2,25.77,28.18,33,37.2,11.08,13.91,22.19,16.68,22.53,36.22v0l.93,1.58,1-2.47a26.54,26.54,0,0,1,1.25-5,33.41,33.41,0,0,1,4.35-8,50.13,50.13,0,0,1,5.94-6.54c2.17-1.95,4.37-3.67,6.44-5.24,3.05-2.24,4.3-4.65,4.64-7.22s-.2-5.29-.66-8c-.25-1.35-.53-2.7-.72-4a16.27,16.27,0,0,1-.07-3.69,5.83,5.83,0,0,1,3.92-5.23c5.18-2,10.56-3.24,13.84-7.19a12.31,12.31,0,0,0,2.15-3.56,22.88,22.88,0,0,0,1.46-5c.74-4,1.06-9.21,1.57-16.69a52.73,52.73,0,0,1,8.54-24.45c4.09-6.27,8.36-9.77,9.09-10Z"/><path d="M576.88,563.08c.16-1.29.12,1.15,0,0a5.83,5.83,0,0,0-3.91-5.24c-5.18-2.06-10.56-3.26-13.83-7.22a12.31,12.31,0,0,1-2.15-3.56,22.88,22.88,0,0,1-1.46-5c-.73-4-1-9.22-1.54-16.69a52.73,52.73,0,0,0-8.5-24.46c-4.08-6.27-8.35-9.78-9.07-10.06l.91.41.67.32,1.21.62c.8.41,1.51.82,2.25,1.23q2.15,1.25,4.17,2.58a92,92,0,0,1,7.66,5.64,105.45,105.45,0,0,1,13.37,13,117.32,117.32,0,0,1,10.91,14.89A130.76,130.76,0,0,1,586,545.73a141.92,141.92,0,0,1,6.06,17"/><path d="M595.13,562.12c-3.67-11.72-10.55-32.92-16.65-47.63-5-12-9.27-22.61-13.24-31.21s-7.95-14.94-11.24-18.36c3.25,3.39,9.42,7.81,16,15.17a105.1,105.1,0,0,1,19.06,30,140.58,140.58,0,0,1,10.06,40.82l1.15-58.9a53,53,0,0,0-5.11-11.84c-3.75-6.76-9-14.26-14.2-22.86a147.73,147.73,0,0,1-9.68-19.48c-2.37-5.7-4.3-10.18-5.92-12.69,1.63,2.53,5.79,5.19,10.54,9.28a69.4,69.4,0,0,1,14.9,16.94,73.16,73.16,0,0,1,9.74,26.57l.44-22.56c-1.38-10.43-4.42-26.17-4.07-44.3.38-19.42,6.41-33.83,6.54-40.69-.13,6.86,5.33,21.49,5,40.91-.35,18.14-4,33.75-5.79,44.12l-.48,24.57a157.26,157.26,0,0,1,12.66-44.3,124.09,124.09,0,0,1,21.39-31.93c7.23-7.86,13.81-12.78,17.71-16.06-4,3.33-8.39,10.21-13,19.36s-9.67,20.57-15.65,33.44c-7.18,15.8-13.5,30.41-17.8,43a141.33,141.33,0,0,0-5.79,21.67l-.74,37.93q.89-7,2.25-13.95a227,227,0,0,1,8.19-30.24,261.65,261.65,0,0,1,11.86-28.83c2.25-4.7,4.73-9.33,7.35-13.94a135.44,135.44,0,0,1,9.15-13.87c-4.24,5.49-4.91,11.29-4.52,16.88a46.11,46.11,0,0,0,1.6,8.15c.78,2.63,1.7,5.14,2.59,7.47,1.31,3.37,1,5.88-.12,8a18.65,18.65,0,0,1-5.07,5.42c-3.91,3.26-8.05,6.32-5.3,11s6,9,5.59,14c-.15,2.5-1.12,5.18-3.56,8.27-2.29,3.13-6.11,6.63-11.51,11.17a63.78,63.78,0,0,0-8.94,9.13,79.52,79.52,0,0,0-6.25,9.19c-1.61,2.84-3,10.53-3.81,12.31,0,.08-1.84-.24-1.88-.17"/><path class="cls-4" d="M210.21,418.29c-1.14-.25-14.81,48.59-13.59,65.65s10,70.73,10,70.73l101.88,1.14s9-67.13,6.82-84.6-12.82-54.43-12.82-54.43Z"/><rect class="cls-5" x="141.96" y="130.51" width="156.41" height="104.73"/><path class="cls-5" d="M298.38,235.24s0-.65,0-1.91,0-3.11,0-5.53c0-4.85,0-12-.06-21.06,0-18.2-.07-44.35-.12-76.23l.22.22-156.4.06h0l.28-.28c0,37.31,0,72.79,0,104.73L142,235l112.69.13,32.19.07,8.56,0,2.21,0,.76,0-.73,0-2.18,0-8.51,0-32.14.07L142,235.49h-.26v-.26c0-31.94,0-67.42,0-104.73v-.28H142l156.4.06h.22v.22c0,31.94-.09,58.15-.12,76.37,0,9.08,0,16.18-.06,21,0,2.4,0,4.23,0,5.48S298.38,235.24,298.38,235.24Z"/><path class="cls-5" d="M142,139.85c0-.15,35-.28,78.14-.28s78.15.13,78.15.28-35,.28-78.15.28S142,140,142,139.85Z"/><g class="cls-6"><circle class="cls-3" cx="146.88" cy="135.14" r="1.25"/></g><g class="cls-6"><circle class="cls-3" cx="151.18" cy="135.14" r="1.25"/></g><g class="cls-6"><circle class="cls-3" cx="155.41" cy="135.14" r="1.25"/></g><rect class="cls-5" x="155.41" y="150.77" width="41.72" height="41.72"/><ellipse class="cls-5" cx="240.59" cy="162.57" rx="36.34" ry="0.28"/><ellipse class="cls-5" cx="240.59" cy="170.32" rx="36.34" ry="0.28"/><ellipse class="cls-5" cx="240.59" cy="178.07" rx="36.34" ry="0.28"/><path class="cls-5" d="M247.2,185.83a9.76,9.76,0,0,1-1.69.11l-4.6.09c-3.89.05-9.26.08-15.19.08s-11.3,0-15.19-.08l-4.6-.09a9.75,9.75,0,0,1-1.69-.11,9.78,9.78,0,0,1,1.69-.11l4.6-.09c3.89-.05,9.26-.08,15.19-.08s11.3,0,15.19.08l4.6.09A9.79,9.79,0,0,1,247.2,185.83Z"/><rect class="cls-7" x="158.02" y="206.57" width="19.61" height="19.61"/><rect class="cls-7" x="193.58" y="206.57" width="19.61" height="19.61"/><rect class="cls-5" x="229.14" y="206.57" width="19.61" height="19.61"/><rect class="cls-5" x="264.7" y="206.57" width="19.61" height="19.61"/><path class="cls-4" d="M164.67,216.41c-2.71,2-11.34,13.66-10.83,16s9.13,18.79,10.3,24.12,3.57,30.45.16,45.6c-.14.6,1.61,2.56,1.43,3.15-1,3.23-1.14,3.74.86,6.45,4,5.4,4.51,3.64,8.11,4.79a11.64,11.64,0,0,0,15.22-12.35c-.36-3.09-.75-5.91-1.24-8.13,0,0-7.43-39.12-6.27-42.27,1.06-2.88.13-7-.64-10.57l-.8-3.64a7.32,7.32,0,0,1,.58-4.86,5.71,5.71,0,0,0,.27-3.64q0-.19-.08-.39C180.74,226.08,167.38,214.38,164.67,216.41Z"/><ellipse class="cls-8" cx="573.73" cy="404.92" rx="2.23" ry="0.39"/><ellipse class="cls-8" cx="564.81" cy="404.92" rx="2.23" ry="0.39"/><ellipse class="cls-8" cx="555.89" cy="404.92" rx="2.23" ry="0.39"/><ellipse class="cls-8" cx="546.96" cy="404.92" rx="2.23" ry="0.39"/><ellipse class="cls-8" cx="538.04" cy="404.92" rx="2.23" ry="0.39"/><ellipse class="cls-8" cx="529.12" cy="404.92" rx="2.23" ry="0.39"/><ellipse class="cls-8" cx="520.2" cy="404.92" rx="2.23" ry="0.39"/><ellipse class="cls-8" cx="511.28" cy="404.92" rx="2.23" ry="0.39"/><ellipse class="cls-8" cx="502.36" cy="404.92" rx="2.23" ry="0.39"/><ellipse class="cls-8" cx="493.44" cy="404.92" rx="2.23" ry="0.39"/><ellipse class="cls-8" cx="484.52" cy="404.92" rx="2.23" ry="0.39"/><ellipse class="cls-8" cx="475.6" cy="404.92" rx="2.23" ry="0.39"/><path class="cls-8" d="M467,402.36c.21,0,.39,1,.39,2.23,0,.11,0,.22,0,.33l-.38-.38c1.07,0,1.9.19,1.9.38s-.82.35-1.9.38h-.38v-.39c0-.12,0-.22,0-.33C466.63,403.36,466.8,402.36,467,402.36Z"/><ellipse class="cls-8" cx="467.01" cy="395.67" rx="0.39" ry="2.23"/><ellipse class="cls-8" cx="467.01" cy="386.75" rx="0.39" ry="2.23"/><ellipse class="cls-8" cx="467.01" cy="377.83" rx="0.39" ry="2.23"/><ellipse class="cls-8" cx="467.01" cy="368.9" rx="0.39" ry="2.23"/><ellipse class="cls-8" cx="467.01" cy="359.98" rx="0.39" ry="2.23"/><ellipse class="cls-8" cx="467.01" cy="351.06" rx="0.39" ry="2.23"/><ellipse class="cls-8" cx="467.01" cy="342.14" rx="0.39" ry="2.23"/><ellipse class="cls-8" cx="467.01" cy="333.22" rx="0.39" ry="2.23"/><ellipse class="cls-8" cx="467.01" cy="324.3" rx="0.39" ry="2.23"/><ellipse class="cls-8" cx="467.01" cy="315.38" rx="0.39" ry="2.23"/><ellipse class="cls-8" cx="467.01" cy="306.46" rx="0.39" ry="2.23"/><path class="cls-8" d="M467.68,296c0,.11-.26.21-.67.28l.28-.28a9.77,9.77,0,0,1,.11,1.56c0,1.23-.17,2.23-.39,2.23s-.39-1-.39-2.23a9.74,9.74,0,0,1,.11-1.56l.05-.31.22,0C467.43,295.77,467.68,295.87,467.68,296Z"/><ellipse class="cls-8" cx="474.37" cy="295.98" rx="2.23" ry="0.39"/><ellipse class="cls-8" cx="483.29" cy="295.98" rx="2.23" ry="0.39"/><ellipse class="cls-8" cx="492.21" cy="295.98" rx="2.23" ry="0.39"/><ellipse class="cls-8" cx="501.13" cy="295.98" rx="2.23" ry="0.39"/><ellipse class="cls-8" cx="510.05" cy="295.98" rx="2.23" ry="0.39"/><ellipse class="cls-8" cx="518.97" cy="295.98" rx="2.23" ry="0.39"/><ellipse class="cls-8" cx="527.9" cy="295.98" rx="2.23" ry="0.39"/><ellipse class="cls-8" cx="536.82" cy="295.98" rx="2.23" ry="0.39"/><ellipse class="cls-8" cx="545.74" cy="295.98" rx="2.23" ry="0.39"/><ellipse class="cls-8" cx="554.66" cy="295.98" rx="2.23" ry="0.39"/><ellipse class="cls-8" cx="563.58" cy="295.98" rx="2.23" ry="0.39"/><ellipse class="cls-8" cx="572.5" cy="295.98" rx="2.23" ry="0.39"/><ellipse class="cls-8" cx="575.96" cy="301.44" rx="0.39" ry="2.23"/><ellipse class="cls-8" cx="575.96" cy="310.36" rx="0.39" ry="2.23"/><ellipse class="cls-8" cx="575.96" cy="319.28" rx="0.39" ry="2.23"/><ellipse class="cls-8" cx="575.96" cy="328.2" rx="0.39" ry="2.23"/><ellipse class="cls-8" cx="575.96" cy="337.12" rx="0.39" ry="2.23"/><ellipse class="cls-8" cx="575.96" cy="346.04" rx="0.39" ry="2.23"/><ellipse class="cls-8" cx="575.96" cy="354.96" rx="0.39" ry="2.23"/><ellipse class="cls-8" cx="575.96" cy="363.88" rx="0.39" ry="2.23"/><ellipse class="cls-8" cx="575.96" cy="372.81" rx="0.39" ry="2.23"/><ellipse class="cls-8" cx="575.96" cy="381.73" rx="0.39" ry="2.23"/><ellipse class="cls-8" cx="575.96" cy="390.65" rx="0.39" ry="2.23"/><ellipse class="cls-8" cx="575.96" cy="399.57" rx="0.39" ry="2.23"/><rect class="cls-8" x="571.92" y="399.78" width="8.07" height="8.07"/><rect class="cls-8" x="462.98" y="400.89" width="8.07" height="8.07"/><rect class="cls-8" x="571.92" y="291.16" width="8.07" height="8.07"/><rect class="cls-8" x="462.98" y="291.94" width="8.07" height="8.07"/><path class="cls-8" d="M499.64,439.12A3.08,3.08,0,0,1,501,439h.46l-.15.15c0-.53.08-.91.15-.91s.13.38.15.91v.15H501A3.08,3.08,0,0,1,499.64,439.12Z"/><ellipse class="cls-8" cx="496.9" cy="439.12" rx="0.91" ry="0.16"/><ellipse class="cls-8" cx="493.26" cy="439.12" rx="0.91" ry="0.16"/><ellipse class="cls-8" cx="489.61" cy="439.12" rx="0.91" ry="0.16"/><ellipse class="cls-8" cx="485.96" cy="439.12" rx="0.91" ry="0.16"/><ellipse class="cls-8" cx="482.31" cy="439.12" rx="0.91" ry="0.16"/><ellipse class="cls-8" cx="478.66" cy="439.12" rx="0.91" ry="0.16"/><ellipse class="cls-8" cx="475.01" cy="439.12" rx="0.91" ry="0.16"/><ellipse class="cls-8" cx="471.36" cy="439.12" rx="0.91" ry="0.16"/><ellipse class="cls-8" cx="467.72" cy="439.12" rx="0.91" ry="0.16"/><ellipse class="cls-8" cx="464.07" cy="439.12" rx="0.91" ry="0.16"/><ellipse class="cls-8" cx="460.42" cy="439.12" rx="0.91" ry="0.16"/><ellipse class="cls-8" cx="456.77" cy="439.12" rx="0.91" ry="0.16"/><ellipse class="cls-8" cx="453.12" cy="439.12" rx="0.91" ry="0.16"/><ellipse class="cls-8" cx="449.47" cy="439.12" rx="0.91" ry="0.16"/><ellipse class="cls-8" cx="445.82" cy="439.12" rx="0.91" ry="0.16"/><ellipse class="cls-8" cx="442.18" cy="439.12" rx="0.91" ry="0.16"/><ellipse class="cls-8" cx="438.53" cy="439.12" rx="0.91" ry="0.16"/><ellipse class="cls-8" cx="436.48" cy="437.53" rx="0.16" ry="0.91"/><ellipse class="cls-8" cx="436.48" cy="433.88" rx="0.16" ry="0.91"/><ellipse class="cls-8" cx="436.48" cy="430.23" rx="0.16" ry="0.91"/><ellipse class="cls-8" cx="436.48" cy="426.58" rx="0.16" ry="0.91"/><ellipse class="cls-8" cx="436.48" cy="422.93" rx="0.16" ry="0.91"/><ellipse class="cls-8" cx="436.48" cy="419.28" rx="0.16" ry="0.91"/><ellipse class="cls-8" cx="436.48" cy="415.63" rx="0.16" ry="0.91"/><ellipse class="cls-8" cx="436.48" cy="411.99" rx="0.16" ry="0.91"/><ellipse class="cls-8" cx="436.48" cy="408.34" rx="0.16" ry="0.91"/><ellipse class="cls-8" cx="436.48" cy="404.69" rx="0.16" ry="0.91"/><ellipse class="cls-8" cx="436.48" cy="401.04" rx="0.16" ry="0.91"/><ellipse class="cls-8" cx="436.48" cy="397.39" rx="0.16" ry="0.91"/><ellipse class="cls-8" cx="436.48" cy="393.74" rx="0.16" ry="0.91"/><ellipse class="cls-8" cx="436.48" cy="390.09" rx="0.16" ry="0.91"/><ellipse class="cls-8" cx="436.48" cy="386.44" rx="0.16" ry="0.91"/><ellipse class="cls-8" cx="436.48" cy="382.8" rx="0.16" ry="0.91"/><ellipse class="cls-8" cx="436.48" cy="379.15" rx="0.16" ry="0.91"/><ellipse class="cls-8" cx="436.48" cy="375.5" rx="0.16" ry="0.91"/><ellipse class="cls-8" cx="438.76" cy="374.13" rx="0.91" ry="0.16"/><ellipse class="cls-8" cx="442.41" cy="374.13" rx="0.91" ry="0.16"/><ellipse class="cls-8" cx="446.06" cy="374.13" rx="0.91" ry="0.16"/><ellipse class="cls-8" cx="449.71" cy="374.13" rx="0.91" ry="0.16"/><ellipse class="cls-8" cx="453.35" cy="374.13" rx="0.91" ry="0.16"/><ellipse class="cls-8" cx="457" cy="374.13" rx="0.91" ry="0.16"/><ellipse class="cls-8" cx="460.65" cy="374.13" rx="0.91" ry="0.16"/><ellipse class="cls-8" cx="464.3" cy="374.13" rx="0.91" ry="0.16"/><ellipse class="cls-8" cx="467.95" cy="374.13" rx="0.91" ry="0.16"/><ellipse class="cls-8" cx="471.6" cy="374.13" rx="0.91" ry="0.16"/><ellipse class="cls-8" cx="475.25" cy="374.13" rx="0.91" ry="0.16"/><ellipse class="cls-8" cx="478.89" cy="374.13" rx="0.91" ry="0.16"/><ellipse class="cls-8" cx="482.54" cy="374.13" rx="0.91" ry="0.16"/><ellipse class="cls-8" cx="486.19" cy="374.13" rx="0.91" ry="0.16"/><ellipse class="cls-8" cx="489.84" cy="374.13" rx="0.91" ry="0.16"/><ellipse class="cls-8" cx="493.49" cy="374.13" rx="0.91" ry="0.16"/><ellipse class="cls-8" cx="497.14" cy="374.13" rx="0.91" ry="0.16"/><path class="cls-8" d="M501.47,374.37s-.08-.09-.11-.23l.1.11a3.74,3.74,0,0,1-.68.05c-.5,0-.91-.07-.91-.16s.41-.16.91-.16a3.74,3.74,0,0,1,.68.05l.12,0,0,.08C501.54,374.28,501.51,374.37,501.47,374.37Z"/><ellipse class="cls-8" cx="501.47" cy="377.1" rx="0.16" ry="0.91"/><ellipse class="cls-8" cx="501.47" cy="380.75" rx="0.16" ry="0.91"/><ellipse class="cls-8" cx="501.47" cy="384.4" rx="0.16" ry="0.91"/><ellipse class="cls-8" cx="501.47" cy="388.05" rx="0.16" ry="0.91"/><ellipse class="cls-8" cx="501.47" cy="391.7" rx="0.16" ry="0.91"/><ellipse class="cls-8" cx="501.47" cy="395.35" rx="0.16" ry="0.91"/><ellipse class="cls-8" cx="501.47" cy="398.99" rx="0.16" ry="0.91"/><ellipse class="cls-8" cx="501.47" cy="402.64" rx="0.16" ry="0.91"/><ellipse class="cls-8" cx="501.47" cy="406.29" rx="0.16" ry="0.91"/><ellipse class="cls-8" cx="501.47" cy="409.94" rx="0.16" ry="0.91"/><ellipse class="cls-8" cx="501.47" cy="413.59" rx="0.16" ry="0.91"/><ellipse class="cls-8" cx="501.47" cy="417.24" rx="0.16" ry="0.91"/><ellipse class="cls-8" cx="501.47" cy="420.89" rx="0.16" ry="0.91"/><ellipse class="cls-8" cx="501.47" cy="424.54" rx="0.16" ry="0.91"/><ellipse class="cls-8" cx="501.47" cy="428.18" rx="0.16" ry="0.91"/><ellipse class="cls-8" cx="501.47" cy="431.83" rx="0.16" ry="0.91"/><ellipse class="cls-8" cx="501.47" cy="435.48" rx="0.16" ry="0.91"/><rect class="cls-8" x="499.06" y="436.06" width="4.81" height="4.81"/><rect class="cls-8" x="434.07" y="436.72" width="4.81" height="4.81"/><rect class="cls-8" x="499.06" y="371.26" width="4.81" height="4.81"/><rect class="cls-8" x="434.07" y="371.73" width="4.81" height="4.81"/><path class="cls-9" d="M451.55,416.29c1.15-.25,12.33,44.6,13.42,62,1.14,18.19-13.42,81-13.42,81H406.18l-4.61-.17-46.39-1.36s-12.4-59.21-10.24-76.43,13.68-62.52,13.68-62.52Z"/><path d="M368.63,233.54c-3,10.74-7.42,19.36-11.77,23.67s-9,9.38-8.86,15.51c.06,2.41.86,5-.19,7.13-1.37,2.81-5,3.42-7.74,5-4,2.27-6.28,7.07-6.12,11.69a18.79,18.79,0,0,0,5.75,12.28c3.39,3.41,8.76,5.8,13,3.47,2.54-1.4,4-4.15,5.27-6.76q10-20.24,18-41.34"/><path d="M395.78,187.54A27.67,27.67,0,0,1,444,206.36c-.08,7.19-2.89,14.73,0,21.34,2,4.67,6.66,8.21,7.3,13.25.74,5.86-4.27,11.17-4,17.07.17,3.85,2.59,7.25,5.36,9.92s6,4.87,8.55,7.77c7.08,8,7.53,20.74,2.18,30s-15.68,15.1-26.32,16.36-21.48-1.67-30.9-6.78c-6.13-3.33-11.9-7.72-15.54-13.67s-4.9-13.66-2-20"/><path class="cls-4" d="M418.41,277.2s10.29,3.15,14.38,6.39c3.5,2.77,21.85,52.89,21.85,52.89L441.4,386.7s10.68,21.92,11.29,31.84c-27.25,17.58-58,12.65-90.17-1.43l9.89-46.87-22.34-83.92L377,276.79Z"/><path class="cls-4" d="M490.55,370.86l14.12-42.53a1.07,1.07,0,0,0-.88-1.4L489,325.12a1.07,1.07,0,0,0-1,.51l-16.65,27.68a1.07,1.07,0,0,1-1.93-.21l-21.29-49.5c-.4-1.17-2.14-14.2-2.08-13l4,83.45a1.07,1.07,0,0,0,.28.67l7.27,8,.08.09a19.47,19.47,0,0,0,15.84,4.68C483.56,386.1,487.71,378.14,490.55,370.86Z"/><path class="cls-4" d="M541.69,228.74l-73.95,32a3.09,3.09,0,0,0-1.86,2.89l.34,20.44a3.09,3.09,0,0,1-.85,2.19l-6.2,6.5a3.09,3.09,0,0,0,.18,4.44L486,321.05a3.09,3.09,0,0,0,4.36-.24l6.34-7.09a3.09,3.09,0,0,1,1.88-1l21.33-3a3.09,3.09,0,0,0,2.52-2.14l23.44-75.09A3.09,3.09,0,0,0,541.69,228.74Z"/><circle cx="508.18" cy="273.15" r="12.87" transform="translate(-34.13 470.01) rotate(-48.21)"/><ellipse cx="526.44" cy="251.96" rx="32.8" ry="0.3" transform="translate(-8.33 485.71) rotate(-49.19)"/><path d="M295.17,510.58h0a20.51,20.51,0,0,1-1.7-28.88L447.71,307.18l30.59,27.34L324.21,508.87A20.51,20.51,0,0,1,295.17,510.58Z"/><polygon class="cls-4" points="480.71 337.83 444.21 304.41 455.88 291.16 489.75 323.33 480.71 337.83"/><rect class="cls-10" x="542.65" y="223.11" width="8.93" height="8.93" transform="translate(273.95 -298.26) rotate(39.96)"/><path class="cls-10" d="M603.74,273.42c-.3.35-26.47-21.1-58.46-47.9s-57.69-48.83-57.39-49.18,26.47,21.09,58.46,47.91S604,273.07,603.74,273.42Z"/><circle class="cls-10" cx="603.01" cy="272.81" r="2.65" transform="translate(6.59 559.76) rotate(-50.04)"/><circle class="cls-10" cx="487.89" cy="176.33" r="2.65" transform="translate(39.36 437.01) rotate(-50.04)"/><polygon class="cls-6" points="447.71 307.18 478.3 334.52 474.17 339.19 446.24 308.85 447.71 307.18"/><g class="cls-6"><path d="M358.06,408.62l74.82-22.71c-5.61,7.38-16.53,14.26-24.77,18.51s-17.05,7.25-25.83,10.23c-4.77,1.62-9.65,3.26-14.69,3.22s-10-1.49-12.6-5.78Z"/></g><path d="M371,216.29a7.91,7.91,0,0,0-2.76-9.41,8.52,8.52,0,0,0-9.91.51,9.24,9.24,0,0,0-2.84,9.63,9.43,9.43,0,0,0,18.34-1.32"/><path class="cls-4" d="M382.14,196.75l0,5.47,2.08,77.11c-.13,9.5,15.27,25.33,24,28.48,2,.72,9,3.3,12.45,2.22,10.33-3.27-2.77-17.35-2.5-26,.31-10.07.82-20.67.82-20.67s13-1.8,16.19-18.65c1.57-8.38,1.53-22.2,1.13-33.5A17.88,17.88,0,0,0,417,194Z"/><path d="M418.48,262.21A43.09,43.09,0,0,1,396,255.54s5.18,11.78,22.17,10.66Z"/><path d="M403.43,191.39c4.52,6-.19,14.53-5.4,20s-11.56,11.73-10.14,19.12c1.65,8.57,13.37,14.06,11.63,22.61-.64,3.12-3.1,5.78-3.11,9,0,5.75,7.42,8.54,9.56,13.88,2.93,7.31-5.13,14.6-5.26,22.48-.07,4.47,2.46,8.65,2.6,13.12.28,9.16-10.56,15.87-19.44,13.61s-15-10.92-16.9-19.88,1-21.55,2.43-30.6L354,278.22c-2.87-2.73,1.05-5.64,1.7-9.55,1.62-9.8,8.06-18.09,11.12-27.54,2.68-8.26,2.7-17.1,3.87-25.7s3.84-17.56,10.4-23.24,17.94-6.37,23.25.49"/><path d="M302.64,281.8c5,0,20.52,14.64,24.49,37,1.74,9.82,5.94,50.59,8.34,70.14a19.51,19.51,0,0,1-7.94,18.17c-13,9.44-39,24.28-73.61,23.87l-1.26-16.59,46.39-21.89,6.37-2.73L304,379.94l-8.49-52.08S282.31,281.8,302.64,281.8Z"/><path d="M290.22,191.27c.26,7,9.65,11.31,9.52,18.36-.05,3-1.93,5.74-2.3,8.74-.49,4,1.76,7.85,2.59,11.82,1.72,8.2-3.05,16.85-10.12,21.34s-16,5.35-24.25,4.21"/><path d="M233.52,189.54c.28,3.78-2.22,7.16-4.73,10s-5.32,5.79-5.86,9.54c-1,6.65,5.55,12.82,4.2,19.41-.72,3.53-3.61,6.36-4.12,9.93s1.35,6.82,3.64,9.45,4.94,2.24,7,5.07a28.49,28.49,0,0,0,8.79,7.81c7.3,4,16.05-1.79,19.57-2.82"/><path d="M291.63,195.32c.1-3.43-3.07-6.08-6.27-7.33s-6.74-1.73-9.59-3.65c-2.52-1.7-4.21-4.34-6.35-6.5a21.12,21.12,0,0,0-35.51,9.69c-1.23,4.88-.39,10.66,3.46,13.9,4.47,3.77,11.09,2.93,16.82,1.76s12.2-2.33,17,1c2.88,2,4.53,5.33,6.3,8.38s4,6.17,7.31,7.32,7.86-.83,8-4.36"/><path class="cls-4" d="M246.05,275.2c0-7.87-.09-15.54-.1-15.5s-12.5-2.1-15.05-18.42c-1.27-8.12-.83-21.42-.12-32.29.64-9.79,7.15-21.78,16.9-20.73L278.11,196a5.74,5.74,0,0,1,5.12,5.83h0l-2.79,73.89a17.2,17.2,0,0,1-17.53,16.55h0A17.2,17.2,0,0,1,246.05,275.2Z"/><path d="M245.51,258.52a43,43,0,0,0,22.25-5.85c-.18,0-6.27,11.36-21.91,9.65Z"/><path d="M285,250.61c-4.49.9-4.89-1.38-8.24-4.49a14.73,14.73,0,0,1-4.51-12.43c.51-4,2.67-8.08,1.28-11.88-1.84-5-8.87-6.56-10.73-11.56-1.08-2.91-.11-6.31-1.34-9.16-1.16-2.68-4-4.22-6.72-5.22s-5.69-1.68-8-3.47-3.74-5.17-2.25-7.68a154.58,154.58,0,0,1,35.65,8.66c2.66,1,5.46,2.19,7,4.56s1.59,5.74,1.45,8.74l-2.05,43.95"/><path d="M295.28,217.33A12.52,12.52,0,0,1,319,213c2.27,4.61,1.48,10.21-.63,14.89-2.52,5.56-7.67,10.64-13.76,10.36-5.74-.26-10.35-5.3-12-10.8s-1-11.39-.3-17.09"/><path d="M302.68,281.41l-21.47-5.47a6.3,6.3,0,0,0-1.55-.19H246.17l-.47,0c-2.22.17-18.32,1.63-27.57,9.8a22,22,0,0,0-5.42,8.87l-7,16.06a6.3,6.3,0,0,1-12-1.41l-3.14-17.58a6.3,6.3,0,0,0-7.08-5.12l-15.77,2.24a6.3,6.3,0,0,0-5.4,6.6l4.1,69.92a37.18,37.18,0,0,0,25.19,31.54,6.31,6.31,0,0,0,6.71-1.79l3.87-4.35a6.3,6.3,0,0,1,10.95,3.38c1,7.66,1.72,12.9,1.82,12.8.31-.31,55.42-3.71,77.11-5a6.88,6.88,0,0,0,6.28-8.39,4,4,0,0,1-.11-.87l0-14.58a60.44,60.44,0,0,1,.92-7.39c0-.08,0-.16.05-.24l15.74-60.51c.69-3.56,5.9-19.61-11.5-28A4,4,0,0,0,302.68,281.41Z"/><path class="cls-4" d="M284.56,280.86a80.36,80.36,0,0,0,.08-9.21,6.15,6.15,0,0,0-.9-3.46c-1.16-1.52-3.37-1.62-5.29-1.58l-28,.55c-2.27,0-4.79.2-6.36,1.84s-1.5,4.14-1.44,6.42a29.09,29.09,0,0,0,.27,3.18,3.66,3.66,0,0,0,.49,1.31C245.31,283.36,255.06,285,284.56,280.86Z"/><path class="cls-4" d="M503.52,331c2.23-5,15.57-19.11,16.55-21.28s-5.1-15.33-7.34-17.86S495,298,493.1,302.28l-.16.36a5.71,5.71,0,0,0-.48,3.62,7.32,7.32,0,0,1-.43,4.87l-1.52,3.4c-1.48,3.31-2.87,7.52-2.42,10.56Z"/><path class="cls-4" d="M375.48,389c-4.94-6.93-1-10.61,7.32-12.27,3.05-.61,5.86-1.09,8.12-1.31,0,0,39.51-4.89,42.16-7,2.41-1.89,6.65-2.28,10.26-2.62l3.71-.36a7.32,7.32,0,0,0,4.45-2,5.71,5.71,0,0,1,3.38-1.38l.39,0c4.67-.45,12.9,4.29,14.44,12.91.59,3.33-6.35,11.82-9.21,13.13-2.16,1-19-1.89-24.45-1.37s-27.74,4.1-46.93,3.24c-.62,0-4-.35-4.52,0"/><path class="cls-4" d="M416.69,391.11l-53.83,2.67c-4.72-.11-10.7-2.32-13-4.26-7-6-7-14.9-7.5-20.64-2.12-23.77-2.72-54.84-1.49-62.58,1.57-9.91,9.25-17,10.84-18.28,4.66-3.8,11.5-3.77,15.25.93,8.3,10.39,3.94,32.82,3.8,36.19-.07,1.65-.55,6.07-.6,6.34l-1.54,32.46c.51,3.75-.63,7.09,6.14,6.82l38.4-.51a10.62,10.62,0,0,1,11,9.31v.08A10.62,10.62,0,0,1,416.69,391.11Z"/><path class="cls-4" d="M262.79,416.69h46a4.77,4.77,0,0,0,4.77-4.77h0a2.18,2.18,0,0,0-2.18-2.18H262.79a2.18,2.18,0,0,0-2.18,2.18v2.6A2.18,2.18,0,0,0,262.79,416.69Z"/><path class="cls-4" d="M181.45,414l96,2.67a5.61,5.61,0,0,0,5.41-7.1l-16.94-60.35a9.2,9.2,0,0,0-8.87-6.76l-96-1.34a5.61,5.61,0,0,0-5.41,7.1l16.94,59A9.2,9.2,0,0,0,181.45,414Z"/><circle class="cls-11" cx="214.28" cy="376.01" r="6.01"/><rect x="28.96" y="556.31" width="684.08" height="4.01" transform="translate(729.74 1124.58) rotate(-178.75)"/><path class="cls-4" d="M249,430c-5.82-.26-25.28-.76-25.28-.76s-14.29.33-19.12-9.84c-.51-1.08-2.9-9.89.17-13.53,1.36-1.62,12.13,3,14.55,3.58s20.56,6.12,24.64,7.76c2,.79,5.91.28,12.73,1.15-1.11,4.67.2,8.27-1.07,10.7a2.59,2.59,0,0,1-1.93.94C252.35,430,249.46,430,249,430Z"/></g></svg>