<svg id="Capa_1" data-name="Capa 1" xmlns="http://www.w3.org/2000/svg" viewBox="0 0 527.24 383.56"><defs><style>.cls-1{fill:#5466ff;}</style></defs><title>back</title><path class="cls-1" d="M500.36,160.39a32,32,0,0,0-5.54-.41H99.31l6.88-3.2A64,64,0,0,0,124.26,144L212.74,55.5a33.12,33.12,0,0,0,4.64-42.4,32,32,0,0,0-48-4.16l-160,160a32,32,0,0,0,0,45.26l0,0,160,160a32,32,0,0,0,48-3.2,33.12,33.12,0,0,0-4.64-42.4L124.42,240a64,64,0,0,0-16-11.68L98.82,224H493.07a33.12,33.12,0,0,0,33.76-26.88A32,32,0,0,0,500.36,160.39Z"/></svg>