<svg id="Layer_1" data-name="Layer 1" xmlns="http://www.w3.org/2000/svg" viewBox="0 0 256 256"><defs><style>.cls-1,.cls-2{fill:#fff;}.cls-2{opacity:0.3;isolation:isolate;}.cls-3{fill:#5466ff;}</style></defs><title>services icons</title><path class="cls-1" d="M90.33,215H36V160.68L136.74,59.94l55.84,52.81Z"/><path class="cls-2" d="M188.18,31.74C195,33.11,201.77,36.68,208,43s9.85,13,11.22,19.87a34.88,34.88,0,0,1-1.26,18,45,45,0,0,1-6.07,11.77c-1,1.39-1.9,2.5-2.59,3.29l-16.77,16.89L136.64,60l11.42-11.42,6.12-6.1c.24-.22.56-.51,1-.86.79-.69,1.9-1.59,3.29-2.59A45,45,0,0,1,170.2,33,34.87,34.87,0,0,1,188.18,31.74Z"/><circle class="cls-3" cx="190.09" cy="200.09" r="14.91"/></svg>