<svg id="Layer_1" data-name="Layer 1" xmlns="http://www.w3.org/2000/svg" viewBox="0 0 256 256"><defs><style>.cls-1{fill:#f6f7ff;stroke:#1d243d;stroke-width:4px;opacity:0.5;isolation:isolate;}.cls-2{opacity:0.4;}</style></defs><title>services icons</title><path class="cls-1" d="M81.33,215H27V160.68L127.74,59.94l55.84,52.81Z"/><path d="M181.72,27.53c7.21,1.44,14.34,5.21,21,11.84s10.39,13.75,11.83,21a36.8,36.8,0,0,1-1.33,19,47.42,47.42,0,0,1-6.4,12.42c-1,1.47-2,2.64-2.73,3.47L186.36,113l-59-55.61,12-12,6.45-6.43c.25-.23.59-.54,1-.9.83-.72,2-1.68,3.47-2.73a47.45,47.45,0,0,1,12.42-6.41A36.78,36.78,0,0,1,181.72,27.53Z"/><circle class="cls-2" cx="181.09" cy="200.09" r="14.91"/></svg>