<svg id="Layer_1" data-name="Layer 1" xmlns="http://www.w3.org/2000/svg" viewBox="0 0 256 256"><defs><style>.cls-1{fill:#fff;}.cls-2,.cls-3,.cls-4{fill:#5466ff;}.cls-3{opacity:0.4;}.cls-4{opacity:0.3;}</style></defs><title>services icons</title><path class="cls-1" d="M41.44,224.49a36.1,36.1,0,0,1-36.1-36.1V84.61a36.1,36.1,0,0,1,36.1-36.1H212.9A36.1,36.1,0,0,1,249,84.61V188.39a36.1,36.1,0,0,1-36.1,36.1Z"/><path class="cls-2" d="M59.49,116.2A13.54,13.54,0,1,1,73,102.66,13.54,13.54,0,0,1,59.49,116.2Z"/><path class="cls-3" d="M104.61,116.2a13.54,13.54,0,1,1,13.54-13.54A13.54,13.54,0,0,1,104.61,116.2Z"/><path class="cls-4" d="M149.73,116.2a13.54,13.54,0,1,1,13.54-13.54A13.54,13.54,0,0,1,149.73,116.2Z"/></svg>