<svg id="Layer_1" data-name="Layer 1" xmlns="http://www.w3.org/2000/svg" viewBox="0 0 256 256"><defs><style>.cls-1{fill:#f6f7ff;stroke:#1d243d;stroke-width:4px;opacity:0.5;isolation:isolate;}.cls-2{opacity:0.4;}.cls-3{opacity:0.3;}</style></defs><title>services icons</title><path class="cls-1" d="M41.07,220.46A27.07,27.07,0,0,1,14,193.39V89.61A27.07,27.07,0,0,1,41.07,62.54H212.54a27.07,27.07,0,0,1,27.07,27.07V193.39a27.07,27.07,0,0,1-27.07,27.07Z"/><path d="M59.12,121.2a13.54,13.54,0,1,1,13.54-13.54A13.54,13.54,0,0,1,59.12,121.2Z"/><path class="cls-2" d="M104.24,121.2a13.54,13.54,0,1,1,13.54-13.54A13.54,13.54,0,0,1,104.24,121.2Z"/><path class="cls-3" d="M149.36,121.2a13.54,13.54,0,1,1,13.54-13.54A13.54,13.54,0,0,1,149.36,121.2Z"/></svg>