<svg id="Layer_1" data-name="Layer 1" xmlns="http://www.w3.org/2000/svg" viewBox="0 0 256 256"><defs><style>.cls-1,.cls-2{fill:#fff;}.cls-1,.cls-2,.cls-3{stroke:#000;stroke-miterlimit:10;}.cls-2,.cls-3{stroke-width:3px;}.cls-3{fill:none;}</style></defs><title>why us</title><path class="cls-1" d="M43.19,98.74l0,.44"/><path class="cls-2" d="M49.66,123.87s-3.86,44.5-7.48,60.27,27,22.81,46,21.81c12.57-.66,35.56-7.38,18.92-20.28,0,0-9.33-7.18-2.68-30.58C104.46,155.09,53.5,115.35,49.66,123.87Z"/><path d="M104.46,155.09S80.84,136.67,64.55,127.6l-5.19,8.56c3.16,23.87,24.11,58.91,47.78,49.5C107.14,185.67,97.81,178.49,104.46,155.09Z"/><path class="cls-2" d="M55.31,112.57c-5.4-12.41-15.89-6.66-12.85,4.67,3.46,13,12.25,17.7,14.71,12.55,0,0,7.95,29.18,27.46,37s28.56-6.16,34.08-32.35c4.75-22.52,2.75-44.87-.07-52.12-7.35-18.92-33.38-20.92-48.92-9.37C50.71,87.07,55.31,112.57,55.31,112.57Z"/><path d="M55.31,112.57c3.72,7,8.15,11.31,10.52,6.54s2.76-24,17.37-20,27.22,8.41,40.91-2.92c17.7-14.64,5-43.33-14.79-36.84,0,0,1.42-13.68-14.26-9.2-14.36,4.1-13.29,6.75-27.77,2.94C59,50.92,32.21,72.77,43.9,107.38,43.9,107.38,49.53,101.74,55.31,112.57Z"/><path class="cls-3" d="M41.5,187.5s-6,3-39,21"/><path d="M195.13,108a20.86,20.86,0,0,1,6.59,38.46,2.31,2.31,0,0,0-1.1,1.55l-1.73,8.88-10.52-2,2.68-13.8a9,9,0,1,0-9.41-10.64,2.31,2.31,0,0,0,4.54.88,4.32,4.32,0,1,1,3.42,5.07,2.31,2.31,0,0,0-2.71,1.83L183.83,154l-10.52-2L175,143a2.31,2.31,0,0,0-.44-1.85A20.86,20.86,0,0,1,195.13,108Z"/><path d="M197.31,165a4.14,4.14,0,0,1-4.85,3.27L175,164.88a4.14,4.14,0,0,1-3.27-4.85l.7-3.58,25.58,5Z"/><path d="M182.12,174.91a4.94,4.94,0,0,1-4-4.71l9.45,1.84A4.94,4.94,0,0,1,182.12,174.91Z"/><path d="M221.8,126a2.31,2.31,0,0,1,2.14-2.48l5.17-.38a2.31,2.31,0,0,1,.34,4.61l-5.17.38A2.31,2.31,0,0,1,221.8,126Z"/><path d="M218.77,111.68l4.57-2.46a2.31,2.31,0,0,1,2.2,4.07L221,115.76a2.31,2.31,0,1,1-2.2-4.07Z"/><path d="M222.41,135.39l4.88,1.77a2.31,2.31,0,1,1-1.58,4.35l-4.88-1.77a2.31,2.31,0,1,1,1.58-4.35Z"/><path d="M158.56,108.66l4.63,2.35a2.31,2.31,0,1,1-2.1,4.12l-4.63-2.35a2.31,2.31,0,0,1,2.1-4.12Z"/><path d="M154.43,123.09l5.18.25a2.31,2.31,0,1,1-.23,4.62l-5.18-.25a2.31,2.31,0,0,1,.23-4.62Z"/><path d="M169.28,106.4a2.31,2.31,0,0,1-.75-.61l-3.26-4a2.31,2.31,0,0,1,3.6-2.91l3.26,4a2.31,2.31,0,0,1-2.85,3.52Z"/></svg>