<svg id="Layer_1" data-name="Layer 1" xmlns="http://www.w3.org/2000/svg" viewBox="0 0 256 256"><defs><style>.cls-1{fill:#fff;stroke-width:3px;}.cls-1,.cls-2,.cls-3{stroke:#000;stroke-miterlimit:10;}.cls-2,.cls-3{fill:#1a2e35;}.cls-2{stroke-width:2px;}</style></defs><title>why us</title><path class="cls-1" d="M41.77,205s26-18.54,111.23,11.12"/><path d="M208,90.59H162a2,2,0,0,0-2,2v64.78a2,2,0,0,0,2,2h46a2,2,0,0,0,2-2V92.61A2,2,0,0,0,208,90.59ZM172.1,145.3a2.69,2.69,0,1,1,2.69-2.69A2.69,2.69,0,0,1,172.1,145.3Zm0-11.56a2.69,2.69,0,1,1,2.69-2.69A2.69,2.69,0,0,1,172.1,133.74Zm0-11.56a2.69,2.69,0,1,1,2.69-2.69A2.69,2.69,0,0,1,172.1,122.18Zm2.82-17.47a2,2,0,0,1,2-2h16.13a2,2,0,1,1,0,4H176.94A2,2,0,0,1,174.92,104.7Zm23.66,39.92H180.83a2,2,0,0,1,0-4h17.74a2,2,0,0,1,0,4Zm0-11.56H180.83a2,2,0,0,1,0-4h17.74a2,2,0,0,1,0,4Zm0-11.56H180.83a2,2,0,0,1,0-4h17.74a2,2,0,1,1,0,4Z"/><path class="cls-2" d="M130.15,112.37c-.27,0,0-3-1.53-7.36a7.38,7.38,0,0,0-1.86-3c-.92-.87-2.12-.32-2.87.94-1.51,2.48-2,6-2.05,9.44s.54,7,2.05,9.45c.76,1.26,2,1.81,2.88.94a7.38,7.38,0,0,0,1.86-3c1.5-4.36,1.26-7.39,1.53-7.36a5.67,5.67,0,0,1,.16,2.06,19.71,19.71,0,0,1-.88,5.58,8,8,0,0,1-2,3.51,2.5,2.5,0,0,1-2.48.58,4.08,4.08,0,0,1-2-1.67c-1.79-2.85-2.28-6.42-2.34-10.07s.55-7.21,2.34-10.06a4.08,4.08,0,0,1,2-1.67,2.5,2.5,0,0,1,2.48.58,8,8,0,0,1,2,3.51,19.71,19.71,0,0,1,.88,5.58A5.68,5.68,0,0,1,130.15,112.37Z"/><path d="M54.13,155.28c-8.43-14.24-10.84-33.22-13-49.63-1-7.72-2.77-18.72,2.67-23.55,5.82-5.18,6.38-13.16,13.07-17.15s15.76-4.33,22.06.25"/><path class="cls-1" d="M77.49,198.31h0c12.48.19,19,7.6,19.9-14.64.52-12.44,5.72-24.8,5.72-24.8s18.86-1.71,20.28-20.36.92-61.73.92-61.73h0a65,65,0,0,0-65.72,4l1,65.67-.1,35.33C59.55,193.66,65.67,197.37,77.49,198.31Z"/><path d="M104.86,115.67c-3.21-4-8.44-5.6-12.74-2.82a10.85,10.85,0,0,0-3.65,13.55,14.29,14.29,0,0,0,9.13,6.95,7.16,7.16,0,0,1,5.59,7.73c-.55,4.68-8.35,6.42-11.87,10.28-5.49,6-17.5,8.53-25.58,9.46s-7,1-11.59-5.55c-3.35-4.76-4.39-9.34-4.49-15.16L48.9,98.84c-.09-5-.17-10,1-14.81s3.69-9.51,7.85-12.22c4.55-3,10.3-3.21,15.47-4.87,6.47-2.07,12-6.34,18-9.42s13.47-4.9,19.53-1.84c4.35,2.2,7.26,6.56,11.49,9,6,3.45,14.24,2.69,17.14,11.57a15,15,0,0,1-.13,9.49c-4.13,12.06-19.09,16.88-29.84,11.63-.22,2,1.78,6.6-.39,13.05-.69,2.06-.95,5.21-4.17,5.26"/><ellipse class="cls-3" cx="117.54" cy="113.54" rx="12.82" ry="0.61" transform="translate(-16.8 20.49) rotate(-9.3)"/><path d="M55.63,173.48c.93,2.38,4,3.27,6.49,2.6s4.42-2.49,6.27-4.25,3.77-3.6,6.21-4.34c5-1.51,11.07,1.81,15.25-1.28,3.81-2.81,3.31-9.18,7.06-12.08,2-1.54,4.76-1.74,6.78-3.23,3.78-2.8,3.16-9,0-12.5s-8-4.87-12.49-6.13L51.08,149.36Z"/><path d="M56.7,75.11c1.19,4.38-2.89,8.12-6.45,9.15s-7.87,1.69-9.5,5.84c-1.41,3.6,0,8.17-1.27,11.85-2.45,7-12.34,5.53-14.28,12.78-1.33,5,2.35,10.1,1.89,15.32-.4,4.5-3.64,7.56-6.48,10.28s-5.84,6.48-5.39,11c.52,5.18,5.5,8.77,5,14s-5.88,7.49-6.66,12.54c-.93,6,5,9.84,6.87,15.44,1.45,4.28.56,9.8,3,13.27s7,2.86,10.64,1.87c12.23-3.29,21.1,8.19,39.64-6.64-2.48-7.36-3.1-19.22.44-25.85s8.24-12.23,11.28-19.25,4-16.41.06-22.63"/></svg>