<svg id="Layer_1" data-name="Layer 1" xmlns="http://www.w3.org/2000/svg" viewBox="0 0 256 256"><defs><style>.cls-1,.cls-2{fill:#fff;stroke:#000;stroke-miterlimit:10;}.cls-1{stroke-width:3px;}.cls-2{stroke-width:2px;}</style></defs><title>why us</title><path class="cls-1" d="M63.77,205s26-18.54,111.23,11.12"/><path d="M200,101.76A16.24,16.24,0,1,0,216.24,118,16.26,16.26,0,0,0,200,101.76Zm8.79,20.18H197.07V110.21h3.87v7.86h7.86Z"/><path d="M233,126.12V109.88h-5.25a28.7,28.7,0,0,0-2.39-5.75l3.72-3.72L217.59,88.92l-3.72,3.72a28.65,28.65,0,0,0-5.75-2.39V85H191.88v5.25a28.7,28.7,0,0,0-5.75,2.39l-3.72-3.72-11.49,11.49,3.72,3.72a28.65,28.65,0,0,0-2.39,5.75H167v16.25h5.25a28.7,28.7,0,0,0,2.39,5.75l-3.72,3.72,11.49,11.49,3.72-3.72a28.65,28.65,0,0,0,5.75,2.39V151h16.25v-5.25a28.7,28.7,0,0,0,5.75-2.39l3.72,3.72,11.49-11.49-3.72-3.72a28.7,28.7,0,0,0,2.39-5.75ZM200,140a22,22,0,1,1,22-22A22,22,0,0,1,200,140Z"/><path d="M48.82,117.62c-3.34,12.14-8.38,21.88-13.31,26.76s-10.19,10.6-10,17.54c.07,2.72,1,5.61-.21,8.06-1.54,3.18-5.66,3.87-8.75,5.6-4.56,2.56-7.1,8-6.92,13.22a21.24,21.24,0,0,0,6.5,13.88c3.83,3.86,9.9,6.55,14.66,3.93,2.87-1.59,4.51-4.69,6-7.64Q48,176.09,57.1,152.24"/><path d="M79.51,65.63a32.1,32.1,0,0,1,34.61-8.21A32.1,32.1,0,0,1,134,86.9c-.09,8.13-3.27,16.65-.05,24.12,2.27,5.28,7.53,9.28,8.25,15,.84,6.62-4.82,12.63-4.53,19.29.19,4.35,2.92,8.2,6.06,11.22s7,5.34,9.67,8.78C161,175,160.31,205.45,151,207c-6,1-28-5-37.75-7.31"/><path d="M51.45,98.12a9,9,0,0,0-3.12-10.64,9.63,9.63,0,0,0-11.21.57,10.44,10.44,0,0,0-3.21,10.88,11,11,0,0,0,11,7.53,11,11,0,0,0,9.77-9"/><path class="cls-2" d="M64.09,76l0,6.18,2.35,87.17c-.15,10.74,17.26,28.63,27.19,32.2,2.28.82,10.22,3.73,14.08,2.51,11.67-3.7-1-18.71-.67-28.46a186.44,186.44,0,0,0-1.23-24.27s14.74-2,18.3-21.08c1.77-9.48,1.73-25.09,1.27-37.87A20.22,20.22,0,0,0,103.55,73Z"/><path d="M106.21,150a48.71,48.71,0,0,1-25.44-7.54s5.86,13.32,25.06,12.06Z"/><path d="M88.15,70c5.11,6.8-.21,16.43-6.1,22.56S69,105.8,70.59,114.16c1.86,9.69,15.11,15.89,13.14,25.55-.72,3.53-3.5,6.54-3.51,10.14,0,6.5,8.39,9.66,10.81,15.69,3.32,8.26-5.8,16.51-5.94,25.41C85,196,87.87,200.72,88,205.78c.31,10.36-11.93,17.94-22,15.39s-16.92-12.35-19.11-22.47,1.13-24.36,2.75-34.6l-17.4,4c-3.24-3.09,1.19-6.38,1.92-10.79,1.83-11.07,9.11-20.45,12.57-31.13,3-9.33,3-19.33,4.37-29S55.49,77.3,62.92,70.89s20.28-7.2,26.28.55"/></svg>