<svg id="Layer_1" data-name="Layer 1" xmlns="http://www.w3.org/2000/svg" viewBox="0 0 256 256"><defs><style>.cls-1{fill:none;}.cls-1,.cls-2{stroke:#000;stroke-miterlimit:10;stroke-width:3px;}.cls-2{fill:#fff;}</style></defs><title>why us</title><path class="cls-1" d="M54.5,192.5s-6,3-39,21"/><path class="cls-1" d="M108.5,193.5s30,13,52,23"/><path d="M47.89,75C47.58,83.71,36,89,36.15,97.67c.06,3.73,2.38,7.08,2.83,10.78.61,5-2.17,9.68-3.2,14.58-2.12,10.11,3.76,20.78,12.49,26.31s19.67,6.59,29.91,5.19"/><path d="M117.82,72.9c-.34,4.66,2.74,8.83,5.84,12.33s6.55,7.14,7.23,11.77c1.19,8.2-6.84,15.81-5.18,23.93.89,4.35,4.45,7.85,5.08,12.24s-1.66,8.41-4.49,11.65-6.09,2.76-8.59,6.26a35.13,35.13,0,0,1-10.84,9.63c-9,4.93-19.8-2.2-24.14-3.48"/><path d="M46.15,80c-.12-4.23,3.79-7.5,7.73-9s8.31-2.13,11.82-4.49c3.11-2.09,5.2-5.35,7.83-8a26,26,0,0,1,43.79,11.95c1.51,6,.48,13.14-4.27,17.14-5.51,4.64-13.68,3.61-20.74,2.17s-15-2.87-20.94,1.28c-3.55,2.5-5.59,6.57-7.76,10.33s-4.9,7.61-9,9-9.69-1-9.85-5.37"/><path class="cls-2" d="M102.36,178.53c.06-9.7.12-19.16.12-19.11S117.9,156.83,121,136.7c1.57-10,1-26.41.15-39.82-.79-12.07-8.82-26.86-20.84-25.56L62.83,80.9a7.08,7.08,0,0,0-6.32,7.19h0l3.44,91.12c.44,11.56,10.05,16.64,21.62,16.41h0C93.07,195.39,102.29,190,102.36,178.53Z"/><path d="M103,158s-10,2-34-10c.23,0,4,21,33,21Z"/><path d="M54.31,148.2c5.53,1.12,6-1.7,10.16-5.54A18.17,18.17,0,0,0,70,127.33c-.63-4.94-3.29-10-1.58-14.64,2.26-6.18,10.93-8.09,13.23-14.26,1.34-3.59.14-7.78,1.65-11.3,1.42-3.3,4.9-5.21,8.29-6.43s7-2.07,9.85-4.28S106.09,70,104.26,67a190.62,190.62,0,0,0-44,10.68c-3.28,1.23-6.73,2.7-8.67,5.62-2.05,3.09-2,7.08-1.78,10.78l2.53,54.19"/><path d="M41.66,107.16A15.89,15.89,0,0,0,29.07,93.44a15.89,15.89,0,0,0-16.63,8.37c-2.8,5.68-1.83,12.6.78,18.37,3.1,6.86,9.46,13.12,17,12.78,7.07-.32,12.77-6.53,14.81-13.31s1.22-14,.37-21.08"/><path class="cls-2" d="M108,193.94a105,105,0,0,0,.11-12,8,8,0,0,0-1.18-4.53c-1.52-2-4.41-2.12-6.91-2.07L63.41,176c-3,.06-6.26.26-8.3,2.41s-2,5.41-1.88,8.39a38,38,0,0,0,.35,4.16,3.91,3.91,0,0,0,.64,1.72C57.5,197.5,82.5,202.5,108,193.94Z"/><g id="_09-timer" data-name=" 09-timer"><path d="M223.81,111.53l4.31-4.31L223.88,103l-4.61,4.61A29.81,29.81,0,0,0,205,102.25V96.1h6v-6H193v6h6v6.15a29.81,29.81,0,0,0-14.27,5.34L180.12,103l-4.24,4.24,4.31,4.31a30,30,0,1,0,43.62,0ZM202,156.1a24,24,0,1,1,24-24A24,24,0,0,1,202,156.1Z"/><path d="M202,114.1v18H184a18,18,0,1,0,18-18Z"/></g></svg>