<svg id="Layer_1" data-name="Layer 1" xmlns="http://www.w3.org/2000/svg" viewBox="0 0 256 256"><defs><style>.cls-1{fill:#fff;stroke:#000;stroke-miterlimit:10;stroke-width:3px;}.cls-2{fill:#010002;}</style></defs><title>why us</title><path class="cls-1" d="M39,104.06l8,65.31-3.54,33.46,51,4.25-.55-29.38s22.18-2.75,23.15-18.32c.62-9.94-5.62-79.69-5.62-79.69Z"/><path d="M54.7,181.81c-5.79-3.93-8.72-6.54-11.26-13.06S39.25,155.37,36.35,149c-3-6.69-7.41-12.71-10.41-19.41s-4.52-14.6-1.6-21.34c0,0,1-8.63,12.67-11.78,0,0,6.57-18.3,21.64-20C79.14,74.13,78.43,68.1,91.8,63c12.5-4.78,17.34,6.24,17.34,6.24s8.23,3.77,10.16,11.3l.05.2A17.91,17.91,0,0,1,111,100.4l-2.5,1.45c-2.35,1.35-4.81,2.76-6.3,5-2.21,3.38-1.74,7.81-.76,11.73s2.41,7.88,1.86,11.87c-.19,1.36-1,3-2.35,2.91-1.64-.08-2-2.26-2.51-3.82-1.43-4.56-8.15-6.82-11.63-2.53a7.27,7.27,0,0,0-.3,9.11c2.25,2.94,6.2,4.78,7.63,8.27,2.41,5.87-3.63,12.73-5.66,16.63A25.33,25.33,0,0,1,86.05,165a58.36,58.36,0,0,1-17.13,14.91c-4.83,2.91-11.28,3.8-16.06.8"/><path class="cls-1" d="M2.07,211.68s43.87-30.3,147.43,13.82"/><path class="cls-2" d="M170.23,136.18,141.66,120.6V112l28.56-15.49v10.13l-19.9,9.56,19.9,9.92Z"/><path class="cls-2" d="M175.1,141.63,194,91h6l-19,50.6Z"/><path class="cls-2" d="M206.44,136.18V126.1l19.9-9.84-19.9-9.77v-10L235,112v8.58Z"/></svg>