<svg id="Layer_1" data-name="Layer 1" xmlns="http://www.w3.org/2000/svg" viewBox="0 0 256 256"><defs><style>.cls-1,.cls-2{fill:#fff;stroke:#000;stroke-miterlimit:10;}.cls-1{stroke-width:3px;}.cls-2{stroke-width:2px;}</style></defs><title>why us</title><path class="cls-1" d="M4.18,186.78s41.67-33.25,148,3.62"/><path class="cls-1" d="M39.63,120.75s-.72,45,0,58.49,21.56,25.55,29.3,25.88S93.8,194,96.49,174.87V134.19Z"/><path d="M39.35,142.22c.09-13.05.27-24.47.27-24.47l56.86,13.45v33.35c-4.74,20.85-36.18,15.15-43.67-4.61C48.53,148.61,44.86,145.25,39.35,142.22Z"/><path class="cls-1" d="M108.3,97.27c3.35,32.9-4.63,66.63-26.21,66.84-26.76.25-41.31-38-43.89-59.68S45.64,67.17,64.33,64C82.11,61,105.47,69.42,108.3,97.27Z"/><path class="cls-2" d="M35,117.24c1.41,6.58,4.62,11.57,7.15,11.15s3.44-6.1,2-12.68-4.62-11.57-7.15-11.15S33.62,110.66,35,117.24Z"/><path d="M109,105c3.44-6.51,3.49-8.95,2.25-19.11s-9.87-9.72-10.1-14.09S94.24,56.27,71.46,57.44,51,68.88,44.06,70.22s-17.19,9.55-9.48,34.86c0,0,6.22,0,9.81,12.26a1.12,1.12,0,0,0,2,.19,16.42,16.42,0,0,0,1.63-5c1.11-6.39,8.77,2.34,8.85-10.2.05-8.93,23.17,5.3,37.86-10.55,0,0,2.68,2.95,9.48,2.11C108.18,93.42,109,105,109,105Z"/><path class="cls-1" d="M96.49,174.87v-9.79c8.5,3.73,16.37,6.89,17.24,11.75,1.7,9.53-6,37.22-17.24,47,0,0-1.88,2.4-5.38-3s-15.49-17.6-19.64-16l0,0C79.91,203.1,94.06,192.14,96.49,174.87Z"/><path class="cls-1" d="M25.43,173.2c2.35-5.32,10-9.64,13.89-11.49,0,7.23.11,13.68.32,17.53.63,11.69,16.47,22.37,25.67,25.17h0c-4.35-1.69-20.32,15.32-23.09,20s-6.19-.77-11.81-13.45C24.69,198,21.59,181.88,25.43,173.2Z"/><path d="M157.23,152h43.13a9.12,9.12,0,0,1-1.28-4.62v-4.62H154.92a2.31,2.31,0,0,0-2.31,2.31v2.31A4.62,4.62,0,0,0,157.23,152Z"/><path d="M157.23,98.92v39.23h41.85V110.46a9.24,9.24,0,0,1,9.23-9.23h18.46V98.92A6.93,6.93,0,0,0,219.85,92H164.15A6.93,6.93,0,0,0,157.23,98.92Z"/><path d="M226.77,105.85H208.31a4.62,4.62,0,0,0-4.62,4.62v36.92a4.62,4.62,0,0,0,4.62,4.62h18.46a4.62,4.62,0,0,0,4.62-4.62V110.46A4.62,4.62,0,0,0,226.77,105.85Zm-9.23,6.92a2.31,2.31,0,1,1-2.31,2.31A2.31,2.31,0,0,1,217.54,112.77Zm2.31,32.31h-4.62a2.31,2.31,0,0,1,0-4.62h4.62a2.31,2.31,0,1,1,0,4.62Z"/></svg>